<svg width="32" height="32" viewBox="0 0 32 32" fill="none" xmlns="http://www.w3.org/2000/svg">
<g id="vuesax/outline/book-saved">
<g id="book-saved">
<path id="Vector" d="M15.9997 29.44C15.5997 29.44 15.1997 29.3467 14.8664 29.16C12.373 27.8 7.99968 26.36 5.25301 26L4.86637 25.9467C3.11971 25.7334 1.67969 24.0933 1.67969 22.32V6.21331C1.67969 5.15998 2.09303 4.20002 2.85303 3.50669C3.61303 2.81335 4.59965 2.48 5.63965 2.57334C8.55965 2.81334 12.9863 4.28002 15.493 5.84002L15.813 6.02671C15.9063 6.06671 16.1064 6.08004 16.1864 6.02671L16.3997 5.89332C17.293 5.33332 18.413 4.78664 19.6396 4.29331C19.9463 4.17331 20.293 4.21333 20.573 4.4C20.853 4.58666 21.013 4.89332 21.013 5.22666V8.79998L22.1197 8.06666C22.453 7.84 22.893 7.84 23.2263 8.06666L24.333 8.79998V3.70672C24.333 3.22672 24.6797 2.81332 25.1463 2.71999C25.533 2.65332 25.9197 2.6 26.2664 2.57334C26.293 2.57334 26.3997 2.57334 26.4264 2.57334C27.3997 2.49334 28.3997 2.8267 29.1463 3.52003C29.9063 4.21337 30.3197 5.17332 30.3197 6.22666V22.32C30.3197 24.1067 28.8797 25.7334 27.1197 25.9467L26.6797 26C23.933 26.36 19.533 27.8133 17.093 29.16C16.7997 29.3467 16.3997 29.44 15.9997 29.44ZM5.30632 4.54665C4.87965 4.54665 4.49303 4.69332 4.18636 4.97332C3.85303 5.27999 3.66634 5.71998 3.66634 6.21331V22.32C3.66634 23.1067 4.34636 23.8667 5.10636 23.9733L5.50635 24.0267C8.50635 24.4267 13.1064 25.9333 15.773 27.4C15.893 27.4533 16.0663 27.4667 16.133 27.44C18.813 25.96 23.4264 24.4401 26.4397 24.0401L26.893 23.9867C27.653 23.8933 28.333 23.12 28.333 22.3333V6.24C28.333 5.74667 28.1463 5.32001 27.813 5.00001C27.4797 4.69335 27.013 4.54667 26.533 4.57334C26.493 4.57334 26.373 4.57334 26.3464 4.57334V10.6667C26.3464 11.04 26.1463 11.3733 25.813 11.5466C25.4797 11.72 25.093 11.7067 24.7864 11.4933L22.6797 10.0934L20.573 11.4933C20.2663 11.6933 19.8796 11.72 19.5463 11.5466C19.2263 11.3733 19.013 11.04 19.013 10.6667V6.76002C18.4397 7.04002 17.9196 7.32002 17.4663 7.58668L17.253 7.71998C16.5197 8.17332 15.4797 8.17333 14.773 7.73333L14.453 7.53338C12.1997 6.12005 8.09299 4.75998 5.47966 4.54665C5.41299 4.54665 5.35965 4.54665 5.30632 4.54665Z" fill="#292D32"/>
<path id="Vector_2" d="M16 28.32C15.4533 28.32 15 27.8667 15 27.32V7.31999C15 6.77333 15.4533 6.31999 16 6.31999C16.5467 6.31999 17 6.77333 17 7.31999V27.32C17 27.88 16.5467 28.32 16 28.32Z" fill="#292D32"/>
<path id="Vector_3" d="M25.3333 11.6667C25.1333 11.6667 24.9467 11.6133 24.7734 11.4933L22.6667 10.0933L20.56 11.4933C20.2533 11.6933 19.8667 11.7199 19.5334 11.5466C19.2134 11.3733 19 11.04 19 10.6667V5.22663C19 4.8133 19.2533 4.45328 19.6266 4.29328C21.4666 3.55995 23.48 2.98662 25.1733 2.71996C25.4667 2.66662 25.76 2.76001 25.9867 2.94668C26.2133 3.13335 26.3333 3.41336 26.3333 3.70669V10.6667C26.3333 11.04 26.1333 11.3733 25.8 11.5466C25.6533 11.6266 25.4933 11.6667 25.3333 11.6667ZM22.6667 7.8933C22.8533 7.8933 23.0533 7.94664 23.2266 8.06664L24.3333 8.79995V4.91999C23.2667 5.15999 22.1067 5.50665 21 5.91999V8.79995L22.1067 8.06664C22.28 7.94664 22.48 7.8933 22.6667 7.8933Z" fill="#292D32"/>
</g>
</g>
</svg>
