<svg width="33" height="32" viewBox="0 0 33 32" fill="none" xmlns="http://www.w3.org/2000/svg">
<g id="vuesax/outline/status-up">
<g id="status-up">
<path id="Vector" d="M9.67334 25.2C9.12667 25.2 8.67334 24.7467 8.67334 24.2V21.44C8.67334 20.8933 9.12667 20.44 9.67334 20.44C10.22 20.44 10.6733 20.8933 10.6733 21.44V24.2C10.6733 24.76 10.22 25.2 9.67334 25.2Z" fill="#292D32"/>
<path id="Vector_2" d="M16.5 25.2C15.9533 25.2 15.5 24.7467 15.5 24.2V18.6667C15.5 18.12 15.9533 17.6667 16.5 17.6667C17.0467 17.6667 17.5 18.12 17.5 18.6667V24.2C17.5 24.76 17.0467 25.2 16.5 25.2Z" fill="#292D32"/>
<path id="Vector_3" d="M23.3267 25.2C22.78 25.2 22.3267 24.7467 22.3267 24.2V15.9067C22.3267 15.36 22.78 14.9067 23.3267 14.9067C23.8733 14.9067 24.3267 15.36 24.3267 15.9067V24.2C24.3267 24.76 23.8867 25.2 23.3267 25.2Z" fill="#292D32"/>
<path id="Vector_4" d="M9.67331 17.5733C9.21998 17.5733 8.81998 17.2667 8.69998 16.8133C8.56664 16.28 8.88664 15.7333 9.43331 15.6C14.34 14.3733 18.66 11.6933 21.9533 7.86666L22.5666 7.14666C22.9266 6.73333 23.5533 6.67999 23.98 7.03999C24.3933 7.39999 24.4466 8.02666 24.0866 8.45333L23.4733 9.17333C19.9133 13.3333 15.22 16.2267 9.91331 17.5467C9.83331 17.5733 9.75331 17.5733 9.67331 17.5733Z" fill="#292D32"/>
<path id="Vector_5" d="M23.3267 12.6933C22.78 12.6933 22.3267 12.24 22.3267 11.6933V8.8H19.42C18.8734 8.8 18.42 8.34667 18.42 7.8C18.42 7.25334 18.8734 6.8 19.42 6.8H23.3267C23.8734 6.8 24.3267 7.25334 24.3267 7.8V11.7067C24.3267 12.2533 23.8867 12.6933 23.3267 12.6933Z" fill="#292D32"/>
<path id="Vector_6" d="M20.5 30.3333H12.5C5.25996 30.3333 2.16663 27.24 2.16663 20V12C2.16663 4.76001 5.25996 1.66667 12.5 1.66667H20.5C27.74 1.66667 30.8333 4.76001 30.8333 12V20C30.8333 27.24 27.74 30.3333 20.5 30.3333ZM12.5 3.66667C6.35329 3.66667 4.16663 5.85334 4.16663 12V20C4.16663 26.1467 6.35329 28.3333 12.5 28.3333H20.5C26.6466 28.3333 28.8333 26.1467 28.8333 20V12C28.8333 5.85334 26.6466 3.66667 20.5 3.66667H12.5Z" fill="#292D32"/>
</g>
</g>
</svg>
