<svg width="40" height="40" viewBox="0 0 40 40" fill="none" xmlns="http://www.w3.org/2000/svg">
<path d="M20.0002 3.33398C10.8168 3.33398 3.3335 10.8173 3.3335 20.0007C3.3335 29.184 10.8168 36.6673 20.0002 36.6673C29.1835 36.6673 36.6668 29.184 36.6668 20.0007C36.6668 10.8173 29.1835 3.33398 20.0002 3.33398ZM24.6502 20.884L18.7668 26.7673C18.5168 27.0173 18.2002 27.134 17.8835 27.134C17.5668 27.134 17.2502 27.0173 17.0002 26.7673C16.5168 26.284 16.5168 25.484 17.0002 25.0007L22.0002 20.0007L17.0002 15.0007C16.5168 14.5173 16.5168 13.7173 17.0002 13.234C17.4835 12.7507 18.2835 12.7507 18.7668 13.234L24.6502 19.1173C25.1502 19.6007 25.1502 20.4007 24.6502 20.884Z" fill="#2E58EA"/>
</svg>
