<svg width="965" height="1025" viewBox="0 0 965 1025" fill="none" xmlns="http://www.w3.org/2000/svg">
<path fill-rule="evenodd" clip-rule="evenodd" d="M26.6279 116.318L31.4275 111.995L36.2976 107.75L41.2366 103.586L46.2427 99.5034L51.3146 95.5041L56.4504 91.5892L61.6486 87.7601L66.9073 84.0178L72.2247 80.3635L77.599 76.7982L83.028 73.3225L88.5103 69.9376L94.0433 66.6441L99.6251 63.4422L105.254 60.3327L110.927 57.3156L116.642 54.3911L122.398 51.5593L128.191 48.8196L134.019 46.1722L139.881 43.6164L145.773 41.1515L151.694 38.7767L157.641 36.491L163.612 34.2936L169.605 32.183L175.617 30.1581L181.647 28.2172L187.692 26.359L193.749 24.5818L199.819 22.8837L205.897 21.2632L211.983 19.7181L218.075 18.2468L224.171 16.8471L230.269 15.5171L236.37 14.2551L242.47 13.0591L248.568 11.9273L254.665 10.8578L260.759 9.84911L266.848 8.89932L272.933 8.00727L279.012 7.17148L285.085 6.39084L291.151 5.66437L297.21 4.99135L303.263 4.37107L309.307 3.8033L315.344 3.28779L321.373 2.82421L327.393 2.41234L333.405 2.05211L339.408 1.7434L345.402 1.48629L351.386 1.28058L357.362 1.1265L363.327 1.02414L369.283 0.973636L375.229 0.975433L381.164 1.02974L387.088 1.13688L393.002 1.29736L398.904 1.51163L404.795 1.78025L410.673 2.10399L416.539 2.48314L422.392 2.91866L428.232 3.41123L434.058 3.96155L439.87 4.57052L445.666 5.23902L451.446 5.96761L457.211 6.75751L462.957 7.60937L468.686 8.52404L474.396 9.50242L480.087 10.5455L485.756 11.6541L491.404 12.829L497.03 14.0709L502.632 15.3805L508.209 16.7586L513.76 18.2058L519.284 19.7227L524.78 21.3098L530.247 22.9676L535.683 24.6962L541.088 26.4961L546.459 28.3674L551.797 30.3101L557.099 32.3242L562.365 34.4096L567.593 36.566L572.783 38.793L577.933 41.0901L583.042 43.4566L588.109 45.8919L593.134 48.3954L598.115 50.9658L603.052 53.6023L607.944 56.3038L612.79 59.0692L617.59 61.897L622.342 64.7861L627.048 67.7347L631.705 70.7417L636.315 73.805L640.877 76.9232L645.39 80.0946L649.855 83.3168L654.272 86.5883L658.642 89.907L662.964 93.2708L667.24 96.6778L671.469 100.125L675.653 103.612L679.793 107.135L683.889 110.692L687.943 114.282L691.956 117.901L695.928 121.549L699.863 125.221L703.76 128.918L707.622 132.635L711.45 136.372L715.247 140.127L719.013 143.897L722.752 147.682L726.464 151.478L730.151 155.285L733.816 159.102L737.461 162.927L741.087 166.759L744.697 170.598L748.291 174.441L751.872 178.29L755.442 182.143L759.001 186.001L762.552 189.863L766.095 193.729L769.632 197.601L773.163 201.478L776.689 205.361L780.21 209.252L783.728 213.151L787.241 217.059L790.752 220.977L794.259 224.907L797.763 228.849L801.265 232.804L804.764 236.774L808.261 240.759L811.755 244.762L815.246 248.782L818.734 252.821L822.219 256.881L825.701 260.962L829.178 265.067L832.651 269.195L836.119 273.349L839.581 277.53L843.036 281.739L846.483 285.977L849.921 290.246L853.35 294.547L856.768 298.88L860.173 303.249L863.565 307.653L866.941 312.094L870.299 316.573L873.64 321.092L876.959 325.65L880.256 330.251L883.528 334.894L886.774 339.581L889.99 344.312L893.175 349.089L896.326 353.912L899.441 358.781L902.517 363.699L905.551 368.665L908.541 373.679L911.483 378.743L914.376 383.856L917.215 389.019L919.999 394.232L922.724 399.494L925.387 404.807L927.986 410.169L930.516 415.581L932.975 421.041L935.36 426.55L937.668 432.107L939.897 437.711L942.043 443.361L944.104 449.056L946.078 454.796L947.963 460.578L949.755 466.401L951.454 472.265L953.058 478.166L954.564 484.106L955.971 490.08L957.277 496.088L958.482 502.128L959.583 508.198L960.58 514.296L961.472 520.421L962.257 526.57L962.935 532.742L963.506 538.934L963.968 545.144L964.322 551.371L964.566 557.612L964.701 563.865L964.726 570.129L964.641 576.401L964.445 582.678L964.14 588.96L963.725 595.244L963.199 601.527L962.563 607.808L961.818 614.085L960.962 620.355L959.997 626.616L958.921 632.867L957.737 639.104L956.442 645.327L955.038 651.532L953.525 657.718L951.902 663.881L950.169 670.021L948.327 676.134L946.375 682.219L944.312 688.272L942.139 694.292L939.855 700.275L937.459 706.219L934.951 712.121L932.33 717.979L929.597 723.789L926.751 729.548L923.791 735.255L920.72 740.906L917.535 746.498L914.239 752.029L910.832 757.495L907.315 762.894L903.688 768.224L899.953 773.481L896.11 778.663L892.163 783.768L888.111 788.793L883.957 793.735L879.704 798.593L875.351 803.365L870.903 808.047L866.362 812.639L861.729 817.138L857.008 821.543L852.201 825.852L847.312 830.063L842.342 834.176L837.296 838.189L832.176 842.101L826.986 845.912L821.729 849.62L816.408 853.224L811.027 856.726L805.59 860.124L800.1 863.418L794.561 866.608L788.976 869.696L783.349 872.68L777.684 875.562L771.984 878.342L766.254 881.022L760.496 883.602L754.715 886.084L748.913 888.469L743.096 890.758L737.265 892.954L731.424 895.057L725.578 897.07L719.728 898.996L713.878 900.835L708.032 902.591L702.192 904.265L696.361 905.86L690.542 907.38L684.737 908.826L678.95 910.201L673.182 911.508L667.435 912.751L661.713 913.931L656.017 915.052L650.348 916.118L644.709 917.13L639.101 918.093L633.525 919.009L627.984 919.882L622.477 920.714L617.006 921.508L611.571 922.268L606.174 922.997L600.814 923.698L595.493 924.373L590.21 925.025L584.965 925.657L579.759 926.273L574.592 926.874L569.462 927.464L564.37 928.045L559.314 928.62L554.296 929.191L549.313 929.76L544.365 930.33L539.45 930.904L534.569 931.483L529.72 932.069L524.901 932.666L520.112 933.275L515.35 933.897L510.616 934.536L505.906 935.193L501.22 935.87L496.557 936.568L491.913 937.291L487.288 938.04L482.681 938.816L478.088 939.622L473.508 940.46L468.94 941.331L464.38 942.238L459.828 943.182L455.28 944.165L450.736 945.189L446.191 946.254L441.644 947.361L437.093 948.512L432.534 949.707L427.966 950.946L423.386 952.229L418.791 953.557L414.178 954.929L409.546 956.345L404.891 957.803L400.212 959.304L395.505 960.846L390.768 962.427L386 964.045L381.196 965.701L376.356 967.39L371.477 969.111L366.558 970.862L361.595 972.641L356.588 974.443L351.534 976.267L346.432 978.11L341.281 979.968L336.079 981.838L330.825 983.716L325.517 985.6L320.156 987.484L314.739 989.365L309.268 991.24L303.74 993.104L298.156 994.953L292.516 996.783L286.82 998.59L281.067 1000.37L275.26 1002.12L269.397 1003.83L263.479 1005.5L257.509 1007.12L251.486 1008.7L245.412 1010.22L239.288 1011.69L233.116 1013.09L226.897 1014.42L220.634 1015.69L214.328 1016.88L207.981 1017.99L201.597 1019.02L195.176 1019.96L188.721 1020.82L182.236 1021.58L175.722 1022.24L169.183 1022.81L162.621 1023.27L156.039 1023.63L149.44 1023.87L142.828 1024.01L136.204 1024.04L129.572 1023.95L122.936 1023.74L116.297 1023.42L109.661 1022.97L103.029 1022.4L96.4051 1021.71L89.7923 1020.9L83.1938 1019.96L76.6128 1018.89L70.0524 1017.69L63.5159 1016.37L57.0065 1014.92L50.5272 1013.34L44.0814 1011.63L37.6719 1009.79L31.3021 1007.83L24.9749 1005.73L18.6935 1003.51L12.4609 1001.15L6.28021 998.671L0.154414 996.063L-5.91356 993.327L-11.9206 990.465L-17.8637 987.478L-23.7399 984.366L-29.5462 981.13L-35.2797 977.771L-40.9373 974.29L-46.516 970.689L-52.0129 966.967L-57.4249 963.126L-62.749 959.168L-67.9821 955.094L-73.1213 950.905L-78.1632 946.601L-83.1051 942.186L-87.9437 937.659L-92.6765 933.024L-97.3006 928.281L-101.813 923.433L-106.213 918.482L-110.496 913.43L-114.66 908.28L-118.705 903.033L-122.628 897.694L-126.426 892.263L-130.1 886.745L-133.646 881.142L-137.065 875.457L-140.355 869.693L-143.514 863.854L-146.544 857.943L-149.443 851.962L-152.21 845.916L-154.847 839.807L-157.352 833.64L-159.726 827.417L-161.971 821.142L-164.085 814.819L-166.071 808.452L-167.929 802.042L-169.661 795.595L-171.268 789.113L-172.752 782.601L-174.114 776.06L-175.356 769.495L-176.48 762.909L-177.49 756.305L-178.386 749.686L-179.172 743.055L-179.85 736.415L-180.423 729.768L-180.893 723.119L-181.265 716.468L-181.54 709.82L-181.722 703.175L-181.815 696.537L-181.821 689.907L-181.744 683.287L-181.587 676.68L-181.354 670.087L-181.047 663.509L-180.672 656.948L-180.229 650.405L-179.724 643.882L-179.159 637.379L-178.538 630.898L-177.862 624.438L-177.136 618L-176.36 611.585L-175.539 605.193L-174.675 598.825L-173.769 592.479L-172.824 586.157L-171.842 579.859L-170.825 573.583L-169.774 567.33L-168.691 561.099L-167.578 554.891L-166.435 548.704L-165.265 542.538L-164.067 536.393L-162.844 530.268L-161.595 524.162L-160.322 518.075L-159.025 512.006L-157.704 505.954L-156.36 499.919L-154.993 493.9L-153.603 487.897L-152.19 481.908L-150.754 475.934L-149.295 469.973L-147.812 464.025L-146.305 458.089L-144.774 452.165L-143.219 446.253L-141.638 440.351L-140.032 434.459L-138.4 428.577L-136.741 422.704L-135.055 416.84L-133.341 410.985L-131.599 405.138L-129.828 399.299L-128.027 393.467L-126.197 387.642L-124.336 381.824L-122.445 376.012L-120.523 370.206L-118.57 364.406L-116.586 358.611L-114.569 352.821L-112.52 347.036L-110.438 341.256L-108.321 335.481L-106.169 329.71L-103.981 323.944L-101.754 318.184L-99.4878 312.429L-97.1811 306.68L-94.8322 300.937L-92.4392 295.202L-90.0005 289.475L-87.5144 283.756L-84.9789 278.048L-82.3925 272.351L-79.753 266.666L-77.0585 260.996L-74.3073 255.34L-71.4974 249.702L-68.627 244.083L-65.6943 238.484L-62.6974 232.908L-59.6344 227.356L-56.504 221.832L-53.3043 216.336L-50.0341 210.872L-46.6917 205.441L-43.276 200.047L-39.7855 194.692L-36.2195 189.378L-32.5769 184.107L-28.8568 178.883L-25.0588 173.708L-21.1822 168.584L-17.2267 163.515L-13.1921 158.502L-9.07831 153.548L-4.88567 148.656L-0.614276 143.827L3.73521 139.065L8.1624 134.371L12.6662 129.747L17.2458 125.196L21.9002 120.719L26.6279 116.318Z" fill="#33E0C4" fill-opacity="0.05"/>
</svg>
