<svg width="25" height="24" viewBox="0 0 25 24" fill="none" xmlns="http://www.w3.org/2000/svg">
<g id="vuesax/bold/card-pos">
<g id="card-pos">
<path id="Vector" d="M22.5 21.25C22.5 21.66 22.16 22 21.75 22H3.25C2.84 22 2.5 21.66 2.5 21.25C2.5 20.84 2.84 20.5 3.25 20.5H21.75C22.16 20.5 22.5 20.84 22.5 21.25Z" fill="#FCFCFD"/>
<path id="Vector_2" d="M15.8904 4.51977L5.15043 15.2598C4.74043 15.6698 4.08043 15.6698 3.68043 15.2598H3.67043C2.28043 13.8598 2.28043 11.5998 3.67043 10.2098L10.8204 3.05977C12.2204 1.65977 14.4804 1.65977 15.8804 3.05977C16.2904 3.44977 16.2904 4.11977 15.8904 4.51977Z" fill="#FCFCFD"/>
<path id="Vector_3" d="M21.3204 8.48982L18.2704 5.43982C17.8604 5.02982 17.2004 5.02982 16.8004 5.43982L6.06043 16.1798C5.65043 16.5798 5.65043 17.2398 6.06043 17.6498L9.11043 20.7098C10.5104 22.0998 12.7704 22.0998 14.1704 20.7098L21.3104 13.5598C22.7304 12.1598 22.7304 9.88982 21.3204 8.48982ZM13.2604 17.5198L12.0504 18.7398C11.8004 18.9898 11.3904 18.9898 11.1304 18.7398C10.8804 18.4898 10.8804 18.0798 11.1304 17.8198L12.3504 16.5998C12.5904 16.3598 13.0104 16.3598 13.2604 16.5998C13.5104 16.8498 13.5104 17.2798 13.2604 17.5198ZM17.2304 13.5498L14.7904 15.9998C14.5404 16.2398 14.1304 16.2398 13.8704 15.9998C13.6204 15.7498 13.6204 15.3398 13.8704 15.0798L16.3204 12.6298C16.5604 12.3898 16.9804 12.3898 17.2304 12.6298C17.4804 12.8898 17.4804 13.2998 17.2304 13.5498Z" fill="#FCFCFD"/>
</g>
</g>
</svg>
