<svg width="49" height="48" viewBox="0 0 49 48" fill="none" xmlns="http://www.w3.org/2000/svg">
<path d="M26.667 45.5H18.667C7.80699 45.5 3.16699 40.86 3.16699 30V18C3.16699 7.14 7.80699 2.5 18.667 2.5H30.667C41.527 2.5 46.167 7.14 46.167 18V26C46.167 26.82 45.487 27.5 44.667 27.5C43.847 27.5 43.167 26.82 43.167 26V18C43.167 8.78 39.887 5.5 30.667 5.5H18.667C9.44699 5.5 6.16699 8.78 6.16699 18V30C6.16699 39.22 9.44699 42.5 18.667 42.5H26.667C27.487 42.5 28.167 43.18 28.167 44C28.167 44.82 27.487 45.5 26.667 45.5Z" fill="#23262F"/>
<path d="M15.3272 30.48C15.0072 30.48 14.6872 30.38 14.4072 30.16C13.7472 29.66 13.6272 28.72 14.1272 28.06L18.8872 21.88C19.4672 21.14 20.2872 20.66 21.2272 20.54C22.1672 20.42 23.0872 20.68 23.8272 21.26L27.4872 24.14C27.6272 24.26 27.7672 24.24 27.8672 24.24C27.9472 24.24 28.0872 24.2 28.2072 24.04L32.8272 18.08C33.3272 17.42 34.2672 17.3 34.9272 17.82C35.5872 18.32 35.7072 19.26 35.1872 19.92L30.5672 25.88C29.9872 26.62 29.1672 27.1 28.2272 27.2C27.3072 27.32 26.3672 27.06 25.6472 26.48L21.9872 23.6C21.8472 23.48 21.6872 23.48 21.6072 23.5C21.5272 23.5 21.3872 23.54 21.2672 23.7L16.5072 29.88C16.2272 30.28 15.7872 30.48 15.3272 30.48Z" fill="#23262F"/>
<path d="M41.1869 45.5005C40.4869 45.5005 39.5869 45.2805 38.5269 44.6405L38.0269 44.3405C37.8869 44.2605 37.4669 44.2605 37.3269 44.3405L36.8269 44.6405C34.5269 46.0205 33.0669 45.4404 32.4269 44.9604C31.7669 44.4804 30.7469 43.2805 31.3469 40.6405L31.4469 40.2205C31.4869 40.0605 31.3669 39.6805 31.2669 39.5605L30.5669 38.8604C29.3869 37.6604 28.9269 36.2605 29.3269 35.0005C29.7269 33.7605 30.9069 32.8805 32.5669 32.6005L33.3269 32.4805C33.4669 32.4405 33.7469 32.2405 33.8269 32.1005L34.3869 30.9604C35.1669 29.3804 36.3669 28.4805 37.6869 28.4805C39.0069 28.4805 40.2069 29.3804 40.9869 30.9604L41.5469 32.0804C41.6269 32.2204 41.9069 32.4204 42.0469 32.4604L42.8069 32.5804C44.4669 32.8604 45.6469 33.7405 46.0469 34.9805C46.4469 36.2205 46.0069 37.6205 44.8069 38.8405L44.1069 39.5405C44.0069 39.6605 43.8869 40.0405 43.9269 40.2005L44.0269 40.6205C44.6269 43.2605 43.6069 44.4605 42.9469 44.9405C42.5869 45.2205 42.0069 45.5005 41.1869 45.5005ZM37.6469 31.5005C37.6269 31.5205 37.3469 31.7204 37.0669 32.3004L36.5069 33.4405C36.0269 34.4205 34.8869 35.2605 33.8269 35.4405L33.0669 35.5605C32.4269 35.6605 32.2069 35.8805 32.1869 35.9205C32.1869 35.9605 32.2469 36.2804 32.7069 36.7404L33.4069 37.4405C34.2269 38.2805 34.6469 39.7204 34.3869 40.8604L34.2869 41.2805C34.1069 42.0605 34.1869 42.4004 34.2269 42.5204C34.2869 42.4804 34.6269 42.4405 35.2869 42.0405L35.7869 41.7404C36.8869 41.0804 38.4669 41.0804 39.5669 41.7404L40.0669 42.0405C40.8869 42.5405 41.2269 42.4805 41.2469 42.4805C41.1669 42.4805 41.2669 42.0805 41.0869 41.2805L40.9869 40.8604C40.7269 39.7004 41.1469 38.2805 41.9669 37.4405L42.6669 36.7404C43.1269 36.2804 43.1869 35.9605 43.1869 35.9005C43.1669 35.8605 42.9469 35.6605 42.3069 35.5405L41.5469 35.4205C40.4669 35.2405 39.3469 34.4005 38.8669 33.4205L38.3069 32.3004C37.9869 31.7004 37.7069 31.5205 37.6469 31.5005Z" fill="#23262F"/>
</svg>
