<svg width="48" height="48" viewBox="0 0 48 48" fill="none" xmlns="http://www.w3.org/2000/svg">
<path d="M14.52 37.7795C14.36 37.7795 14.2 37.7595 14.04 37.7395C12.84 37.5795 11.82 36.8195 11.32 35.7395L8.79999 30.1995C4.79999 27.2395 2.5 22.8195 2.5 18.0195C2.5 9.47953 9.9 2.51953 19 2.51953C25.42 2.51953 31.28 6.03951 33.94 11.4995C34.96 13.5195 35.5 15.7195 35.5 18.0195C35.5 26.3395 28.48 33.1595 19.72 33.4995L17.2 36.5396C16.52 37.3195 15.54 37.7795 14.52 37.7795ZM19 5.49951C11.56 5.49951 5.5 11.0995 5.5 17.9995C5.5 21.9395 7.45999 25.5795 10.86 27.9795C11.08 28.1395 11.26 28.3395 11.36 28.5795L14.04 34.4795C14.14 34.6995 14.34 34.7595 14.44 34.7595C14.54 34.7795 14.74 34.7595 14.88 34.5995L17.84 31.0396C18.12 30.6996 18.54 30.4995 19 30.4995C26.44 30.4995 32.5 24.8995 32.5 17.9995C32.5 16.1795 32.08 14.4395 31.26 12.8195C29.1 8.35946 24.28 5.49951 19 5.49951Z" fill="#23262F"/>
<path d="M33.4802 45.4983C32.4402 45.4983 31.4801 45.0383 30.8001 44.2383L28.2802 41.2182C23.4402 41.0182 18.8802 38.7982 15.9602 35.1982C15.5002 34.6382 15.5202 33.8383 15.9802 33.2983L17.8402 31.0583C18.1202 30.7183 18.5402 30.5183 19.0002 30.5183C26.4402 30.5183 32.5002 24.9183 32.5002 18.0183C32.5002 16.1983 32.0802 14.4582 31.2602 12.8382C31.0002 12.3182 31.0602 11.6983 31.4202 11.2383C31.7802 10.7783 32.3802 10.5782 32.9402 10.6982C40.3402 12.3982 45.5002 18.5783 45.5002 25.7383C45.5002 30.5383 43.2002 34.9583 39.2002 37.9183L36.6802 43.4582C36.1602 44.5782 35.1402 45.3382 33.9202 45.4782C33.7802 45.4982 33.6202 45.4983 33.4802 45.4983ZM19.1202 34.1982C21.6202 36.7382 25.2202 38.2182 29.0002 38.2182C29.4402 38.2182 29.8602 38.4183 30.1602 38.7583L33.1202 42.3182C33.2602 42.4982 33.4402 42.5183 33.5602 42.4983C33.6402 42.4983 33.8602 42.4382 33.9802 42.1982L36.6602 36.2983C36.7802 36.0583 36.9402 35.8382 37.1602 35.6982C40.5602 33.2982 42.5201 29.6582 42.5201 25.7182C42.5201 20.9182 39.5802 16.6583 35.1002 14.5583C35.3802 15.6783 35.5201 16.8183 35.5201 17.9983C35.5201 26.3183 28.5002 33.1382 19.7402 33.4782L19.1202 34.1982Z" fill="#23262F"/>
<path d="M24 19.5H14C13.18 19.5 12.5 18.82 12.5 18C12.5 17.18 13.18 16.5 14 16.5H24C24.82 16.5 25.5 17.18 25.5 18C25.5 18.82 24.82 19.5 24 19.5Z" fill="#23262F"/>
</svg>
