<svg width="29" height="29" viewBox="0 0 29 29" fill="none" xmlns="http://www.w3.org/2000/svg">
<g id="vuesax/bold/messages-3">
<g id="messages-3">
<path id="Vector" d="M18.6019 15.1504V19.8007C18.6019 20.212 18.5562 20.6005 18.4533 20.9547C18.0306 22.6343 16.6366 23.6855 14.7171 23.6855H11.6093L8.15869 25.982C7.64453 26.3362 6.95898 25.9592 6.95898 25.3422V23.6855C5.79355 23.6855 4.82236 23.297 4.14824 22.6229C3.4627 21.9373 3.07422 20.9661 3.07422 19.8007V15.1504C3.07422 12.9795 4.42246 11.4827 6.50195 11.2885C6.65049 11.2771 6.79902 11.2656 6.95898 11.2656H14.7171C17.0479 11.2656 18.6019 12.8195 18.6019 15.1504Z" fill="#059ED2"/>
<path id="Vector_2" d="M21.0698 18.8047C22.5209 18.8047 23.7435 18.3248 24.589 17.4679C25.4459 16.6224 25.9258 15.3998 25.9258 13.9487V8.12158C25.9258 5.43652 23.7549 3.26562 21.0698 3.26562H11.3579C8.67285 3.26562 6.50195 5.43652 6.50195 8.12158V8.97852C6.50195 9.29844 6.75332 9.5498 7.07324 9.5498H14.7171C17.8135 9.5498 20.3157 12.0521 20.3157 15.1484V18.2334C20.3157 18.5533 20.5671 18.8047 20.887 18.8047H21.0698Z" fill="#059ED2"/>
</g>
</g>
</svg>
