<svg width="32" height="32" viewBox="0 0 32 32" fill="none" xmlns="http://www.w3.org/2000/svg">
<g id="vuesax/outline/microphone-2">
<g id="microphone-2">
<path id="Vector" d="M16.0003 21.668C12.507 21.668 9.66699 18.828 9.66699 15.3346V8.0013C9.66699 4.50797 12.507 1.66797 16.0003 1.66797C19.4937 1.66797 22.3337 4.50797 22.3337 8.0013V15.3346C22.3337 18.828 19.4937 21.668 16.0003 21.668ZM16.0003 3.66797C13.6137 3.66797 11.667 5.61464 11.667 8.0013V15.3346C11.667 17.7213 13.6137 19.668 16.0003 19.668C18.387 19.668 20.3337 17.7213 20.3337 15.3346V8.0013C20.3337 5.61464 18.387 3.66797 16.0003 3.66797Z" fill="#FCFCFD"/>
<path id="Vector_2" d="M15.9998 26.3339C9.82647 26.3339 4.7998 21.3072 4.7998 15.1339V12.8672C4.7998 12.3205 5.25314 11.8672 5.7998 11.8672C6.34647 11.8672 6.7998 12.3205 6.7998 12.8672V15.1339C6.7998 20.2005 10.9331 24.3339 15.9998 24.3339C21.0665 24.3339 25.1998 20.2005 25.1998 15.1339V12.8672C25.1998 12.3205 25.6531 11.8672 26.1998 11.8672C26.7465 11.8672 27.1998 12.3205 27.1998 12.8672V15.1339C27.1998 21.3072 22.1731 26.3339 15.9998 26.3339Z" fill="#FCFCFD"/>
<path id="Vector_3" d="M17.8538 9.57505C17.7472 9.57505 17.6272 9.56172 17.5072 9.52172C16.5338 9.16172 15.4672 9.16172 14.4938 9.52172C13.9738 9.70838 13.4005 9.44172 13.2138 8.92172C13.0272 8.40172 13.2938 7.82839 13.8138 7.64172C15.2272 7.13505 16.7872 7.13505 18.2005 7.64172C18.7205 7.82839 18.9872 8.40172 18.8005 8.92172C18.6405 9.32172 18.2538 9.57505 17.8538 9.57505Z" fill="#FCFCFD"/>
<path id="Vector_4" d="M17.0671 12.4017C16.9738 12.4017 16.8938 12.3884 16.8004 12.3617C16.2671 12.2151 15.7204 12.2151 15.1871 12.3617C14.6538 12.5084 14.1071 12.1884 13.9604 11.6551C13.8138 11.1351 14.1338 10.5884 14.6671 10.4417C15.5338 10.2017 16.4671 10.2017 17.3338 10.4417C17.8671 10.5884 18.1871 11.1351 18.0404 11.6684C17.9204 12.1084 17.5071 12.4017 17.0671 12.4017Z" fill="#FCFCFD"/>
<path id="Vector_5" d="M16 30.332C15.4533 30.332 15 29.8787 15 29.332V25.332C15 24.7854 15.4533 24.332 16 24.332C16.5467 24.332 17 24.7854 17 25.332V29.332C17 29.8787 16.5467 30.332 16 30.332Z" fill="#FCFCFD"/>
</g>
</g>
</svg>
