<svg width="80" height="80" viewBox="0 0 80 80" fill="none" xmlns="http://www.w3.org/2000/svg">
<g id="vuesax/outline/chart">
<g id="chart">
<path id="Vector" d="M23.3335 48.9676C21.9668 48.9676 20.8335 47.8342 20.8335 46.4676V35.7676C20.8335 34.4009 21.9668 33.2676 23.3335 33.2676C24.7002 33.2676 25.8335 34.4009 25.8335 35.7676V46.4676C25.8335 47.8676 24.7002 48.9676 23.3335 48.9676Z" fill="#2E58EA"/>
<path id="Vector_2" d="M40 54.7667C38.6333 54.7667 37.5 53.6333 37.5 52.2667V30C37.5 28.6333 38.6333 27.5 40 27.5C41.3667 27.5 42.5 28.6333 42.5 30V52.2667C42.5 53.6333 41.3667 54.7667 40 54.7667Z" fill="#2E58EA"/>
<path id="Vector_3" d="M56.6665 48.9676C55.2998 48.9676 54.1665 47.8342 54.1665 46.4676V35.7676C54.1665 34.4009 55.2998 33.2676 56.6665 33.2676C58.0332 33.2676 59.1665 34.4009 59.1665 35.7676V46.4676C59.1665 47.8676 58.0332 48.9676 56.6665 48.9676Z" fill="#2E58EA"/>
<path id="Vector_4" d="M49.9998 75.8327H29.9998C11.8998 75.8327 4.1665 68.0994 4.1665 49.9994V29.9994C4.1665 11.8993 11.8998 4.16602 29.9998 4.16602H49.9998C68.0998 4.16602 75.8332 11.8993 75.8332 29.9994V49.9994C75.8332 68.0994 68.0998 75.8327 49.9998 75.8327ZM29.9998 9.16602C14.6332 9.16602 9.1665 14.6327 9.1665 29.9994V49.9994C9.1665 65.366 14.6332 70.8327 29.9998 70.8327H49.9998C65.3665 70.8327 70.8332 65.366 70.8332 49.9994V29.9994C70.8332 14.6327 65.3665 9.16602 49.9998 9.16602H29.9998Z" fill="#2E58EA"/>
</g>
</g>
</svg>
