<svg width="80" height="80" viewBox="0 0 80 80" fill="none" xmlns="http://www.w3.org/2000/svg">
<g id="vuesax/outline/share">
<g id="share">
<path id="Vector" d="M68.7334 43.5665C67.4668 43.5665 66.4001 42.5998 66.2334 41.3332C65.4334 33.7998 61.3668 26.9665 55.1001 22.6332C53.9668 21.8332 53.7001 20.2999 54.4668 19.1665C55.2668 18.0332 56.8334 17.7665 57.9334 18.5332C65.4001 23.6999 70.2001 31.8332 71.1668 40.7999C71.3001 42.1665 70.3334 43.3999 68.9334 43.5665C68.9001 43.5665 68.8001 43.5665 68.7334 43.5665Z" fill="#2E58EA"/>
<path id="Vector_2" d="M11.6335 43.7329C11.5335 43.7329 11.4668 43.7329 11.3668 43.7329C10.0002 43.5662 9.00017 42.3329 9.13351 40.9662C10.0335 31.9996 14.8002 23.8996 22.1668 18.6662C23.3002 17.8662 24.8668 18.1329 25.6668 19.2662C26.4668 20.3996 26.2002 21.9662 25.0668 22.7662C18.8668 27.1329 14.8668 33.9662 14.1002 41.4996C14.0002 42.7662 12.9002 43.7329 11.6335 43.7329Z" fill="#2E58EA"/>
<path id="Vector_3" d="M40.2002 75.3659C35.2669 75.3659 30.5669 74.2326 26.1669 72.0326C24.9335 71.3992 24.4335 69.8992 25.0669 68.6659C25.7002 67.4326 27.2002 66.9326 28.4335 67.5659C35.6335 71.1992 44.3002 71.2659 51.5669 67.7659C52.8002 67.1659 54.3002 67.6992 54.9002 68.9326C55.5002 70.1659 54.9669 71.6659 53.7335 72.2659C49.4669 74.3326 44.9335 75.3659 40.2002 75.3659Z" fill="#2E58EA"/>
<path id="Vector_4" d="M40.1998 28.1329C33.6998 28.1329 28.4331 22.8663 28.4331 16.3663C28.4331 9.86627 33.6998 4.59961 40.1998 4.59961C46.6998 4.59961 51.9664 9.86627 51.9664 16.3663C51.9664 22.8663 46.6664 28.1329 40.1998 28.1329ZM40.1998 9.63294C36.4664 9.63294 33.4331 12.6663 33.4331 16.3996C33.4331 20.1329 36.4664 23.1663 40.1998 23.1663C43.9331 23.1663 46.9664 20.1329 46.9664 16.3996C46.9664 12.6663 43.8998 9.63294 40.1998 9.63294Z" fill="#2E58EA"/>
<path id="Vector_5" d="M16.1002 68.9005C9.60016 68.9005 4.3335 63.6339 4.3335 57.1339C4.3335 50.6672 9.60016 45.3672 16.1002 45.3672C22.6002 45.3672 27.8668 50.6339 27.8668 57.1339C27.8668 63.6005 22.6002 68.9005 16.1002 68.9005ZM16.1002 50.3672C12.3668 50.3672 9.3335 53.4005 9.3335 57.1339C9.3335 60.8672 12.3668 63.9005 16.1002 63.9005C19.8335 63.9005 22.8668 60.8672 22.8668 57.1339C22.8668 53.4005 19.8335 50.3672 16.1002 50.3672Z" fill="#2E58EA"/>
<path id="Vector_6" d="M63.9 68.9005C57.4 68.9005 52.1333 63.6339 52.1333 57.1339C52.1333 50.6672 57.4 45.3672 63.9 45.3672C70.4 45.3672 75.6666 50.6339 75.6666 57.1339C75.6333 63.6005 70.3666 68.9005 63.9 68.9005ZM63.9 50.3672C60.1666 50.3672 57.1333 53.4005 57.1333 57.1339C57.1333 60.8672 60.1666 63.9005 63.9 63.9005C67.6333 63.9005 70.6666 60.8672 70.6666 57.1339C70.6333 53.4005 67.6333 50.3672 63.9 50.3672Z" fill="#2E58EA"/>
</g>
</g>
</svg>
