<svg width="80" height="80" viewBox="0 0 80 80" fill="none" xmlns="http://www.w3.org/2000/svg">
<g id="vuesax/outline/box-2">
<g id="box-2">
<path id="Vector" d="M39.9995 75.8333C39.7995 75.8333 39.5995 75.8 39.4329 75.7666C39.2329 75.7333 39.0329 75.6333 38.8329 75.5333L31.4662 71.8666C30.2329 71.2333 29.7329 69.7333 30.3329 68.5C30.9662 67.2666 32.4662 66.7667 33.6995 67.3667L37.4995 69.2666V64.0666C37.4995 62.7 38.6329 61.5666 39.9995 61.5666C41.3662 61.5666 42.4995 62.7 42.4995 64.0666V69.2666L46.2995 67.3667C47.5329 66.7667 49.0329 67.2666 49.6662 68.5C50.2995 69.7333 49.7995 71.2333 48.5329 71.8666L41.1662 75.5333C40.9662 75.6333 40.7662 75.7 40.5662 75.7666C40.3662 75.8 40.1995 75.8333 39.9995 75.8333ZM62.2329 64.7333C61.3329 64.7333 60.4329 64.2333 59.9995 63.3666C59.3662 62.1333 59.8662 60.6333 61.1329 60L67.1662 57V49.3C67.1662 47.9333 68.2995 46.8 69.6662 46.8C71.0329 46.8 72.1662 47.9333 72.1662 49.3V58.5667C72.1662 59.5 71.6329 60.3667 70.7995 60.8L63.3995 64.5C62.9662 64.6333 62.5995 64.7333 62.2329 64.7333ZM17.7662 64.7333C17.3995 64.7333 16.9995 64.6333 16.6662 64.4666L9.2662 60.7666C8.43287 60.3333 7.89955 59.4666 7.89955 58.5333V49.2666C7.89955 47.9 9.03288 46.7666 10.3996 46.7666C11.7662 46.7666 12.8996 47.9 12.8996 49.2666V56.9666L18.9329 59.9667C20.1662 60.6 20.6662 62.1 20.0662 63.3333C19.5662 64.2 18.6995 64.7333 17.7662 64.7333ZM39.9995 48.0666C38.6329 48.0666 37.4995 46.9333 37.4995 45.5666V37.8666L31.4662 34.8667C30.2329 34.2333 29.7329 32.7333 30.3329 31.5C30.9662 30.2666 32.4662 29.7666 33.6995 30.3666L39.9995 33.5L46.2995 30.3666C47.5329 29.7666 49.0329 30.2333 49.6662 31.5C50.2995 32.7666 49.7995 34.2333 48.5329 34.8667L42.4995 37.8666V45.5666C42.4995 46.9333 41.3662 48.0666 39.9995 48.0666ZM69.6329 33.2333C68.2662 33.2333 67.1329 32.1 67.1329 30.7333V25.5333L63.3329 27.4333C62.0995 28.0666 60.5995 27.5666 59.9662 26.3C59.3329 25.0666 59.8329 23.5667 61.0995 22.9333L64.0329 21.4666L61.0995 20C59.8662 19.3666 59.3662 17.8667 59.9662 16.6333C60.5995 15.4 62.0995 14.9 63.3329 15.5L70.6995 19.1666C70.7662 19.2 70.8662 19.2333 70.9329 19.3C71.1329 19.4 71.2995 19.5666 71.4662 19.7333C71.5662 19.8666 71.6662 20 71.7662 20.1333C71.8995 20.3666 71.9995 20.6 72.0662 20.8666C72.0995 21.0666 72.1329 21.2666 72.1329 21.4333V21.4666V30.6666C72.1329 32.1333 70.9995 33.2333 69.6329 33.2333ZM10.3662 33.2333C8.99954 33.2333 7.86621 32.1 7.86621 30.7333V21.5333V21.5C7.86621 21.3 7.89953 21.1 7.93287 20.9333C7.99953 20.6666 8.09955 20.4333 8.23288 20.2C8.33288 20.0333 8.43287 19.8999 8.56621 19.7666C8.69954 19.6333 8.86621 19.5 9.03287 19.4C9.09954 19.3667 9.19954 19.3 9.2662 19.2666L16.6329 15.6C17.8662 15 19.3662 15.4667 19.9995 16.7333C20.6329 18 20.1329 19.4666 18.8662 20.1L15.9329 21.5666L18.8662 23.0333C20.0996 23.6667 20.5995 25.1666 19.9995 26.4C19.3662 27.6333 17.8995 28.1333 16.6329 27.5333L12.8329 25.6333V30.8333C12.8662 32.1333 11.7662 33.2333 10.3662 33.2333ZM47.3995 12.8666C47.0329 12.8666 46.6329 12.7666 46.2995 12.6L39.9995 9.46663L33.6995 12.6C32.4662 13.2333 30.9662 12.7333 30.3329 11.4666C29.6995 10.2333 30.1995 8.73328 31.4662 8.09995L38.8662 4.4C39.5662 4.03333 40.3995 4.03333 41.0995 4.4L48.4996 8.09995C49.7329 8.73328 50.2329 10.2333 49.6329 11.4666C49.1995 12.3666 48.3329 12.8666 47.3995 12.8666Z" fill="#2E58EA"/>
</g>
</g>
</svg>
