<svg width="80" height="80" viewBox="0 0 80 80" fill="none" xmlns="http://www.w3.org/2000/svg">
<g id="vuesax/outline/story">
<g id="story">
<path id="Vector" d="M39.9998 64.5666C34.0332 64.5666 28.0665 62.2999 23.4998 57.7333C14.3998 48.6333 14.3998 33.8332 23.4998 24.7332C32.5998 15.6332 47.3999 15.6332 56.4999 24.7332C65.5999 33.8332 65.5999 48.6333 56.4999 57.7333C51.9332 62.2999 45.9665 64.5666 39.9998 64.5666ZM39.9998 22.8999C35.2998 22.8999 30.5998 24.6999 27.0331 28.2665C19.8998 35.4332 19.8998 47.0333 27.0331 54.2C34.1998 61.3666 45.8332 61.3333 52.9666 54.2C60.0999 47.0333 60.0999 35.4332 52.9666 28.2665C49.3999 24.6999 44.6998 22.8999 39.9998 22.8999Z" fill="#2E58EA"/>
<path id="Vector_2" d="M27.5 74.6342C27.2 74.6342 26.8666 74.5676 26.5666 74.4676C19.0666 71.4676 12.9999 66.1675 8.93326 59.1675C4.99993 52.3342 3.43327 44.6009 4.46661 36.7343C4.63327 35.3676 5.89993 34.4008 7.2666 34.5675C8.63326 34.7342 9.59991 36.0009 9.43324 37.3676C8.56658 44.1009 9.89999 50.7675 13.2667 56.6342C16.7333 62.6342 21.9666 67.2008 28.3999 69.7675C29.6666 70.3008 30.3 71.7341 29.8 73.0341C29.4333 74.0341 28.4666 74.6342 27.5 74.6342Z" fill="#2E58EA"/>
<path id="Vector_3" d="M19.5002 17.4338C18.7668 17.4338 18.0335 17.1006 17.5335 16.4672C16.6668 15.3672 16.8669 13.8006 17.9669 12.9673C24.3335 8.00062 31.9335 5.36719 40.0001 5.36719C47.8668 5.36719 55.3668 7.90056 61.6668 12.7006C62.7668 13.5339 62.9669 15.1005 62.1335 16.2005C61.3002 17.3005 59.7335 17.5006 58.6335 16.6672C53.2335 12.5339 46.8001 10.3672 40.0001 10.3672C33.0668 10.3672 26.5001 12.6339 21.0335 16.9006C20.5668 17.2673 20.0335 17.4338 19.5002 17.4338Z" fill="#2E58EA"/>
<path id="Vector_4" d="M52.5005 74.6341C51.5005 74.6341 50.5672 74.034 50.1672 73.0673C49.6672 71.8006 50.2672 70.334 51.5672 69.8007C58.0005 67.2007 63.2339 62.6674 66.7006 56.6674C70.1006 50.8007 71.4339 44.1339 70.5339 37.4006C70.3672 36.0339 71.3339 34.7674 72.7005 34.6007C74.0339 34.434 75.3338 35.4008 75.5005 36.7675C76.5005 44.6008 74.9672 52.3674 71.0339 59.2007C67.0005 66.2007 60.9005 71.4673 53.4005 74.5006C53.1338 74.5673 52.8339 74.6341 52.5005 74.6341Z" fill="#2E58EA"/>
</g>
</g>
</svg>
