<svg width="40" height="40" viewBox="0 0 40 40" fill="none" xmlns="http://www.w3.org/2000/svg">
<g id="vuesax/outline/document-upload">
<g id="document-upload">
<path id="Vector" d="M15.0001 29.5835C14.3167 29.5835 13.7501 29.0168 13.7501 28.3335V21.3501L12.5501 22.5501C12.0667 23.0335 11.2667 23.0335 10.7834 22.5501C10.3001 22.0668 10.3001 21.2668 10.7834 20.7835L14.1167 17.4501C14.4667 17.1001 15.0167 16.9835 15.4834 17.1835C15.9501 17.3668 16.2501 17.8335 16.2501 18.3335V28.3335C16.2501 29.0168 15.6834 29.5835 15.0001 29.5835Z" fill="#2E58EA"/>
<path id="Vector_2" d="M18.3336 22.9171C18.0169 22.9171 17.7002 22.8004 17.4502 22.5504L14.1169 19.2171C13.6336 18.7337 13.6336 17.9337 14.1169 17.4504C14.6002 16.9671 15.4002 16.9671 15.8836 17.4504L19.2169 20.7837C19.7002 21.2671 19.7002 22.0671 19.2169 22.5504C18.9669 22.8004 18.6502 22.9171 18.3336 22.9171Z" fill="#2E58EA"/>
<path id="Vector_3" d="M25.0002 37.9173H15.0002C5.95016 37.9173 2.0835 34.0507 2.0835 25.0007V15.0007C2.0835 5.95065 5.95016 2.08398 15.0002 2.08398H23.3335C24.0168 2.08398 24.5835 2.65065 24.5835 3.33398C24.5835 4.01732 24.0168 4.58398 23.3335 4.58398H15.0002C7.31683 4.58398 4.5835 7.31732 4.5835 15.0007V25.0007C4.5835 32.684 7.31683 35.4173 15.0002 35.4173H25.0002C32.6835 35.4173 35.4168 32.684 35.4168 25.0007V16.6673C35.4168 15.984 35.9835 15.4173 36.6668 15.4173C37.3502 15.4173 37.9168 15.984 37.9168 16.6673V25.0007C37.9168 34.0507 34.0502 37.9173 25.0002 37.9173Z" fill="#2E58EA"/>
<path id="Vector_4" d="M36.6668 17.9168H30.0002C24.3002 17.9168 22.0835 15.7001 22.0835 10.0001V3.33348C22.0835 2.83348 22.3835 2.36681 22.8502 2.18348C23.3168 1.98348 23.8502 2.10014 24.2168 2.45014L37.5502 15.7835C37.9002 16.1335 38.0168 16.6835 37.8168 17.1501C37.6168 17.6168 37.1668 17.9168 36.6668 17.9168ZM24.5835 6.35014V10.0001C24.5835 14.3001 25.7002 15.4168 30.0002 15.4168H33.6502L24.5835 6.35014Z" fill="#2E58EA"/>
</g>
</g>
</svg>
