<svg width="20" height="20" viewBox="0 0 20 20" fill="none" xmlns="http://www.w3.org/2000/svg">
<g id="vuesax/outline/gallery-export">
<g id="gallery-export">
<path id="Vector" d="M7.49967 8.95833C6.23301 8.95833 5.20801 7.93333 5.20801 6.66667C5.20801 5.4 6.23301 4.375 7.49967 4.375C8.76634 4.375 9.79134 5.4 9.79134 6.66667C9.79134 7.93333 8.76634 8.95833 7.49967 8.95833ZM7.49967 5.625C6.92467 5.625 6.45801 6.09167 6.45801 6.66667C6.45801 7.24167 6.92467 7.70833 7.49967 7.70833C8.07467 7.70833 8.54134 7.24167 8.54134 6.66667C8.54134 6.09167 8.07467 5.625 7.49967 5.625Z" fill="#2E58EA"/>
<path id="Vector_2" d="M12.5003 18.9577H7.50033C2.97533 18.9577 1.04199 17.0243 1.04199 12.4993V7.49935C1.04199 2.97435 2.97533 1.04102 7.50033 1.04102H10.8337C11.1753 1.04102 11.4587 1.32435 11.4587 1.66602C11.4587 2.00768 11.1753 2.29102 10.8337 2.29102H7.50033C3.65866 2.29102 2.29199 3.65768 2.29199 7.49935V12.4993C2.29199 16.341 3.65866 17.7077 7.50033 17.7077H12.5003C16.342 17.7077 17.7087 16.341 17.7087 12.4993V8.33268C17.7087 7.99102 17.992 7.70768 18.3337 7.70768C18.6753 7.70768 18.9587 7.99102 18.9587 8.33268V12.4993C18.9587 17.0243 17.0253 18.9577 12.5003 18.9577Z" fill="#2E58EA"/>
<path id="Vector_3" d="M15 7.29194C14.6583 7.29194 14.375 7.00861 14.375 6.66694V1.66694C14.375 1.41694 14.525 1.18361 14.7583 1.09194C14.9917 1.00027 15.2583 1.05027 15.4417 1.22527L17.1083 2.89194C17.35 3.13361 17.35 3.53361 17.1083 3.77528C16.8667 4.01694 16.4667 4.01694 16.225 3.77528L15.625 3.17527V6.66694C15.625 7.00861 15.3417 7.29194 15 7.29194Z" fill="#2E58EA"/>
<path id="Vector_4" d="M13.3329 3.95755C13.1745 3.95755 13.0162 3.89922 12.8912 3.77422C12.6495 3.53255 12.6495 3.13255 12.8912 2.89089L14.5579 1.22422C14.7995 0.982552 15.1995 0.982552 15.4412 1.22422C15.6829 1.46589 15.6829 1.86589 15.4412 2.10755L13.7745 3.77422C13.6495 3.89922 13.4912 3.95755 13.3329 3.95755Z" fill="#2E58EA"/>
<path id="Vector_5" d="M2.22541 16.4168C2.02541 16.4168 1.82541 16.3168 1.70874 16.1418C1.51707 15.8585 1.59207 15.4668 1.87541 15.2751L5.98374 12.5168C6.88374 11.9168 8.12541 11.9835 8.94207 12.6751L9.21707 12.9168C9.63374 13.2751 10.3421 13.2751 10.7504 12.9168L14.2171 9.9418C15.1004 9.18346 16.4921 9.18346 17.3837 9.9418L18.7421 11.1085C19.0004 11.3335 19.0337 11.7251 18.8087 11.9918C18.5837 12.2501 18.1837 12.2835 17.9254 12.0585L16.5671 10.8918C16.1504 10.5335 15.4504 10.5335 15.0337 10.8918L11.5671 13.8668C10.6837 14.6251 9.29207 14.6251 8.40041 13.8668L8.12541 13.6251C7.74207 13.3001 7.10874 13.2668 6.68374 13.5585L2.58374 16.3168C2.46707 16.3835 2.34207 16.4168 2.22541 16.4168Z" fill="#2E58EA"/>
</g>
</g>
</svg>
