<svg width="16" height="16" viewBox="0 0 16 16" fill="none" xmlns="http://www.w3.org/2000/svg">
<g id="vuesax/bold/close-circle">
<g id="close-circle">
<path id="Vector" d="M7.99967 1.33398C4.32634 1.33398 1.33301 4.32732 1.33301 8.00065C1.33301 11.674 4.32634 14.6673 7.99967 14.6673C11.673 14.6673 14.6663 11.674 14.6663 8.00065C14.6663 4.32732 11.673 1.33398 7.99967 1.33398ZM10.2397 9.53399C10.433 9.72732 10.433 10.0473 10.2397 10.2407C10.1397 10.3407 10.013 10.3873 9.88634 10.3873C9.75968 10.3873 9.63301 10.3407 9.53301 10.2407L7.99967 8.70732L6.46634 10.2407C6.36634 10.3407 6.23967 10.3873 6.11301 10.3873C5.98634 10.3873 5.85967 10.3407 5.75968 10.2407C5.56634 10.0473 5.56634 9.72732 5.75968 9.53399L7.29301 8.00065L5.75968 6.46732C5.56634 6.27398 5.56634 5.95398 5.75968 5.76065C5.95301 5.56732 6.27301 5.56732 6.46634 5.76065L7.99967 7.29398L9.53301 5.76065C9.72634 5.56732 10.0463 5.56732 10.2397 5.76065C10.433 5.95398 10.433 6.27398 10.2397 6.46732L8.70634 8.00065L10.2397 9.53399Z" fill="#777E90"/>
</g>
</g>
</svg>
