<svg width="32" height="32" viewBox="0 0 32 32" fill="none" xmlns="http://www.w3.org/2000/svg">
<path d="M22.667 3.24023H9.33366C5.33366 3.24023 2.66699 5.9069 2.66699 9.9069V17.9069C2.66699 21.9069 5.33366 24.5736 9.33366 24.5736H14.667L20.6003 28.5202C21.4803 29.1069 22.667 28.4802 22.667 27.4136V24.5736C26.667 24.5736 29.3337 21.9069 29.3337 17.9069V9.9069C29.3337 5.9069 26.667 3.24023 22.667 3.24023ZM20.667 15.0002H11.3337C10.787 15.0002 10.3337 14.5469 10.3337 14.0002C10.3337 13.4536 10.787 13.0002 11.3337 13.0002H20.667C21.2137 13.0002 21.667 13.4536 21.667 14.0002C21.667 14.5469 21.2137 15.0002 20.667 15.0002Z" fill="#FCFCFD"/>
</svg>
