<svg width="62" height="62" viewBox="0 0 62 62" fill="none" xmlns="http://www.w3.org/2000/svg">
<path d="M49.7046 14.4149H48.6713L39.9396 5.68328C39.2421 4.98578 38.1055 4.98578 37.3821 5.68328C36.6846 6.38078 36.6846 7.51745 37.3821 8.24078L43.5563 14.4149H18.4463L24.6205 8.24078C25.318 7.54328 25.318 6.40661 24.6205 5.68328C23.923 4.98578 22.7863 4.98578 22.063 5.68328L13.3571 14.4149H12.3238C9.9988 14.4149 5.16797 14.4149 5.16797 21.0283C5.16797 23.5341 5.68464 25.1874 6.76964 26.2724C7.38964 26.9183 8.1388 27.2541 8.93964 27.4349C9.6888 27.6158 10.4896 27.6416 11.2646 27.6416H50.738C51.5388 27.6416 52.288 27.5899 53.0113 27.4349C55.1813 26.9183 56.8346 25.3683 56.8346 21.0283C56.8346 14.4149 52.0038 14.4149 49.7046 14.4149Z" fill="#FF922C"/>
<path d="M49.2122 31H12.5805C10.9789 31 9.76471 32.4208 10.023 33.9967L12.193 47.275C12.9164 51.7183 14.8539 56.8333 23.4564 56.8333H37.9489C46.6547 56.8333 48.2047 52.4675 49.1347 47.585L51.7439 34.0742C52.0539 32.4725 50.8397 31 49.2122 31ZM30.9997 50.375C24.9547 50.375 20.0205 45.4408 20.0205 39.3958C20.0205 38.3367 20.8989 37.4583 21.958 37.4583C23.0172 37.4583 23.8955 38.3367 23.8955 39.3958C23.8955 43.3225 27.073 46.5 30.9997 46.5C34.9264 46.5 38.1039 43.3225 38.1039 39.3958C38.1039 38.3367 38.9822 37.4583 40.0414 37.4583C41.1005 37.4583 41.9789 38.3367 41.9789 39.3958C41.9789 45.4408 37.0447 50.375 30.9997 50.375Z" fill="#FF922C"/>
</svg>
