<svg width="62" height="62" viewBox="0 0 62 62" fill="none" xmlns="http://www.w3.org/2000/svg">
<path d="M46.5 5.16797H15.5C11.2117 5.16797 7.75 8.6038 7.75 12.8405V41.0246C7.75 45.2613 11.2117 48.6971 15.5 48.6971H17.4633C19.53 48.6971 21.4933 49.498 22.94 50.9446L27.3575 55.3105C29.3725 57.2996 32.6533 57.2996 34.6683 55.3105L39.0858 50.9446C40.5325 49.498 42.5217 48.6971 44.5625 48.6971H46.5C50.7883 48.6971 54.25 45.2613 54.25 41.0246V12.8405C54.25 8.6038 50.7883 5.16797 46.5 5.16797ZM31.7233 38.648C31.3358 38.7771 30.69 38.7771 30.2767 38.648C26.9183 37.4855 19.375 32.7063 19.375 24.5688C19.4008 20.978 22.2683 18.0846 25.8333 18.0846C27.9517 18.0846 29.8117 19.0921 31 20.668C32.1883 19.0921 34.0483 18.0846 36.1667 18.0846C39.7317 18.0846 42.625 20.978 42.625 24.5688C42.5992 32.7063 35.0817 37.4855 31.7233 38.648Z" fill="#2E58EA"/>
</svg>
