<svg width="62" height="62" viewBox="0 0 62 62" fill="none" xmlns="http://www.w3.org/2000/svg">
<path d="M43.918 6.27734H18.0846C10.3346 6.27734 5.16797 11.444 5.16797 19.194V34.694C5.16797 42.444 10.3346 47.6107 18.0846 47.6107V53.1132C18.0846 55.1798 20.3838 56.4198 22.0888 55.2573L33.5846 47.6107H43.918C51.668 47.6107 56.8346 42.444 56.8346 34.694V19.194C56.8346 11.444 51.668 6.27734 43.918 6.27734ZM31.0013 37.7165C29.9163 37.7165 29.0638 36.8382 29.0638 35.779C29.0638 34.7198 29.9163 33.8415 31.0013 33.8415C32.0863 33.8415 32.9388 34.7198 32.9388 35.779C32.9388 36.8382 32.0863 37.7165 31.0013 37.7165ZM34.2563 26.9957C33.2488 27.6673 32.9388 28.1065 32.9388 28.8298V29.3723C32.9388 30.4315 32.0605 31.3098 31.0013 31.3098C29.9421 31.3098 29.0638 30.4315 29.0638 29.3723V28.8298C29.0638 25.8332 31.2596 24.3607 32.0863 23.7923C33.0421 23.1465 33.3521 22.7073 33.3521 22.0357C33.3521 20.744 32.293 19.6848 31.0013 19.6848C29.7096 19.6848 28.6505 20.744 28.6505 22.0357C28.6505 23.0948 27.7721 23.9732 26.713 23.9732C25.6538 23.9732 24.7755 23.0948 24.7755 22.0357C24.7755 18.5998 27.5655 15.8098 31.0013 15.8098C34.4371 15.8098 37.2271 18.5998 37.2271 22.0357C37.2271 24.9807 35.0571 26.4532 34.2563 26.9957Z" fill="#FF922C"/>
</svg>
