<svg width="62" height="62" viewBox="0 0 62 62" fill="none" xmlns="http://www.w3.org/2000/svg">
<path d="M49.3919 23.561C48.3844 23.561 47.5835 24.3618 47.5835 25.3693V29.451C47.5835 38.596 40.1435 46.036 30.9985 46.036C21.8535 46.036 14.4135 38.596 14.4135 29.451V25.3435C14.4135 24.336 13.6127 23.5352 12.6052 23.5352C11.5977 23.5352 10.7969 24.336 10.7969 25.3435V29.4252C10.7969 39.9393 18.8827 48.5935 29.1902 49.5235V55.026C29.1902 56.0335 29.991 56.8343 30.9985 56.8343C32.006 56.8343 32.8069 56.0335 32.8069 55.026V49.5235C43.0885 48.6193 51.2002 39.9393 51.2002 29.4252V25.3435C51.1744 24.3618 50.3735 23.561 49.3919 23.561Z" fill="#2E58EA"/>
<path d="M31.0004 5.16797C24.697 5.16797 19.582 10.283 19.582 16.5863V29.813C19.582 36.1163 24.697 41.2313 31.0004 41.2313C37.3037 41.2313 42.4187 36.1163 42.4187 29.813V16.5863C42.4187 10.283 37.3037 5.16797 31.0004 5.16797ZM34.3845 23.1221C34.2037 23.7938 33.6095 24.233 32.9379 24.233C32.8087 24.233 32.6795 24.2071 32.5504 24.1813C31.5429 23.8971 30.4837 23.8971 29.4762 24.1813C28.6495 24.4138 27.8487 23.923 27.642 23.1221C27.4095 22.3213 27.9004 21.4946 28.7012 21.288C30.2254 20.8746 31.827 20.8746 33.3512 21.288C34.1262 21.4946 34.5912 22.3213 34.3845 23.1221ZM35.7537 18.1105C35.5212 18.7305 34.9529 19.0921 34.3329 19.0921C34.152 19.0921 33.997 19.0663 33.8162 19.0146C32.0079 18.343 29.9929 18.343 28.1845 19.0146C27.4095 19.2988 26.5312 18.8855 26.247 18.1105C25.9629 17.3355 26.3762 16.4571 27.1512 16.1988C29.6312 15.2946 32.3695 15.2946 34.8495 16.1988C35.6245 16.483 36.0379 17.3355 35.7537 18.1105Z" fill="#2E58EA"/>
</svg>
