<svg width="62" height="62" viewBox="0 0 62 62" fill="none" xmlns="http://www.w3.org/2000/svg">
<path d="M26.4805 25.9095C26.4805 27.3045 26.868 27.5112 27.7463 27.8212L29.0638 28.2862V23.8945H28.2888C27.3071 23.8945 26.4805 24.7987 26.4805 25.9095Z" fill="#FF922C"/>
<path d="M32.9375 38.1026H33.7125C34.72 38.1026 35.5208 37.1984 35.5208 36.0876C35.5208 34.6926 35.1333 34.4859 34.255 34.1759L32.9375 33.7109V38.1026Z" fill="#FF922C"/>
<path d="M50.583 14.158L45.2871 19.4538C44.8996 19.8413 44.4088 20.0221 43.918 20.0221C43.4271 20.0221 42.9363 19.8413 42.5488 19.4538C41.7996 18.7046 41.7996 17.4646 42.5488 16.7155L47.8446 11.4196C43.298 7.54464 37.4338 5.16797 31.0013 5.16797C16.7413 5.16797 5.16797 16.7413 5.16797 31.0013C5.16797 45.2613 16.7413 56.8346 31.0013 56.8346C45.2613 56.8346 56.8346 45.2613 56.8346 31.0013C56.8346 24.5688 54.458 18.7046 50.583 14.158ZM35.5221 30.5363C37.1755 31.1305 39.3971 32.3188 39.3971 36.1163C39.3971 39.3455 36.8396 42.0063 33.7138 42.0063H32.9388V42.6521C32.9388 43.7113 32.0605 44.5896 31.0013 44.5896C29.9421 44.5896 29.0638 43.7113 29.0638 42.6521V42.0063H28.8571C25.4213 42.0063 22.6055 39.113 22.6055 35.548C22.6055 34.463 23.4838 33.5846 24.543 33.5846C25.6021 33.5846 26.4805 34.463 26.4805 35.5221C26.4805 36.943 27.5396 38.1055 28.8571 38.1055H29.0638V32.3705L26.4805 31.4663C24.8271 30.8721 22.6055 29.6838 22.6055 25.8863C22.6055 22.6571 25.163 19.9963 28.2888 19.9963H29.0638V19.3763C29.0638 18.3171 29.9421 17.4388 31.0013 17.4388C32.0605 17.4388 32.9388 18.3171 32.9388 19.3763V20.0221H33.1455C36.5813 20.0221 39.3971 22.9155 39.3971 26.4805C39.3971 27.5396 38.5188 28.418 37.4596 28.418C36.4005 28.418 35.5221 27.5396 35.5221 26.4805C35.5221 25.0596 34.463 23.8971 33.1455 23.8971H32.9388V29.6321L35.5221 30.5363Z" fill="#FF922C"/>
<path d="M58.6158 4.4188C58.4092 3.9538 58.0475 3.5663 57.5567 3.35964C57.3242 3.28214 57.0917 3.23047 56.8333 3.23047H46.5C45.4408 3.23047 44.5625 4.1088 44.5625 5.16797C44.5625 6.22714 45.4408 7.10547 46.5 7.10547H52.1575L47.8433 11.4196C48.825 12.2721 49.7292 13.1763 50.5817 14.158L54.8958 9.8438V15.5013C54.8958 16.5605 55.7742 17.4388 56.8333 17.4388C57.8925 17.4388 58.7708 16.5605 58.7708 15.5013V5.16797C58.7708 4.90964 58.7192 4.67714 58.6158 4.4188Z" fill="#FF922C"/>
</svg>
