<svg width="62" height="62" viewBox="0 0 62 62" fill="none" xmlns="http://www.w3.org/2000/svg">
<path d="M37.5888 57.9196C36.7363 57.9196 35.9355 57.3513 35.703 56.473C35.4446 55.4396 36.0388 54.3805 37.0721 54.0963C47.5605 51.3321 54.8713 41.8255 54.8713 30.9755C54.8713 17.8005 44.1505 7.07964 30.9755 7.07964C19.7896 7.07964 12.453 13.6155 9.01714 17.568H16.6121C17.6713 17.568 18.5496 18.4463 18.5496 19.5055C18.5496 20.5646 17.723 21.4688 16.638 21.4688H5.1938C5.01297 21.4688 4.83214 21.443 4.6513 21.3913C4.4188 21.3138 4.21214 21.2105 4.0313 21.0813C3.7988 20.9263 3.61797 20.7196 3.4888 20.4871C3.35964 20.2288 3.2563 19.9705 3.23047 19.6863C3.23047 19.6088 3.23047 19.5571 3.23047 19.4796V7.7513C3.23047 6.69214 4.1088 5.8138 5.16797 5.8138C6.22714 5.8138 7.10547 6.69214 7.10547 7.7513V13.9255C11.3163 9.40463 19.2471 3.23047 31.0013 3.23047C46.3205 3.23047 58.7721 15.6821 58.7721 31.0013C58.7721 43.608 50.273 54.6646 38.0796 57.868C37.9246 57.8938 37.7438 57.9196 37.5888 57.9196Z" fill="#2E58EA"/>
<path d="M29.1671 58.7192C29.1155 58.7192 29.038 58.7192 28.9863 58.6933C26.2221 58.5125 23.5096 57.8925 20.9263 56.885C20.1771 56.6008 19.6863 55.8517 19.6863 55.0508C19.6863 54.8183 19.738 54.5858 19.8155 54.3792C20.203 53.3975 21.3396 52.8808 22.3213 53.2683C24.543 54.1467 26.8938 54.6633 29.2705 54.8442H29.2963C30.3296 54.8958 31.1046 55.7742 31.1046 56.8075C31.1046 56.8333 31.1046 56.885 31.1046 56.9108C31.0271 57.9183 30.1746 58.7192 29.1671 58.7192ZM14.933 53.165C14.4938 53.165 14.0805 53.0358 13.7188 52.7517C11.5488 51.0208 9.66297 48.98 8.08714 46.6808C7.85464 46.345 7.72547 45.9833 7.72547 45.5958C7.72547 44.95 8.03547 44.3558 8.57797 43.9942C9.43047 43.4 10.6963 43.6325 11.2646 44.485C12.6338 46.4742 14.2613 48.2308 16.1471 49.7033C16.5863 50.065 16.8705 50.6075 16.8705 51.2017C16.8705 51.6408 16.7413 52.08 16.4571 52.4417C16.0955 52.9067 15.5271 53.165 14.933 53.165ZM6.30464 40.5583C5.45214 40.5583 4.70297 40.0158 4.47047 39.215C3.6438 36.5542 3.23047 33.79 3.23047 31C3.23047 29.9408 4.1088 29.0625 5.16797 29.0625C6.22714 29.0625 7.10547 29.9408 7.10547 31C7.10547 33.4025 7.46714 35.7792 8.16464 38.0525C8.2163 38.2333 8.24214 38.44 8.24214 38.6467C8.24214 39.4992 7.69964 40.2225 6.8988 40.4808C6.69214 40.5325 6.5113 40.5583 6.30464 40.5583Z" fill="#2E58EA"/>
<path d="M31.0013 41.3346C36.7082 41.3346 41.3346 36.7082 41.3346 31.0013C41.3346 25.2944 36.7082 20.668 31.0013 20.668C25.2944 20.668 20.668 25.2944 20.668 31.0013C20.668 36.7082 25.2944 41.3346 31.0013 41.3346Z" fill="#2E58EA"/>
</svg>
