<svg width="62" height="62" viewBox="0 0 62 62" fill="none" xmlns="http://www.w3.org/2000/svg">
<path d="M41.9779 58.1237C44.4747 58.1237 46.4987 56.0997 46.4987 53.6029C46.4987 51.1061 44.4747 49.082 41.9779 49.082C39.4811 49.082 37.457 51.1061 37.457 53.6029C37.457 56.0997 39.4811 58.1237 41.9779 58.1237Z" fill="#FF922C"/>
<path d="M21.3138 58.1237C23.8106 58.1237 25.8346 56.0997 25.8346 53.6029C25.8346 51.1061 23.8106 49.082 21.3138 49.082C18.817 49.082 16.793 51.1061 16.793 53.6029C16.793 56.0997 18.817 58.1237 21.3138 58.1237Z" fill="#FF922C"/>
<path d="M12.5046 10.1796L11.988 16.5088C11.8846 17.723 12.8405 18.7305 14.0546 18.7305H53.6055C54.6905 18.7305 55.5946 17.9038 55.6721 16.8188C56.008 12.2463 52.5205 8.5263 47.948 8.5263H16.1988C15.9405 7.38964 15.4238 6.30464 14.623 5.40047C13.3313 4.0313 11.523 3.23047 9.66297 3.23047H5.16797C4.1088 3.23047 3.23047 4.1088 3.23047 5.16797C3.23047 6.22714 4.1088 7.10547 5.16797 7.10547H9.66297C10.4638 7.10547 11.213 7.4413 11.7555 8.00963C12.298 8.6038 12.5563 9.3788 12.5046 10.1796Z" fill="#FF922C"/>
<path d="M52.983 22.6055H13.3547C12.2697 22.6055 11.3913 23.4321 11.288 24.4913L10.358 35.7288C9.99634 40.1463 13.458 43.918 17.8755 43.918H46.6022C50.4772 43.918 53.8872 40.7405 54.1713 36.8655L55.0238 24.8013C55.1272 23.613 54.1972 22.6055 52.983 22.6055Z" fill="#FF922C"/>
</svg>
