<svg width="80" height="80" viewBox="0 0 80 80" fill="none" xmlns="http://www.w3.org/2000/svg">
<g id="vuesax/outline/home-trend-up">
<g id="home-trend-up">
<path id="Vector" d="M59.2998 75.7994H20.6998C11.5665 75.7994 4.1665 68.3661 4.1665 59.2327V34.5327C4.1665 29.9994 6.9665 24.2994 10.5665 21.4994L28.5332 7.49939C33.9332 3.29939 42.5665 3.09939 48.1665 7.03273L68.7665 21.4661C72.7332 24.2327 75.8332 30.1661 75.8332 34.9994V59.2661C75.8332 68.3661 68.4332 75.7994 59.2998 75.7994ZM31.5998 11.4327L13.6332 25.4327C11.2665 27.2994 9.1665 31.5327 9.1665 34.5327V59.2327C9.1665 65.5994 14.3332 70.7994 20.6998 70.7994H59.2998C65.6665 70.7994 70.8332 65.6327 70.8332 59.2661V34.9994C70.8332 31.7994 68.5332 27.3661 65.8998 25.5661L45.2998 11.1327C41.4998 8.46606 35.2332 8.59939 31.5998 11.4327Z" fill="#2E58EA"/>
<path id="Vector_2" d="M25 57.5001C24.3666 57.5001 23.7333 57.2668 23.2333 56.7668C22.2666 55.8001 22.2666 54.2001 23.2333 53.2335L33.9 42.5668C34.4333 42.0335 35.1333 41.7668 35.9 41.8335C36.6333 41.9001 37.3 42.3001 37.7333 42.9335L41.3666 48.4001L53.2 36.5668C54.1666 35.6001 55.7666 35.6001 56.7333 36.5668C57.7 37.5335 57.7 39.1335 56.7333 40.1001L42.7333 54.1001C42.2 54.6335 41.5 54.9001 40.7333 54.8335C40 54.7668 39.3333 54.3668 38.9 53.7335L35.2666 48.2668L26.7666 56.7668C26.2666 57.2668 25.6333 57.5001 25 57.5001Z" fill="#FE632F"/>
<path id="Vector_3" d="M55.0002 47.5007C53.6335 47.5007 52.5002 46.3673 52.5002 45.0007V40.834H48.3335C46.9668 40.834 45.8335 39.7007 45.8335 38.334C45.8335 36.9673 46.9668 35.834 48.3335 35.834H55.0002C56.3668 35.834 57.5002 36.9673 57.5002 38.334V45.0007C57.5002 46.3673 56.3668 47.5007 55.0002 47.5007Z" fill="#FE632F"/>
</g>
</g>
</svg>
