<svg width="80" height="80" viewBox="0 0 80 80" fill="none" xmlns="http://www.w3.org/2000/svg">
<g id="vuesax/outline/coin">
<g id="coin">
<path id="Vector" d="M36.1332 45.1333H31.1332C27.2998 45.1333 24.1998 41.9333 24.1998 37.9667C24.1998 36.6 25.3332 35.4667 26.6998 35.4667C28.0665 35.4667 29.1998 36.6 29.1998 37.9667C29.1998 39.1667 30.0665 40.1333 31.1332 40.1333H36.1332C36.8998 40.1333 37.4998 39.4333 37.4998 38.5667C37.4998 37.4 37.2998 37.3333 36.5332 37.0667L28.4998 34.2667C25.5998 33.2667 24.1665 31.2333 24.1665 28.0667C24.1665 24.4667 27.0332 21.5 30.5332 21.5H35.5332C39.3665 21.5 42.4665 24.7 42.4665 28.6667C42.4665 30.0333 41.3332 31.1667 39.9665 31.1667C38.5998 31.1667 37.4665 30.0333 37.4665 28.6667C37.4665 27.4667 36.5998 26.5 35.5332 26.5H30.5332C29.7665 26.5 29.1665 27.2 29.1665 28.0667C29.1665 29.2333 29.3665 29.3 30.1332 29.5667L38.1665 32.3667C41.0665 33.4 42.4665 35.4333 42.4665 38.5667C42.4998 42.2 39.6332 45.1333 36.1332 45.1333Z" fill="#FE632F"/>
<path id="Vector_2" d="M33.3335 47.8006C31.9668 47.8006 30.8335 46.6673 30.8335 45.3006V42.834C30.8335 41.4673 31.9668 40.334 33.3335 40.334C34.7002 40.334 35.8335 41.4673 35.8335 42.834V45.3006C35.8335 46.7006 34.7002 47.8006 33.3335 47.8006Z" fill="#FE632F"/>
<path id="Vector_3" d="M33.3335 26.4672C31.9668 26.4672 30.8335 25.3339 30.8335 23.9672V21.3672C30.8335 20.0005 31.9668 18.8672 33.3335 18.8672C34.7002 18.8672 35.8335 20.0005 35.8335 21.3672V23.9672C35.8335 25.3339 34.7002 26.4672 33.3335 26.4672Z" fill="#FE632F"/>
<path id="Vector_4" d="M33.2998 62.3995C17.2332 62.3995 4.1665 49.3328 4.1665 33.2661C4.1665 17.1995 17.2332 4.13281 33.2998 4.13281C49.3665 4.13281 62.4332 17.1995 62.4332 33.2661C62.4332 49.3328 49.3332 62.3995 33.2998 62.3995ZM33.2998 9.16615C19.9998 9.16615 9.1665 19.9995 9.1665 33.2995C9.1665 46.5995 19.9998 57.3995 33.2998 57.3995C46.5998 57.3995 57.4332 46.5661 57.4332 33.2661C57.4332 19.9661 46.5998 9.16615 33.2998 9.16615Z" fill="#2E58EA"/>
<path id="Vector_5" d="M56.7333 75.7343C50.5666 75.7343 44.7666 72.7343 41.1999 67.6676C40.3999 66.5343 40.6666 64.9676 41.7999 64.1676C42.9332 63.3676 44.4999 63.6343 45.2999 64.7676C47.9332 68.5009 52.1999 70.7009 56.7333 70.7009C64.4666 70.7009 70.7332 64.4343 70.7332 56.7009C70.7332 52.2009 68.5332 47.9343 64.8666 45.3009C63.7332 44.5009 63.4999 42.9343 64.2999 41.8009C65.0999 40.6676 66.6666 40.4343 67.7999 41.2343C72.7666 44.8009 75.7332 50.5676 75.7332 56.7009C75.7332 67.2343 67.2333 75.7343 56.7333 75.7343Z" fill="#2E58EA"/>
</g>
</g>
</svg>
