<svg width="80" height="80" viewBox="0 0 80 80" fill="none" xmlns="http://www.w3.org/2000/svg">
<g id="vuesax/outline/task-square">
<g id="task-square">
<path id="Vector" d="M58.7334 32.0664H41.2334C39.8667 32.0664 38.7334 30.9331 38.7334 29.5664C38.7334 28.1997 39.8667 27.0664 41.2334 27.0664H58.7334C60.1001 27.0664 61.2334 28.1997 61.2334 29.5664C61.2334 30.9331 60.1334 32.0664 58.7334 32.0664Z" fill="#FE632F"/>
<path id="Vector_2" d="M23.7334 34.5991C23.1 34.5991 22.4667 34.3658 21.9667 33.8658L19.4667 31.3658C18.5 30.3991 18.5 28.7991 19.4667 27.8324C20.4334 26.8658 22.0334 26.8658 23 27.8324L23.7334 28.5658L29.4667 22.8324C30.4334 21.8658 32.0334 21.8658 33 22.8324C33.9667 23.7991 33.9667 25.3991 33 26.3658L25.5 33.8658C25.0334 34.3324 24.4 34.5991 23.7334 34.5991Z" fill="#FE632F"/>
<path id="Vector_3" d="M58.7334 55.4004H41.2334C39.8667 55.4004 38.7334 54.2671 38.7334 52.9004C38.7334 51.5337 39.8667 50.4004 41.2334 50.4004H58.7334C60.1001 50.4004 61.2334 51.5337 61.2334 52.9004C61.2334 54.2671 60.1334 55.4004 58.7334 55.4004Z" fill="#FE632F"/>
<path id="Vector_4" d="M23.7334 57.9331C23.1 57.9331 22.4667 57.6997 21.9667 57.1997L19.4667 54.6997C18.5 53.7331 18.5 52.1331 19.4667 51.1664C20.4334 50.1997 22.0334 50.1997 23 51.1664L23.7334 51.8997L29.4667 46.1664C30.4334 45.1997 32.0334 45.1997 33 46.1664C33.9667 47.1331 33.9667 48.7331 33 49.6997L25.5 57.1997C25.0334 57.6664 24.4 57.9331 23.7334 57.9331Z" fill="#FE632F"/>
<path id="Vector_5" d="M49.9998 75.8327H29.9998C11.8998 75.8327 4.1665 68.0993 4.1665 49.9994V29.9993C4.1665 11.8993 11.8998 4.16602 29.9998 4.16602H49.9998C68.0998 4.16602 75.8332 11.8993 75.8332 29.9993V49.9994C75.8332 68.0993 68.0998 75.8327 49.9998 75.8327ZM29.9998 9.16602C14.6332 9.16602 9.1665 14.6327 9.1665 29.9993V49.9994C9.1665 65.366 14.6332 70.8327 29.9998 70.8327H49.9998C65.3665 70.8327 70.8332 65.366 70.8332 49.9994V29.9993C70.8332 14.6327 65.3665 9.16602 49.9998 9.16602H29.9998Z" fill="#2E58EA"/>
</g>
</g>
</svg>
