<svg width="80" height="80" viewBox="0 0 80 80" fill="none" xmlns="http://www.w3.org/2000/svg">
<g id="vuesax/outline/lovely">
<g id="lovely">
<path id="Vector" d="M36.3999 65.834C35.4332 65.834 34.4998 65.7006 33.7332 65.4006C22.3332 61.5006 4.1665 47.5673 4.1665 26.9673C4.1665 16.4006 12.6998 7.83398 23.1998 7.83398C28.2331 7.83398 32.9331 9.76727 36.4331 13.2006C39.9665 9.76727 44.6332 7.83398 49.6665 7.83398C60.1665 7.83398 68.6998 16.4006 68.6998 26.9673C68.6998 28.4006 68.5998 29.8673 68.3998 31.3673C68.2998 32.134 67.8332 32.834 67.1665 33.234C66.4998 33.634 65.6665 33.6673 64.9332 33.3673C60.8332 31.6007 55.7332 32.934 53.0666 36.5007C52.5999 37.134 51.6999 37.4673 51.0665 37.5006C50.2665 37.5006 49.5332 37.134 49.0665 36.5007C47.1665 33.9673 44.2665 32.534 41.1332 32.534C35.6998 32.534 31.2665 37.0006 31.2665 42.5006C31.2665 51.1673 36.2332 57.334 40.4332 61.034C41.0332 61.5673 41.3332 62.334 41.2665 63.134C41.1999 63.934 40.7665 64.6339 40.0665 65.0673C39.6998 65.2673 39.3998 65.4006 39.2331 65.434C38.3665 65.7006 37.3999 65.834 36.3999 65.834ZM23.1998 12.834C15.4665 12.834 9.1665 19.1673 9.1665 26.9673C9.1665 44.4006 23.6665 55.134 31.9999 59.2673C28.8332 55.034 26.2332 49.4339 26.2332 42.4673C26.2332 34.2006 32.8998 27.5006 41.0998 27.5006C44.8331 27.5006 48.3332 28.8673 51.0332 31.3007C54.3998 28.3007 59.1999 26.9339 63.6665 27.7673C63.6665 27.5006 63.6665 27.234 63.6665 27.0007C63.6665 19.2007 57.3666 12.8672 49.6332 12.8672C45.1999 12.8672 41.0998 14.9339 38.3998 18.5006C37.9331 19.1339 37.1999 19.5007 36.3999 19.5007C35.5999 19.5007 34.8665 19.1339 34.3999 18.5006C31.7665 14.9006 27.6665 12.834 23.1998 12.834Z" fill="#FE632F"/>
<path id="Vector_2" d="M51.0669 72.1666C50.3003 72.1666 49.5003 72.0666 48.8669 71.8333C46.0003 70.8666 41.367 68.5 37.1336 64.7334C32.2003 60.3667 26.3003 52.9666 26.3003 42.4666C26.3003 34.2 32.9669 27.5 41.1669 27.5C44.9003 27.5 48.4002 28.8667 51.1002 31.3C55.3002 27.5334 61.7002 26.4667 66.9669 28.7667C72.3669 31.1667 75.8669 36.5667 75.8669 42.5C75.8669 58.3 62.0003 68.9 53.2669 71.8667C52.6003 72.0667 51.8336 72.1666 51.0669 72.1666ZM41.1336 32.5C35.7002 32.5 31.2669 36.9666 31.2669 42.4666C31.2669 51.1333 36.2336 57.3 40.4336 61C44.1336 64.2666 48.0336 66.3 50.467 67.1C50.7336 67.2 51.3669 67.2 51.6003 67.1C56.6003 65.4 70.8336 57.2333 70.8336 42.4666C70.8336 38.5 68.5003 34.9 64.9336 33.3333C60.9003 31.5667 55.7336 32.9 53.067 36.4667C52.6003 37.1 51.7003 37.4333 51.0669 37.4666C50.2669 37.4666 49.5336 37.1 49.0669 36.4667C47.1669 33.9333 44.2669 32.5 41.1336 32.5Z" fill="#2E58EA"/>
</g>
</g>
</svg>
