<svg width="80" height="80" viewBox="0 0 80 80" fill="none" xmlns="http://www.w3.org/2000/svg">
<g id="vuesax/outline/buildings">
<g id="buildings">
<path id="Vector" d="M43.3332 75.8327H16.6665C8.59984 75.8327 4.1665 71.3994 4.1665 63.3327V36.666C4.1665 28.5993 8.59984 24.166 16.6665 24.166H33.3332C34.6998 24.166 35.8332 25.2993 35.8332 26.666V63.3327C35.8332 68.5994 38.0665 70.8327 43.3332 70.8327C44.6998 70.8327 45.8332 71.966 45.8332 73.3327C45.8332 74.6994 44.6998 75.8327 43.3332 75.8327ZM16.6665 29.166C11.3998 29.166 9.1665 31.3993 9.1665 36.666V63.3327C9.1665 68.5994 11.3998 70.8327 16.6665 70.8327H32.6665C31.4665 68.866 30.8332 66.366 30.8332 63.3327V29.166H16.6665Z" fill="#2E58EA"/>
<path id="Vector_2" d="M33.3332 29.1673H16.6665C15.2998 29.1673 14.1665 28.034 14.1665 26.6673V20.0007C14.1665 14.934 18.2665 10.834 23.3332 10.834H33.6998C34.4665 10.834 35.1999 11.2006 35.6665 11.8006C36.1332 12.4339 36.2998 13.234 36.0998 13.9673C35.8998 14.7007 35.8332 15.534 35.8332 16.6673V26.6673C35.8332 28.034 34.6998 29.1673 33.3332 29.1673ZM19.1665 24.1673H30.8332V16.6673C30.8332 16.3673 30.8332 16.1007 30.8332 15.834H23.3332C21.0332 15.834 19.1665 17.7007 19.1665 20.0007V24.1673Z" fill="#2E58EA"/>
<path id="Vector_3" d="M46.6665 45.8327C45.2998 45.8327 44.1665 44.6993 44.1665 43.3327V26.666C44.1665 25.2993 45.2998 24.166 46.6665 24.166C48.0332 24.166 49.1665 25.2993 49.1665 26.666V43.3327C49.1665 44.6993 48.0332 45.8327 46.6665 45.8327Z" fill="#FE632F"/>
<path id="Vector_4" d="M60 45.8327C58.6333 45.8327 57.5 44.6993 57.5 43.3327V26.666C57.5 25.2993 58.6333 24.166 60 24.166C61.3667 24.166 62.5 25.2993 62.5 26.666V43.3327C62.5 44.6993 61.3667 45.8327 60 45.8327Z" fill="#FE632F"/>
<path id="Vector_5" d="M59.9998 75.8327H46.6665C45.2998 75.8327 44.1665 74.6994 44.1665 73.3327V59.9993C44.1665 56.7993 46.7998 54.166 49.9998 54.166H56.6665C59.8665 54.166 62.4998 56.7993 62.4998 59.9993V73.3327C62.4998 74.6994 61.3665 75.8327 59.9998 75.8327ZM49.1665 70.8327H57.4998V59.9993C57.4998 59.5327 57.1332 59.166 56.6665 59.166H49.9998C49.5332 59.166 49.1665 59.5327 49.1665 59.9993V70.8327Z" fill="#FE632F"/>
<path id="Vector_6" d="M20 59.1673C18.6333 59.1673 17.5 58.034 17.5 56.6673V43.334C17.5 41.9673 18.6333 40.834 20 40.834C21.3667 40.834 22.5 41.9673 22.5 43.334V56.6673C22.5 58.034 21.3667 59.1673 20 59.1673Z" fill="#2E58EA"/>
<path id="Vector_7" d="M63.3335 75.8327H43.3335C35.2668 75.8327 30.8335 71.3994 30.8335 63.3327V16.666C30.8335 8.59935 35.2668 4.16602 43.3335 4.16602H63.3335C71.4002 4.16602 75.8335 8.59935 75.8335 16.666V63.3327C75.8335 71.3994 71.4002 75.8327 63.3335 75.8327ZM43.3335 9.16602C38.0668 9.16602 35.8335 11.3993 35.8335 16.666V63.3327C35.8335 68.5993 38.0668 70.8327 43.3335 70.8327H63.3335C68.6002 70.8327 70.8335 68.5993 70.8335 63.3327V16.666C70.8335 11.3993 68.6002 9.16602 63.3335 9.16602H43.3335Z" fill="#FE632F"/>
</g>
</g>
</svg>
