<svg width="60" height="60" viewBox="0 0 60 60" fill="none" xmlns="http://www.w3.org/2000/svg">
<g id="vuesax/outline/3dcube">
<g id="3dcube">
<path id="Vector" d="M30 30.625C28.9 30.625 27.8 30.35 26.8 29.825L10.525 21.05C9.05 20.25 8.125 18.675 8.125 16.925C8.125 15.175 9.05 13.6 10.525 12.8L26.8 4.025C28.8 2.95 31.2 2.95 33.175 4.025L49.45 12.8C50.925 13.6 51.85 15.175 51.85 16.925C51.85 18.675 50.925 20.25 49.45 21.05L33.175 29.825C32.2 30.375 31.1 30.625 30 30.625ZM30 6.95C29.525 6.95 29.025 7.075 28.575 7.325L12.325 16.075C11.9 16.3 11.875 16.775 11.875 16.925C11.875 17.075 11.9 17.55 12.325 17.75L28.6 26.525C29.5 27 30.525 27 31.425 26.525L47.7 17.75C48.1 17.525 48.15 17.05 48.15 16.925C48.15 16.775 48.125 16.3 47.7 16.1L31.425 7.325C30.975 7.075 30.475 6.95 30 6.95Z" fill="#FE632F"/>
<path id="Vector_2" d="M24.45 56.7994C23.75 56.7994 23.025 56.6244 22.375 56.2994L7.225 48.7494C4.7 47.4744 3.125 44.9244 3.125 42.0994V27.7994C3.125 26.1744 3.95 24.6994 5.325 23.8494C6.725 22.9994 8.4 22.9244 9.85 23.6494L25 31.1994C27.525 32.4744 29.1 34.9994 29.1 37.8494V52.1494C29.1 53.7744 28.275 55.2494 26.9 56.0994C26.15 56.5744 25.3 56.7994 24.45 56.7994ZM7.775 26.8994C7.575 26.8994 7.4 26.9744 7.3 27.0244C7.15 27.1244 6.875 27.3494 6.875 27.7994V42.0994C6.875 43.4994 7.65 44.7744 8.9 45.3994L24.025 52.9744C24.425 53.1744 24.75 53.0244 24.9 52.9494C25.05 52.8494 25.325 52.6244 25.325 52.1744V37.8744C25.325 36.4744 24.55 35.1994 23.3 34.5744L8.175 26.9994C8.025 26.9244 7.9 26.8994 7.775 26.8994Z" fill="#2E58EA"/>
<path id="Vector_3" d="M35.5499 56.799C34.6999 56.799 33.8499 56.574 33.0999 56.099C31.7249 55.249 30.8999 53.774 30.8999 52.149V37.849C30.8999 35.024 32.4749 32.474 34.9999 31.199L50.1249 23.624C51.5749 22.899 53.2749 22.974 54.6499 23.824C56.0249 24.674 56.8499 26.149 56.8499 27.774V42.074C56.8499 44.899 55.2749 47.449 52.7499 48.724L37.6249 56.299C36.9749 56.649 36.2499 56.799 35.5499 56.799ZM52.2249 26.899C52.0999 26.899 51.9749 26.924 51.8249 26.999L36.6999 34.574C35.4499 35.199 34.6749 36.449 34.6749 37.874V52.174C34.6749 52.624 34.9499 52.849 35.0999 52.949C35.2499 53.049 35.5749 53.174 35.9749 52.974L51.0999 45.399C52.3499 44.774 53.1249 43.499 53.1249 42.099V27.799C53.1249 27.349 52.8499 27.124 52.6999 27.024C52.5999 26.974 52.4249 26.899 52.2249 26.899Z" fill="#2E58EA"/>
</g>
</g>
</svg>
