<svg width="60" height="60" viewBox="0 0 60 60" fill="none" xmlns="http://www.w3.org/2000/svg">
<g id="vuesax/bold/box-2">
<g id="box-2">
<path id="Vector" d="M13.325 48.5492C13.05 48.5492 12.75 48.4742 12.5 48.3492L6.95005 45.5742C6.32505 45.2492 5.92505 44.5992 5.92505 43.8992V36.9492C5.92505 35.9242 6.77505 35.0742 7.80005 35.0742C8.82505 35.0742 9.67505 35.9242 9.67505 36.9492V42.7242L14.175 44.9992C15.1 45.4492 15.475 46.5742 15 47.4992C14.675 48.1492 14.025 48.5492 13.325 48.5492Z" fill="#2E58EA"/>
<path id="Vector_2" d="M29.9999 56.8758C29.8499 56.8758 29.6999 56.8508 29.5749 56.8258C29.4249 56.8008 29.2749 56.7258 29.1249 56.6508L23.5999 53.9008C22.6749 53.4258 22.2999 52.3008 22.7499 51.3758C23.2249 50.4508 24.3499 50.0758 25.2749 50.5258L28.1249 51.9508V48.0508C28.1249 47.0258 28.9749 46.1758 29.9999 46.1758C31.0249 46.1758 31.8749 47.0258 31.8749 48.0508V51.9508L34.7249 50.5258C35.6499 50.0758 36.7749 50.4508 37.2499 51.3758C37.7249 52.3008 37.3499 53.4258 36.3999 53.9008L30.8749 56.6508C30.7249 56.7258 30.5749 56.7758 30.4249 56.8258C30.2749 56.8508 30.1499 56.8758 29.9999 56.8758Z" fill="#2E58EA"/>
<path id="Vector_3" d="M46.675 48.5496C46 48.5496 45.325 48.1746 45 47.5246C44.525 46.5996 44.9 45.4746 45.85 44.9996L50.375 42.7496V36.9746C50.375 35.9496 51.225 35.0996 52.25 35.0996C53.275 35.0996 54.125 35.9496 54.125 36.9746V43.9246C54.125 44.6246 53.725 45.2746 53.1 45.5996L47.5 48.3496C47.225 48.4746 46.95 48.5496 46.675 48.5496Z" fill="#FE632F"/>
<path id="Vector_4" d="M29.9999 36.0496C28.9749 36.0496 28.1249 35.1996 28.1249 34.1746V28.3996L23.5999 26.1496C22.6749 25.6746 22.2999 24.5496 22.7499 23.6246C23.2249 22.6996 24.3499 22.3246 25.2749 22.7746L29.9999 25.1246L34.7249 22.7746C35.6499 22.3246 36.7749 22.6746 37.2499 23.6246C37.7249 24.5496 37.3499 25.6746 36.3999 26.1496L31.8749 28.3996V34.1746C31.8749 35.1996 31.0249 36.0496 29.9999 36.0496Z" fill="#FE632F"/>
<path id="Vector_5" d="M7.7749 24.9241C6.7499 24.9241 5.8999 24.0741 5.8999 23.0491V16.1491V16.1241C5.8999 15.9741 5.9249 15.8241 5.9499 15.6991C5.9999 15.4741 6.0749 15.2991 6.1749 15.1241C6.2499 14.9991 6.3499 14.8991 6.4499 14.7991C6.5499 14.6991 6.6749 14.5991 6.7999 14.5241C6.8499 14.4991 6.9249 14.4491 6.9749 14.4241L12.4999 11.6491C13.4249 11.1991 14.5499 11.5741 14.9999 12.4991C15.4749 13.4241 15.0999 14.5491 14.1749 14.9991L11.9749 16.0991L14.1749 17.1991C15.0999 17.6741 15.4749 18.7991 14.9999 19.7241C14.5499 20.6491 13.4249 21.0241 12.4999 20.5741L9.6499 19.1491V23.0491C9.6499 24.0991 8.8249 24.9241 7.7749 24.9241Z" fill="#FE632F"/>
<path id="Vector_6" d="M35.55 9.65039C35.275 9.65039 34.975 9.57539 34.725 9.45039L30 7.10039L25.275 9.45039C24.35 9.92539 23.225 9.55039 22.775 8.62539C22.3 7.70039 22.675 6.57539 23.6 6.10039L29.15 3.32539C29.675 3.05039 30.3 3.05039 30.825 3.32539L36.375 6.10039C37.3 6.57539 37.675 7.70039 37.225 8.62539C36.9 9.27539 36.25 9.65039 35.55 9.65039Z" fill="#FE632F"/>
<path id="Vector_7" d="M52.2251 24.9241C51.2001 24.9241 50.3501 24.0741 50.3501 23.0491V19.1491L47.5001 20.5741C46.5751 21.0241 45.4501 20.6491 45.0001 19.7241C44.5251 18.7991 44.9001 17.6741 45.8501 17.1991L48.0501 16.0991L45.8251 14.9991C44.9001 14.5491 44.5251 13.4241 45.0001 12.4991C45.4751 11.5741 46.5751 11.1991 47.5001 11.6491L53.0251 14.3991C53.0751 14.4241 53.1501 14.4491 53.2001 14.4991C53.3501 14.5741 53.4751 14.6991 53.6001 14.8241C53.6751 14.9241 53.7501 15.0241 53.8251 15.1241C53.9251 15.2991 54.0001 15.4741 54.0501 15.6741C54.0751 15.8241 54.1001 15.9741 54.1001 16.0991V16.1241V23.0241C54.1001 24.0991 53.2501 24.9241 52.2251 24.9241Z" fill="#FE632F"/>
</g>
</g>
</svg>
