<svg width="60" height="60" viewBox="0 0 60 60" fill="none" xmlns="http://www.w3.org/2000/svg">
<g id="vuesax/outline/bubble">
<g id="bubble">
<path id="Vector" d="M38.9749 32.525C30.8749 32.525 24.2749 25.925 24.2749 17.825C24.2749 9.72501 30.8749 3.125 38.9749 3.125C47.0749 3.125 53.6749 9.72501 53.6749 17.825C53.6749 25.925 47.0749 32.525 38.9749 32.525ZM38.9749 6.875C32.9499 6.875 28.0249 11.775 28.0249 17.825C28.0249 23.875 32.9249 28.775 38.9749 28.775C45.0249 28.775 49.9249 23.875 49.9249 17.825C49.9249 11.775 44.9999 6.875 38.9749 6.875Z" fill="#FE632F"/>
<path id="Vector_2" d="M15.9007 50.4742C10.6257 50.4742 6.32568 46.1742 6.32568 40.8992C6.32568 35.6242 10.6257 31.3242 15.9007 31.3242C21.1756 31.3242 25.4757 35.6242 25.4757 40.8992C25.4757 46.1742 21.1756 50.4742 15.9007 50.4742ZM15.9007 35.0742C12.7007 35.0742 10.0757 37.6742 10.0757 40.8992C10.0757 44.0992 12.6757 46.7242 15.9007 46.7242C19.1006 46.7242 21.7257 44.1242 21.7257 40.8992C21.7257 37.6992 19.1006 35.0742 15.9007 35.0742Z" fill="#2E58EA"/>
<path id="Vector_3" d="M41.5504 56.8742C36.9754 56.8742 33.2754 53.1492 33.2754 48.5992C33.2754 44.0242 37.0004 40.3242 41.5504 40.3242C46.1004 40.3242 49.8254 44.0492 49.8254 48.5992C49.8254 53.1492 46.1004 56.8742 41.5504 56.8742ZM41.5504 44.0492C39.0504 44.0492 37.0254 46.0742 37.0254 48.5742C37.0254 51.0742 39.0504 53.0992 41.5504 53.0992C44.0504 53.0992 46.0754 51.0742 46.0754 48.5742C46.0754 46.0992 44.0504 44.0492 41.5504 44.0492Z" fill="#2E58EA"/>
</g>
</g>
</svg>
