<svg width="60" height="60" viewBox="0 0 60 60" fill="none" xmlns="http://www.w3.org/2000/svg">
<g id="vuesax/outline/chart-2">
<g id="chart-2">
<path id="Vector" d="M37.5 56.875H22.5C8.925 56.875 3.125 51.075 3.125 37.5V22.5C3.125 8.925 8.925 3.125 22.5 3.125H37.5C51.075 3.125 56.875 8.925 56.875 22.5V37.5C56.875 51.075 51.075 56.875 37.5 56.875ZM22.5 6.875C10.975 6.875 6.875 10.975 6.875 22.5V37.5C6.875 49.025 10.975 53.125 22.5 53.125H37.5C49.025 53.125 53.125 49.025 53.125 37.5V22.5C53.125 10.975 49.025 6.875 37.5 6.875H22.5Z" fill="#FE632F"/>
<path id="Vector_2" d="M38.75 48.125C34.95 48.125 31.875 45.05 31.875 41.25V18.75C31.875 14.95 34.95 11.875 38.75 11.875C42.55 11.875 45.625 14.95 45.625 18.75V41.25C45.625 45.05 42.55 48.125 38.75 48.125ZM38.75 15.625C37.025 15.625 35.625 17.025 35.625 18.75V41.25C35.625 42.975 37.025 44.375 38.75 44.375C40.475 44.375 41.875 42.975 41.875 41.25V18.75C41.875 17.025 40.475 15.625 38.75 15.625Z" fill="#2E58EA"/>
<path id="Vector_3" d="M21.25 48.125C17.45 48.125 14.375 45.05 14.375 41.25V32.5C14.375 28.7 17.45 25.625 21.25 25.625C25.05 25.625 28.125 28.7 28.125 32.5V41.25C28.125 45.05 25.05 48.125 21.25 48.125ZM21.25 29.375C19.525 29.375 18.125 30.775 18.125 32.5V41.25C18.125 42.975 19.525 44.375 21.25 44.375C22.975 44.375 24.375 42.975 24.375 41.25V32.5C24.375 30.775 22.975 29.375 21.25 29.375Z" fill="#2E58EA"/>
</g>
</g>
</svg>
