<svg width="60" height="60" viewBox="0 0 60 60" fill="none" xmlns="http://www.w3.org/2000/svg">
<g id="vuesax/outline/document-code-2">
<g id="document-code-2">
<path id="Vector" d="M40 56.875H27.5C26.475 56.875 25.625 56.025 25.625 55C25.625 53.975 26.475 53.125 27.5 53.125H40C47.15 53.125 50.625 49.65 50.625 42.5V17.5C50.625 10.35 47.15 6.875 40 6.875H20C12.85 6.875 9.375 10.35 9.375 17.5V35C9.375 36.025 8.525 36.875 7.5 36.875C6.475 36.875 5.625 36.025 5.625 35V17.5C5.625 8.375 10.875 3.125 20 3.125H40C49.125 3.125 54.375 8.375 54.375 17.5V42.5C54.375 51.625 49.125 56.875 40 56.875Z" fill="#FE632F"/>
<path id="Vector_2" d="M46.25 23.125H41.25C37.45 23.125 34.375 20.05 34.375 16.25V11.25C34.375 10.225 35.225 9.375 36.25 9.375C37.275 9.375 38.125 10.225 38.125 11.25V16.25C38.125 17.975 39.525 19.375 41.25 19.375H46.25C47.275 19.375 48.125 20.225 48.125 21.25C48.125 22.275 47.275 23.125 46.25 23.125Z" fill="#2E58EA"/>
<path id="Vector_3" d="M9.99961 54.3747C9.52461 54.3747 9.04961 54.1998 8.67461 53.8248L3.67461 48.8248C2.94961 48.0998 2.94961 46.8996 3.67461 46.1746L8.67461 41.1746C9.39961 40.4496 10.5996 40.4496 11.3246 41.1746C12.0496 41.8996 12.0496 43.0998 11.3246 43.8248L7.6496 47.4997L11.3246 51.1746C12.0496 51.8996 12.0496 53.0998 11.3246 53.8248C10.9496 54.1998 10.4746 54.3747 9.99961 54.3747Z" fill="#2E58EA"/>
<path id="Vector_4" d="M17.4996 54.3747C17.0246 54.3747 16.5496 54.1998 16.1746 53.8248C15.4496 53.0998 15.4496 51.8996 16.1746 51.1746L19.8496 47.4997L16.1746 43.8248C15.4496 43.0998 15.4496 41.8996 16.1746 41.1746C16.8996 40.4496 18.0996 40.4496 18.8246 41.1746L23.8246 46.1746C24.5496 46.8996 24.5496 48.0998 23.8246 48.8248L18.8246 53.8248C18.4496 54.1998 17.9746 54.3747 17.4996 54.3747Z" fill="#2E58EA"/>
</g>
</g>
</svg>
