<svg width="60" height="60" viewBox="0 0 60 60" fill="none" xmlns="http://www.w3.org/2000/svg">
<g id="vuesax/outline/message-circle">
<g id="message-circle">
<path id="Vector" d="M30 45.7758C28.825 45.7758 27.7 45.1758 26.925 44.1508L25.125 41.7508H24.75C19.7 41.7508 15 40.5758 15 32.0008V25.4258C15 19.6508 17.975 16.2258 23.35 15.7508C23.75 15.7008 24.225 15.6758 24.75 15.6758H35.25C41.525 15.6758 45 19.1258 45 25.4258V32.0008C45 32.5008 44.975 33.0008 44.925 33.4508C44.475 38.7508 41.05 41.7258 35.275 41.7258H34.9L33.1 44.1258C32.3 45.2008 31.175 45.7758 30 45.7758ZM24.75 19.4758C24.4 19.4758 24.075 19.4758 23.75 19.5258C20.225 19.8258 18.75 21.6008 18.75 25.4758V32.0508C18.75 37.2258 20.175 38.0508 24.75 38.0508H25.4C26.35 38.0508 27.375 38.5508 27.95 39.3008L29.925 41.9508L32.05 39.3258C32.65 38.5258 33.6 38.0508 34.6 38.0508H35.25C39.125 38.0508 40.875 36.5758 41.175 33.1258C41.225 32.7258 41.225 32.4008 41.225 32.0508V25.4758C41.225 21.2758 39.425 19.4758 35.225 19.4758H24.75Z" fill="#FE632F"/>
<path id="Vector_2" d="M30 56.875C15.175 56.875 3.125 44.825 3.125 30C3.125 15.175 15.175 3.125 30 3.125C44.825 3.125 56.875 15.175 56.875 30C56.875 44.825 44.825 56.875 30 56.875ZM30 6.875C17.25 6.875 6.875 17.25 6.875 30C6.875 42.75 17.25 53.125 30 53.125C42.75 53.125 53.125 42.75 53.125 30C53.125 17.25 42.75 6.875 30 6.875Z" fill="#2E58EA"/>
</g>
</g>
</svg>
