<svg width="60" height="60" viewBox="0 0 60 60" fill="none" xmlns="http://www.w3.org/2000/svg">
<g id="vuesax/outline/receipt">
<g id="receipt">
<path id="Vector" d="M30 56.875C28.05 56.875 26.15 55.875 24.85 54.125L22.325 50.75C21.8 50.05 21.1 49.65 20.35 49.6C19.6 49.575 18.85 49.9 18.25 50.525L16.825 49.25L18.2 50.525C14.6 54.375 11.825 54.075 10.5 53.55C9.15 53.025 6.875 51.3 6.875 45.75V17.6C6.875 6.5 10.075 3.125 20.55 3.125H39.45C49.925 3.125 53.125 6.5 53.125 17.6V45.75C53.125 51.275 50.85 53 49.5 53.55C48.175 54.075 45.425 54.375 41.8 50.525C41.2 49.875 40.475 49.525 39.675 49.6C38.925 49.65 38.2 50.05 37.675 50.75L35.15 54.125C33.85 55.875 31.95 56.875 30 56.875ZM20.2 45.825C20.3 45.825 20.425 45.825 20.525 45.825C22.375 45.925 24.125 46.9 25.3 48.475L27.825 51.85C29.05 53.475 30.925 53.475 32.15 51.85L34.675 48.475C35.875 46.9 37.6 45.925 39.475 45.825C41.325 45.725 43.175 46.5 44.525 47.95C46.425 49.975 47.675 50.225 48.1 50.05C48.7 49.8 49.35 48.35 49.35 45.75V17.6C49.35 8.575 47.775 6.875 39.425 6.875H20.55C12.2 6.875 10.625 8.575 10.625 17.6V45.75C10.625 48.375 11.275 49.825 11.875 50.05C12.3 50.225 13.55 49.975 15.45 47.95C16.8 46.575 18.475 45.825 20.2 45.825Z" fill="#FE632F"/>
<path id="Vector_2" d="M40 19.375H20C18.975 19.375 18.125 18.525 18.125 17.5C18.125 16.475 18.975 15.625 20 15.625H40C41.025 15.625 41.875 16.475 41.875 17.5C41.875 18.525 41.025 19.375 40 19.375Z" fill="#2E58EA"/>
<path id="Vector_3" d="M37.5 29.375H22.5C21.475 29.375 20.625 28.525 20.625 27.5C20.625 26.475 21.475 25.625 22.5 25.625H37.5C38.525 25.625 39.375 26.475 39.375 27.5C39.375 28.525 38.525 29.375 37.5 29.375Z" fill="#2E58EA"/>
</g>
</g>
</svg>
