<svg width="60" height="60" viewBox="0 0 60 60" fill="none" xmlns="http://www.w3.org/2000/svg">
<g id="vuesax/bold/sound">
<g id="sound">
<path id="Vector" d="M7.5 41.25C6.475 41.25 5.625 40.4 5.625 39.375V20.625C5.625 19.6 6.475 18.75 7.5 18.75C8.525 18.75 9.375 19.6 9.375 20.625V39.375C9.375 40.4 8.525 41.25 7.5 41.25Z" fill="#FE632F"/>
<path id="Vector_2" d="M18.75 47.5C17.725 47.5 16.875 46.65 16.875 45.625V14.375C16.875 13.35 17.725 12.5 18.75 12.5C19.775 12.5 20.625 13.35 20.625 14.375V45.625C20.625 46.65 19.775 47.5 18.75 47.5Z" fill="#FE632F"/>
<path id="Vector_3" d="M30 53.75C28.975 53.75 28.125 52.9 28.125 51.875V8.125C28.125 7.1 28.975 6.25 30 6.25C31.025 6.25 31.875 7.1 31.875 8.125V51.875C31.875 52.9 31.025 53.75 30 53.75Z" fill="#FE632F"/>
<path id="Vector_4" d="M41.25 47.5C40.225 47.5 39.375 46.65 39.375 45.625V14.375C39.375 13.35 40.225 12.5 41.25 12.5C42.275 12.5 43.125 13.35 43.125 14.375V45.625C43.125 46.65 42.275 47.5 41.25 47.5Z" fill="#2E58EA"/>
<path id="Vector_5" d="M52.5 41.25C51.475 41.25 50.625 40.4 50.625 39.375V20.625C50.625 19.6 51.475 18.75 52.5 18.75C53.525 18.75 54.375 19.6 54.375 20.625V39.375C54.375 40.4 53.525 41.25 52.5 41.25Z" fill="#2E58EA"/>
</g>
</g>
</svg>
