<svg width="60" height="60" viewBox="0 0 60 60" fill="none" xmlns="http://www.w3.org/2000/svg">
<g id="vuesax/outline/speedometer">
<g id="speedometer">
<path id="Vector" d="M47.85 50.625C47.375 50.625 46.9 50.45 46.525 50.1C45.775 49.375 45.775 48.2 46.5 47.45C50.775 43.1 53.125 37.35 53.125 31.25C53.125 18.5 42.75 8.125 30 8.125C17.25 8.125 6.875 18.5 6.875 31.25C6.875 37.325 9.20001 43.05 13.45 47.4C14.175 48.15 14.15 49.325 13.425 50.05C12.675 50.775 11.5 50.75 10.775 50.025C5.84999 44.975 3.125 38.3 3.125 31.25C3.125 16.425 15.175 4.375 30 4.375C44.825 4.375 56.875 16.425 56.875 31.25C56.875 38.325 54.15 45.025 49.175 50.075C48.825 50.45 48.325 50.625 47.85 50.625Z" fill="#FE632F"/>
<path id="Vector_2" d="M29.9997 55.625C24.3247 55.625 19.6997 51 19.6997 45.325C19.6997 39.65 24.3247 35 29.9997 35C35.6747 35 40.2997 39.625 40.2997 45.3C40.2997 50.975 35.6747 55.625 29.9997 55.625ZM29.9997 38.75C26.3747 38.75 23.4497 41.7 23.4497 45.3C23.4497 48.9 26.3997 51.85 29.9997 51.85C33.5997 51.85 36.5497 48.9 36.5497 45.3C36.5497 41.7 33.6247 38.75 29.9997 38.75Z" fill="#2E58EA"/>
<path id="Vector_3" d="M40 31.875H38.125C36.05 31.875 34.375 30.2 34.375 28.125V26.25C34.375 23.15 36.9 20.625 40 20.625C43.1 20.625 45.625 23.15 45.625 26.25C45.625 29.35 43.1 31.875 40 31.875ZM40 24.375C38.975 24.375 38.125 25.225 38.125 26.25V28.125H40C41.025 28.125 41.875 27.275 41.875 26.25C41.875 25.225 41.025 24.375 40 24.375Z" fill="#2E58EA"/>
</g>
</g>
</svg>
