<svg width="60" height="60" viewBox="0 0 60 60" fill="none" xmlns="http://www.w3.org/2000/svg">
<g id="vuesax/outline/star">
<g id="star">
<path id="Vector" d="M23.7005 51.7254C22.4505 51.7254 21.5755 51.3004 21.0505 50.9004C20.0505 50.1754 18.5005 48.3004 19.4755 44.1004L20.9004 37.9504C21.0254 37.4254 20.7504 36.4754 20.3754 36.0754L15.4005 31.1004C12.7755 28.4754 13.0005 26.2004 13.3505 25.0754C13.7005 23.9504 14.8504 21.9754 18.5004 21.3504L24.8755 20.3004C25.3505 20.2254 26.1255 19.6504 26.3255 19.2254L29.8505 12.1754C31.5505 8.77538 33.8005 8.27539 35.0005 8.27539C36.2005 8.27539 38.4505 8.77538 40.1505 12.1754L43.6755 19.2254C43.9005 19.6504 44.6504 20.2254 45.1254 20.3004L51.5005 21.3504C55.1505 21.9504 56.3005 23.9504 56.6505 25.0754C57.0005 26.2004 57.2255 28.4754 54.6005 31.1004L49.6255 36.0754C49.2505 36.4504 48.9755 37.4254 49.1005 37.9504L50.5254 44.1004C51.5004 48.3254 49.9504 50.1754 48.9504 50.9004C47.9504 51.6254 45.7255 52.5504 41.9755 50.3254L36.0004 46.7754C35.5004 46.4754 34.4504 46.4754 33.9504 46.7754L27.9755 50.3254C26.2505 51.3754 24.8005 51.7254 23.7005 51.7254ZM35.0005 12.0254C34.6005 12.0254 33.8755 12.5004 33.2005 13.8504L29.6755 20.9004C28.9255 22.4254 27.1505 23.7254 25.4755 24.0004L19.1005 25.0504C17.6755 25.3004 17.0255 25.8254 16.9005 26.2254C16.7755 26.6254 17.0004 27.4254 18.0254 28.4504L23.0005 33.4254C24.2755 34.7004 24.9505 37.0254 24.5505 38.7754L23.1255 44.9254C22.7005 46.7004 22.9754 47.6504 23.2504 47.8754C23.5254 48.0754 24.5254 48.0504 26.0754 47.1004L32.0754 43.5504C33.7504 42.5504 36.2755 42.5504 37.9255 43.5504L43.9005 47.1004C45.4755 48.0254 46.4755 48.0754 46.7505 47.8754C47.0255 47.6754 47.3005 46.7254 46.8755 44.9254L45.4504 38.7754C45.0504 37.0004 45.7004 34.7004 47.0004 33.4254L51.9755 28.4504C53.0005 27.4254 53.2254 26.6004 53.1004 26.2254C52.9754 25.8504 52.3254 25.3004 50.9004 25.0504L44.5255 24.0004C42.8505 23.7254 41.0755 22.4254 40.3255 20.9004L36.8005 13.8504C36.1255 12.5004 35.4005 12.0254 35.0005 12.0254Z" fill="#FE632F"/>
<path id="Vector_2" d="M20 14.375H5C3.975 14.375 3.125 13.525 3.125 12.5C3.125 11.475 3.975 10.625 5 10.625H20C21.025 10.625 21.875 11.475 21.875 12.5C21.875 13.525 21.025 14.375 20 14.375Z" fill="#2E58EA"/>
<path id="Vector_3" d="M12.5 49.375H5C3.975 49.375 3.125 48.525 3.125 47.5C3.125 46.475 3.975 45.625 5 45.625H12.5C13.525 45.625 14.375 46.475 14.375 47.5C14.375 48.525 13.525 49.375 12.5 49.375Z" fill="#2E58EA"/>
<path id="Vector_4" d="M7.5 31.875H5C3.975 31.875 3.125 31.025 3.125 30C3.125 28.975 3.975 28.125 5 28.125H7.5C8.525 28.125 9.375 28.975 9.375 30C9.375 31.025 8.525 31.875 7.5 31.875Z" fill="#292D32"/>
</g>
</g>
</svg>
