<svg width="32" height="32" viewBox="0 0 32 32" fill="none" xmlns="http://www.w3.org/2000/svg">
<path d="M16.2002 25.8C15.6535 25.8 15.2002 25.3467 15.2002 24.8V22C15.2002 21.4533 15.6535 21 16.2002 21C16.7469 21 17.2002 21.4533 17.2002 22V24.8C17.2002 25.3467 16.7469 25.8 16.2002 25.8Z" fill="#777E90"/>
<path d="M23.8665 30.332H8.5332V27.9987C8.5332 25.972 10.1732 24.332 12.1999 24.332H20.1999C22.2265 24.332 23.8665 25.972 23.8665 27.9987V30.332ZM10.5332 28.332H21.8665V27.9987C21.8665 27.0787 21.1199 26.332 20.1999 26.332H12.1999C11.2799 26.332 10.5332 27.0787 10.5332 27.9987V28.332Z" fill="#777E90"/>
<path d="M24.2002 30.332H8.2002C7.65353 30.332 7.2002 29.8787 7.2002 29.332C7.2002 28.7854 7.65353 28.332 8.2002 28.332H24.2002C24.7469 28.332 25.2002 28.7854 25.2002 29.332C25.2002 29.8787 24.7469 30.332 24.2002 30.332Z" fill="#777E90"/>
<path d="M24.573 16.5861C24.293 16.5861 24.013 16.4661 23.813 16.2394C23.5596 15.9461 23.493 15.5328 23.653 15.1861C24.1063 14.1461 24.333 13.0394 24.333 11.8794V7.87943C24.333 7.41276 24.253 6.95943 24.093 6.47943C24.0796 6.43943 24.0663 6.38609 24.053 6.33276C24.013 6.13276 23.9996 5.93276 23.9996 5.74609C23.9996 5.19943 24.453 4.74609 24.9996 4.74609H25.7996C28.1863 4.74609 30.133 6.74609 30.133 9.21276C30.133 11.2528 29.293 13.2661 27.8396 14.7194C27.813 14.7461 27.733 14.8128 27.7196 14.8261C26.933 15.4794 26.0396 16.2128 24.8396 16.5461C24.7463 16.5728 24.6663 16.5861 24.573 16.5861ZM26.2396 6.78609C26.3063 7.14609 26.333 7.51943 26.333 7.87943V11.8794C26.333 12.4261 26.293 12.9461 26.213 13.4794C26.293 13.4128 26.3596 13.3594 26.4396 13.2928C27.5063 12.2261 28.133 10.7328 28.133 9.21276C28.133 8.01276 27.3196 6.99943 26.2396 6.78609Z" fill="#777E90"/>
<path d="M7.43954 16.5341C7.33288 16.5341 7.23954 16.5208 7.13288 16.4808C6.03954 16.1341 5.01288 15.4941 4.15954 14.6408C2.62621 12.9474 1.86621 11.0941 1.86621 9.13412C1.86621 6.70745 3.77288 4.80078 6.19954 4.80078H7.06621C7.39954 4.80078 7.71954 4.97411 7.90621 5.25411C8.09288 5.53411 8.11954 5.89411 7.98621 6.20078C7.77288 6.68078 7.66621 7.22745 7.66621 7.80078V11.8008C7.66621 12.9474 7.89288 14.0674 8.35954 15.1341C8.51954 15.4941 8.43954 15.9074 8.18621 16.2008C7.98621 16.4141 7.71954 16.5341 7.43954 16.5341ZM5.73288 6.84078C4.65288 7.05412 3.86621 7.98745 3.86621 9.13412C3.86621 10.5874 4.45288 11.9874 5.61288 13.2674C5.66621 13.3341 5.73288 13.3874 5.79954 13.4408C5.70621 12.8941 5.66621 12.3474 5.66621 11.8008V7.80078C5.66621 7.48078 5.69288 7.16078 5.73288 6.84078Z" fill="#777E90"/>
<path d="M16.0003 22.3346C10.307 22.3346 5.66699 17.6946 5.66699 12.0013V8.0013C5.66699 4.50797 8.50699 1.66797 12.0003 1.66797H20.0003C23.4937 1.66797 26.3337 4.50797 26.3337 8.0013V12.0013C26.3337 17.6946 21.6937 22.3346 16.0003 22.3346ZM12.0003 3.66797C9.61366 3.66797 7.66699 5.61464 7.66699 8.0013V12.0013C7.66699 16.6013 11.4003 20.3346 16.0003 20.3346C20.6003 20.3346 24.3337 16.6013 24.3337 12.0013V8.0013C24.3337 5.61464 22.387 3.66797 20.0003 3.66797H12.0003Z" fill="#777E90"/>
</svg>
