<svg width="32" height="32" viewBox="0 0 32 32" fill="none" xmlns="http://www.w3.org/2000/svg">
<path d="M21.333 29.7606C20.8797 29.7606 20.4397 29.6273 20.053 29.3739L14.373 25.5872H11.853C11.5464 25.5872 11.253 25.4406 11.0663 25.2006C10.8797 24.9473 10.813 24.6272 10.893 24.3339C10.973 24.0139 11.013 23.6939 11.013 23.3472C11.013 22.2806 10.613 21.2539 9.89303 20.4539C9.07969 19.5339 7.91969 19.0139 6.67969 19.0139C5.49302 19.0139 4.38633 19.4806 3.573 20.3206C3.31966 20.5872 2.93301 20.6939 2.58634 20.5872C2.23968 20.4806 1.95968 20.2006 1.87968 19.8406C1.74635 19.2539 1.67969 18.6139 1.67969 17.9206V9.92057C1.67969 5.33391 4.75969 2.25391 9.34635 2.25391H22.6797C27.2664 2.25391 30.3464 5.33391 30.3464 9.92057V17.9206C30.3464 20.1472 29.613 22.0672 28.213 23.4672C27.0397 24.6405 25.4797 25.3473 23.6797 25.5339V27.4272C23.6797 28.2939 23.1997 29.0806 22.4397 29.4939C22.0797 29.6672 21.7063 29.7606 21.333 29.7606ZM12.9997 23.5739H14.6663C14.8663 23.5739 15.053 23.6272 15.2264 23.7472L21.1597 27.7073C21.293 27.8006 21.4263 27.7605 21.493 27.7205C21.5597 27.6805 21.6797 27.6006 21.6797 27.4139V24.5739C21.6797 24.0272 22.133 23.5739 22.6797 23.5739C24.373 23.5739 25.7997 23.0406 26.7997 22.0406C27.813 21.0273 28.3464 19.6006 28.3464 17.9072V9.90723C28.3464 6.46723 26.1197 4.24056 22.6797 4.24056H9.34635C5.90635 4.24056 3.67969 6.46723 3.67969 9.90723V17.7472C4.58635 17.2539 5.61302 17.0006 6.67969 17.0006C8.49302 17.0006 10.213 17.7739 11.3864 19.1073C12.4264 20.2673 13.013 21.7739 13.013 23.3339C12.9997 23.4139 12.9997 23.4939 12.9997 23.5739Z" fill="#777E90"/>
<path d="M6.66634 29.6667C5.09301 29.6667 3.59966 29.08 2.43966 28.0267C1.97299 27.6267 1.55966 27.1333 1.23966 26.5867C0.652998 25.6267 0.333008 24.4933 0.333008 23.3333C0.333008 21.6667 0.973003 20.1067 2.11967 18.92C3.31967 17.68 4.93301 17 6.66634 17C8.47967 17 10.1997 17.7734 11.373 19.1067C12.413 20.2667 12.9997 21.7733 12.9997 23.3333C12.9997 23.84 12.933 24.3467 12.7997 24.8267C12.6663 25.4267 12.413 26.0533 12.0663 26.6C10.9597 28.4933 8.87967 29.6667 6.66634 29.6667ZM6.66634 19C5.47967 19 4.37303 19.4666 3.55969 20.3066C2.77303 21.12 2.33301 22.1867 2.33301 23.3333C2.33301 24.12 2.54634 24.8933 2.95968 25.56C3.17301 25.9333 3.45299 26.2666 3.77299 26.5466C4.57299 27.28 5.59967 27.68 6.66634 27.68C8.19967 27.68 9.58634 26.8933 10.373 25.5867C10.613 25.2133 10.773 24.8 10.8663 24.3734C10.9597 24.0267 10.9997 23.6933 10.9997 23.3467C10.9997 22.28 10.5997 21.2534 9.87968 20.4534C9.07968 19.52 7.90634 19 6.66634 19Z" fill="#777E90"/>
<path d="M8.65365 24.3047H4.66699C4.12033 24.3047 3.66699 23.8514 3.66699 23.3047C3.66699 22.758 4.12033 22.3047 4.66699 22.3047H8.65365C9.20031 22.3047 9.65365 22.758 9.65365 23.3047C9.65365 23.8514 9.21365 24.3047 8.65365 24.3047Z" fill="#777E90"/>
<path d="M6.66699 26.346C6.12033 26.346 5.66699 25.8927 5.66699 25.346V21.3594C5.66699 20.8127 6.12033 20.3594 6.66699 20.3594C7.21366 20.3594 7.66699 20.8127 7.66699 21.3594V25.346C7.66699 25.906 7.21366 26.346 6.66699 26.346Z" fill="#777E90"/>
<path d="M20.6663 15H11.333C10.7863 15 10.333 14.5467 10.333 14C10.333 13.4533 10.7863 13 11.333 13H20.6663C21.213 13 21.6663 13.4533 21.6663 14C21.6663 14.5467 21.213 15 20.6663 15Z" fill="#777E90"/>
</svg>
