<svg width="32" height="32" viewBox="0 0 32 32" fill="none" xmlns="http://www.w3.org/2000/svg">
<path d="M15.2799 19.3058C12.6665 19.3058 10.5332 17.1725 10.5332 14.5592C10.5332 11.9458 12.6665 9.8125 15.2799 9.8125C17.8932 9.8125 20.0265 11.9458 20.0265 14.5592C20.0265 17.1725 17.8932 19.3058 15.2799 19.3058ZM15.2799 11.8258C13.7732 11.8258 12.5332 13.0525 12.5332 14.5725C12.5332 16.0925 13.7599 17.3192 15.2799 17.3192C16.7999 17.3192 18.0265 16.0925 18.0265 14.5725C18.0265 13.0525 16.7999 11.8258 15.2799 11.8258Z" fill="#777E90"/>
<path d="M22.2004 27.933C21.6537 27.933 21.2004 27.4797 21.2004 26.933C21.2004 24.373 18.547 22.293 15.2803 22.293C12.0137 22.293 9.36035 24.373 9.36035 26.933C9.36035 27.4797 8.90702 27.933 8.36035 27.933C7.81368 27.933 7.36035 27.4797 7.36035 26.933C7.36035 23.2797 10.907 20.293 15.2803 20.293C19.6537 20.293 23.2004 23.2664 23.2004 26.933C23.2004 27.4797 22.747 27.933 22.2004 27.933Z" fill="#777E90"/>
<path d="M15.3337 30.3333C7.80033 30.3333 1.66699 24.2 1.66699 16.6667C1.66699 9.13333 7.80033 3 15.3337 3C17.187 3 18.9737 3.35998 20.6537 4.06665C21.1337 4.26665 21.3737 4.79996 21.2137 5.29329C21.067 5.73329 21.0003 6.2 21.0003 6.66667C21.0003 7.45333 21.2137 8.22664 21.627 8.89331C21.8403 9.26664 22.1203 9.59996 22.4403 9.87996C23.6003 10.9333 25.3203 11.2667 26.667 10.7867C27.1603 10.6 27.7203 10.8533 27.9203 11.3467C28.6403 13.04 29.0003 14.84 29.0003 16.68C29.0003 24.2 22.867 30.3333 15.3337 30.3333ZM15.3337 5C8.90699 5 3.66699 10.2267 3.66699 16.6667C3.66699 23.1067 8.90699 28.3333 15.3337 28.3333C21.7603 28.3333 27.0003 23.1067 27.0003 16.6667C27.0003 15.3867 26.787 14.12 26.387 12.9067C24.547 13.2267 22.5337 12.6534 21.1203 11.36C20.6537 10.96 20.2403 10.4667 19.9203 9.92C19.3337 8.96 19.0137 7.82667 19.0137 6.66667C19.0137 6.30667 19.0403 5.96003 19.107 5.61336C17.8937 5.20003 16.627 5 15.3337 5Z" fill="#777E90"/>
<path d="M25.3333 12.9987C23.76 12.9987 22.2667 12.4121 21.1067 11.3587C20.64 10.9587 20.2267 10.4654 19.9067 9.9187C19.32 8.9587 19 7.82536 19 6.66536C19 5.98536 19.1067 5.31871 19.32 4.67871C19.6133 3.77204 20.12 2.93203 20.8 2.25203C22 1.02537 23.6133 0.332031 25.3467 0.332031C27.16 0.332031 28.88 1.10539 30.0533 2.43872C31.0933 3.59872 31.68 5.09203 31.68 6.66536C31.68 7.17203 31.6133 7.67869 31.48 8.15869C31.3467 8.75869 31.0933 9.38538 30.7467 9.93205C29.9733 11.2387 28.7467 12.212 27.3067 12.6654C26.7067 12.892 26.04 12.9987 25.3333 12.9987ZM25.3333 2.33203C24.1467 2.33203 23.04 2.79867 22.2267 3.63867C21.76 4.11867 21.4267 4.66533 21.2267 5.29199C21.08 5.73199 21.0133 6.1987 21.0133 6.66536C21.0133 7.45203 21.2267 8.22534 21.64 8.89201C21.8533 9.26534 22.1333 9.59866 22.4533 9.87866C23.6133 10.932 25.3333 11.2654 26.68 10.7854C27.6933 10.4654 28.52 9.79869 29.0533 8.90536C29.2933 8.51869 29.4533 8.10539 29.5467 7.69206C29.64 7.34539 29.68 7.01203 29.68 6.66536C29.68 5.5987 29.28 4.57205 28.56 3.77205C27.7467 2.85205 26.5733 2.33203 25.3333 2.33203Z" fill="#777E90"/>
<path d="M27.3197 7.64062H23.333C22.7863 7.64062 22.333 7.18729 22.333 6.64062C22.333 6.09396 22.7863 5.64062 23.333 5.64062H27.3197C27.8663 5.64062 28.3197 6.09396 28.3197 6.64062C28.3197 7.18729 27.8797 7.64062 27.3197 7.64062Z" fill="#777E90"/>
<path d="M25.333 9.68197C24.7863 9.68197 24.333 9.22863 24.333 8.68197V4.69531C24.333 4.14865 24.7863 3.69531 25.333 3.69531C25.8797 3.69531 26.333 4.14865 26.333 4.69531V8.68197C26.333 9.24197 25.8797 9.68197 25.333 9.68197Z" fill="#777E90"/>
</svg>
