<svg width="32" height="32" viewBox="0 0 32 32" fill="none" xmlns="http://www.w3.org/2000/svg">
<g id="vuesax/bold/more-circle">
<g id="more-circle">
<path id="Vector" d="M15.9998 2.66602C8.65317 2.66602 2.6665 8.65268 2.6665 15.9993C2.6665 23.346 8.65317 29.3327 15.9998 29.3327C23.3465 29.3327 29.3332 23.346 29.3332 15.9993C29.3332 8.65268 23.3465 2.66602 15.9998 2.66602ZM10.6665 17.3327C9.91984 17.3327 9.33317 16.7327 9.33317 15.9993C9.33317 15.266 9.93317 14.666 10.6665 14.666C11.3998 14.666 11.9998 15.266 11.9998 15.9993C11.9998 16.7327 11.4132 17.3327 10.6665 17.3327ZM15.9998 17.3327C15.2532 17.3327 14.6665 16.7327 14.6665 15.9993C14.6665 15.266 15.2665 14.666 15.9998 14.666C16.7332 14.666 17.3332 15.266 17.3332 15.9993C17.3332 16.7327 16.7465 17.3327 15.9998 17.3327ZM21.3332 17.3327C20.5865 17.3327 19.9998 16.7327 19.9998 15.9993C19.9998 15.266 20.5998 14.666 21.3332 14.666C22.0665 14.666 22.6665 15.266 22.6665 15.9993C22.6665 16.7327 22.0798 17.3327 21.3332 17.3327Z" fill="#335DF3"/>
</g>
</g>
</svg>
