<svg width="1085" height="1474" viewBox="0 0 1085 1474" fill="none" xmlns="http://www.w3.org/2000/svg">
<path fill-rule="evenodd" clip-rule="evenodd" d="M1401.55 1086.29L1399.32 1092.63L1396.94 1098.92L1394.39 1105.14L1391.69 1111.29L1388.84 1117.37L1385.84 1123.38L1382.69 1129.31L1379.4 1135.15L1375.98 1140.92L1372.42 1146.6L1368.73 1152.19L1364.92 1157.69L1360.99 1163.1L1356.94 1168.42L1352.79 1173.65L1348.52 1178.78L1344.16 1183.81L1339.71 1188.75L1335.16 1193.6L1330.53 1198.34L1325.83 1203L1321.04 1207.55L1316.19 1212.02L1311.28 1216.39L1306.31 1220.68L1301.29 1224.87L1296.23 1228.98L1291.12 1233.01L1285.98 1236.95L1280.8 1240.82L1275.61 1244.62L1270.39 1248.34L1265.16 1252L1259.92 1255.6L1254.67 1259.13L1249.42 1262.62L1244.17 1266.05L1238.93 1269.43L1233.69 1272.78L1228.46 1276.08L1223.25 1279.35L1218.06 1282.6L1212.88 1285.81L1207.71 1289L1202.57 1292.17L1197.45 1295.32L1192.34 1298.45L1187.26 1301.57L1182.2 1304.68L1177.15 1307.78L1172.13 1310.88L1167.12 1313.97L1162.13 1317.05L1157.16 1320.14L1152.21 1323.23L1147.28 1326.32L1142.36 1329.42L1137.45 1332.52L1132.56 1335.63L1127.68 1338.75L1122.81 1341.88L1117.95 1345.02L1113.1 1348.16L1108.25 1351.32L1103.41 1354.5L1098.57 1357.68L1093.73 1360.87L1088.89 1364.07L1084.05 1367.28L1079.2 1370.5L1074.34 1373.72L1069.48 1376.94L1064.6 1380.17L1059.71 1383.4L1054.8 1386.63L1049.88 1389.85L1044.94 1393.06L1039.98 1396.26L1034.99 1399.45L1029.99 1402.62L1024.95 1405.76L1019.9 1408.89L1014.81 1411.98L1009.7 1415.04L1004.55 1418.06L999.379 1421.05L994.174 1423.98L988.938 1426.87L983.671 1429.7L978.371 1432.47L973.04 1435.19L967.676 1437.83L962.282 1440.4L956.857 1442.9L951.401 1445.32L945.916 1447.65L940.403 1449.9L934.862 1452.06L929.295 1454.12L923.703 1456.09L918.089 1457.95L912.452 1459.72L906.795 1461.38L901.12 1462.94L895.428 1464.38L889.722 1465.72L884.003 1466.95L878.273 1468.06L872.535 1469.07L866.79 1469.96L861.04 1470.74L855.287 1471.41L849.533 1471.98L843.779 1472.44L838.028 1472.79L832.281 1473.05L826.539 1473.2L820.802 1473.27L815.074 1473.25L809.353 1473.15L803.64 1472.97L797.936 1472.72L792.24 1472.41L786.553 1472.04L780.874 1471.62L775.201 1471.15L769.535 1470.65L763.872 1470.11L758.213 1469.55L752.554 1468.98L746.895 1468.4L741.231 1467.81L735.561 1467.23L729.882 1466.66L724.191 1466.11L718.484 1465.58L712.759 1465.08L707.011 1464.61L701.237 1464.18L695.434 1463.79L689.598 1463.45L683.724 1463.15L677.81 1462.91L671.852 1462.72L665.847 1462.59L659.79 1462.51L653.68 1462.48L647.513 1462.51L641.287 1462.59L635 1462.72L628.648 1462.89L622.229 1463.11L615.743 1463.37L609.185 1463.68L602.555 1464.01L595.852 1464.38L589.073 1464.78L582.217 1465.2L575.284 1465.65L568.272 1466.11L561.18 1466.58L554.009 1467.06L546.757 1467.54L539.425 1468.02L532.013 1468.5L524.521 1468.96L516.949 1469.41L509.3 1469.83L501.573 1470.22L493.77 1470.58L485.892 1470.9L477.942 1471.18L469.921 1471.4L461.831 1471.57L453.676 1471.68L445.457 1471.71L437.177 1471.67L428.841 1471.55L420.45 1471.35L412.009 1471.05L403.522 1470.66L394.992 1470.16L386.424 1469.55L377.822 1468.83L369.19 1467.99L360.534 1467.03L351.859 1465.93L343.169 1464.71L334.47 1463.34L325.767 1461.83L317.065 1460.17L308.371 1458.36L299.69 1456.39L291.028 1454.26L282.39 1451.97L273.784 1449.51L265.214 1446.88L256.687 1444.08L248.209 1441.11L239.786 1437.95L231.425 1434.62L223.131 1431.11L214.911 1427.41L206.771 1423.53L198.717 1419.46L190.754 1415.21L182.889 1410.77L175.127 1406.15L167.475 1401.33L159.937 1396.34L152.52 1391.16L145.228 1385.79L138.067 1380.24L131.043 1374.51L124.159 1368.6L117.42 1362.52L110.833 1356.25L104.401 1349.82L98.1284 1343.21L92.0207 1336.44L86.0818 1329.5L80.3158 1322.39L74.7269 1315.13L69.3186 1307.71L64.0949 1300.14L59.0589 1292.43L54.214 1284.56L49.5632 1276.56L45.1094 1268.42L40.855 1260.15L36.8026 1251.75L32.9545 1243.23L29.3124 1234.6L25.8785 1225.85L22.6544 1216.99L19.6415 1208.03L16.8411 1198.97L14.2547 1189.82L11.8833 1180.58L9.72777 1171.25L7.78919 1161.85L6.06848 1152.38L4.56643 1142.84L3.28392 1133.24L2.2217 1123.59L1.38081 1113.88L0.762272 1104.12L0.366961 1094.33L0.196279 1084.5L0.251539 1074.63L0.534167 1064.75L1.04546 1054.84L1.78653 1044.92L2.7581 1034.98L3.96055 1025.04L5.39428 1015.11L7.0591 1005.18L8.95457 995.263L11.0801 985.365L13.4348 975.491L16.0173 965.646L18.8261 955.838L21.8594 946.07L25.1151 936.35L28.5906 926.682L32.2835 917.072L36.1906 907.526L40.3088 898.049L44.6343 888.647L49.1636 879.324L53.8923 870.087L58.8163 860.939L63.931 851.886L69.2315 842.932L74.7127 834.082L80.3693 825.341L86.1959 816.712L92.1868 808.2L98.3359 799.809L104.637 791.541L111.085 783.4L117.672 775.39L124.391 767.513L131.238 759.772L138.203 752.169L145.281 744.707L152.465 737.387L159.747 730.211L167.12 723.18L174.577 716.296L182.111 709.559L189.715 702.97L197.38 696.529L205.101 690.235L212.87 684.09L220.679 678.092L228.522 672.24L236.391 666.534L244.28 660.972L252.182 655.553L260.09 650.274L267.997 645.134L275.897 640.131L283.784 635.262L291.652 630.524L299.495 625.914L307.306 621.43L315.082 617.068L322.815 612.825L330.502 608.697L338.138 604.681L345.717 600.772L353.236 596.967L360.69 593.262L368.076 589.652L375.39 586.133L382.628 582.701L389.788 579.351L396.865 576.079L403.855 572.878L410.755 569.744L417.561 566.67L424.269 563.65L430.876 560.678L437.377 557.747L443.77 554.851L450.051 551.983L456.217 549.134L462.266 546.299L468.195 543.469L474.001 540.637L479.683 537.796L485.24 534.937L490.67 532.054L495.972 529.138L501.145 526.182L506.189 523.178L511.105 520.118L515.893 516.995L520.554 513.802L525.088 510.532L529.498 507.176L533.785 503.728L537.951 500.182L541.999 496.53L545.932 492.766L549.752 488.882L553.463 484.874L557.068 480.735L560.572 476.458L563.977 472.038L567.288 467.469L570.51 462.746L573.647 457.862L576.704 452.814L579.686 447.597L582.599 442.206L585.45 436.64L588.245 430.895L590.99 424.969L593.694 418.863L596.363 412.574L599.005 406.103L601.628 399.452L604.24 392.621L606.85 385.614L609.465 378.433L612.095 371.081L614.746 363.565L617.429 355.888L620.151 348.057L622.92 340.079L625.745 331.96L628.634 323.708L631.595 315.333L634.634 306.842L637.761 298.247L640.981 289.557L644.302 280.783L647.73 271.937L651.271 263.029L654.932 254.073L658.718 245.081L662.633 236.065L666.682 227.04L670.87 218.018L675.2 209.013L679.674 200.04L684.297 191.111L689.069 182.242L693.994 173.445L699.07 164.737L704.3 156.129L709.684 147.638L715.22 139.275L720.909 131.055L726.748 122.992L732.736 115.098L738.871 107.386L745.148 99.8689L751.566 92.5583L758.121 85.4659L764.807 78.6027L771.621 71.9793L778.557 65.6058L785.611 59.4916L792.776 53.6453L800.047 48.0753L807.417 42.789L814.88 37.7932L822.429 33.0939L830.057 28.6966L837.758 24.6058L845.523 20.8254L853.345 17.3584L861.218 14.2073L869.134 11.3735L877.085 8.85782L885.064 6.66025L893.064 4.7803L901.077 3.21683L909.097 1.96831L917.115 1.03263L925.126 0.407202L933.122 0.0888869L941.097 0.0740728L949.044 0.358581L956.957 0.937813L964.831 1.8066L972.659 2.95935L980.435 4.39003L988.156 6.09215L995.815 8.05879L1003.41 10.2827L1010.93 12.7564L1018.38 15.4718L1025.75 18.4207L1033.04 21.5949L1040.24 24.9855L1047.35 28.5839L1054.38 32.3811L1061.31 36.3683L1068.15 40.5364L1074.9 44.8766L1081.54 49.38L1088.09 54.0378L1094.54 58.8416L1100.89 63.7831L1107.14 68.8541L1113.29 74.0472L1119.34 79.3549L1125.29 84.7703L1131.14 90.2871L1136.89 95.8995L1142.53 101.602L1148.08 107.39L1153.53 113.259L1158.88 119.205L1164.12 125.223L1169.27 131.309L1174.32 137.459L1179.27 143.669L1184.12 149.936L1188.87 156.254L1193.53 162.622L1198.09 169.035L1202.56 175.489L1206.93 181.982L1211.2 188.511L1215.39 195.072L1219.48 201.663L1223.48 208.28L1227.39 214.921L1231.21 221.584L1234.95 228.267L1238.59 234.966L1242.15 241.681L1245.63 248.408L1249.01 255.146L1252.32 261.894L1255.54 268.648L1258.69 275.409L1261.75 282.174L1264.73 288.942L1267.63 295.712L1270.45 302.482L1273.19 309.251L1275.86 316.018L1278.46 322.781L1280.97 329.541L1283.42 336.294L1285.79 343.042L1288.08 349.782L1290.31 356.514L1292.46 363.237L1294.55 369.949L1296.56 376.651L1298.51 383.34L1300.39 390.016L1302.2 396.679L1303.95 403.327L1305.64 409.958L1307.26 416.574L1308.82 423.171L1310.31 429.75L1311.75 436.31L1313.14 442.848L1314.46 449.365L1315.73 455.859L1316.95 462.33L1318.11 468.776L1319.23 475.196L1320.3 481.589L1321.32 487.954L1322.3 494.291L1323.23 500.598L1324.13 506.874L1324.99 513.118L1325.82 519.329L1326.61 525.507L1327.37 531.65L1328.11 537.759L1328.82 543.831L1329.51 549.867L1330.18 555.866L1330.83 561.828L1331.47 567.753L1332.1 573.64L1332.71 579.491L1333.32 585.304L1333.92 591.079L1334.52 596.819L1335.13 602.522L1335.73 608.189L1336.33 613.82L1336.95 619.417L1337.57 624.98L1338.2 630.511L1338.84 636.008L1339.5 641.475L1340.18 646.912L1340.87 652.319L1341.59 657.699L1342.32 663.053L1343.09 668.382L1343.87 673.687L1344.69 678.97L1345.53 684.233L1346.41 689.478L1347.32 694.706L1348.26 699.92L1349.24 705.12L1350.25 710.31L1351.29 715.491L1352.38 720.666L1353.5 725.836L1354.67 731.003L1355.87 736.171L1357.11 741.342L1358.4 746.517L1359.72 751.699L1361.09 756.891L1362.49 762.095L1363.94 767.313L1365.42 772.55L1366.94 777.805L1368.5 783.084L1370.09 788.387L1371.71 793.718L1373.36 799.079L1375.04 804.472L1376.75 809.9L1340.18 646.912L1380.21 820.869L1381.97 826.414L1383.74 832.002L1385.51 837.634L1387.28 843.313L1389.05 849.04L1390.81 854.815L1392.56 860.64L1394.29 866.516L1396 872.443L1397.67 878.422L1399.31 884.453L1400.91 890.535L1402.46 896.669L1403.95 902.853L1405.39 909.087L1406.76 915.37L1408.06 921.7L1409.27 928.075L1410.41 934.494L1411.45 940.954L1412.4 947.453L1413.24 953.988L1413.98 960.556L1414.6 967.154L1415.11 973.778L1415.49 980.425L1415.73 987.091L1415.85 993.772L1415.83 1000.46L1415.66 1007.16L1415.35 1013.86L1414.89 1020.56L1414.27 1027.25L1413.5 1033.92L1412.58 1040.58L1411.49 1047.22L1410.24 1053.83L1408.83 1060.4L1407.25 1066.94L1405.51 1073.44L1403.61 1079.89L1401.55 1086.29Z" fill="#EDFCFA"/>
</svg>
