<svg width="1096" height="160" viewBox="0 0 1096 160" fill="none" xmlns="http://www.w3.org/2000/svg">
<path d="M9.5 39.42L8.61883 38.9472L8.61674 38.9511L9.5 39.42ZM36.78 11.48L37.2703 12.3516L37.2785 12.3469L36.78 11.48ZM126.1 16.98L125.481 17.7651L125.486 17.7693L126.1 16.98ZM151.62 59V60H152.858L152.598 58.7899L151.62 59ZM105.2 59L104.297 59.4291L104.568 60H105.2V59ZM93.54 45.58L93.0031 46.4237L93.0145 46.4308L93.54 45.58ZM52.62 51.74L51.8531 51.0983L51.8518 51.0998L52.62 51.74ZM52.62 108.94L51.8453 109.572L51.8524 109.581L51.8596 109.589L52.62 108.94ZM93.54 114.88L93.0145 114.029L93.0031 114.036L93.54 114.88ZM105.2 101.46V100.46H104.568L104.297 101.031L105.2 101.46ZM151.62 101.46L152.598 101.67L152.858 100.46H151.62V101.46ZM126.1 143.7L126.714 144.489L126.719 144.485L126.1 143.7ZM36.78 149.2L36.2815 150.067L36.2897 150.072L36.78 149.2ZM9.5 121.26L8.61438 121.724L8.61778 121.731L8.62128 121.737L9.5 121.26ZM1.04 80.12C1.04 65.008 4.16301 51.6061 10.3833 39.8889L8.61674 38.9511C2.22366 50.9939 -0.96 64.7253 -0.96 80.12H1.04ZM10.3812 39.8928C16.746 28.031 25.7049 18.8571 37.2703 12.3516L36.2897 10.6084C24.3885 17.3029 15.1606 26.7556 8.61884 38.9472L10.3812 39.8928ZM37.2785 12.3469C48.8417 5.69808 62.159 2.36 77.26 2.36V0.359997C61.8544 0.359997 48.185 3.76859 36.2815 10.6131L37.2785 12.3469ZM77.26 2.36C96.431 2.36 112.483 7.51156 125.481 17.7651L126.719 16.1949C113.317 5.62177 96.8091 0.359997 77.26 0.359997V2.36ZM125.486 17.7693C138.484 27.879 146.874 41.6721 150.642 59.2101L152.598 58.7899C148.74 40.8345 140.116 26.6144 126.714 16.1906L125.486 17.7693ZM151.62 58H105.2V60H151.62V58ZM106.103 58.5709C103.243 52.5497 99.2335 47.9212 94.0655 44.7292L93.0145 46.4308C97.8198 49.3988 101.583 53.7169 104.297 59.4291L106.103 58.5709ZM94.0769 44.7363C89.057 41.5418 83.2191 39.96 76.6 39.96V41.96C82.8876 41.96 88.343 43.4581 93.0031 46.4237L94.0769 44.7363ZM76.6 39.96C66.3523 39.96 58.0699 43.6684 51.8531 51.0983L53.3869 52.3817C59.1967 45.4383 66.901 41.96 76.6 41.96V39.96ZM51.8518 51.0998C45.7957 58.3671 42.82 68.0765 42.82 80.12H44.82C44.82 68.4035 47.711 59.1929 53.3882 52.3802L51.8518 51.0998ZM42.82 80.12C42.82 92.3079 45.7945 102.16 51.8453 109.572L53.3947 108.308C47.7122 101.347 44.82 91.9854 44.82 80.12H42.82ZM51.8596 109.589C58.079 116.871 66.3598 120.5 76.6 120.5V118.5C66.8936 118.5 59.1877 115.089 53.3804 108.291L51.8596 109.589ZM76.6 120.5C83.2191 120.5 89.057 118.918 94.0769 115.724L93.0031 114.036C88.343 117.002 82.8876 118.5 76.6 118.5V120.5ZM94.0655 115.731C99.2335 112.539 103.243 107.91 106.103 101.889L104.297 101.031C101.583 106.743 97.8198 111.061 93.0145 114.029L94.0655 115.731ZM105.2 102.46H151.62V100.46H105.2V102.46ZM150.642 101.25C146.874 118.789 138.483 132.658 125.481 142.915L126.719 144.485C140.117 133.916 148.74 119.625 152.598 101.67L150.642 101.25ZM125.486 142.911C112.488 153.02 96.4343 158.1 77.26 158.1V160.1C96.8058 160.1 113.312 154.913 126.714 144.489L125.486 142.911ZM77.26 158.1C62.1552 158.1 48.8349 154.834 37.2703 148.328L36.2897 150.072C48.1918 156.766 61.8582 160.1 77.26 160.1V158.1ZM37.2785 148.333C25.7053 141.679 16.7437 132.5 10.3787 120.783L8.62128 121.737C15.163 133.78 24.388 143.228 36.2815 150.067L37.2785 148.333ZM10.3856 120.796C4.16364 108.93 1.04 95.3801 1.04 80.12H-0.96C-0.96 95.6599 2.22303 109.536 8.61438 121.724L10.3856 120.796ZM206.359 149.42L205.866 150.29L205.874 150.295L206.359 149.42ZM177.319 121.04L176.453 121.541L176.457 121.547L176.46 121.553L177.319 121.04ZM177.319 38.98L176.458 38.4716L176.456 38.4748L177.319 38.98ZM286.439 10.6L285.95 11.4722L285.954 11.4747L286.439 10.6ZM315.259 38.98L314.393 39.4806L314.396 39.4852L315.259 38.98ZM315.259 121.04L316.122 121.545L316.124 121.541L315.259 121.04ZM286.439 149.42L286.924 150.295L286.932 150.29L286.439 149.42ZM272.359 108.72L271.615 108.052L271.607 108.06L272.359 108.72ZM272.359 50.86L271.607 51.5196L271.614 51.5277L271.622 51.5357L272.359 50.86ZM220.219 50.86L220.964 51.5273L220.97 51.5196L220.219 50.86ZM220.219 108.94L219.467 109.6L219.474 109.607L220.219 108.94ZM246.399 158.54C232.041 158.54 218.862 155.206 206.844 148.545L205.874 150.295C218.202 157.127 231.717 160.54 246.399 160.54V158.54ZM206.852 148.55C194.829 141.742 185.275 132.405 178.177 120.527L176.46 121.553C183.736 133.728 193.542 143.311 205.866 150.29L206.852 148.55ZM178.184 120.539C171.24 108.531 167.759 94.9929 167.759 79.9H165.759C165.759 95.3138 169.318 109.202 176.453 121.541L178.184 120.539ZM167.759 79.9C167.759 64.8069 171.24 51.3443 178.182 39.4852L176.456 38.4748C169.318 50.669 165.759 64.4864 165.759 79.9H167.759ZM178.18 39.4884C185.277 27.466 194.829 18.1335 206.844 11.4747L205.874 9.72534C193.542 16.5598 183.733 26.1474 176.458 38.4716L178.18 39.4884ZM206.844 11.4747C218.862 4.81381 232.041 1.48 246.399 1.48V-0.520005C231.717 -0.520005 218.202 2.89285 205.874 9.72534L206.844 11.4747ZM246.399 1.48C260.905 1.48 274.082 4.81465 285.95 11.4721L286.928 9.72785C274.742 2.89201 261.225 -0.520005 246.399 -0.520005V1.48ZM285.954 11.4747C297.967 18.1325 307.443 27.4625 314.393 39.4806L316.124 38.4794C308.995 26.1509 299.257 16.5608 286.924 9.72534L285.954 11.4747ZM314.396 39.4852C321.338 51.3443 324.819 64.8069 324.819 79.9H326.819C326.819 64.4864 323.26 50.669 316.122 38.4748L314.396 39.4852ZM324.819 79.9C324.819 94.9929 321.338 108.531 314.393 120.539L316.124 121.541C323.26 109.202 326.819 95.3138 326.819 79.9H324.819ZM314.396 120.535C307.445 132.409 297.967 141.743 285.946 148.55L286.932 150.29C299.258 143.31 308.992 133.725 316.122 121.545L314.396 120.535ZM285.954 148.545C273.936 155.206 260.757 158.54 246.399 158.54V160.54C261.081 160.54 274.595 157.127 286.924 150.295L285.954 148.545ZM246.399 120.5C257.639 120.5 266.584 116.816 273.11 109.38L271.607 108.06C265.52 114.997 257.159 118.5 246.399 118.5V120.5ZM273.103 109.388C279.759 101.976 283.039 92.1104 283.039 79.9H281.039C281.039 91.7429 277.866 101.091 271.615 108.052L273.103 109.388ZM283.039 79.9C283.039 67.4047 279.763 57.4573 273.096 50.1843L271.622 51.5357C277.861 58.3427 281.039 67.7553 281.039 79.9H283.039ZM273.11 50.2004C266.584 42.7638 257.639 39.08 246.399 39.08V41.08C257.159 41.08 265.52 44.5829 271.607 51.5196L273.11 50.2004ZM246.399 39.08C235.017 39.08 225.996 42.7607 219.467 50.2004L220.97 51.5196C227.055 44.5859 235.487 41.08 246.399 41.08V39.08ZM219.474 50.1927C212.958 57.4661 209.759 67.4103 209.759 79.9H211.759C211.759 67.7497 214.866 58.3339 220.964 51.5272L219.474 50.1927ZM209.759 79.9C209.759 92.2478 212.96 102.185 219.467 109.6L220.97 108.28C214.864 101.322 211.759 91.8989 211.759 79.9H209.759ZM219.474 109.607C226.005 116.897 235.024 120.5 246.399 120.5V118.5C235.481 118.5 227.046 115.063 220.964 108.273L219.474 109.607ZM488.863 158V159H489.863V158H488.863ZM445.743 158L444.909 158.552L445.206 159H445.743V158ZM388.323 71.32L389.156 70.7677L387.323 67.9997V71.32H388.323ZM388.323 158V159H389.323V158H388.323ZM345.203 158H344.203V159H345.203V158ZM345.203 2.89999V1.89999H344.203V2.89999H345.203ZM388.323 2.89999L389.16 2.35257L388.864 1.89999H388.323V2.89999ZM445.743 90.68L444.906 91.2274L446.743 94.0355V90.68H445.743ZM445.743 2.89999V1.89999H444.743V2.89999H445.743ZM488.863 2.89999H489.863V1.89999H488.863V2.89999ZM488.863 157H445.743V159H488.863V157ZM446.576 157.448L389.156 70.7677L387.489 71.8723L444.909 158.552L446.576 157.448ZM387.323 71.32V158H389.323V71.32H387.323ZM388.323 157H345.203V159H388.323V157ZM346.203 158V2.89999H344.203V158H346.203ZM345.203 3.89999H388.323V1.89999H345.203V3.89999ZM387.486 3.44741L444.906 91.2274L446.58 90.1326L389.16 2.35257L387.486 3.44741ZM446.743 90.68V2.89999H444.743V90.68H446.743ZM445.743 3.89999H488.863V1.89999H445.743V3.89999ZM487.863 2.89999V158H489.863V2.89999H487.863ZM611.545 132.7L612.495 132.386L612.268 131.7H611.545V132.7ZM556.545 132.7V131.7H555.823L555.596 132.386L556.545 132.7ZM548.185 158V159H548.908L549.135 158.314L548.185 158ZM502.865 158L501.926 157.658L501.437 159H502.865V158ZM559.405 2.89999V1.89999H558.706L558.466 2.5575L559.405 2.89999ZM609.125 2.89999L610.065 2.55868L609.826 1.89999H609.125V2.89999ZM665.445 158V159H666.872L666.385 157.659L665.445 158ZM619.905 158L618.956 158.314L619.183 159H619.905V158ZM600.765 99.7V100.7H602.153L601.714 99.3838L600.765 99.7ZM584.045 49.54L584.994 49.2238L584.039 46.3589L583.096 49.2275L584.045 49.54ZM567.545 99.7L566.596 99.3875L566.164 100.7H567.545V99.7ZM611.545 131.7H556.545V133.7H611.545V131.7ZM555.596 132.386L547.236 157.686L549.135 158.314L557.495 133.014L555.596 132.386ZM548.185 157H502.865V159H548.185V157ZM503.805 158.342L560.345 3.24248L558.466 2.5575L501.926 157.658L503.805 158.342ZM559.405 3.89999H609.125V1.89999H559.405V3.89999ZM608.186 3.24131L664.506 158.341L666.385 157.659L610.065 2.55868L608.186 3.24131ZM665.445 157H619.905V159H665.445V157ZM620.855 157.686L612.495 132.386L610.596 133.014L618.956 158.314L620.855 157.686ZM601.714 99.3838L584.994 49.2238L583.097 49.8562L599.817 100.016L601.714 99.3838ZM583.096 49.2275L566.596 99.3875L568.495 100.012L584.995 49.8525L583.096 49.2275ZM567.545 100.7H600.765V98.7H567.545V100.7ZM796.32 2.89999H797.32V1.89999H796.32V2.89999ZM796.32 37.22V38.22H797.32V37.22H796.32ZM754.96 37.22V36.22H753.96V37.22H754.96ZM754.96 158V159H755.96V158H754.96ZM711.84 158H710.84V159H711.84V158ZM711.84 37.22H712.84V36.22H711.84V37.22ZM670.92 37.22H669.92V38.22H670.92V37.22ZM670.92 2.89999V1.89999H669.92V2.89999H670.92ZM795.32 2.89999V37.22H797.32V2.89999H795.32ZM796.32 36.22H754.96V38.22H796.32V36.22ZM753.96 37.22V158H755.96V37.22H753.96ZM754.96 157H711.84V159H754.96V157ZM712.84 158V37.22H710.84V158H712.84ZM711.84 36.22H670.92V38.22H711.84V36.22ZM671.92 37.22V2.89999H669.92V37.22H671.92ZM670.92 3.89999H796.32V1.89999H670.92V3.89999ZM816.453 39.42L815.572 38.9472L815.57 38.9511L816.453 39.42ZM843.733 11.48L844.223 12.3516L844.232 12.3469L843.733 11.48ZM933.053 16.98L932.434 17.7651L932.439 17.7693L933.053 16.98ZM958.573 59V60H959.811L959.551 58.7899L958.573 59ZM912.153 59L911.25 59.4291L911.521 60H912.153V59ZM900.493 45.58L899.956 46.4237L899.968 46.4308L900.493 45.58ZM859.573 51.74L858.806 51.0983L858.805 51.0998L859.573 51.74ZM859.573 108.94L858.798 109.572L858.806 109.581L858.813 109.589L859.573 108.94ZM900.493 114.88L899.968 114.029L899.956 114.036L900.493 114.88ZM912.153 101.46V100.46H911.521L911.25 101.031L912.153 101.46ZM958.573 101.46L959.551 101.67L959.811 100.46H958.573V101.46ZM933.053 143.7L933.667 144.489L933.672 144.485L933.053 143.7ZM843.733 149.2L843.235 150.067L843.243 150.072L843.733 149.2ZM816.453 121.26L815.568 121.724L815.571 121.731L815.574 121.737L816.453 121.26ZM807.993 80.12C807.993 65.008 811.116 51.6061 817.336 39.8889L815.57 38.9511C809.177 50.9939 805.993 64.7253 805.993 80.12H807.993ZM817.334 39.8928C823.699 28.031 832.658 18.8571 844.223 12.3516L843.243 10.6084C831.342 17.3029 822.114 26.7556 815.572 38.9472L817.334 39.8928ZM844.232 12.3469C855.795 5.69808 869.112 2.36 884.213 2.36V0.359997C868.808 0.359997 855.138 3.76859 843.235 10.6131L844.232 12.3469ZM884.213 2.36C903.384 2.36 919.436 7.51156 932.434 17.7651L933.672 16.1949C920.27 5.62177 903.762 0.359997 884.213 0.359997V2.36ZM932.439 17.7693C945.437 27.879 953.827 41.6721 957.595 59.2101L959.551 58.7899C955.693 40.8345 947.069 26.6144 933.667 16.1906L932.439 17.7693ZM958.573 58H912.153V60H958.573V58ZM913.056 58.5709C910.196 52.5497 906.187 47.9212 901.019 44.7292L899.968 46.4308C904.773 49.3988 908.537 53.7169 911.25 59.4291L913.056 58.5709ZM901.03 44.7363C896.01 41.5418 890.172 39.96 883.553 39.96V41.96C889.841 41.96 895.296 43.4581 899.956 46.4237L901.03 44.7363ZM883.553 39.96C873.305 39.96 865.023 43.6684 858.806 51.0983L860.34 52.3817C866.15 45.4383 873.854 41.96 883.553 41.96V39.96ZM858.805 51.0998C852.749 58.3671 849.773 68.0765 849.773 80.12H851.773C851.773 68.4035 854.664 59.1929 860.341 52.3802L858.805 51.0998ZM849.773 80.12C849.773 92.3079 852.748 102.16 858.798 109.572L860.348 108.308C854.665 101.347 851.773 91.9854 851.773 80.12H849.773ZM858.813 109.589C865.032 116.871 873.313 120.5 883.553 120.5V118.5C873.847 118.5 866.141 115.089 860.334 108.291L858.813 109.589ZM883.553 120.5C890.172 120.5 896.01 118.918 901.03 115.724L899.956 114.036C895.296 117.002 889.841 118.5 883.553 118.5V120.5ZM901.019 115.731C906.187 112.539 910.196 107.91 913.056 101.889L911.25 101.031C908.537 106.743 904.773 111.061 899.968 114.029L901.019 115.731ZM912.153 102.46H958.573V100.46H912.153V102.46ZM957.595 101.25C953.827 118.789 945.436 132.658 932.434 142.915L933.672 144.485C947.07 133.916 955.693 119.625 959.551 101.67L957.595 101.25ZM932.439 142.911C919.442 153.02 903.387 158.1 884.213 158.1V160.1C903.759 160.1 920.265 154.913 933.667 144.489L932.439 142.911ZM884.213 158.1C869.108 158.1 855.788 154.834 844.223 148.328L843.243 150.072C855.145 156.766 868.811 160.1 884.213 160.1V158.1ZM844.232 148.333C832.658 141.679 823.697 132.5 817.332 120.783L815.574 121.737C822.116 133.78 831.341 143.228 843.235 150.067L844.232 148.333ZM817.339 120.796C811.117 108.93 807.993 95.3801 807.993 80.12H805.993C805.993 95.6599 809.176 109.536 815.568 121.724L817.339 120.796ZM1095.81 2.89999H1096.81V1.89999H1095.81V2.89999ZM1095.81 37.22V38.22H1096.81V37.22H1095.81ZM1054.45 37.22V36.22H1053.45V37.22H1054.45ZM1054.45 158V159H1055.45V158H1054.45ZM1011.33 158H1010.33V159H1011.33V158ZM1011.33 37.22H1012.33V36.22H1011.33V37.22ZM970.412 37.22H969.412V38.22H970.412V37.22ZM970.412 2.89999V1.89999H969.412V2.89999H970.412ZM1094.81 2.89999V37.22H1096.81V2.89999H1094.81ZM1095.81 36.22H1054.45V38.22H1095.81V36.22ZM1053.45 37.22V158H1055.45V37.22H1053.45ZM1054.45 157H1011.33V159H1054.45V157ZM1012.33 158V37.22H1010.33V158H1012.33ZM1011.33 36.22H970.412V38.22H1011.33V36.22ZM971.412 37.22V2.89999H969.412V37.22H971.412ZM970.412 3.89999H1095.81V1.89999H970.412V3.89999Z" fill="#33E0C4" fill-opacity="0.3"/>
</svg>
