<svg width="589" height="792" viewBox="0 0 589 792" fill="none" xmlns="http://www.w3.org/2000/svg">
<path d="M52.8384 241.476C50.1662 230.759 56.9529 221.914 67.997 221.721L375.754 216.349C386.798 216.157 397.917 224.689 400.589 235.406L422.577 323.595C425.249 334.313 418.463 343.157 407.419 343.35L393.95 343.585C384.595 343.748 376.699 347.877 372.341 354.884L364.995 366.696C363.894 368.466 361.163 368.592 359.113 366.967L342.819 354.052C335.268 348.067 326.08 344.77 317.375 344.922L99.6617 348.722C88.6177 348.915 77.4986 340.383 74.8264 329.665L52.8384 241.476Z" fill="#FCFCFD"/>
<path opacity="0.5" d="M4.83843 219.64C2.16624 208.923 8.95294 200.078 19.997 199.885L165.265 197.35C176.309 197.157 187.429 205.689 190.101 216.407L198.555 250.313C200.53 258.236 195.513 264.775 187.348 264.918V264.918C180.432 265.038 174.594 268.091 171.372 273.271L169.779 275.834C168.709 277.553 166.057 277.675 164.066 276.097L162.586 274.924C155.035 268.939 145.847 265.642 137.142 265.794L36.8662 267.544C25.8222 267.737 14.703 259.205 12.0308 248.487L4.83843 219.64Z" fill="#FCFCFD"/>
<path opacity="0.3" d="M573.513 393.243C576.185 382.526 569.398 373.681 558.354 373.488L435.8 371.349C424.756 371.156 413.637 379.688 410.965 390.406L404.141 417.776C402.407 424.728 406.81 430.465 413.973 430.59V430.59C420.042 430.696 425.164 433.374 427.99 437.919L429.389 440.168C430.327 441.676 432.654 441.783 434.401 440.399L434.792 440.089C441.997 434.378 450.764 431.232 459.071 431.377L543.554 432.852C554.598 433.045 565.717 424.512 568.389 413.795L573.513 393.243Z" fill="#CCD7FC"/>
<ellipse opacity="0.2" cx="305.5" cy="553.5" rx="229.5" ry="28.5" fill="white" fill-opacity="0.42"/>
<path d="M82.9763 287.843C76.3621 271.472 85.0506 255.47 102.383 252.101V252.101C119.715 248.732 139.127 259.272 145.741 275.643V275.643C152.355 292.014 143.667 308.016 126.335 311.385V311.385C109.003 314.754 89.5905 304.214 82.9763 287.843V287.843Z" fill="#2E58EA"/>
<path d="M131.801 287.628C131.397 287.3 130.936 287.038 130.446 286.858C129.956 286.677 129.445 286.582 128.945 286.577C127.021 286.534 125.072 285.803 123.524 284.545C121.976 283.286 120.956 281.601 120.685 279.859C120.579 279.186 120.256 278.524 119.757 277.957C119.258 277.39 118.604 276.942 117.878 276.671C117.153 276.4 116.387 276.317 115.677 276.432C114.968 276.547 114.346 276.856 113.891 277.319C113.435 277.783 113.166 278.38 113.117 279.037C113.068 279.693 113.241 280.379 113.615 281.009C113.988 281.638 114.546 282.183 115.217 282.575C115.889 282.967 116.644 283.189 117.388 283.212C118.346 283.228 119.32 283.414 120.257 283.761C121.193 284.108 122.072 284.609 122.844 285.234C123.616 285.86 124.266 286.598 124.756 287.406C125.246 288.214 125.567 289.077 125.7 289.944C125.796 290.501 126.041 291.05 126.413 291.544C126.785 292.037 127.273 292.459 127.834 292.774C128.395 293.089 129.013 293.287 129.633 293.35C130.253 293.413 130.857 293.34 131.392 293.137C131.927 292.934 132.377 292.607 132.702 292.184C133.028 291.762 133.219 291.258 133.259 290.714C133.299 290.171 133.188 289.606 132.933 289.068C132.679 288.53 132.29 288.035 131.801 287.628Z" fill="#FCFCFD"/>
<path d="M108.419 288.167C109.171 288.365 109.936 288.365 110.617 288.165C111.298 287.965 111.863 287.575 112.24 287.046C112.618 286.516 112.79 285.871 112.734 285.193C112.679 284.514 112.399 283.834 111.93 283.239C111.333 282.48 110.893 281.645 110.634 280.783C110.374 279.921 110.302 279.048 110.42 278.214C110.537 277.381 110.844 276.603 111.32 275.925C111.797 275.248 112.435 274.684 113.198 274.266C113.788 273.938 114.228 273.444 114.462 272.845C114.696 272.246 114.714 271.569 114.513 270.899C114.312 270.229 113.901 269.597 113.333 269.081C112.764 268.565 112.063 268.189 111.318 268C110.573 267.812 109.817 267.819 109.145 268.02C108.473 268.222 107.915 268.609 107.542 269.133C107.168 269.657 106.996 270.295 107.046 270.966C107.097 271.638 107.367 272.312 107.825 272.905C109.014 274.434 109.547 276.232 109.307 277.905C109.067 279.578 108.074 280.99 106.544 281.832C105.935 282.152 105.478 282.645 105.231 283.249C104.985 283.854 104.96 284.54 105.161 285.22C105.362 285.9 105.779 286.543 106.359 287.064C106.938 287.585 107.653 287.962 108.41 288.145L108.419 288.167Z" fill="#FCFCFD"/>
<path d="M117.356 285.84C116.89 285.948 116.467 286.143 116.112 286.413C115.758 286.683 115.479 287.024 115.293 287.414C114.557 288.901 113.14 289.968 111.353 290.382C109.565 290.796 107.551 290.523 105.751 289.624C105.285 289.387 104.785 289.23 104.28 289.161C103.776 289.091 103.277 289.112 102.812 289.221C102.243 289.359 101.742 289.628 101.354 290.003C100.967 290.378 100.704 290.849 100.589 291.373C100.474 291.898 100.51 292.461 100.694 293.013C100.879 293.565 101.205 294.089 101.646 294.54C102.086 294.991 102.627 295.355 103.222 295.6C103.816 295.844 104.446 295.963 105.056 295.945C105.666 295.926 106.237 295.772 106.721 295.495C107.204 295.218 107.585 294.827 107.83 294.356C108.191 293.612 108.726 292.964 109.403 292.448C110.081 291.933 110.888 291.561 111.778 291.352C112.669 291.144 113.625 291.104 114.592 291.235C115.56 291.365 116.519 291.664 117.415 292.114C117.995 292.396 118.621 292.557 119.239 292.581C119.856 292.605 120.447 292.492 120.959 292.252C121.471 292.012 121.889 291.652 122.176 291.204C122.463 290.755 122.61 290.232 122.605 289.681C122.6 289.129 122.442 288.565 122.146 288.038C121.85 287.511 121.425 287.038 120.907 286.659C120.389 286.28 119.795 286.007 119.176 285.864C118.557 285.722 117.932 285.714 117.356 285.84Z" fill="#FCFCFD"/>
<path d="M541.005 412.109C543.678 401.391 536.891 392.547 525.847 392.354L224.318 387.091C213.274 386.898 202.155 395.43 199.483 406.148L178.062 492.062C175.39 502.779 182.176 511.624 193.22 511.817L205.826 512.037C215.181 512.2 223.077 516.329 227.435 523.336L234.489 534.679C235.59 536.449 238.321 536.575 240.371 534.95L256.093 522.489C263.644 516.503 272.832 513.206 281.537 513.358L494.749 517.08C505.793 517.273 516.912 508.741 519.585 498.023L541.005 412.109Z" fill="#092BA6"/>
<path d="M260.782 422.048C247.859 420.918 234.824 430.215 231.686 442.802C228.548 455.389 236.489 466.521 249.411 467.652C262.334 468.783 275.369 459.485 278.507 446.898C281.645 434.312 273.704 423.179 260.782 422.048ZM253.026 456.319C252.571 456.419 251.845 456.355 251.458 456.181C248.107 454.653 241.181 448.852 243.33 440.233C244.28 436.425 248.184 433.621 252.07 433.961C254.365 434.162 256.134 435.411 257.001 437.211C258.68 435.658 261.013 434.743 263.307 434.944C267.194 435.284 269.563 438.637 268.614 442.445C266.465 451.064 257.003 455.432 253.026 456.319Z" fill="#99AEF9"/>
<path opacity="0.8" d="M327 462L444.5 466.5" stroke="#99AEF9" stroke-width="11" stroke-linecap="round"/>
<path opacity="0.8" d="M339 434L456.5 438.5" stroke="#99AEF9" stroke-width="11" stroke-linecap="round"/>
<path opacity="0.8" d="M181 264.525L344.5 259.68" stroke="#B7C5F7" stroke-width="11" stroke-linecap="round"/>
<path opacity="0.8" d="M190 296.205L300 293.18" stroke="#B7C5F7" stroke-width="11" stroke-linecap="round"/>
</svg>
