<svg width="933" height="860" viewBox="0 0 933 860" fill="none" xmlns="http://www.w3.org/2000/svg">
<g clip-path="url(#clip0_1_2591)">
<g opacity="0.2" clip-path="url(#clip1_1_2591)">
<path d="M889.733 1153.12C1002.73 1025.61 930.105 775.437 812.677 641.112C677.339 486.33 515.19 522.81 447.669 374.758C386.015 239.683 489.623 140.236 438.687 45.719C391.872 -41.1414 226.862 -101.012 -262.807 -13.9225" stroke="white" stroke-width="1.40892" stroke-miterlimit="10"/>
<path d="M-269.486 7.53743C213.481 -77.8519 381.095 -20.0882 431.722 65.3185C469.168 128.682 434.343 195.123 429.765 273.6C426.832 313.322 433.81 353.148 450.072 389.502C503.265 508.647 613.75 512.455 727.182 591.495C756.174 611.575 782.704 634.993 806.225 661.268C926.185 794.39 1007.95 1033.29 902.002 1159.6" stroke="white" stroke-width="1.40892" stroke-miterlimit="10"/>
<path d="M-276.106 28.99C200.138 -54.6806 370.277 0.928805 424.561 84.7459C464.459 146.362 433.236 211.911 430.837 288.682C429.111 328.266 436.446 367.719 452.283 404.034C503.839 522.203 608.147 531.242 720.642 611.694C749.285 632.093 775.738 655.403 799.578 681.252C921.668 813.551 1012.99 1040.78 914.097 1165.89" stroke="white" stroke-width="1.40892" stroke-miterlimit="10"/>
<path d="M-282.699 50.377C186.717 -31.5625 359.416 21.978 417.499 104.237C459.842 164.188 432.19 228.719 432.005 303.869C431.457 343.257 439.123 382.325 454.513 418.582C504.509 535.863 602.492 549.915 714.121 631.91C742.484 652.59 768.91 675.803 793.073 701.263C917.518 832.509 1018.16 1048.27 926.317 1172.19" stroke="white" stroke-width="1.40892" stroke-miterlimit="10"/>
<path d="M-289.398 71.8561C173.36 -8.42132 348.499 42.9996 410.438 123.767C455.147 182.006 431.16 245.629 433.238 319.079C433.872 358.296 441.893 397.04 456.881 433.283C505.315 549.677 597.009 568.827 707.832 652.389C735.808 673.35 762.129 696.433 786.561 721.435C913.38 851.651 1023.31 1055.96 938.543 1178.71" stroke="white" stroke-width="1.40892" stroke-miterlimit="10"/>
<path d="M-296.134 93.214C159.979 14.7028 339.782 62.2595 403.394 143.284C448.862 201.066 430.28 262.412 434.404 334.268C436.244 373.274 444.621 411.693 459.185 447.922C506.059 563.428 591.425 587.632 701.287 672.626C728.953 693.837 755.223 716.809 779.935 741.397C909.216 870.507 1028.37 1063.43 950.638 1184.99" stroke="white" stroke-width="1.40892" stroke-miterlimit="10"/>
<path d="M-302.696 114.772C146.599 37.869 326.503 85.186 396.445 162.684C445.564 217.658 429.309 279.353 435.572 349.5C438.602 388.263 447.329 426.366 461.472 462.582C506.785 577.2 585.902 606.506 694.823 692.953C722.152 714.44 748.361 737.314 773.345 761.487C905 889.567 1033.54 1070.96 962.791 1191.39" stroke="white" stroke-width="1.40892" stroke-miterlimit="10"/>
<path d="M-309.358 136.207C133.178 60.9373 315.604 106.141 389.267 182.303C440.803 235.444 428.569 296.156 436.779 364.681C440.999 403.168 450.093 440.961 463.842 477.153C507.553 590.881 580.377 625.326 688.442 713.192C713.558 733.661 739.896 755.92 766.86 781.47C900.975 908.485 1038.63 1078.54 974.983 1197.74" stroke="white" stroke-width="1.40892" stroke-miterlimit="10"/>
<path d="M-316.014 157.658C119.837 84.1512 304.469 127.32 382.253 201.763C436.025 253.265 427.833 313.016 438.052 379.904C443.472 418.107 452.918 455.63 466.231 491.845C508.381 604.685 574.94 644.168 682.057 733.57C707.003 754.377 733.239 776.607 760.391 801.614C896.773 927.383 1043.75 1086.12 987.181 1204.1" stroke="white" stroke-width="1.40892" stroke-miterlimit="10"/>
<path d="M-322.632 179.103C106.476 107.293 293.374 148.452 375.144 221.332C431.112 271.19 427.144 330.016 439.16 395.063C445.762 432.943 455.549 470.197 468.418 506.428C509.026 618.403 569.295 662.985 675.6 753.768C700.28 774.801 726.535 797.054 753.853 821.537C892.896 946.299 1049 1093.58 999.465 1210.37" stroke="white" stroke-width="1.40892" stroke-miterlimit="10"/>
<path d="M-329.29 200.549C93.0973 130.417 282.236 169.626 368.045 240.781C426.186 289.015 426.411 346.789 440.288 410.249C448.099 447.773 458.252 484.77 470.687 521.024C509.716 632.088 563.717 681.749 669.008 774.125C693.472 795.534 719.693 817.701 747.134 841.657C888.706 965.256 1053.96 1101.18 1011.51 1216.82" stroke="white" stroke-width="1.40892" stroke-miterlimit="10"/>
<path d="M-335.951 221.988C79.7123 153.574 271.132 190.837 361.038 260.334C421.349 306.984 425.83 363.691 441.492 425.475C450.506 460.983 459.918 497.183 473.029 535.7C510.519 645.858 558.208 700.636 662.599 794.469C686.831 816.189 713.037 838.293 740.659 861.789C884.761 984.225 1059.17 1108.81 1023.74 1223.26" stroke="white" stroke-width="1.40892" stroke-miterlimit="10"/>
<path d="M-342.607 243.437C66.2666 176.799 259.858 211.942 353.958 279.85C416.461 324.897 425.299 380.566 442.683 440.69C452.938 476.172 462.761 512.136 475.34 550.342C511.202 659.669 552.671 719.448 656.158 814.778C680.137 836.83 706.345 858.893 734.077 881.799C880.732 1003.01 1064.28 1116.32 1035.87 1229.59" stroke="white" stroke-width="1.40892" stroke-miterlimit="10"/>
<path d="M-349.305 264.838C52.9523 199.865 248.764 233.304 346.873 299.362C411.502 342.864 424.786 397.418 443.847 455.919C455.406 491.36 465.6 527.085 477.547 564.91C511.934 673.316 547.009 738.205 649.668 835.122C673.457 857.489 699.63 879.466 727.483 901.886C876.756 1021.86 1069.42 1123.88 1048.04 1235.96" stroke="white" stroke-width="1.40892" stroke-miterlimit="10"/>
<path d="M-355.882 286.331C39.5948 223.01 237.499 254.551 339.833 318.877C406.63 360.837 424.362 414.236 445.041 471.089C457.926 506.469 468.483 542.037 479.955 579.619C512.743 687.092 541.587 757.105 643.248 855.409C668.029 878.881 693.995 901.068 721.046 921.883C872.788 1040.67 1074.57 1131.53 1060.24 1242.32" stroke="white" stroke-width="1.40892" stroke-miterlimit="10"/>
<path d="M-362.544 307.768C26.2094 246.166 226.445 275.908 332.713 338.296C401.653 378.731 423.897 430.959 446.245 486.313C460.478 521.615 471.361 556.981 482.259 594.249C513.505 700.857 536.04 775.946 636.763 875.663C661.189 899.397 687.119 921.535 714.39 941.937C868.946 1059.36 1079.65 1139.01 1072.52 1248.63" stroke="white" stroke-width="1.40892" stroke-miterlimit="10"/>
<path d="M-369.204 329.216C12.8279 269.291 215.237 297.409 325.725 357.879C396.728 396.785 423.592 447.788 447.433 501.485C463.038 536.688 474.18 571.91 484.545 608.867C514.211 714.566 530.497 794.756 630.354 896.015C654.454 919.987 680.373 942.059 707.878 962.033C864.932 1078.16 1084.77 1146.59 1084.6 1255.09" stroke="white" stroke-width="1.40892" stroke-miterlimit="10"/>
<path d="M-375.844 350.683C-0.642956 292.531 203.946 318.674 318.642 377.392C391.846 414.841 423.276 464.512 448.602 516.674C465.697 551.83 477.042 586.841 486.852 623.506C515.001 728.279 524.935 813.584 623.888 916.34C647.672 940.536 673.583 962.545 701.308 982.103C861.008 1096.89 1089.91 1154.14 1096.78 1261.46" stroke="white" stroke-width="1.40892" stroke-miterlimit="10"/>
<path d="M-382.497 372.13C-14.0038 315.491 192.73 340.11 311.516 396.984C386.84 432.969 422.88 481.27 449.662 531.999C468.049 567.009 479.792 601.948 489.031 638.259C515.576 742.182 519.263 832.547 617.361 936.723C640.828 961.141 666.736 983.091 694.677 1002.23C857.046 1115.66 1095 1161.93 1108.86 1267.91" stroke="white" stroke-width="1.40892" stroke-miterlimit="10"/>
<path d="M-389.159 393.573C-27.3132 338.741 181.525 361.566 304.519 416.418C382.022 450.965 422.698 497.837 450.981 547.094C470.915 581.855 482.743 616.759 491.424 652.819C516.389 755.833 513.809 851.277 610.958 956.989C634.098 981.638 660.007 1003.53 688.171 1022.24C853.255 1134.23 1100.17 1169.26 1121.12 1274.21" stroke="white" stroke-width="1.40892" stroke-miterlimit="10"/>
<path d="M-395.772 415.02C-40.6693 361.885 170.216 383.116 297.405 435.843C377.024 468.967 422.361 514.349 452.078 562.192C473.538 596.723 485.534 631.599 493.707 667.288C517.108 769.456 508.238 869.999 604.487 977.166C627.325 1002.03 653.243 1023.88 681.615 1042.18C849.498 1152.48 1105.22 1176.74 1133.29 1280.52" stroke="white" stroke-width="1.40892" stroke-miterlimit="10"/>
<path d="M-402.453 436.441C162.945 352.929 372.179 456.338 453.338 577.489C541.937 709.74 469.441 850.904 598.092 997.578C749.034 1169.62 1104.48 1167 1145.49 1286.94" stroke="white" stroke-width="1.40892" stroke-miterlimit="10"/>
</g>
</g>
<defs>
<clipPath id="clip0_1_2591">
<rect width="933" height="860" fill="white"/>
</clipPath>
<clipPath id="clip1_1_2591">
<rect width="1903.67" height="896.325" fill="white" transform="translate(115.896 -337) rotate(49.5319)"/>
</clipPath>
</defs>
</svg>
