<svg width="200" height="203" viewBox="0 0 200 203" fill="none" xmlns="http://www.w3.org/2000/svg">
<g id="Group">
<path id="Vector" d="M3.50028 171.398C11.1163 189.983 23.5343 193.852 32.2651 189.983C49.1502 182.502 93.0118 174.143 138.059 193.791C197.722 219.814 210.416 180.552 191.375 140.838C172.334 101.123 165.88 60.9609 187.831 38.8338C209.782 16.7066 181.057 -17.9082 130.044 18.1234C97.0774 41.4084 72.8839 36.2235 59.892 29.6409C47.6476 23.4371 34.0304 16.9513 21.2723 22.0154C5.7918 28.1604 -0.307998 41.4831 23.2449 71.2461C56.6213 113.423 -13.572 129.741 3.50028 171.398Z" fill="#DEE9FF"/>
<g id="Group_2">
<path id="Vector_2" d="M34.5103 80.8633H153.038V172.019C153.038 172.204 152.965 172.382 152.833 172.514C152.702 172.645 152.524 172.719 152.338 172.719H35.2103C35.0246 172.719 34.8465 172.645 34.7153 172.514C34.584 172.382 34.5103 172.204 34.5103 172.019V80.8633Z" fill="#A2BDFF"/>
<path id="Vector_3" d="M123.304 45.1445H68.1905L34.5103 80.8659H153.038L123.304 45.1445Z" fill="#418DF9"/>
<path id="Vector_4" d="M45.7368 30.8555L68.1902 45.1442L34.51 80.8656L8.99463 61.4739L45.7368 30.8555Z" fill="#699CFF"/>
<path id="Vector_5" d="M145.757 30.8555L123.303 45.1442L153.038 80.8656L182.499 61.4739L145.757 30.8555Z" fill="#699CFF"/>
<g id="Group_3">
<path id="Vector_6" d="M82.6698 31.5854C83.3034 31.285 83.7964 30.7513 84.0457 30.0959C84.2951 29.4404 84.2814 28.714 84.0077 28.0684L73.9068 4.25053C73.7637 3.91316 73.5539 3.6082 73.29 3.354C73.026 3.09979 72.7134 2.90159 72.3709 2.77131C72.0284 2.64103 71.6631 2.58136 71.2969 2.59589C70.9307 2.61041 70.5713 2.69884 70.2402 2.85584L68.2942 3.77858C67.9631 3.93559 67.6671 4.15792 67.4242 4.43222C67.1812 4.70652 66.9962 5.02712 66.8803 5.37475C66.7644 5.72238 66.7199 6.08986 66.7497 6.45509C66.7794 6.82032 66.8827 7.17577 67.0534 7.50007L79.1001 30.3951C79.4267 31.0157 79.9804 31.4861 80.6457 31.7079C81.3109 31.9297 82.0362 31.8858 82.6698 31.5854Z" fill="#418DF9"/>
<path id="Vector_7" d="M95.3338 29.2775C95.7924 29.2448 96.2206 29.0362 96.529 28.6953C96.8374 28.3543 97.0021 27.9074 96.9887 27.4478L96.4898 10.4916C96.4827 10.2514 96.4271 10.0151 96.3264 9.79696C96.2257 9.5788 96.0819 9.38326 95.9037 9.2221C95.7255 9.06093 95.5165 8.93747 95.2894 8.85912C95.0622 8.78078 94.8216 8.74917 94.5819 8.7662L93.1731 8.86658C92.9335 8.88364 92.6998 8.94896 92.4861 9.05861C92.2724 9.16827 92.0831 9.32 91.9295 9.50469C91.7759 9.68937 91.6612 9.9032 91.5924 10.1333C91.5235 10.3634 91.5019 10.6051 91.5288 10.8438L93.4366 27.6998C93.4881 28.1568 93.7144 28.5761 94.068 28.8701C94.4216 29.1642 94.8751 29.3101 95.3338 29.2775Z" fill="#418DF9"/>
<path id="Vector_8" d="M105.11 35.5437C106.371 36.2729 108.142 35.6037 109.124 34.0264L126.563 6.01897C127.605 4.34583 127.358 2.30659 126.02 1.53309L124.155 0.455089C122.818 -0.31855 120.927 0.484767 119.997 2.22231L104.422 31.3076C103.545 32.9457 103.848 34.8143 105.11 35.5437Z" fill="#418DF9"/>
</g>
</g>
</g>
</svg>
