<svg width="24" height="24" viewBox="0 0 24 24" fill="none" xmlns="http://www.w3.org/2000/svg">
<g id="vuesax/outline/share">
<g id="share">
<path id="Vector" d="M20.6199 13.0703C20.2399 13.0703 19.9199 12.7803 19.8699 12.4003C19.6299 10.1403 18.4099 8.09035 16.5299 6.79035C16.1899 6.55035 16.1099 6.09035 16.3399 5.75035C16.5799 5.41035 17.0499 5.33035 17.3799 5.56035C19.6199 7.11035 21.0599 9.55035 21.3499 12.2403C21.3899 12.6503 21.0999 13.0203 20.6799 13.0703C20.6699 13.0703 20.6399 13.0703 20.6199 13.0703Z" fill="#141416"/>
<path id="Vector_2" d="M3.48991 13.1193C3.45991 13.1193 3.43991 13.1193 3.40991 13.1193C2.99991 13.0693 2.69991 12.6993 2.73991 12.2893C3.00991 9.59928 4.43991 7.16928 6.64991 5.59928C6.98991 5.35928 7.45991 5.43928 7.69991 5.77928C7.93991 6.11928 7.85991 6.58928 7.51991 6.82928C5.65991 8.13928 4.45991 10.1893 4.22991 12.4493C4.19991 12.8293 3.86991 13.1193 3.48991 13.1193Z" fill="#141416"/>
<path id="Vector_3" d="M12.06 22.61C10.58 22.61 9.16997 22.27 7.84997 21.61C7.47997 21.42 7.32997 20.97 7.51997 20.6C7.70997 20.23 8.15997 20.08 8.52997 20.27C10.69 21.36 13.29 21.38 15.47 20.33C15.84 20.15 16.29 20.31 16.47 20.68C16.65 21.05 16.49 21.5 16.12 21.68C14.84 22.3 13.48 22.61 12.06 22.61Z" fill="#141416"/>
<path id="Vector_4" d="M12.06 8.44086C10.11 8.44086 8.53003 6.86086 8.53003 4.91086C8.53003 2.96086 10.11 1.38086 12.06 1.38086C14.01 1.38086 15.59 2.96086 15.59 4.91086C15.59 6.86086 14 8.44086 12.06 8.44086ZM12.06 2.89086C10.94 2.89086 10.03 3.80086 10.03 4.92086C10.03 6.04086 10.94 6.95086 12.06 6.95086C13.18 6.95086 14.09 6.04086 14.09 4.92086C14.09 3.80086 13.17 2.89086 12.06 2.89086Z" fill="#141416"/>
<path id="Vector_5" d="M4.83005 20.6694C2.88005 20.6694 1.30005 19.0894 1.30005 17.1394C1.30005 15.1994 2.88005 13.6094 4.83005 13.6094C6.78005 13.6094 8.36005 15.1894 8.36005 17.1394C8.36005 19.0794 6.78005 20.6694 4.83005 20.6694ZM4.83005 15.1094C3.71005 15.1094 2.80005 16.0194 2.80005 17.1394C2.80005 18.2594 3.71005 19.1694 4.83005 19.1694C5.95005 19.1694 6.86005 18.2594 6.86005 17.1394C6.86005 16.0194 5.95005 15.1094 4.83005 15.1094Z" fill="#141416"/>
<path id="Vector_6" d="M19.1699 20.6694C17.2199 20.6694 15.6399 19.0894 15.6399 17.1394C15.6399 15.1994 17.2199 13.6094 19.1699 13.6094C21.1199 13.6094 22.6999 15.1894 22.6999 17.1394C22.6899 19.0794 21.1099 20.6694 19.1699 20.6694ZM19.1699 15.1094C18.0499 15.1094 17.1399 16.0194 17.1399 17.1394C17.1399 18.2594 18.0499 19.1694 19.1699 19.1694C20.2899 19.1694 21.1999 18.2594 21.1999 17.1394C21.1899 16.0194 20.2899 15.1094 19.1699 15.1094Z" fill="#141416"/>
</g>
</g>
</svg>
