<svg width="70" height="70" viewBox="0 0 70 70" fill="none" xmlns="http://www.w3.org/2000/svg">
<g id="Vector" filter="url(#filter0_d_2_317)">
<path fill-rule="evenodd" clip-rule="evenodd" d="M10 25C10 38.8071 21.1929 50 35 50C48.8071 50 60 38.8071 60 25C60 11.1929 48.8071 0 35 0C21.1929 0 10 11.1929 10 25ZM28.3336 34.0238L37.3573 25.0002L28.3336 15.9765L25.9766 18.3335L32.6432 25.0002L25.9766 31.6668L28.3336 34.0238ZM38.3336 34.0238L47.3573 25.0002L38.3336 15.9765L35.9766 18.3335L42.6432 25.0002L35.9766 31.6668L38.3336 34.0238Z" fill="#15C3A7"/>
</g>
<defs>
<filter id="filter0_d_2_317" x="0" y="0" width="70" height="70" filterUnits="userSpaceOnUse" color-interpolation-filters="sRGB">
<feFlood flood-opacity="0" result="BackgroundImageFix"/>
<feColorMatrix in="SourceAlpha" type="matrix" values="0 0 0 0 0 0 0 0 0 0 0 0 0 0 0 0 0 0 127 0" result="hardAlpha"/>
<feOffset dy="10"/>
<feGaussianBlur stdDeviation="5"/>
<feComposite in2="hardAlpha" operator="out"/>
<feColorMatrix type="matrix" values="0 0 0 0 0 0 0 0 0 0 0 0 0 0 0 0 0 0 0.1 0"/>
<feBlend mode="normal" in2="BackgroundImageFix" result="effect1_dropShadow_2_317"/>
<feBlend mode="normal" in="SourceGraphic" in2="effect1_dropShadow_2_317" result="shape"/>
</filter>
</defs>
</svg>
