<svg width="70" height="70" viewBox="0 0 70 70" fill="none" xmlns="http://www.w3.org/2000/svg">
<g id="Vector" filter="url(#filter0_d_2_316)">
<path fill-rule="evenodd" clip-rule="evenodd" d="M60 25C60 11.1929 48.8071 0 35 0C21.1929 0 10 11.1929 10 25C10 38.8071 21.1929 50 35 50C48.8071 50 60 38.8071 60 25ZM41.6664 15.9762L32.6427 24.9998L41.6664 34.0235L44.0234 31.6665L37.3568 24.9998L44.0234 18.3332L41.6664 15.9762ZM31.6664 15.9762L22.6427 24.9998L31.6664 34.0235L34.0234 31.6665L27.3568 24.9998L34.0234 18.3332L31.6664 15.9762Z" fill="#15C3A7"/>
</g>
<defs>
<filter id="filter0_d_2_316" x="0" y="0" width="70" height="70" filterUnits="userSpaceOnUse" color-interpolation-filters="sRGB">
<feFlood flood-opacity="0" result="BackgroundImageFix"/>
<feColorMatrix in="SourceAlpha" type="matrix" values="0 0 0 0 0 0 0 0 0 0 0 0 0 0 0 0 0 0 127 0" result="hardAlpha"/>
<feOffset dy="10"/>
<feGaussianBlur stdDeviation="5"/>
<feComposite in2="hardAlpha" operator="out"/>
<feColorMatrix type="matrix" values="0 0 0 0 0 0 0 0 0 0 0 0 0 0 0 0 0 0 0.1 0"/>
<feBlend mode="normal" in2="BackgroundImageFix" result="effect1_dropShadow_2_316"/>
<feBlend mode="normal" in="SourceGraphic" in2="effect1_dropShadow_2_316" result="shape"/>
</filter>
</defs>
</svg>
