<svg width="1604" height="160" viewBox="0 0 1604 160" fill="none" xmlns="http://www.w3.org/2000/svg">
<path d="M125.435 2.89999H126.435V1.89999H125.435V2.89999ZM125.435 37.22V38.22H126.435V37.22H125.435ZM84.0749 37.22V36.22H83.0749V37.22H84.0749ZM84.0749 158V159H85.0749V158H84.0749ZM40.9549 158H39.9549V159H40.9549V158ZM40.9549 37.22H41.9549V36.22H40.9549V37.22ZM0.0349274 37.22H-0.96508V38.22H0.0349274V37.22ZM0.0349274 2.89999V1.89999H-0.96508V2.89999H0.0349274ZM124.435 2.89999V37.22H126.435V2.89999H124.435ZM125.435 36.22H84.0749V38.22H125.435V36.22ZM83.0749 37.22V158H85.0749V37.22H83.0749ZM84.0749 157H40.9549V159H84.0749V157ZM41.9549 158V37.22H39.9549V158H41.9549ZM40.9549 36.22H0.0349274V38.22H40.9549V36.22ZM1.03493 37.22V2.89999H-0.96508V37.22H1.03493ZM0.0349274 3.89999H125.435V1.89999H0.0349274V3.89999ZM184.508 37.44V36.44H183.508V37.44H184.508ZM184.508 62.74H183.508V63.74H184.508V62.74ZM234.008 62.74H235.008V61.74H234.008V62.74ZM234.008 95.52V96.52H235.008V95.52H234.008ZM184.508 95.52V94.52H183.508V95.52H184.508ZM184.508 123.46H183.508V124.46H184.508V123.46ZM240.608 123.46H241.608V122.46H240.608V123.46ZM240.608 158V159H241.608V158H240.608ZM141.388 158H140.388V159H141.388V158ZM141.388 2.89999V1.89999H140.388V2.89999H141.388ZM240.608 2.89999H241.608V1.89999H240.608V2.89999ZM240.608 37.44V38.44H241.608V37.44H240.608ZM183.508 37.44V62.74H185.508V37.44H183.508ZM184.508 63.74H234.008V61.74H184.508V63.74ZM233.008 62.74V95.52H235.008V62.74H233.008ZM234.008 94.52H184.508V96.52H234.008V94.52ZM183.508 95.52V123.46H185.508V95.52H183.508ZM184.508 124.46H240.608V122.46H184.508V124.46ZM239.608 123.46V158H241.608V123.46H239.608ZM240.608 157H141.388V159H240.608V157ZM142.388 158V2.89999H140.388V158H142.388ZM141.388 3.89999H240.608V1.89999H141.388V3.89999ZM239.608 2.89999V37.44H241.608V2.89999H239.608ZM240.608 36.44H184.508V38.44H240.608V36.44ZM275.996 146.78L275.397 147.581L275.404 147.586L275.996 146.78ZM257.296 109.82V108.82H256.239L256.297 109.875L257.296 109.82ZM303.276 109.82L304.272 109.739L304.198 108.82H303.276V109.82ZM308.116 121.7L307.449 122.445L308.116 121.7ZM328.576 122.58L329.183 123.374L329.19 123.369L328.576 122.58ZM326.156 103.66L326.661 102.797L326.156 103.66ZM305.476 95.3L305.159 96.2487L305.168 96.2516L305.476 95.3ZM280.836 85.62L280.372 86.5058L280.384 86.5124L280.397 86.5186L280.836 85.62ZM264.556 71.76L263.751 72.3539L263.759 72.3647L263.767 72.3753L264.556 71.76ZM265.216 22.26L266.032 22.838L266.037 22.8301L265.216 22.26ZM285.896 5.97999L285.511 5.05691V5.05692L285.896 5.97999ZM358.936 13.24L358.314 14.0229L358.32 14.0276L358.325 14.0322L358.936 13.24ZM376.316 48.66V49.66H377.365L377.315 48.612L376.316 48.66ZM329.456 48.66L328.456 48.6912L328.486 49.66H329.456V48.66ZM325.056 38.1L324.391 38.8474L324.401 38.8563L324.412 38.8649L325.056 38.1ZM306.796 37.44L307.476 38.1728L306.796 37.44ZM307.016 53.28L306.309 53.9871L306.332 54.0107L306.357 54.0326L307.016 53.28ZM315.596 58.78L315.164 59.6821L315.18 59.6899L315.197 59.6971L315.596 58.78ZM330.556 64.5L330.221 65.4423L330.231 65.4458L330.556 64.5ZM354.756 74.62L354.284 75.5018L354.296 75.5083L354.309 75.5144L354.756 74.62ZM371.256 88.48L370.458 89.0831L370.466 89.094L370.475 89.1047L371.256 88.48ZM371.256 135.78L370.413 135.241L370.41 135.247L370.406 135.253L371.256 135.78ZM351.236 153.16L350.801 152.26L350.795 152.263L351.236 153.16ZM320.436 158.54C302.554 158.54 287.963 154.326 276.588 145.974L275.404 147.586C287.202 156.248 302.238 160.54 320.436 160.54V158.54ZM276.594 145.979C265.272 137.523 259.16 125.492 258.294 109.765L256.297 109.875C257.192 126.122 263.546 138.73 275.397 147.581L276.594 145.979ZM257.296 110.82H303.276V108.82H257.296V110.82ZM302.279 109.901C302.73 115.467 304.399 119.717 307.449 122.445L308.783 120.955C306.259 118.697 304.701 115.026 304.272 109.739L302.279 109.901ZM307.449 122.445C310.451 125.131 314.296 126.44 318.896 126.44V124.44C314.696 124.44 311.354 123.256 308.783 120.955L307.449 122.445ZM318.896 126.44C323.017 126.44 326.474 125.446 329.183 123.374L327.968 121.786C325.691 123.527 322.694 124.44 318.896 124.44V126.44ZM329.19 123.369C332.088 121.115 333.536 118.03 333.536 114.22H331.536C331.536 117.45 330.344 119.938 327.962 121.791L329.19 123.369ZM333.536 114.22C333.536 109.284 331.19 105.452 326.661 102.797L325.65 104.523C329.629 106.855 331.536 110.063 331.536 114.22H333.536ZM326.661 102.797C322.31 100.246 315.33 97.4328 305.783 94.3484L305.168 96.2516C314.688 99.3272 321.495 102.087 325.65 104.523L326.661 102.797ZM305.792 94.3513C295.695 90.9856 287.527 87.7748 281.275 84.7214L280.397 86.5186C286.758 89.6252 295.017 92.8678 305.159 96.2487L305.792 94.3513ZM281.3 84.7342C275.278 81.5797 269.958 77.0568 265.344 71.1447L263.767 72.3753C268.54 78.4899 274.074 83.2069 280.372 86.5058L281.3 84.7342ZM265.36 71.1661C260.972 65.2214 258.736 57.4538 258.736 47.78H256.736C256.736 57.7596 259.046 65.9786 263.751 72.3539L265.36 71.1661ZM258.736 47.78C258.736 37.9803 261.183 29.6837 266.032 22.838L264.4 21.682C259.275 28.9163 256.736 37.633 256.736 47.78H258.736ZM266.037 22.8301C270.905 15.8145 277.64 10.5031 286.28 6.90307L285.511 5.05692C276.551 8.79021 269.499 14.3322 264.394 21.6899L266.037 22.8301ZM286.28 6.90307C294.94 3.29502 304.779 1.48 315.816 1.48V-0.520004C304.559 -0.520004 294.452 1.33163 285.511 5.05691L286.28 6.90307ZM315.816 1.48C333.702 1.48 347.833 5.69606 358.314 14.0229L359.558 12.457C348.625 3.77059 334.009 -0.520004 315.816 -0.520004V1.48ZM358.325 14.0322C368.918 22.1913 374.596 33.71 375.317 48.708L377.315 48.612C376.569 33.1034 370.66 21.0087 359.546 12.4478L358.325 14.0322ZM376.316 47.66H329.456V49.66H376.316V47.66ZM330.455 48.6288C330.302 43.7388 328.763 39.9143 325.7 37.3351L324.412 38.8649C326.922 40.979 328.316 44.1946 328.456 48.6912L330.455 48.6288ZM325.72 37.3526C322.861 34.8114 319.161 33.58 314.716 33.58V35.58C318.777 35.58 321.97 36.6953 324.391 38.8474L325.72 37.3526ZM314.716 33.58C311.278 33.58 308.382 34.6028 306.115 36.7072L307.476 38.1728C309.317 36.4639 311.7 35.58 314.716 35.58V33.58ZM306.115 36.7072C303.808 38.8493 302.716 41.8579 302.716 45.58H304.716C304.716 42.262 305.676 39.8441 307.476 38.1728L306.115 36.7072ZM302.716 45.58C302.716 48.7959 303.934 51.6122 306.309 53.9871L307.723 52.5729C305.698 50.5478 304.716 48.2308 304.716 45.58H302.716ZM306.357 54.0326C308.784 56.1564 311.725 58.0371 315.164 59.6821L316.027 57.8779C312.72 56.2963 309.94 54.5103 307.674 52.5274L306.357 54.0326ZM315.197 59.6971C318.602 61.1776 323.615 63.0934 330.221 65.4422L330.891 63.5578C324.297 61.2133 319.336 59.3157 315.994 57.8629L315.197 59.6971ZM330.231 65.4458C340.028 68.8088 348.04 72.1622 354.284 75.5018L355.227 73.7382C348.858 70.3311 340.737 66.9379 330.88 63.5542L330.231 65.4458ZM354.309 75.5144C360.618 78.6691 366 83.1869 370.458 89.0831L372.053 87.8769C367.418 81.7464 361.8 77.0242 355.203 73.7256L354.309 75.5144ZM370.475 89.1047C374.998 94.759 377.296 102.004 377.296 110.92H379.296C379.296 101.649 376.9 93.9343 372.037 87.8553L370.475 89.1047ZM377.296 110.92C377.296 119.981 374.997 128.079 370.413 135.241L372.098 136.319C376.901 128.815 379.296 120.339 379.296 110.92H377.296ZM370.406 135.253C365.972 142.404 359.453 148.078 350.801 152.26L351.671 154.06C360.618 149.736 367.446 143.822 372.106 136.307L370.406 135.253ZM350.795 152.263C342.307 156.435 332.198 158.54 320.436 158.54V160.54C332.434 160.54 342.858 158.392 351.677 154.057L350.795 152.263ZM515.161 2.89999H516.161V1.89999H515.161V2.89999ZM515.161 37.22V38.22H516.161V37.22H515.161ZM473.802 37.22V36.22H472.802V37.22H473.802ZM473.802 158V159H474.802V158H473.802ZM430.681 158H429.681V159H430.681V158ZM430.681 37.22H431.681V36.22H430.681V37.22ZM389.761 37.22H388.761V38.22H389.761V37.22ZM389.761 2.89999V1.89999H388.761V2.89999H389.761ZM514.161 2.89999V37.22H516.161V2.89999H514.161ZM515.161 36.22H473.802V38.22H515.161V36.22ZM472.802 37.22V158H474.802V37.22H472.802ZM473.802 157H430.681V159H473.802V157ZM431.681 158V37.22H429.681V158H431.681ZM430.681 36.22H389.761V38.22H430.681V36.22ZM390.761 37.22V2.89999H388.761V37.22H390.761ZM389.761 3.89999H515.161V1.89999H389.761V3.89999ZM574.235 2.89999H575.235V1.89999H574.235V2.89999ZM574.235 158V159H575.235V158H574.235ZM531.115 158H530.115V159H531.115V158ZM531.115 2.89999V1.89999H530.115V2.89999H531.115ZM573.235 2.89999V158H575.235V2.89999H573.235ZM574.235 157H531.115V159H574.235V157ZM532.115 158V2.89999H530.115V158H532.115ZM531.115 3.89999H574.235V1.89999H531.115V3.89999ZM779.851 2.89999H780.851V1.89999H779.851V2.89999ZM779.851 158V159H780.851V158H779.851ZM736.731 158H735.731V159H736.731V158ZM736.731 72.42H737.731L735.784 72.0965L736.731 72.42ZM707.471 158V159H708.186L708.417 158.324L707.471 158ZM671.391 158L670.444 158.323L670.676 159H671.391V158ZM641.911 71.76L642.857 71.4365L640.911 71.76H641.911ZM641.911 158V159H642.911V158H641.911ZM598.791 158H597.791V159H598.791V158ZM598.791 2.89999V1.89999H597.791V2.89999H598.791ZM650.931 2.89999L651.863 2.53951L651.616 1.89999H650.931V2.89999ZM689.871 103.66L688.938 104.02L689.881 106.462L690.806 104.013L689.871 103.66ZM727.931 2.89999V1.89999H727.24L726.995 2.54663L727.931 2.89999ZM778.851 2.89999V158H780.851V2.89999H778.851ZM779.851 157H736.731V159H779.851V157ZM737.731 158V72.42H735.731V158H737.731ZM735.784 72.0965L706.524 157.676L708.417 158.324L737.677 72.7435L735.784 72.0965ZM707.471 157H671.391V159H707.471V157ZM672.337 157.677L642.857 71.4365L640.964 72.0835L670.444 158.323L672.337 157.677ZM640.911 71.76V158H642.911V71.76H640.911ZM641.911 157H598.791V159H641.911V157ZM599.791 158V2.89999H597.791V158H599.791ZM598.791 3.89999H650.931V1.89999H598.791V3.89999ZM649.998 3.26047L688.938 104.02L690.803 103.3L651.863 2.53951L649.998 3.26047ZM690.806 104.013L728.866 3.25335L726.995 2.54663L688.935 103.307L690.806 104.013ZM727.931 3.89999H779.851V1.89999H727.931V3.89999ZM838.716 149.42L838.223 150.29L838.231 150.295L838.716 149.42ZM809.676 121.04L808.81 121.541L808.814 121.547L808.818 121.553L809.676 121.04ZM809.676 38.98L808.815 38.4716L808.813 38.4748L809.676 38.98ZM918.796 10.6L918.307 11.4722L918.311 11.4747L918.796 10.6ZM947.616 38.98L946.75 39.4806L946.753 39.4852L947.616 38.98ZM947.616 121.04L948.479 121.545L948.482 121.541L947.616 121.04ZM918.796 149.42L919.281 150.295L919.289 150.29L918.796 149.42ZM904.716 108.72L903.972 108.052L903.965 108.06L904.716 108.72ZM904.716 50.86L903.965 51.5196L903.972 51.5277L903.979 51.5357L904.716 50.86ZM852.576 50.86L853.321 51.5273L853.328 51.5196L852.576 50.86ZM852.576 108.94L851.825 109.6L851.831 109.607L852.576 108.94ZM878.756 158.54C864.398 158.54 851.219 155.206 839.201 148.545L838.231 150.295C850.56 157.127 864.074 160.54 878.756 160.54V158.54ZM839.209 148.55C827.187 141.742 817.633 132.405 810.535 120.527L808.818 121.553C816.093 133.728 825.899 143.311 838.223 150.29L839.209 148.55ZM810.542 120.539C803.597 108.531 800.116 94.9929 800.116 79.9H798.116C798.116 95.3138 801.675 109.202 808.81 121.541L810.542 120.539ZM800.116 79.9C800.116 64.8069 803.597 51.3443 810.539 39.4852L808.813 38.4748C801.675 50.669 798.116 64.4864 798.116 79.9H800.116ZM810.537 39.4884C817.635 27.466 827.186 18.1335 839.201 11.4747L838.231 9.72534C825.9 16.5598 816.091 26.1474 808.815 38.4716L810.537 39.4884ZM839.201 11.4747C851.219 4.81381 864.398 1.48 878.756 1.48V-0.520004C864.074 -0.520004 850.56 2.89285 838.231 9.72534L839.201 11.4747ZM878.756 1.48C893.263 1.48 906.439 4.81465 918.307 11.4721L919.285 9.72785C907.1 2.89201 893.583 -0.520004 878.756 -0.520004V1.48ZM918.311 11.4747C930.324 18.1325 939.8 27.4625 946.75 39.4806L948.482 38.4794C941.352 26.1509 931.615 16.5608 919.281 9.72534L918.311 11.4747ZM946.753 39.4852C953.695 51.3443 957.176 64.8069 957.176 79.9H959.176C959.176 64.4864 955.617 50.669 948.479 38.4748L946.753 39.4852ZM957.176 79.9C957.176 94.9929 953.695 108.531 946.75 120.539L948.482 121.541C955.617 109.202 959.176 95.3138 959.176 79.9H957.176ZM946.753 120.535C939.803 132.409 930.324 141.743 918.303 148.55L919.289 150.29C931.615 143.31 941.35 133.725 948.479 121.545L946.753 120.535ZM918.311 148.545C906.293 155.206 893.114 158.54 878.756 158.54V160.54C893.438 160.54 906.953 157.127 919.281 150.295L918.311 148.545ZM878.756 120.5C889.996 120.5 898.942 116.816 905.468 109.38L903.965 108.06C897.877 114.997 889.516 118.5 878.756 118.5V120.5ZM905.46 109.388C912.116 101.976 915.396 92.1104 915.396 79.9H913.396C913.396 91.7429 910.223 101.091 903.972 108.052L905.46 109.388ZM915.396 79.9C915.396 67.4047 912.12 57.4573 905.453 50.1843L903.979 51.5357C910.219 58.3427 913.396 67.7553 913.396 79.9H915.396ZM905.468 50.2004C898.942 42.7638 889.996 39.08 878.756 39.08V41.08C889.516 41.08 897.877 44.5829 903.965 51.5196L905.468 50.2004ZM878.756 39.08C867.374 39.08 858.353 42.7607 851.825 50.2004L853.328 51.5196C859.412 44.5859 867.845 41.08 878.756 41.08V39.08ZM851.831 50.1927C845.316 57.4661 842.116 67.4103 842.116 79.9H844.116C844.116 67.7497 847.223 58.3339 853.321 51.5272L851.831 50.1927ZM842.116 79.9C842.116 92.2478 845.318 102.185 851.825 109.6L853.328 108.28C847.221 101.322 844.116 91.8989 844.116 79.9H842.116ZM851.831 109.607C858.362 116.897 867.381 120.5 878.756 120.5V118.5C867.838 118.5 859.404 115.063 853.321 108.273L851.831 109.607ZM1121.22 158V159H1122.22V158H1121.22ZM1078.1 158L1077.27 158.552L1077.56 159H1078.1V158ZM1020.68 71.32L1021.51 70.7677L1019.68 67.9997V71.32H1020.68ZM1020.68 158V159H1021.68V158H1020.68ZM977.56 158H976.56V159H977.56V158ZM977.56 2.89999V1.89999H976.56V2.89999H977.56ZM1020.68 2.89999L1021.52 2.35257L1021.22 1.89999H1020.68V2.89999ZM1078.1 90.68L1077.26 91.2274L1079.1 94.0355V90.68H1078.1ZM1078.1 2.89999V1.89999H1077.1V2.89999H1078.1ZM1121.22 2.89999H1122.22V1.89999H1121.22V2.89999ZM1121.22 157H1078.1V159H1121.22V157ZM1078.93 157.448L1021.51 70.7677L1019.85 71.8723L1077.27 158.552L1078.93 157.448ZM1019.68 71.32V158H1021.68V71.32H1019.68ZM1020.68 157H977.56V159H1020.68V157ZM978.56 158V2.89999H976.56V158H978.56ZM977.56 3.89999H1020.68V1.89999H977.56V3.89999ZM1019.84 3.44741L1077.26 91.2274L1078.94 90.1326L1021.52 2.35257L1019.84 3.44741ZM1079.1 90.68V2.89999H1077.1V90.68H1079.1ZM1078.1 3.89999H1121.22V1.89999H1078.1V3.89999ZM1120.22 2.89999V158H1122.22V2.89999H1120.22ZM1188.9 2.89999H1189.9V1.89999H1188.9V2.89999ZM1188.9 158V159H1189.9V158H1188.9ZM1145.78 158H1144.78V159H1145.78V158ZM1145.78 2.89999V1.89999H1144.78V2.89999H1145.78ZM1187.9 2.89999V158H1189.9V2.89999H1187.9ZM1188.9 157H1145.78V159H1188.9V157ZM1146.78 158V2.89999H1144.78V158H1146.78ZM1145.78 3.89999H1188.9V1.89999H1145.78V3.89999ZM1311.58 132.7L1312.53 132.386L1312.3 131.7H1311.58V132.7ZM1256.58 132.7V131.7H1255.86L1255.63 132.386L1256.58 132.7ZM1248.22 158V159H1248.94L1249.17 158.314L1248.22 158ZM1202.9 158L1201.96 157.658L1201.47 159H1202.9V158ZM1259.44 2.89999V1.89999H1258.74L1258.5 2.5575L1259.44 2.89999ZM1309.16 2.89999L1310.1 2.55867L1309.86 1.89999H1309.16V2.89999ZM1365.48 158V159H1366.91L1366.42 157.659L1365.48 158ZM1319.94 158L1318.99 158.314L1319.22 159H1319.94V158ZM1300.8 99.7V100.7H1302.19L1301.75 99.3838L1300.8 99.7ZM1284.08 49.54L1285.03 49.2238L1284.07 46.3589L1283.13 49.2275L1284.08 49.54ZM1267.58 99.7L1266.63 99.3875L1266.2 100.7H1267.58V99.7ZM1311.58 131.7H1256.58V133.7H1311.58V131.7ZM1255.63 132.386L1247.27 157.686L1249.17 158.314L1257.53 133.014L1255.63 132.386ZM1248.22 157H1202.9V159H1248.22V157ZM1203.84 158.342L1260.38 3.24248L1258.5 2.5575L1201.96 157.658L1203.84 158.342ZM1259.44 3.89999H1309.16V1.89999H1259.44V3.89999ZM1308.22 3.24131L1364.54 158.341L1366.42 157.659L1310.1 2.55867L1308.22 3.24131ZM1365.48 157H1319.94V159H1365.48V157ZM1320.89 157.686L1312.53 132.386L1310.63 133.014L1318.99 158.314L1320.89 157.686ZM1301.75 99.3838L1285.03 49.2238L1283.13 49.8562L1299.85 100.016L1301.75 99.3838ZM1283.13 49.2275L1266.63 99.3875L1268.53 100.012L1285.03 49.8525L1283.13 49.2275ZM1267.58 100.7H1300.8V98.7H1267.58V100.7ZM1422.65 125H1421.65V126H1422.65V125ZM1470.83 125H1471.83V124H1470.83V125ZM1470.83 158V159H1471.83V158H1470.83ZM1379.53 158H1378.53V159H1379.53V158ZM1379.53 2.89999V1.89999H1378.53V2.89999H1379.53ZM1422.65 2.89999H1423.65V1.89999H1422.65V2.89999ZM1422.65 126H1470.83V124H1422.65V126ZM1469.83 125V158H1471.83V125H1469.83ZM1470.83 157H1379.53V159H1470.83V157ZM1380.53 158V2.89999H1378.53V158H1380.53ZM1379.53 3.89999H1422.65V1.89999H1379.53V3.89999ZM1421.65 2.89999V125H1423.65V2.89999H1421.65ZM1501.68 146.78L1501.08 147.581L1501.09 147.586L1501.68 146.78ZM1482.98 109.82V108.82H1481.92L1481.98 109.875L1482.98 109.82ZM1528.96 109.82L1529.96 109.739L1529.88 108.82H1528.96V109.82ZM1533.8 121.7L1533.13 122.445L1533.8 121.7ZM1554.26 122.58L1554.87 123.374L1554.87 123.369L1554.26 122.58ZM1551.84 103.66L1552.34 102.797L1551.84 103.66ZM1531.16 95.3L1530.84 96.2487L1530.85 96.2516L1531.16 95.3ZM1506.52 85.62L1506.06 86.5058L1506.07 86.5124L1506.08 86.5186L1506.52 85.62ZM1490.24 71.76L1489.43 72.3539L1489.44 72.3647L1489.45 72.3753L1490.24 71.76ZM1490.9 22.26L1491.72 22.838L1491.72 22.8301L1490.9 22.26ZM1511.58 5.97999L1511.19 5.05691V5.05692L1511.58 5.97999ZM1584.62 13.24L1584 14.0229L1584 14.0276L1584.01 14.0322L1584.62 13.24ZM1602 48.66V49.66H1603.05L1603 48.612L1602 48.66ZM1555.14 48.66L1554.14 48.6912L1554.17 49.66H1555.14V48.66ZM1550.74 38.1L1550.07 38.8474L1550.08 38.8563L1550.1 38.8649L1550.74 38.1ZM1532.48 37.44L1533.16 38.1728L1532.48 37.44ZM1532.7 53.28L1531.99 53.9871L1532.02 54.0107L1532.04 54.0326L1532.7 53.28ZM1541.28 58.78L1540.85 59.6821L1540.86 59.6899L1540.88 59.6971L1541.28 58.78ZM1556.24 64.5L1555.9 65.4423L1555.91 65.4458L1556.24 64.5ZM1580.44 74.62L1579.97 75.5018L1579.98 75.5083L1579.99 75.5144L1580.44 74.62ZM1596.94 88.48L1596.14 89.0831L1596.15 89.094L1596.16 89.1047L1596.94 88.48ZM1596.94 135.78L1596.1 135.241L1596.09 135.247L1596.09 135.253L1596.94 135.78ZM1576.92 153.16L1576.48 152.26L1576.48 152.263L1576.92 153.16ZM1546.12 158.54C1528.24 158.54 1513.65 154.326 1502.27 145.974L1501.09 147.586C1512.89 156.248 1527.92 160.54 1546.12 160.54V158.54ZM1502.28 145.979C1490.96 137.523 1484.84 125.492 1483.98 109.765L1481.98 109.875C1482.88 126.122 1489.23 138.73 1501.08 147.581L1502.28 145.979ZM1482.98 110.82H1528.96V108.82H1482.98V110.82ZM1527.96 109.901C1528.41 115.467 1530.08 119.717 1533.13 122.445L1534.47 120.955C1531.94 118.697 1530.38 115.026 1529.96 109.739L1527.96 109.901ZM1533.13 122.445C1536.13 125.131 1539.98 126.44 1544.58 126.44V124.44C1540.38 124.44 1537.04 123.256 1534.47 120.955L1533.13 122.445ZM1544.58 126.44C1548.7 126.44 1552.16 125.446 1554.87 123.374L1553.65 121.786C1551.37 123.527 1548.38 124.44 1544.58 124.44V126.44ZM1554.87 123.369C1557.77 121.115 1559.22 118.03 1559.22 114.22H1557.22C1557.22 117.45 1556.03 119.938 1553.65 121.791L1554.87 123.369ZM1559.22 114.22C1559.22 109.284 1556.87 105.452 1552.34 102.797L1551.33 104.523C1555.31 106.855 1557.22 110.063 1557.22 114.22H1559.22ZM1552.34 102.797C1547.99 100.246 1541.01 97.4328 1531.47 94.3484L1530.85 96.2516C1540.37 99.3272 1547.18 102.087 1551.33 104.523L1552.34 102.797ZM1531.48 94.3513C1521.38 90.9856 1513.21 87.7748 1506.96 84.7214L1506.08 86.5186C1512.44 89.6252 1520.7 92.8678 1530.84 96.2487L1531.48 94.3513ZM1506.98 84.7342C1500.96 81.5797 1495.64 77.0568 1491.03 71.1447L1489.45 72.3753C1494.22 78.4899 1499.76 83.2069 1506.06 86.5058L1506.98 84.7342ZM1491.04 71.1661C1486.66 65.2214 1484.42 57.4538 1484.42 47.78H1482.42C1482.42 57.7596 1484.73 65.9786 1489.43 72.3539L1491.04 71.1661ZM1484.42 47.78C1484.42 37.9803 1486.87 29.6837 1491.72 22.838L1490.08 21.682C1484.96 28.9163 1482.42 37.633 1482.42 47.78H1484.42ZM1491.72 22.8301C1496.59 15.8145 1503.32 10.5031 1511.96 6.90307L1511.19 5.05692C1502.23 8.79021 1495.18 14.3322 1490.08 21.6899L1491.72 22.8301ZM1511.96 6.90307C1520.62 3.29502 1530.46 1.48 1541.5 1.48V-0.520004C1530.24 -0.520004 1520.14 1.33163 1511.19 5.05691L1511.96 6.90307ZM1541.5 1.48C1559.39 1.48 1573.52 5.69606 1584 14.0229L1585.24 12.457C1574.31 3.77059 1559.69 -0.520004 1541.5 -0.520004V1.48ZM1584.01 14.0322C1594.6 22.1913 1600.28 33.71 1601 48.708L1603 48.612C1602.25 33.1034 1596.34 21.0087 1585.23 12.4478L1584.01 14.0322ZM1602 47.66H1555.14V49.66H1602V47.66ZM1556.14 48.6288C1555.99 43.7388 1554.45 39.9143 1551.38 37.3351L1550.1 38.8649C1552.61 40.979 1554 44.1946 1554.14 48.6912L1556.14 48.6288ZM1551.4 37.3526C1548.54 34.8114 1544.84 33.58 1540.4 33.58V35.58C1544.46 35.58 1547.65 36.6953 1550.07 38.8474L1551.4 37.3526ZM1540.4 33.58C1536.96 33.58 1534.07 34.6028 1531.8 36.7072L1533.16 38.1728C1535 36.4639 1537.38 35.58 1540.4 35.58V33.58ZM1531.8 36.7072C1529.49 38.8493 1528.4 41.8579 1528.4 45.58H1530.4C1530.4 42.262 1531.36 39.8441 1533.16 38.1728L1531.8 36.7072ZM1528.4 45.58C1528.4 48.7959 1529.62 51.6122 1531.99 53.9871L1533.41 52.5729C1531.38 50.5478 1530.4 48.2308 1530.4 45.58H1528.4ZM1532.04 54.0326C1534.47 56.1564 1537.41 58.0371 1540.85 59.6821L1541.71 57.8779C1538.4 56.2963 1535.62 54.5103 1533.36 52.5274L1532.04 54.0326ZM1540.88 59.6971C1544.29 61.1776 1549.3 63.0934 1555.9 65.4422L1556.57 63.5578C1549.98 61.2133 1545.02 59.3157 1541.68 57.8629L1540.88 59.6971ZM1555.91 65.4458C1565.71 68.8088 1573.72 72.1622 1579.97 75.5018L1580.91 73.7382C1574.54 70.3311 1566.42 66.9379 1556.56 63.5542L1555.91 65.4458ZM1579.99 75.5144C1586.3 78.6691 1591.68 83.1869 1596.14 89.0831L1597.74 87.8769C1593.1 81.7464 1587.48 77.0242 1580.89 73.7256L1579.99 75.5144ZM1596.16 89.1047C1600.68 94.759 1602.98 102.004 1602.98 110.92H1604.98C1604.98 101.649 1602.58 93.9343 1597.72 87.8553L1596.16 89.1047ZM1602.98 110.92C1602.98 119.981 1600.68 128.079 1596.1 135.241L1597.78 136.319C1602.58 128.815 1604.98 120.339 1604.98 110.92H1602.98ZM1596.09 135.253C1591.66 142.404 1585.14 148.078 1576.48 152.26L1577.35 154.06C1586.3 149.736 1593.13 143.822 1597.79 136.307L1596.09 135.253ZM1576.48 152.263C1567.99 156.435 1557.88 158.54 1546.12 158.54V160.54C1558.12 160.54 1568.54 158.392 1577.36 154.057L1576.48 152.263Z" fill="#33E0C4" fill-opacity="0.3"/>
</svg>
