<svg width="20" height="20" viewBox="0 0 20 20" fill="none" xmlns="http://www.w3.org/2000/svg">
<g id="pin">
<path id="Vector (Stroke)" fill-rule="evenodd" clip-rule="evenodd" d="M10 1.33333C5.95045 1.33333 2.66668 4.61557 2.66668 8.66142C2.66668 11.7584 4.21563 14.2636 5.97126 16.0181C6.84689 16.8932 7.76031 17.5669 8.526 18.0181C8.90907 18.2439 9.24732 18.4094 9.51821 18.5163C9.80859 18.6309 9.96282 18.6545 10 18.6545C10.0372 18.6545 10.1914 18.6309 10.4818 18.5163C10.7527 18.4094 11.0909 18.2439 11.474 18.0181C12.2397 17.5669 13.1531 16.8932 14.0288 16.0181C15.7844 14.2636 17.3333 11.7584 17.3333 8.66142C17.3333 4.61557 14.0496 1.33333 10 1.33333ZM1.33334 8.66142C1.33334 3.87836 5.2149 0 10 0C14.7851 0 18.6667 3.87836 18.6667 8.66142C18.6667 12.2268 16.8823 15.0514 14.9713 16.9612C14.0136 17.9183 13.0103 18.6604 12.151 19.1668C11.7216 19.4199 11.3202 19.6188 10.9713 19.7565C10.6419 19.8865 10.2962 19.9878 10 19.9878C9.70386 19.9878 9.3581 19.8865 9.02869 19.7565C8.67978 19.6188 8.27845 19.4199 7.84902 19.1668C6.98971 18.6604 5.98646 17.9183 5.02876 16.9612C3.11773 15.0514 1.33334 12.2268 1.33334 8.66142ZM6.66668 8.66142C6.66668 6.82177 8.16023 5.32983 10 5.32983C11.8398 5.32983 13.3333 6.82177 13.3333 8.66142C13.3333 10.501 11.8398 11.993 10 11.993C8.16022 11.993 6.66668 10.501 6.66668 8.66142ZM10 6.66317C8.89579 6.66317 8.00001 7.55898 8.00001 8.66142C8.00001 9.76387 8.8958 10.6597 10 10.6597C11.1042 10.6597 12 9.76387 12 8.66142C12 7.55898 11.1042 6.66317 10 6.66317Z" fill="black"/>
</g>
</svg>
