<svg width="20" height="20" viewBox="0 0 20 20" fill="none" xmlns="http://www.w3.org/2000/svg">
<g id="phone">
<path id="Vector 2186 (Stroke)" fill-rule="evenodd" clip-rule="evenodd" d="M0 3.33333C0 1.49238 1.49238 0 3.33333 0H6.2923C7.21003 0 8.01 0.624595 8.23258 1.51493L9.01397 4.64047C9.26744 5.65434 8.69758 6.69242 7.70614 7.0229L6.22796 7.51563C5.77541 7.66648 5.50601 8.13071 5.59956 8.59847C6.18513 11.5263 8.47371 13.8149 11.4015 14.4004C11.8693 14.494 12.3335 14.2246 12.4844 13.772L12.8814 12.581C13.2663 11.4263 14.5846 10.8803 15.6732 11.4246L18.8944 13.0352C19.572 13.374 20 14.0665 20 14.824V16.6667C20 18.5076 18.5076 20 16.6667 20H14C6.26801 20 0 13.732 0 6V3.33333ZM3.33333 1.33333C2.22876 1.33333 1.33333 2.22876 1.33333 3.33333V6C1.33333 12.9956 7.00439 18.6667 14 18.6667H16.6667C17.7712 18.6667 18.6667 17.7712 18.6667 16.6667V14.824C18.6667 14.5715 18.524 14.3407 18.2981 14.2278L15.0769 12.6171C14.714 12.4357 14.2746 12.6177 14.1463 13.0026L13.7493 14.1937C13.3858 15.2841 12.2672 15.9333 11.14 15.7079C7.6844 15.0168 4.98325 12.3156 4.29212 8.85996C4.0667 7.73282 4.71585 6.61421 5.80633 6.25072L7.2845 5.75799C7.61498 5.64783 7.80493 5.3018 7.72044 4.96385L6.93906 1.83831C6.86487 1.54153 6.59821 1.33333 6.2923 1.33333H3.33333Z" fill="black"/>
</g>
</svg>
