<svg width="20" height="20" viewBox="0 0 20 20" fill="none" xmlns="http://www.w3.org/2000/svg">
<g id="envelope">
<path id="Vector (Stroke)" fill-rule="evenodd" clip-rule="evenodd" d="M0 3.3335C0 2.22893 0.895431 1.3335 2 1.3335H18C19.1046 1.3335 20 2.22893 20 3.3335V16.6668C20 17.7714 19.1046 18.6668 18 18.6668H2C0.895431 18.6668 0 17.7714 0 16.6668V3.3335ZM2 2.66683C1.63181 2.66683 1.33333 2.96531 1.33333 3.3335V5.61328L10 10.5657L18.6667 5.61328V3.3335C18.6667 2.96531 18.3682 2.66683 18 2.66683H2ZM18.6667 7.14895L10 12.1013L1.33333 7.14895V16.6668C1.33333 17.035 1.63181 17.3335 2 17.3335H18C18.3682 17.3335 18.6667 17.035 18.6667 16.6668V7.14895Z" fill="black"/>
</g>
</svg>
