<svg width="20" height="20" viewBox="0 0 20 20" fill="none" xmlns="http://www.w3.org/2000/svg">
<path d="M9.99993 13.6084C8.00827 13.6084 6.3916 11.9917 6.3916 10.0001C6.3916 8.00839 8.00827 6.39172 9.99993 6.39172C11.9916 6.39172 13.6083 8.00839 13.6083 10.0001C13.6083 11.9917 11.9916 13.6084 9.99993 13.6084ZM9.99993 7.64172C8.69993 7.64172 7.6416 8.70006 7.6416 10.0001C7.6416 11.3001 8.69993 12.3584 9.99993 12.3584C11.2999 12.3584 12.3583 11.3001 12.3583 10.0001C12.3583 8.70006 11.2999 7.64172 9.99993 7.64172Z" fill="#2E58EA"/>
<path d="M9.9999 17.5166C6.86657 17.5166 3.90824 15.6833 1.8749 12.4999C0.991569 11.1249 0.991569 8.88328 1.8749 7.49994C3.91657 4.31661 6.8749 2.48328 9.9999 2.48328C13.1249 2.48328 16.0832 4.31661 18.1166 7.49994C18.9999 8.87494 18.9999 11.1166 18.1166 12.4999C16.0832 15.6833 13.1249 17.5166 9.9999 17.5166ZM9.9999 3.73328C7.30824 3.73328 4.73324 5.34994 2.93324 8.17494C2.30824 9.14994 2.30824 10.8499 2.93324 11.8249C4.73324 14.6499 7.30824 16.2666 9.9999 16.2666C12.6916 16.2666 15.2666 14.6499 17.0666 11.8249C17.6916 10.8499 17.6916 9.14994 17.0666 8.17494C15.2666 5.34994 12.6916 3.73328 9.9999 3.73328Z" fill="#2E58EA"/>
</svg>
