<svg width="20" height="20" viewBox="0 0 20 20" fill="none" xmlns="http://www.w3.org/2000/svg">
<g id="vuesax/outline/call">
<g id="call">
<path id="Vector" d="M14.5415 18.9577C13.5998 18.9577 12.6082 18.7327 11.5832 18.2993C10.5832 17.8743 9.57484 17.291 8.5915 16.5827C7.6165 15.866 6.67484 15.066 5.78317 14.191C4.89984 13.2993 4.09984 12.3577 3.3915 11.391C2.67484 10.391 2.09984 9.39102 1.6915 8.42435C1.25817 7.39102 1.0415 6.39102 1.0415 5.44935C1.0415 4.79935 1.15817 4.18268 1.38317 3.60768C1.6165 3.01602 1.9915 2.46602 2.49984 1.99102C3.1415 1.35768 3.87484 1.04102 4.65817 1.04102C4.98317 1.04102 5.3165 1.11602 5.59984 1.24935C5.92484 1.39935 6.19984 1.62435 6.39984 1.92435L8.33317 4.64935C8.50817 4.89102 8.6415 5.12435 8.73317 5.35768C8.8415 5.60768 8.89984 5.85768 8.89984 6.09935C8.89984 6.41602 8.80817 6.72435 8.63317 7.01602C8.50817 7.24102 8.3165 7.48268 8.07484 7.72435L7.50817 8.31602C7.5165 8.34102 7.52484 8.35768 7.53317 8.37435C7.63317 8.54935 7.83317 8.84935 8.2165 9.29935C8.62484 9.76602 9.00817 10.191 9.3915 10.5827C9.88317 11.066 10.2915 11.4493 10.6748 11.766C11.1498 12.166 11.4582 12.366 11.6415 12.4577L11.6248 12.4993L12.2332 11.8993C12.4915 11.641 12.7415 11.4493 12.9832 11.3243C13.4415 11.041 14.0248 10.991 14.6082 11.2327C14.8248 11.3243 15.0582 11.4493 15.3082 11.6243L18.0748 13.591C18.3832 13.7993 18.6082 14.066 18.7415 14.3827C18.8665 14.6993 18.9248 14.991 18.9248 15.2827C18.9248 15.6827 18.8332 16.0827 18.6582 16.4577C18.4832 16.8327 18.2665 17.1577 17.9915 17.4577C17.5165 17.9827 16.9998 18.3577 16.3998 18.5993C15.8248 18.8327 15.1998 18.9577 14.5415 18.9577ZM4.65817 2.29102C4.19984 2.29102 3.77484 2.49102 3.3665 2.89102C2.98317 3.24935 2.7165 3.64102 2.54984 4.06602C2.37484 4.49935 2.2915 4.95768 2.2915 5.44935C2.2915 6.22435 2.47484 7.06602 2.8415 7.93268C3.2165 8.81602 3.7415 9.73268 4.40817 10.6493C5.07484 11.566 5.83317 12.4577 6.6665 13.2993C7.49984 14.1243 8.39984 14.891 9.32484 15.566C10.2248 16.2243 11.1498 16.7577 12.0665 17.141C13.4915 17.7493 14.8248 17.891 15.9248 17.4327C16.3498 17.2577 16.7248 16.991 17.0665 16.6077C17.2582 16.3994 17.4082 16.1743 17.5332 15.9077C17.6332 15.6993 17.6832 15.4827 17.6832 15.266C17.6832 15.1327 17.6582 14.9993 17.5915 14.8493C17.5665 14.7993 17.5165 14.7077 17.3582 14.5993L14.5915 12.6327C14.4248 12.516 14.2748 12.4327 14.1332 12.3743C13.9498 12.2993 13.8748 12.2243 13.5915 12.3993C13.4248 12.4827 13.2748 12.6077 13.1082 12.7743L12.4748 13.3993C12.1498 13.716 11.6498 13.791 11.2665 13.6493L11.0415 13.5493C10.6998 13.366 10.2998 13.0827 9.85817 12.7077C9.45817 12.366 9.02484 11.966 8.49984 11.4493C8.0915 11.0327 7.68317 10.591 7.25817 10.0993C6.8665 9.64102 6.58317 9.24935 6.40817 8.92435L6.30817 8.67435C6.25817 8.48268 6.2415 8.37435 6.2415 8.25768C6.2415 7.95768 6.34984 7.69102 6.55817 7.48268L7.18317 6.83268C7.34984 6.66602 7.47484 6.50768 7.55817 6.36602C7.62484 6.25768 7.64984 6.16602 7.64984 6.08268C7.64984 6.01602 7.62484 5.91602 7.58317 5.81602C7.52484 5.68268 7.43317 5.53268 7.3165 5.37435L5.38317 2.64102C5.29984 2.52435 5.19984 2.44102 5.07484 2.38268C4.9415 2.32435 4.79984 2.29102 4.65817 2.29102ZM11.6248 12.5077L11.4915 13.0743L11.7165 12.491C11.6748 12.4827 11.6415 12.491 11.6248 12.5077Z" fill="#6686F6"/>
</g>
</g>
</svg>
