<svg width="16" height="16" viewBox="0 0 16 16" fill="none" xmlns="http://www.w3.org/2000/svg">
<path d="M14.6667 12.1667H10C9.72667 12.1667 9.5 11.9401 9.5 11.6667C9.5 11.3934 9.72667 11.1667 10 11.1667H14.6667C14.94 11.1667 15.1667 11.3934 15.1667 11.6667C15.1667 11.9401 14.94 12.1667 14.6667 12.1667Z" fill="#FE8C00"/>
<path d="M3.33337 12.1667H1.33337C1.06004 12.1667 0.833374 11.9401 0.833374 11.6667C0.833374 11.3934 1.06004 11.1667 1.33337 11.1667H3.33337C3.60671 11.1667 3.83337 11.3934 3.83337 11.6667C3.83337 11.9401 3.60671 12.1667 3.33337 12.1667Z" fill="#FE8C00"/>
<path d="M14.6666 4.83325H12.6666C12.3933 4.83325 12.1666 4.60659 12.1666 4.33325C12.1666 4.05992 12.3933 3.83325 12.6666 3.83325H14.6666C14.94 3.83325 15.1666 4.05992 15.1666 4.33325C15.1666 4.60659 14.94 4.83325 14.6666 4.83325Z" fill="#FE8C00"/>
<path d="M6.00004 4.83325H1.33337C1.06004 4.83325 0.833374 4.60659 0.833374 4.33325C0.833374 4.05992 1.06004 3.83325 1.33337 3.83325H6.00004C6.27337 3.83325 6.50004 4.05992 6.50004 4.33325C6.50004 4.60659 6.27337 4.83325 6.00004 4.83325Z" fill="#FE8C00"/>
<path d="M8.66671 14.1667H4.66671C3.52004 14.1667 2.83337 13.4801 2.83337 12.3334V11.0001C2.83337 9.85341 3.52004 9.16675 4.66671 9.16675H8.66671C9.81337 9.16675 10.5 9.85341 10.5 11.0001V12.3334C10.5 13.4801 9.81337 14.1667 8.66671 14.1667ZM4.66671 10.1667C4.07337 10.1667 3.83337 10.4067 3.83337 11.0001V12.3334C3.83337 12.9267 4.07337 13.1667 4.66671 13.1667H8.66671C9.26004 13.1667 9.50004 12.9267 9.50004 12.3334V11.0001C9.50004 10.4067 9.26004 10.1667 8.66671 10.1667H4.66671Z" fill="#FE8C00"/>
<path d="M11.3333 6.83325H7.33333C6.18667 6.83325 5.5 6.14659 5.5 4.99992V3.66659C5.5 2.51992 6.18667 1.83325 7.33333 1.83325H11.3333C12.48 1.83325 13.1667 2.51992 13.1667 3.66659V4.99992C13.1667 6.14659 12.48 6.83325 11.3333 6.83325ZM7.33333 2.83325C6.74 2.83325 6.5 3.07325 6.5 3.66659V4.99992C6.5 5.59325 6.74 5.83325 7.33333 5.83325H11.3333C11.9267 5.83325 12.1667 5.59325 12.1667 4.99992V3.66659C12.1667 3.07325 11.9267 2.83325 11.3333 2.83325H7.33333Z" fill="#FE8C00"/>
</svg>
