<svg width="130" height="114" viewBox="0 0 130 114" fill="none" xmlns="http://www.w3.org/2000/svg">
<g id="Group">
<path id="Vector" d="M71.7356 7.6218C71.7356 7.6218 61.0218 31.6684 32.6889 26.1597C4.35607 20.6511 -12.7144 59.4066 14.0719 73.5377C40.8582 87.6688 22.2946 103.902 40.1593 112.194C60.4637 121.618 68.0353 90.1052 82.9938 93.0321C116.008 99.4917 136.429 88.4132 127.399 73.5047C111.548 47.3347 100.039 48.2981 104.716 31.3982C109.394 14.4983 82.9801 -11.446 71.7356 7.6218Z" fill="#DEE9FF"/>
<g id="Group_2">
<path id="Vector_2" d="M66.5644 62.5057C64.0749 67.2768 63.4468 69.8124 55.8952 74.5466C55.8366 74.5849 55.7926 74.6418 55.7705 74.7083C54.564 78.4485 52.5218 81.8649 49.7986 84.6984C49.7619 84.7362 49.7361 84.7832 49.7239 84.8344C49.7117 84.8856 49.7136 84.9392 49.7293 84.9894C50.5745 87.8022 51.4893 92.8736 48.9441 97.0304C45.203 103.15 42.4321 99.4552 43.0091 98.0696C43.5033 96.8825 47.7248 94.333 46.7503 87.9639C46.7421 87.9129 46.7209 87.8649 46.6888 87.8245C46.6567 87.7841 46.6147 87.7527 46.5669 87.7332C46.5191 87.7137 46.4671 87.7068 46.4159 87.7133C46.3647 87.7197 46.316 87.7392 46.2745 87.7699C43.2146 89.9907 39.7026 91.5094 35.9887 92.2179C35.9475 92.2247 35.9082 92.2401 35.8734 92.2632C35.8385 92.2863 35.809 92.3166 35.7867 92.3519C35.7645 92.3873 35.75 92.427 35.7442 92.4684C35.7384 92.5098 35.7414 92.5519 35.7531 92.592C36.7 95.9821 37.148 101.28 33.1944 106.153C31.0837 108.693 28.2847 104.979 31.0837 102.449C32.8203 100.883 32.6863 96.3796 31.8735 92.9109C31.8579 92.8436 31.8195 92.7838 31.7647 92.7416C31.71 92.6995 31.6423 92.6778 31.5732 92.68C31.4116 92.6846 31.2452 92.6846 31.0837 92.6846C25.3709 92.6931 19.8168 90.8053 15.2924 87.3172C15.251 87.2849 15.2019 87.2639 15.15 87.2563C15.098 87.2487 15.0449 87.2547 14.996 87.2738C14.9471 87.2929 14.904 87.3244 14.8709 87.3652C14.8379 87.4061 14.816 87.4548 14.8075 87.5066C13.722 94.6746 18.0315 97.155 18.6455 98.9933C19.3291 101.049 17.7587 102.878 15.8235 102.36C15.7816 102.348 15.7424 102.327 15.7081 102.3C9.39899 97.5615 9.94859 87.6313 10.6414 82.851C10.6477 82.8119 10.6456 82.7719 10.6353 82.7337C10.6249 82.6954 10.6065 82.6599 10.5813 82.6293C7.05312 78.0891 5.14302 72.5002 5.15435 66.7503C5.15435 56.2058 11.4496 47.13 20.4884 43.0795C20.489 43.0795 20.4896 43.0794 20.4902 43.0792C20.4908 43.079 20.4913 43.0786 20.4917 43.0782C20.4922 43.0778 20.4925 43.0773 20.4927 43.0767C20.493 43.0761 20.4931 43.0755 20.4931 43.0749C21.8832 41.3149 23.5783 38.8257 23.8371 37.0799C23.8456 37.0207 23.8716 36.9655 23.9117 36.9212C23.9517 36.8768 24.0041 36.8455 24.0621 36.8311C24.1201 36.8167 24.1811 36.82 24.2373 36.8404C24.2934 36.8608 24.3422 36.8976 24.3774 36.9459C25.0425 37.8419 26.0725 39.5508 25.8462 41.3521C25.8369 41.4121 25.8323 41.4721 25.8231 41.5322C25.8046 41.6339 25.7815 41.7308 25.7584 41.8324C25.7353 41.911 25.7168 41.9895 25.6891 42.068C26.0122 41.7985 26.3204 41.5117 26.6124 41.2089C27.2913 40.5116 28.1504 39.4631 28.5199 38.3408C28.5374 38.2809 28.573 38.2279 28.6219 38.1891C28.6707 38.1503 28.7304 38.1276 28.7926 38.1241C28.8549 38.1205 28.9168 38.1364 28.9696 38.1695C29.0225 38.2026 29.0639 38.2512 29.0879 38.3088C29.3279 38.9 29.6099 39.7267 29.7068 40.5719C29.7152 40.6477 29.7515 40.7176 29.8088 40.768C29.866 40.8184 29.94 40.8457 30.0163 40.8444C30.3719 40.8305 30.7275 40.8213 31.0832 40.8213C45.4057 40.8213 57.0171 52.4327 57.0171 66.7506C57.0171 67.0786 57.0125 67.4018 56.9986 67.7251C56.9966 67.7744 57.0066 67.8236 57.0278 67.8682C57.049 67.9128 57.0808 67.9515 57.1204 67.9811C57.1599 68.0107 57.2061 68.0302 57.2549 68.0379C57.3037 68.0456 57.3537 68.0413 57.4004 68.0253C58.9431 67.4849 60.8875 66.1824 62.0607 63.0833C64.2546 57.31 64.4855 55.6935 63.7927 51.1902C63.0999 46.6869 66.4487 46.9182 67.1412 48.419C67.8337 49.9198 69.3354 57.1942 66.5644 62.5057Z" fill="#0E84E5"/>
<path id="Vector_3" d="M20.9547 69.0251C20.8664 69.025 20.7806 68.9957 20.7107 68.9417C20.6408 68.8878 20.5907 68.8121 20.5682 68.7267C20.3941 67.9661 20.3567 67.1805 20.4578 66.4067C20.6852 64.725 21.6004 63.4888 23.1045 62.8318C24.0874 62.4025 25.0165 62.3777 25.8659 62.7585C27.607 63.5388 28.3482 65.7514 28.3789 65.8451C28.4087 65.945 28.3983 66.0526 28.3499 66.1449C28.3016 66.2373 28.2191 66.3071 28.12 66.3395C28.021 66.372 27.9132 66.3644 27.8196 66.3186C27.726 66.2727 27.654 66.1921 27.6189 66.094C27.6126 66.0748 26.9533 64.1202 25.5363 63.4873C24.9019 63.204 24.1916 63.2301 23.425 63.565C22.1804 64.109 21.45 65.093 21.2542 66.4901C21.1647 67.1682 21.1946 67.8568 21.3426 68.5246C21.3693 68.6272 21.3541 68.7363 21.3004 68.8278C21.2467 68.9193 21.1589 68.9857 21.0562 69.0126C21.0231 69.021 20.989 69.0252 20.9547 69.0251Z" fill="white"/>
<path id="Vector_4" d="M33.0131 65.3615C32.9293 65.3614 32.8477 65.335 32.7796 65.2861C32.7116 65.2371 32.6607 65.168 32.6341 65.0885C32.4109 64.344 32.3225 63.5656 32.3733 62.7899C32.4913 61.1039 33.3246 59.816 34.7831 59.0655C35.7379 58.5743 36.6648 58.4895 37.5385 58.8151C39.3225 59.4791 40.2043 61.6248 40.2409 61.7158C40.2794 61.8139 40.2775 61.9233 40.2358 62.0201C40.194 62.1169 40.1157 62.1933 40.018 62.2327C39.9202 62.2721 39.8108 62.2713 39.7136 62.2305C39.6164 62.1897 39.5392 62.1122 39.4989 62.0148C39.4909 61.9961 38.7086 60.1021 37.2564 59.5638C36.6033 59.3215 35.8945 59.3932 35.1492 59.7769C33.9427 60.3977 33.2779 61.422 33.1732 62.8218C33.128 63.5007 33.2025 64.1823 33.3931 64.8354C33.413 64.8955 33.4183 64.9595 33.4086 65.0221C33.3989 65.0847 33.3746 65.1441 33.3375 65.1954C33.3004 65.2467 33.2517 65.2886 33.1954 65.3174C33.139 65.3463 33.0766 65.3614 33.0133 65.3615H33.0131Z" fill="white"/>
<path id="Vector_5" d="M31.9937 73.7286C29.2712 73.7286 27.1954 71.9166 27.0915 71.8246C27.0522 71.7897 27.0201 71.7475 26.9972 71.7002C26.9743 71.6529 26.9608 71.6016 26.9577 71.5492C26.9546 71.4968 26.9619 71.4442 26.9791 71.3946C26.9962 71.3449 27.0231 71.2992 27.0579 71.2599C27.0928 71.2206 27.1351 71.1886 27.1823 71.1656C27.2296 71.1427 27.2809 71.1293 27.3333 71.1262C27.3858 71.1231 27.4383 71.1303 27.488 71.1475C27.5376 71.1647 27.5834 71.1915 27.6227 71.2264C27.6499 71.2504 30.3912 73.633 33.4776 72.713C36.5496 71.7977 37.3921 67.897 37.4003 67.8578C37.4228 67.7549 37.4848 67.6651 37.5731 67.6076C37.6614 67.5502 37.7687 67.53 37.8718 67.5512C37.9749 67.5724 38.0655 67.6334 38.124 67.721C38.1824 67.8086 38.2039 67.9157 38.1839 68.0191C37.9937 68.827 37.6958 69.6058 37.2982 70.3344C36.4199 71.9535 35.1782 73.0412 33.7062 73.4797C33.1505 73.6454 32.5736 73.7292 31.9937 73.7286Z" fill="white"/>
<path id="Vector_6" d="M118.22 55.9255C118.186 56.794 118.097 57.6596 117.956 58.5171C116.027 70.3137 104.906 78.3098 93.1098 76.3811C81.3178 74.4535 73.3171 63.3318 75.2457 51.5351C75.3687 50.7831 75.5312 50.0471 75.7234 49.3294C66.9743 43.3878 67.4854 31.9304 69.1625 30.6601C70.8563 29.3739 72.7056 30.4577 72.5124 34.0157C72.3136 39.1827 75.4947 43.4557 77.2591 45.3169C81.3899 37.0815 90.5196 32.1061 100.092 33.6709C109.381 35.1894 116.311 42.4109 117.898 51.1692C119.63 50.5397 122.688 48.723 125.165 43.5588C125.511 42.5296 125.607 41.773 125.625 41.3173C125.638 40.8917 125.804 40.4849 126.093 40.1724C126.635 39.6057 127.595 39.0044 128.834 39.9277C129.115 40.1384 129.343 40.4136 129.496 40.7302C129.65 41.0468 129.725 41.3956 129.716 41.7473C129.638 44.5383 127.405 51.3289 118.22 55.9255Z" fill="#699CFF"/>
<path id="Vector_7" d="M105.351 59.7513C104.804 63.0925 100.209 65.1212 95.0905 64.2845C89.967 63.447 86.2572 60.0605 86.8033 56.7195C86.9073 56.0973 87.1504 55.5066 87.5145 54.9915C87.6141 54.852 87.7633 54.756 87.9315 54.7233C88.0996 54.6905 88.274 54.7235 88.4186 54.8155C90.2526 55.9637 93.1554 56.9763 96.5047 57.5238C99.5871 58.0278 102.44 58.0353 104.515 57.6415C104.684 57.6091 104.859 57.6429 105.004 57.736C105.149 57.8291 105.252 57.9744 105.293 58.1416C105.418 58.6692 105.437 59.2162 105.351 59.7513Z" fill="white"/>
<g id="Group_3">
<path id="Vector_8" d="M95.6376 53.1217C95.5796 53.1217 95.5222 53.1092 95.4695 53.0849C95.4168 53.0606 95.3701 53.0251 95.3324 52.9809C95.2948 52.9367 95.2673 52.8848 95.2517 52.8289C95.2362 52.773 95.233 52.7144 95.2423 52.6571C95.3766 51.8358 95.1791 50.9947 94.6932 50.319C94.2074 49.6433 93.473 49.1883 92.6517 49.054C91.8304 48.9198 90.9894 49.1173 90.3137 49.6032C89.638 50.089 89.1829 50.8234 89.0487 51.6447C89.0315 51.7494 88.9735 51.843 88.8874 51.9049C88.8013 51.9668 88.694 51.992 88.5893 51.9749C88.4847 51.9578 88.391 51.8998 88.3291 51.8136C88.2672 51.7275 88.242 51.6203 88.2592 51.5156C88.4276 50.4848 88.9987 49.5633 89.8466 48.9536C90.6946 48.3439 91.7501 48.096 92.7808 48.2645C93.8115 48.433 94.7331 49.004 95.3428 49.852C95.9525 50.7 96.2003 51.7554 96.0319 52.7861C96.0166 52.8797 95.9685 52.9648 95.8963 53.0263C95.8241 53.0877 95.7324 53.1215 95.6376 53.1217Z" fill="white"/>
<path id="Vector_9" d="M105.233 54.6896C105.175 54.6896 105.118 54.6769 105.065 54.6526C105.013 54.6282 104.966 54.5927 104.929 54.5485C104.891 54.5043 104.863 54.4525 104.848 54.3967C104.832 54.3408 104.829 54.2822 104.838 54.225C104.969 53.4051 104.77 52.5668 104.284 51.8936C103.798 51.2205 103.065 50.7673 102.246 50.6333C101.426 50.4994 100.587 50.6957 99.9124 51.1791C99.2374 51.6625 98.7815 52.3937 98.6446 53.2126C98.6363 53.2645 98.6178 53.3144 98.5901 53.3592C98.5625 53.404 98.5263 53.4429 98.4837 53.4737C98.441 53.5045 98.3926 53.5266 98.3414 53.5387C98.2902 53.5507 98.237 53.5526 98.1851 53.5441C98.1331 53.5356 98.0834 53.517 98.0387 53.4892C97.9939 53.4614 97.9551 53.4251 97.9245 53.3823C97.8938 53.3395 97.8719 53.2911 97.86 53.2398C97.8481 53.1886 97.8464 53.1355 97.8551 53.0835C98.0264 52.0554 98.5983 51.1372 99.4455 50.5301C100.293 49.9229 101.346 49.6764 102.375 49.8446C103.403 50.0127 104.323 50.5818 104.933 51.4271C105.543 52.2724 105.793 53.3249 105.628 54.3541C105.612 54.4477 105.564 54.5328 105.492 54.5943C105.42 54.6557 105.328 54.6895 105.233 54.6896Z" fill="white"/>
</g>
</g>
</g>
</svg>
