<svg width="193" height="157" viewBox="0 0 193 157" fill="none" xmlns="http://www.w3.org/2000/svg">
<g id="Chats illustration">
<path id="Background" d="M93.29 156.593C136.812 156.593 172.093 121.7 172.093 78.6567C172.093 35.6134 136.812 0.720001 93.29 0.720001C49.7682 0.720001 14.4868 35.6134 14.4868 78.6567C14.4868 121.7 49.7682 156.593 93.29 156.593Z" fill="#99AEF9"/>
<g id="Doodles">
<path id="Vector" fill-rule="evenodd" clip-rule="evenodd" d="M161.28 128.338C161.999 128.085 162.754 127.749 163.337 127.262C164.029 126.683 164.311 125.938 164.5 125.154C164.742 124.147 164.839 123.074 165.134 122.065C165.243 121.69 165.452 121.548 165.542 121.486C165.77 121.327 165.999 121.284 166.216 121.3C166.472 121.319 166.824 121.415 167.056 121.84C167.089 121.9 167.132 121.993 167.16 122.12C167.181 122.213 167.195 122.504 167.217 122.624C167.273 122.92 167.32 123.215 167.363 123.512C167.509 124.501 167.593 125.341 168.053 126.25C168.678 127.483 169.303 128.238 170.152 128.572C170.972 128.896 171.953 128.835 173.207 128.581C173.326 128.553 173.444 128.528 173.561 128.508C174.113 128.413 174.642 128.772 174.75 129.316C174.859 129.86 174.508 130.39 173.96 130.51C173.846 130.535 173.733 130.559 173.622 130.58C171.928 130.995 169.967 132.475 168.827 133.771C168.476 134.171 167.962 135.288 167.437 136C167.05 136.526 166.615 136.873 166.25 136.995C166.005 137.078 165.799 137.065 165.628 137.023C165.381 136.963 165.175 136.83 165.018 136.619C164.932 136.504 164.852 136.349 164.814 136.151C164.796 136.056 164.794 135.815 164.794 135.705C164.687 135.342 164.557 134.987 164.461 134.62C164.234 133.744 163.788 133.19 163.258 132.457C162.762 131.772 162.23 131.341 161.449 130.998C161.348 130.973 160.528 130.775 160.239 130.661C159.817 130.494 159.615 130.215 159.542 130.064C159.418 129.808 159.405 129.585 159.43 129.399C159.467 129.124 159.591 128.889 159.812 128.699C159.949 128.581 160.154 128.467 160.428 128.411C160.64 128.367 161.202 128.342 161.28 128.338ZM166.087 126.911C166.125 126.995 166.165 127.079 166.208 127.164C167.122 128.97 168.145 129.979 169.388 130.468L169.43 130.484C168.598 131.095 167.846 131.777 167.27 132.432C167.033 132.701 166.72 133.261 166.381 133.835C166.073 132.845 165.569 132.145 164.936 131.27C164.453 130.601 163.946 130.099 163.323 129.689C163.806 129.443 164.267 129.156 164.669 128.821C165.337 128.262 165.779 127.614 166.087 126.911Z" fill="#335DF3"/>
<ellipse id="Ellipse 67" cx="3.91235" cy="63.4693" rx="3.73218" ry="3.69114" fill="#6686F6"/>
<g id="Jump">
<path id="Vector_2" d="M36.1842 30.3929L35.8543 30.4881C36.0207 31.0647 36.6262 31.391 37.2005 31.2248L37.2009 31.2247C37.7723 31.0585 38.1099 30.4587 37.9393 29.8819C36.844 26.1476 34.6785 23.2201 31.3729 21.1093C30.8702 20.7881 30.1977 20.9322 29.8747 21.4353C29.548 21.9395 29.6976 22.6097 30.2011 22.9314L30.2013 22.9315C33.0528 24.7514 34.9093 27.2655 35.8547 30.4896L36.1842 30.3929ZM36.1842 30.3929C36.2971 30.7842 36.71 31.0094 37.105 30.895L36.1842 30.3929Z" fill="#011625" stroke="#011625" stroke-width="0.686667"/>
<path id="Vector_3" d="M40.7735 55.1047C40.5713 54.4029 40.333 53.7154 40.0939 53.026C40.0591 52.9254 40.0241 52.8247 39.9893 52.7239L40.7676 55.597C40.7694 55.5443 40.7738 55.4901 40.7783 55.4366C40.7885 55.3125 40.7984 55.1925 40.7735 55.1047ZM40.7735 55.1047L40.4436 55.1998C40.2441 54.5073 40.009 53.8292 39.7698 53.1391C39.7348 53.0383 39.6998 52.9374 39.6648 52.836L39.6646 52.8353C38.7606 50.1994 37.5902 47.7249 36.2844 45.2438L36.5882 45.0839L36.2844 45.2437C35.9337 44.5772 35.5842 43.9082 35.2343 43.2382C31.4203 35.9363 27.548 28.5228 21.3515 23.0507L21.3515 23.0506C20.9043 22.6555 20.8591 21.9703 21.2601 21.5221C21.6574 21.0746 22.3424 21.037 22.7912 21.4303L22.7922 21.4311C29.2674 27.148 33.3136 34.8844 37.2265 42.366C37.5541 42.9925 37.8808 43.6171 38.2079 44.2387L38.208 44.2387C39.0383 45.817 39.8196 47.4005 40.5175 49.0271C40.4845 45.3352 40.5992 40.7649 41.2182 36.6446C41.5412 34.493 42.0116 32.4556 42.666 30.7069C43.3192 28.9616 44.1642 27.481 45.2502 26.4664L45.2502 26.4663C51.9763 20.1857 60.8273 18.7603 66.8881 23.0343L66.8882 23.0344C67.4128 23.4047 67.9177 23.8054 68.3961 24.235C71.648 18.8234 78.265 16.7012 84.1227 19.3611C84.6699 19.6088 84.9098 20.2514 84.6615 20.7951L84.6616 20.7951L84.6606 20.7972C84.4089 21.3389 83.7672 21.5774 83.2216 21.3306L83.2211 21.3304C78.2073 19.0537 72.5354 21.024 69.9668 25.8658C70.4967 26.5056 70.9751 27.1907 71.3878 27.9171C71.5906 28.2735 71.9654 29.0582 72.0255 29.7618C72.0937 30.5318 71.8258 31.2522 71.0809 31.6287L71.0807 31.6288C70.2152 32.0655 69.4771 32.0367 68.8877 31.7447C68.3252 31.4668 67.9142 30.9355 67.6643 30.2762L67.6642 30.2761C67.4261 29.6472 67.3311 28.8738 67.3212 28.1429C67.3124 27.4915 67.3709 26.8512 67.469 26.3427C66.9039 25.778 66.2892 25.2628 65.634 24.8009C60.4362 21.1371 52.7308 22.4465 46.7348 28.0453C45.7356 28.9787 44.9719 30.4511 44.3919 32.2793C43.8138 34.1018 43.4286 36.2435 43.164 38.4805L43.164 38.4806C42.4467 44.5392 42.7087 51.2151 42.8325 54.3699C42.8511 54.8431 42.8666 55.2371 42.8752 55.5379L42.8752 55.5387C42.8829 55.8336 42.873 56.0727 42.8564 56.2507C42.8481 56.3395 42.8379 56.4154 42.8268 56.4768C42.8178 56.527 42.8037 56.5947 42.779 56.6518C42.5773 57.1264 42.2023 57.2573 41.9689 57.3014L41.9653 57.302C41.6356 57.3606 41.3606 57.2978 41.1389 57.1834L41.1371 57.1825C40.8347 57.0242 40.5945 56.7462 40.4866 56.3463L40.4859 56.3438C40.4287 56.1251 40.4182 55.8484 40.4243 55.589L40.4244 55.5854C40.4262 55.533 40.4301 55.4813 40.4338 55.436C40.4347 55.4257 40.4355 55.4158 40.4363 55.4062C40.4391 55.3715 40.4416 55.3413 40.4434 55.3114C40.4457 55.274 40.4463 55.2458 40.4454 55.2241C40.4445 55.2017 40.4423 55.1951 40.4432 55.1985L40.7735 55.1047ZM42.8231 38.4402C42.1021 44.5293 42.3658 51.2376 42.4896 54.3875C42.5081 54.8584 42.5235 55.2498 42.532 55.5477L42.8231 38.4402ZM69.8005 29.7438C69.8146 29.7668 69.8261 29.7814 69.8349 29.7907C69.7811 29.5655 69.679 29.3316 69.5883 29.1521C69.6183 29.28 69.6541 29.4007 69.6963 29.5113L69.6964 29.5117C69.7364 29.617 69.7676 29.6901 69.8005 29.7438Z" fill="#011625" stroke="#011625" stroke-width="0.686667"/>
</g>
</g>
<g id="Chats vector">
<g id="Chat right">
<rect id="Rectangle Background" x="56.9204" y="41.1557" width="135.655" height="48.3643" rx="16.48" fill="#002090"/>
<g id="Information vector">
<g id="Information">
<rect id="Title" x="112.918" y="57.8057" width="45.7443" height="6.34286" rx="3.17143" fill="#CCC6D9"/>
<rect id="Text" x="68.751" y="67.32" width="90.1417" height="6.34286" rx="3.17143" fill="white"/>
</g>
<ellipse id="Person" cx="175.225" cy="65.7343" rx="7.88695" ry="7.92858" fill="#E1DCEB"/>
</g>
</g>
<g id="Chat left">
<rect id="Rectangle Background_2" x="0.180176" y="81.5915" width="135.655" height="48.3643" rx="16.48" fill="#335DF3"/>
<g id="Information chat">
<g id="Information_2">
<rect id="Title_2" x="34.0938" y="98.2415" width="45.7443" height="6.34286" rx="3.17143" fill="#CCD7FC"/>
<rect id="Text_2" x="34.0938" y="107.756" width="90.1417" height="6.34287" rx="3.17143" fill="white"/>
</g>
<ellipse id="Person_2" cx="19.8972" cy="106.17" rx="7.88694" ry="7.92858" fill="#CCD7FC"/>
</g>
</g>
</g>
</g>
</svg>
