<svg width="20" height="21" viewBox="0 0 20 21" fill="none" xmlns="http://www.w3.org/2000/svg">
<g id="clock">
<path id="Vector (Stroke)" fill-rule="evenodd" clip-rule="evenodd" d="M0 10.5C0 4.97715 4.47715 0.5 10 0.5C15.5228 0.5 20 4.97715 20 10.5C20 16.0228 15.5228 20.5 10 20.5C4.47715 20.5 0 16.0228 0 10.5ZM10 1.83333C5.21353 1.83333 1.33333 5.71353 1.33333 10.5C1.33333 15.2865 5.21353 19.1667 10 19.1667C14.7865 19.1667 18.6667 15.2865 18.6667 10.5C18.6667 5.71353 14.7865 1.83333 10 1.83333ZM9.33333 10.5V4.5H10.6667V10.2239L14.4714 14.0286L13.5286 14.9714L9.5286 10.9714C9.40357 10.8464 9.33333 10.6768 9.33333 10.5Z" fill="#15C3A7"/>
</g>
</svg>
