<svg width="24" height="24" viewBox="0 0 24 24" fill="none" xmlns="http://www.w3.org/2000/svg">
<g id="Group">
<path id="Vector" d="M17.8817 19.2985C16.1229 20.4141 14.0824 21.0049 11.9997 21.0015C6.60766 21.0015 2.12166 17.1215 1.18066 12.0015C1.61069 9.67225 2.78229 7.54443 4.52066 5.93553L1.39166 2.80953L2.80666 1.39453L22.6057 21.1945L21.1907 22.6085L17.8807 19.2985H17.8817ZM5.93466 7.35153C4.57567 8.58712 3.62898 10.2103 3.22266 12.0015C3.53496 13.368 4.16193 14.6427 5.05367 15.7241C5.94541 16.8056 7.07729 17.6639 8.35922 18.2308C9.64114 18.7978 11.0377 19.0576 12.4378 18.9897C13.8378 18.9217 15.2026 18.5279 16.4237 17.8395L14.3957 15.8115C13.5324 16.3553 12.5099 16.5896 11.4959 16.476C10.4819 16.3623 9.53671 15.9074 8.81523 15.186C8.09376 14.4645 7.63889 13.5193 7.52523 12.5053C7.41156 11.4913 7.64585 10.4688 8.18966 9.60553L5.93466 7.35153ZM12.9137 14.3295L9.67166 11.0875C9.49373 11.5405 9.45185 12.0355 9.55117 12.5119C9.65049 12.9883 9.88668 13.4253 10.2308 13.7694C10.5749 14.1135 11.0119 14.3497 11.4883 14.449C11.9647 14.5483 12.4597 14.5065 12.9127 14.3285L12.9137 14.3295ZM20.8067 16.5935L19.3757 15.1635C20.0441 14.2108 20.5201 13.1367 20.7767 12.0015C20.5049 10.8113 19.9939 9.68868 19.2748 8.70203C18.5557 7.71537 17.6435 6.88526 16.5935 6.26214C15.5436 5.63901 14.378 5.2359 13.1674 5.07729C11.9568 4.91869 10.7267 5.00791 9.55166 5.33953L7.97366 3.76153C9.22066 3.27153 10.5797 3.00153 11.9997 3.00153C17.3917 3.00153 21.8777 6.88153 22.8187 12.0015C22.5122 13.6672 21.8235 15.2391 20.8067 16.5935ZM11.7227 7.50953C12.3592 7.47019 12.9968 7.5666 13.5932 7.79235C14.1896 8.0181 14.7313 8.36804 15.1822 8.81898C15.6332 9.26992 15.9831 9.81156 16.2088 10.408C16.4346 11.0044 16.531 11.642 16.4917 12.2785L11.7217 7.50953H11.7227Z" fill="black"/>
</g>
</svg>
