<svg width="16" height="16" viewBox="0 0 16 16" fill="none" xmlns="http://www.w3.org/2000/svg">
<path d="M5.33325 9.83323C5.20659 9.83323 5.07992 9.78659 4.97992 9.68659L3.64659 8.35325C3.45325 8.15992 3.45325 7.83988 3.64659 7.64655L4.97992 6.31321C5.17325 6.11988 5.49325 6.11988 5.68659 6.31321C5.87992 6.50655 5.87992 6.82659 5.68659 7.01992L4.70658 7.9999L5.68659 8.97988C5.87992 9.17321 5.87992 9.49325 5.68659 9.68659C5.58659 9.78659 5.45992 9.83323 5.33325 9.83323Z" fill="#5E07FF"/>
<path d="M10.6667 9.83323C10.54 9.83323 10.4133 9.78659 10.3133 9.68659C10.12 9.49325 10.12 9.17321 10.3133 8.97988L11.2933 7.9999L10.3133 7.01992C10.12 6.82659 10.12 6.50655 10.3133 6.31321C10.5067 6.11988 10.8267 6.11988 11.02 6.31321L12.3533 7.64655C12.5467 7.83988 12.5467 8.15992 12.3533 8.35325L11.02 9.68659C10.92 9.78659 10.7933 9.83323 10.6667 9.83323Z" fill="#5E07FF"/>
<path d="M8.00004 15.1666C4.04671 15.1666 0.833374 11.9533 0.833374 7.99992C0.833374 4.04659 4.04671 0.833252 8.00004 0.833252C11.9534 0.833252 15.1667 4.04659 15.1667 7.99992C15.1667 11.9533 11.9534 15.1666 8.00004 15.1666ZM8.00004 1.83325C4.60004 1.83325 1.83337 4.59992 1.83337 7.99992C1.83337 11.3999 4.60004 14.1666 8.00004 14.1666C11.4 14.1666 14.1667 11.3999 14.1667 7.99992C14.1667 4.59992 11.4 1.83325 8.00004 1.83325Z" fill="#5E07FF"/>
<path d="M7.33345 10.0535C7.26679 10.0535 7.20012 10.0401 7.14012 10.0135C6.88679 9.9068 6.76679 9.61347 6.88012 9.35347L8.21346 6.24011C8.32012 5.98677 8.61345 5.86676 8.86679 5.9801C9.12012 6.08676 9.24012 6.38013 9.12679 6.64013L7.79345 9.75345C7.71345 9.94012 7.52679 10.0535 7.33345 10.0535Z" fill="#5E07FF"/>
</svg>
