<svg width="20" height="20" viewBox="0 0 20 20" fill="none" xmlns="http://www.w3.org/2000/svg">
<g id="vuesax/outline/dislike">
<g id="dislike">
<path id="Vector" d="M8.99995 18.4173C8.75829 18.4173 8.51662 18.3757 8.29162 18.2923C7.24995 17.9507 6.58328 16.8007 6.81662 15.734L7.22495 13.109C7.23328 13.0507 7.23328 12.9673 7.17495 12.9007C7.13328 12.859 7.07495 12.834 7.00828 12.834H3.67495C2.85828 12.834 2.14995 12.4923 1.73328 11.9007C1.32495 11.3257 1.24162 10.5673 1.50828 9.83398L3.49995 3.76732C3.80828 2.55898 5.09995 1.58398 6.43328 1.58398H9.59995C10.0666 1.58398 11.0833 1.72565 11.625 2.26732L14.15 4.21732L13.3833 5.20898L10.8 3.20898C10.5916 3.00065 10.0666 2.83398 9.59995 2.83398H6.43328C5.68328 2.83398 4.87495 3.43398 4.70828 4.10898L2.69162 10.234C2.55828 10.6007 2.58328 10.934 2.75828 11.1757C2.94162 11.434 3.27495 11.584 3.68328 11.584H7.01662C7.44995 11.584 7.84995 11.7673 8.12495 12.084C8.40828 12.409 8.53328 12.8423 8.46662 13.2923L8.04995 15.9673C7.94995 16.434 8.26662 16.959 8.71662 17.109C9.11662 17.259 9.64995 17.0423 9.83329 16.7757L13.25 11.6923L14.2833 12.3923L10.8666 17.4757C10.475 18.059 9.73328 18.4173 8.99995 18.4173Z" fill="#777E90"/>
<path id="Vector_2" d="M16.3501 15.0833H15.5168C13.9751 15.0833 13.2251 14.3583 13.2251 12.875V4.70833C13.2251 3.225 13.9751 2.5 15.5168 2.5H16.3501C17.8918 2.5 18.6418 3.225 18.6418 4.70833V12.875C18.6418 14.3583 17.8918 15.0833 16.3501 15.0833ZM15.5168 3.75C14.6084 3.75 14.4751 3.96667 14.4751 4.70833V12.875C14.4751 13.6167 14.6084 13.8333 15.5168 13.8333H16.3501C17.2584 13.8333 17.3918 13.6167 17.3918 12.875V4.70833C17.3918 3.96667 17.2584 3.75 16.3501 3.75H15.5168Z" fill="#777E90"/>
</g>
</g>
</svg>
