<svg width="215" height="184" viewBox="0 0 215 184" fill="none" xmlns="http://www.w3.org/2000/svg">
<g id="Group">
<path id="Vector" d="M145.464 8.0226C145.464 8.0226 116.088 45.2329 69.085 23.038C22.0821 0.843128 -24.9201 60.9005 15.5539 97.4581C56.0279 134.016 16.4211 154.104 43.9179 176.509C75.1698 201.973 102.378 150.336 127.185 162.087C181.935 188.021 222.496 177.754 213.357 147.725C197.314 95.012 176.799 91.5827 192.467 64.1646C208.134 36.7464 173.556 -20.2629 145.464 8.0226Z" fill="#DEE9FF"/>
<g id="Group_2">
<path id="Vector_2" d="M95.2749 124.775C95.2749 150.042 115.755 170.522 141.022 170.522C146.906 170.532 152.736 169.399 158.188 167.187C158.3 167.201 158.413 167.207 158.526 167.207H178.549C179.193 167.208 179.831 167.081 180.427 166.834C181.022 166.588 181.563 166.227 182.019 165.771C182.474 165.315 182.836 164.774 183.082 164.179C183.329 163.584 183.455 162.945 183.455 162.301V141.894C185.654 136.454 186.779 130.641 186.77 124.775C186.77 99.5074 166.29 79.0271 141.022 79.0271C115.755 79.0271 95.2749 99.5074 95.2749 124.775Z" fill="#A2BDFF"/>
<path id="Vector_3" d="M159.334 92.3476C159.334 124.047 133.64 149.74 101.941 149.74C94.5599 149.752 87.2463 148.331 80.4066 145.556C80.2658 145.573 80.1241 145.581 79.9824 145.581H54.8626C54.0542 145.581 53.2536 145.423 52.5066 145.113C51.7596 144.804 51.0809 144.351 50.5093 143.779C49.9377 143.208 49.4843 142.529 49.1751 141.782C48.866 141.035 48.7071 140.234 48.7075 139.426V113.824C45.9491 107.001 44.5369 99.7079 44.5487 92.348C44.5487 60.6492 70.242 34.9558 101.941 34.9558C133.64 34.9558 159.334 60.6488 159.334 92.3476Z" fill="#418DF9"/>
<path id="Vector_4" d="M75.3245 103.992C79.9182 103.992 83.6422 100.268 83.6422 95.6747C83.6422 91.081 79.9182 87.3571 75.3245 87.3571C70.7308 87.3571 67.0068 91.081 67.0068 95.6747C67.0068 100.268 70.7308 103.992 75.3245 103.992Z" fill="white"/>
<path id="Vector_5" d="M99.4451 103.992C104.039 103.992 107.763 100.268 107.763 95.6747C107.763 91.081 104.039 87.3571 99.4451 87.3571C94.8514 87.3571 91.1274 91.081 91.1274 95.6747C91.1274 100.268 94.8514 103.992 99.4451 103.992Z" fill="white"/>
<path id="Vector_6" d="M124.399 103.992C128.993 103.992 132.717 100.268 132.717 95.6747C132.717 91.081 128.993 87.3571 124.399 87.3571C119.805 87.3571 116.081 91.081 116.081 95.6747C116.081 100.268 119.805 103.992 124.399 103.992Z" fill="white"/>
<path id="Vector_7" d="M150.184 64.8991C158.452 64.8991 165.155 58.196 165.155 49.9272C165.155 41.6585 158.452 34.9553 150.184 34.9553C141.915 34.9553 135.212 41.6585 135.212 49.9272C135.212 58.196 141.915 64.8991 150.184 64.8991Z" fill="#418DF9" stroke="white" stroke-width="15" stroke-miterlimit="10"/>
<path id="Vector_8" d="M154.942 45.4898C154.745 44.7284 154.391 44.0165 153.903 43.3996C153.473 42.8799 152.915 42.4813 152.283 42.243C150.921 41.773 149.44 41.773 148.078 42.243C147.448 42.4798 146.891 42.8788 146.464 43.3996C145.971 44.0135 145.617 44.7265 145.425 45.4898C145.162 46.5179 145.04 47.5767 145.06 48.6375V51.1607C145.039 52.2241 145.163 53.2854 145.431 54.3148C145.625 55.0842 145.982 55.8032 146.476 56.4236C146.906 56.9486 147.464 57.3534 148.097 57.5987C149.452 58.0851 150.934 58.0851 152.289 57.5987C152.918 57.3531 153.472 56.9482 153.897 56.4236C154.384 55.8 154.736 55.0818 154.93 54.3148C155.192 53.2845 155.315 52.2237 155.295 51.1607H155.307V48.6375C155.328 47.5766 155.205 46.5178 154.942 45.4898ZM152.685 51.5378C152.694 52.2113 152.64 52.8842 152.524 53.5478C152.446 54.0197 152.285 54.474 152.048 54.8896C151.866 55.2103 151.596 55.4721 151.269 55.6441C150.934 55.8057 150.565 55.8862 150.193 55.8792C149.821 55.8848 149.453 55.8043 149.117 55.6441C148.786 55.4713 148.51 55.2101 148.319 54.8896C148.077 54.4746 147.91 54.0205 147.824 53.5478C147.698 52.8855 147.64 52.2119 147.651 51.5378V48.2356C147.64 47.5638 147.696 46.8926 147.818 46.2319C147.899 45.7687 148.065 45.3243 148.307 44.9208C148.498 44.6125 148.773 44.364 149.098 44.2034C149.436 44.0566 149.8 43.9809 150.168 43.9809C150.536 43.9809 150.9 44.0566 151.238 44.2034C151.566 44.3601 151.841 44.6095 152.03 44.9208C152.271 45.3244 152.437 45.7687 152.518 46.2319C152.64 46.8926 152.696 47.5638 152.685 48.2356V51.538L152.685 51.5378Z" fill="white"/>
</g>
</g>
</svg>
