<svg width="194" height="187" viewBox="0 0 194 187" fill="none" xmlns="http://www.w3.org/2000/svg">
<g id="Group">
<path id="Vector" d="M101.751 17.2849C101.751 17.2849 106.785 49.6567 161.049 50.5502C209.24 51.3435 193.924 108.662 176.817 126.685C154.658 150.033 111.23 143.925 108.951 171.101C106.672 198.276 45.4487 187.726 46.4914 146.752C47.7887 95.783 19.8701 111.281 5.73643 97.6479C-4.40741 87.8628 -0.920713 42.5682 31.2317 37.3826C58.2872 33.0191 56.8846 21.5562 59.0357 13.0702C62.1377 0.831684 93.5024 -10.2546 101.751 17.2849Z" fill="#DEE9FF"/>
<g id="Group_2">
<path id="Vector_2" d="M152.799 132.517C152.802 133.339 152.643 134.154 152.33 134.915C152.017 135.675 151.557 136.367 150.977 136.95C150.396 137.532 149.707 137.995 148.947 138.31C148.188 138.626 147.373 138.788 146.551 138.789L46.3259 138.992C45.5037 138.994 44.689 138.834 43.9287 138.521C43.1683 138.208 42.4771 137.749 41.8945 137.168C41.312 136.588 40.8496 135.898 40.5338 135.139C40.218 134.38 40.0549 133.566 40.0539 132.744L39.9131 62.2731L95.3892 27.4449C95.6374 27.2883 95.9246 27.2045 96.218 27.2031C96.5115 27.2018 96.7995 27.2828 97.0492 27.4371L151.358 61.2392L152.658 62.0458V63.1733L152.799 132.517Z" fill="#208AF2"/>
<path id="Vector_3" d="M144.622 33.5117H47.3536C47.1216 33.5117 46.9336 33.6998 46.9336 33.9317V138.015C46.9336 138.247 47.1216 138.435 47.3536 138.435H144.622C144.854 138.435 145.042 138.247 145.042 138.015V33.9317C145.042 33.6998 144.854 33.5117 144.622 33.5117Z" fill="#699CFF"/>
<path id="Vector_4" d="M146.451 138.69L96.7044 100.76C96.6643 100.73 96.6321 100.69 96.6103 100.645C96.5886 100.599 96.5779 100.549 96.5792 100.499C96.5805 100.448 96.5937 100.399 96.6178 100.355C96.6419 100.311 96.6761 100.273 96.7177 100.244L152.158 62.3523C152.205 62.3197 152.261 62.3007 152.319 62.2974C152.377 62.2941 152.434 62.3066 152.486 62.3336C152.537 62.3605 152.58 62.4009 152.61 62.4504C152.64 62.4999 152.655 62.5567 152.656 62.6145L152.796 132.484C152.799 134.125 152.158 135.702 151.01 136.875C149.863 138.049 148.301 138.725 146.66 138.759C146.584 138.76 146.511 138.736 146.451 138.69Z" fill="#A2BDFF"/>
<path id="Vector_5" d="M46.4105 138.888L96.0049 100.76C96.0449 100.73 96.077 100.69 96.0985 100.644C96.1201 100.599 96.1306 100.549 96.1291 100.499C96.1276 100.448 96.1142 100.399 96.0899 100.355C96.0656 100.311 96.0312 100.273 95.9895 100.245L40.3992 62.5743C40.3513 62.5418 40.2955 62.5231 40.2377 62.52C40.1799 62.5169 40.1224 62.5296 40.0713 62.5568C40.0202 62.5839 39.9775 62.6245 39.9477 62.6741C39.918 62.7237 39.9023 62.7805 39.9023 62.8383L40.0423 132.707C40.0456 134.348 40.6929 135.923 41.8448 137.092C42.9968 138.261 44.5614 138.931 46.2023 138.958C46.2776 138.959 46.3509 138.934 46.4105 138.888Z" fill="#A2BDFF"/>
<path id="Vector_6" d="M146.543 138.758L46.3186 138.959C44.8024 138.957 43.3378 138.408 42.1953 137.411C41.0528 136.414 40.3095 135.038 40.1026 133.536C40.0685 133.279 40.0981 133.019 40.1888 132.777C40.2795 132.535 40.4285 132.319 40.6225 132.149L95.2855 83.7877C95.571 83.5351 95.9388 83.3953 96.32 83.3945C96.7012 83.3938 97.0696 83.5321 97.3561 83.7835L152.211 131.926C152.406 132.095 152.556 132.31 152.648 132.552C152.739 132.794 152.77 133.054 152.737 133.31C152.536 134.813 151.798 136.192 150.66 137.194C149.522 138.195 148.059 138.751 146.543 138.758Z" fill="#418DF9"/>
<path id="Vector_7" d="M71.8311 59.3491C73.7771 59.3491 75.3547 57.2457 75.3547 54.6511C75.3547 52.0565 73.7771 49.9531 71.8311 49.9531C69.8852 49.9531 68.3076 52.0565 68.3076 54.6511C68.3076 57.2457 69.8852 59.3491 71.8311 59.3491Z" fill="white"/>
<path id="Vector_8" d="M121.161 59.3491C123.107 59.3491 124.685 57.2457 124.685 54.6511C124.685 52.0565 123.107 49.9531 121.161 49.9531C119.215 49.9531 117.638 52.0565 117.638 54.6511C117.638 57.2457 119.215 59.3491 121.161 59.3491Z" fill="white"/>
<path id="Vector_9" d="M109.808 66.4251C109.689 66.425 109.572 66.4552 109.468 66.5127C109.364 66.5703 109.276 66.6534 109.213 66.7543C109.176 66.8126 105.344 72.7323 96.4378 73.4743C92.7307 73.783 89.2127 72.7508 85.9855 70.4051C84.5462 69.3716 83.2677 68.1308 82.1915 66.723C82.0845 66.5723 81.9221 66.4701 81.7399 66.4387C81.5578 66.4072 81.3706 66.4491 81.2192 66.5552C81.0678 66.6613 80.9645 66.823 80.9319 67.005C80.8993 67.187 80.94 67.3744 81.0451 67.5265C81.1037 67.6105 82.512 69.6012 85.1206 71.5074C88.5883 74.0414 92.5422 75.2034 96.5539 74.8698C106.189 74.0669 110.233 67.7639 110.4 67.4961C110.466 67.3902 110.503 67.2685 110.506 67.1436C110.509 67.0188 110.479 66.8953 110.419 66.786C110.358 66.6767 110.27 66.5856 110.162 66.5221C110.055 66.4586 109.932 66.4251 109.807 66.425L109.808 66.4251Z" fill="white"/>
</g>
</g>
</svg>
