<svg width="25" height="25" viewBox="0 0 25 25" fill="none" xmlns="http://www.w3.org/2000/svg">
<g id="instagram">
<g id="Vector">
<path d="M12.5 8.33333C10.1988 8.33333 8.33333 10.1988 8.33333 12.5C8.33333 14.8012 10.1988 16.6667 12.5 16.6667C14.8012 16.6667 16.6667 14.8012 16.6667 12.5C16.6667 10.1988 14.8012 8.33333 12.5 8.33333Z" fill="black"/>
<path fill-rule="evenodd" clip-rule="evenodd" d="M7.5 0C3.35786 0 0 3.35786 0 7.5V17.5C0 21.6421 3.35786 25 7.5 25H17.5C21.6421 25 25 21.6421 25 17.5V7.5C25 3.35786 21.6421 0 17.5 0H7.5ZM6.66667 12.5C6.66667 9.27834 9.27834 6.66667 12.5 6.66667C15.7217 6.66667 18.3333 9.27834 18.3333 12.5C18.3333 15.7217 15.7217 18.3333 12.5 18.3333C9.27834 18.3333 6.66667 15.7217 6.66667 12.5ZM18.3333 6.66667H20V5H18.3333V6.66667Z" fill="black"/>
</g>
</g>
</svg>
