<svg width="40" height="40" viewBox="0 0 40 40" fill="none" xmlns="http://www.w3.org/2000/svg">
<rect width="40" height="40" rx="20" fill="#F85C05"/>
<path d="M17 10C14.38 10 12.25 12.13 12.25 14.75C12.25 17.32 14.26 19.4 16.88 19.49C16.96 19.48 17.04 19.48 17.1 19.49C17.12 19.49 17.13 19.49 17.15 19.49C17.16 19.49 17.16 19.49 17.17 19.49C19.73 19.4 21.74 17.32 21.75 14.75C21.75 12.13 19.62 10 17 10Z" fill="#FCFCFD"/>
<path d="M22.08 22.1499C19.29 20.2899 14.74 20.2899 11.93 22.1499C10.66 22.9999 9.95996 24.1499 9.95996 25.3799C9.95996 26.6099 10.66 27.7499 11.92 28.5899C13.32 29.5299 15.16 29.9999 17 29.9999C18.84 29.9999 20.68 29.5299 22.08 28.5899C23.34 27.7399 24.04 26.5999 24.04 25.3599C24.03 24.1299 23.34 22.9899 22.08 22.1499Z" fill="#FCFCFD"/>
<path d="M27.9899 15.3401C28.1499 17.2801 26.7699 18.9801 24.8599 19.2101C24.8499 19.2101 24.8499 19.2101 24.8399 19.2101H24.8099C24.7499 19.2101 24.6899 19.2101 24.6399 19.2301C23.6699 19.2801 22.7799 18.9701 22.1099 18.4001C23.1399 17.4801 23.7299 16.1001 23.6099 14.6001C23.5399 13.7901 23.2599 13.0501 22.8399 12.4201C23.2199 12.2301 23.6599 12.1101 24.1099 12.0701C26.0699 11.9001 27.8199 13.3601 27.9899 15.3401Z" fill="#FCFCFD"/>
<path d="M29.9902 24.5899C29.9102 25.5599 29.2902 26.3999 28.2502 26.9699C27.2502 27.5199 25.9902 27.7799 24.7402 27.7499C25.4602 27.0999 25.8802 26.2899 25.9602 25.4299C26.0602 24.1899 25.4702 22.9999 24.2902 22.0499C23.6202 21.5199 22.8402 21.0999 21.9902 20.7899C24.2002 20.1499 26.9802 20.5799 28.6902 21.9599C29.6102 22.6999 30.0802 23.6299 29.9902 24.5899Z" fill="#FCFCFD"/>
</svg>
