<svg width="20" height="20" viewBox="0 0 20 20" fill="none" xmlns="http://www.w3.org/2000/svg">
<g id="vuesax/outline/like">
<g id="like">
<path id="Vector" d="M13.5668 18.4171H10.4001C9.93346 18.4171 8.9168 18.2754 8.37513 17.7337L5.85013 15.7837L6.6168 14.7921L9.20013 16.7921C9.40846 16.9921 9.93346 17.1587 10.4001 17.1587H13.5668C14.3168 17.1587 15.1251 16.5587 15.2918 15.8837L17.3085 9.75873C17.4418 9.39207 17.4168 9.05873 17.2418 8.81707C17.0585 8.55873 16.7251 8.40873 16.3168 8.40873H12.9835C12.5501 8.40873 12.1501 8.2254 11.8751 7.90873C11.5918 7.58373 11.4668 7.1504 11.5335 6.7004L11.9501 4.0254C12.0501 3.55873 11.7335 3.03373 11.2835 2.88373C10.8751 2.73373 10.3501 2.9504 10.1668 3.21707L6.75013 8.3004L5.7168 7.60873L9.13346 2.5254C9.65846 1.74207 10.8085 1.36707 11.7085 1.70873C12.7501 2.0504 13.4168 3.2004 13.1835 4.26707L12.7751 6.89207C12.7668 6.9504 12.7668 7.03373 12.8251 7.1004C12.8668 7.14207 12.9251 7.16707 12.9918 7.16707H16.3251C17.1418 7.16707 17.8501 7.50873 18.2668 8.1004C18.6751 8.6754 18.7585 9.43373 18.4918 10.1671L16.5001 16.2337C16.1918 17.4421 14.9085 18.4171 13.5668 18.4171Z" fill="#777E90"/>
<path id="Vector_2" d="M4.4834 17.4993H3.65007C2.1084 17.4993 1.3584 16.7743 1.3584 15.291V7.12435C1.3584 5.64102 2.1084 4.91602 3.65007 4.91602H4.4834C6.02507 4.91602 6.77507 5.64102 6.77507 7.12435V15.291C6.77507 16.7743 6.02507 17.4993 4.4834 17.4993ZM3.65007 6.16602C2.74173 6.16602 2.6084 6.38268 2.6084 7.12435V15.291C2.6084 16.0327 2.74173 16.2493 3.65007 16.2493H4.4834C5.39173 16.2493 5.52507 16.0327 5.52507 15.291V7.12435C5.52507 6.38268 5.39173 6.16602 4.4834 6.16602H3.65007Z" fill="#777E90"/>
</g>
</g>
</svg>
