<svg width="148" height="36" viewBox="0 0 148 36" fill="none" xmlns="http://www.w3.org/2000/svg">
<path d="M45.206 11.364V13.83H41.858V24H38.78V13.83H35.432V11.364H45.206ZM53.4468 24.126C52.2588 24.126 51.1668 23.85 50.1708 23.298C49.1868 22.746 48.4008 21.978 47.8128 20.994C47.2368 19.998 46.9488 18.882 46.9488 17.646C46.9488 16.41 47.2368 15.3 47.8128 14.316C48.4008 13.332 49.1868 12.564 50.1708 12.012C51.1668 11.46 52.2588 11.184 53.4468 11.184C54.6348 11.184 55.7208 11.46 56.7048 12.012C57.7008 12.564 58.4808 13.332 59.0448 14.316C59.6208 15.3 59.9088 16.41 59.9088 17.646C59.9088 18.882 59.6208 19.998 59.0448 20.994C58.4688 21.978 57.6888 22.746 56.7048 23.298C55.7208 23.85 54.6348 24.126 53.4468 24.126ZM53.4468 21.318C54.4548 21.318 55.2588 20.982 55.8588 20.31C56.4708 19.638 56.7768 18.75 56.7768 17.646C56.7768 16.53 56.4708 15.642 55.8588 14.982C55.2588 14.31 54.4548 13.974 53.4468 13.974C52.4268 13.974 51.6108 14.304 50.9988 14.964C50.3988 15.624 50.0988 16.518 50.0988 17.646C50.0988 18.762 50.3988 19.656 50.9988 20.328C51.6108 20.988 52.4268 21.318 53.4468 21.318ZM68.7852 24L66.1572 19.23H65.4192V24H62.3412V11.364H67.5072C68.5032 11.364 69.3492 11.538 70.0452 11.886C70.7532 12.234 71.2812 12.714 71.6292 13.326C71.9772 13.926 72.1512 14.598 72.1512 15.342C72.1512 16.182 71.9112 16.932 71.4312 17.592C70.9632 18.252 70.2672 18.72 69.3432 18.996L72.2592 24H68.7852ZM65.4192 17.052H67.3272C67.8912 17.052 68.3112 16.914 68.5872 16.638C68.8752 16.362 69.0192 15.972 69.0192 15.468C69.0192 14.988 68.8752 14.61 68.5872 14.334C68.3112 14.058 67.8912 13.92 67.3272 13.92H65.4192V17.052ZM81.2473 24L78.6193 19.23H77.8813V24H74.8033V11.364H79.9693C80.9653 11.364 81.8113 11.538 82.5073 11.886C83.2153 12.234 83.7433 12.714 84.0913 13.326C84.4393 13.926 84.6133 14.598 84.6133 15.342C84.6133 16.182 84.3733 16.932 83.8933 17.592C83.4253 18.252 82.7293 18.72 81.8053 18.996L84.7213 24H81.2473ZM77.8813 17.052H79.7893C80.3533 17.052 80.7733 16.914 81.0493 16.638C81.3373 16.362 81.4813 15.972 81.4813 15.468C81.4813 14.988 81.3373 14.61 81.0493 14.334C80.7733 14.058 80.3533 13.92 79.7893 13.92H77.8813V17.052ZM90.3435 11.364V24H87.2655V11.364H90.3435ZM94.7341 24.144C94.1941 24.144 93.7501 23.988 93.4021 23.676C93.0661 23.352 92.8981 22.956 92.8981 22.488C92.8981 22.008 93.0661 21.606 93.4021 21.282C93.7501 20.958 94.1941 20.796 94.7341 20.796C95.2621 20.796 95.6941 20.958 96.0301 21.282C96.3781 21.606 96.5521 22.008 96.5521 22.488C96.5521 22.956 96.3781 23.352 96.0301 23.676C95.6941 23.988 95.2621 24.144 94.7341 24.144ZM106.96 21.768H102.244L101.488 24H98.2662L102.838 11.364H106.402L110.974 24H107.716L106.96 21.768ZM106.168 19.392L104.602 14.766L103.054 19.392H106.168ZM116.164 11.364V24H113.086V11.364H116.164Z" fill="#FCFCFD"/>
<path d="M1.83203 17.6536C1.83203 11.0772 7.16318 5.74609 13.7395 5.74609C20.3158 5.74609 25.647 11.0772 25.647 17.6536C25.647 24.2299 20.3158 29.561 13.7395 29.561C7.16318 29.561 1.83203 24.2299 1.83203 17.6536Z" fill="#2E58EA"/>
<path d="M15.0357 23.5636C15.1061 23.3992 15.143 23.2222 15.1442 23.043C15.1455 22.8638 15.111 22.686 15.0429 22.52C14.7901 21.8796 14.8003 21.166 15.0711 20.5354C15.342 19.9047 15.8515 19.4081 16.4884 19.1542C16.7343 19.0558 16.9455 18.8867 17.0953 18.6681C17.2451 18.4494 17.3269 18.1911 17.3304 17.9254C17.3338 17.6597 17.2588 17.3986 17.1148 17.1748C16.9708 16.951 16.7642 16.7746 16.5209 16.6676C16.2776 16.5606 16.0085 16.5279 15.7474 16.5735C15.4863 16.6192 15.2448 16.7411 15.0532 16.9241C14.8617 17.1071 14.7286 17.3429 14.6708 17.602C14.6129 17.8611 14.6329 18.1318 14.7281 18.3802C14.8561 18.6983 14.9203 19.0383 14.9169 19.3807C14.9136 19.7231 14.8429 20.0611 14.7087 20.3755C14.5746 20.6898 14.3797 20.9743 14.1353 21.2126C13.8908 21.4509 13.6016 21.6383 13.2842 21.7641C13.0819 21.8485 12.9035 21.9813 12.7645 22.1508C12.6255 22.3204 12.5302 22.5217 12.4869 22.737C12.4435 22.9524 12.4535 23.1753 12.5158 23.3864C12.5782 23.5975 12.6911 23.7903 12.8446 23.9481C12.9982 24.1059 13.1878 24.2238 13.3969 24.2917C13.606 24.3595 13.8283 24.3751 14.0443 24.3372C14.2604 24.2992 14.4637 24.2089 14.6365 24.0741C14.8093 23.9393 14.9464 23.764 15.0357 23.5636Z" fill="#FCFCFD"/>
<path d="M11.5531 15.8808C11.5815 16.1481 11.6889 16.4012 11.8616 16.6075C12.0343 16.8139 12.2644 16.9641 12.5224 17.039C12.7803 17.1138 13.0544 17.1098 13.3094 17.0275C13.5644 16.9452 13.7887 16.7884 13.9535 16.5771C14.164 16.3083 14.4256 16.0839 14.7233 15.9169C15.021 15.7498 15.3489 15.6434 15.6883 15.6038C16.0277 15.5642 16.3719 15.5921 16.7011 15.6859C17.0303 15.7797 17.338 15.9376 17.6067 16.1505C17.8162 16.3149 18.0693 16.4137 18.3341 16.4345C18.5989 16.4554 18.8636 16.3974 19.0949 16.2677C19.3262 16.1381 19.5137 15.9426 19.6339 15.706C19.7541 15.4693 19.8016 15.2021 19.7704 14.9378C19.7391 14.6735 19.6306 14.424 19.4585 14.2208C19.2863 14.0175 19.0582 13.8695 18.8028 13.7955C18.5475 13.7214 18.2763 13.7245 18.0234 13.8045C17.7705 13.8844 17.5472 14.0377 17.3815 14.2448C16.9559 14.7824 16.3341 15.1283 15.6525 15.2067C14.9708 15.2851 14.2848 15.0896 13.7444 14.6631C13.5353 14.4919 13.28 14.3871 13.0115 14.3626C12.743 14.338 12.4737 14.3947 12.2384 14.5253C12.0031 14.656 11.8127 14.8545 11.6918 15.0953C11.571 15.336 11.5252 15.6079 11.5604 15.8757L11.5531 15.8808Z" fill="#FCFCFD"/>
<path d="M13.7056 18.6175C13.5986 18.4732 13.464 18.3517 13.3097 18.2599C13.1554 18.1682 12.9845 18.1082 12.807 18.0833C12.1283 17.9802 11.5167 17.6123 11.106 17.0599C10.6952 16.5076 10.5189 15.8158 10.6153 15.1358C10.6416 14.9592 10.6326 14.7789 10.5888 14.6055C10.5449 14.4321 10.4671 14.269 10.3599 14.1257C10.2265 13.9503 10.0523 13.8101 9.85274 13.7173C9.65313 13.6245 9.43411 13.5819 9.21479 13.5934C8.99545 13.6048 8.78248 13.6698 8.59445 13.7828C8.40643 13.8958 8.24907 14.0532 8.13611 14.2415C8.02317 14.4297 7.95803 14.643 7.94642 14.8627C7.93482 15.0824 7.97709 15.3018 8.06954 15.5018C8.16198 15.7018 8.3018 15.8764 8.47679 16.0102C8.65178 16.144 8.85661 16.233 9.07341 16.2695C9.41208 16.3188 9.738 16.4346 10.0325 16.6101C10.327 16.7856 10.5843 17.0174 10.7896 17.2923C10.995 17.5672 11.1443 17.8797 11.2292 18.2119C11.314 18.5442 11.3326 18.8897 11.284 19.2286C11.2556 19.4469 11.2812 19.6691 11.3584 19.8757C11.4355 20.0823 11.562 20.2671 11.7267 20.4138C11.8914 20.5605 12.0892 20.6647 12.303 20.7174C12.5168 20.77 12.74 20.7694 12.953 20.7156C13.166 20.6619 13.3624 20.5566 13.5251 20.409C13.6877 20.2614 13.8115 20.076 13.8858 19.869C13.96 19.6619 13.9824 19.4396 13.951 19.2215C13.9196 19.0033 13.8354 18.7959 13.7056 18.6175Z" fill="#FCFCFD"/>
</svg>
