<svg width="148" height="36" viewBox="0 0 148 36" fill="none" xmlns="http://www.w3.org/2000/svg">
<path d="M135.443 24.6769V22.0573H137.605V14.4732H135.443V11.8535H142.899V14.4732H140.719V22.0573H142.899V24.6769H135.443Z" fill="#FCFCFD"/>
<path d="M121.35 24.6769L126.424 11.8535H129.062L134.1 24.6769H130.949L128.531 18.1736C128.433 17.9172 128.335 17.6424 128.238 17.3493C128.14 17.0562 128.042 16.7569 127.945 16.4516C127.847 16.1341 127.749 15.8288 127.651 15.5357C127.566 15.2303 127.493 14.9495 127.432 14.693L127.981 14.6747C127.908 14.98 127.822 15.2792 127.725 15.5723C127.639 15.8654 127.548 16.1585 127.45 16.4516C127.364 16.7325 127.267 17.0195 127.157 17.3126C127.047 17.5935 126.943 17.8866 126.845 18.192L124.427 24.6769H121.35ZM123.768 22.2222L124.739 19.8773H130.637L131.59 22.2222H123.768Z" fill="#FCFCFD"/>
<path d="M119.008 24.8807C118.507 24.8807 118.116 24.7402 117.835 24.4594C117.566 24.1785 117.432 23.7754 117.432 23.2503C117.432 22.7618 117.579 22.3649 117.872 22.0595C118.165 21.7542 118.543 21.6016 119.008 21.6016C119.508 21.6016 119.899 21.7481 120.18 22.0412C120.461 22.3221 120.601 22.7251 120.601 23.2503C120.601 23.7266 120.455 24.1174 120.162 24.4227C119.869 24.728 119.484 24.8807 119.008 24.8807Z" fill="#FCFCFD"/>
<path d="M105.412 24.6769V11.8535H111.183C112.001 11.8535 112.74 12.0306 113.399 12.3848C114.071 12.7389 114.596 13.2275 114.975 13.8503C115.353 14.4609 115.543 15.1571 115.543 15.9387C115.543 16.7447 115.353 17.4714 114.975 18.1187C114.596 18.7537 114.077 19.2545 113.418 19.6208C112.758 19.9872 112.013 20.1704 111.183 20.1704H108.38V24.6769H105.412ZM112.52 24.6769L109.259 18.8881L112.447 18.4301L116.074 24.6769H112.52ZM108.38 17.7889H110.908C111.225 17.7889 111.5 17.7218 111.732 17.5874C111.976 17.4409 112.16 17.2394 112.282 16.9829C112.416 16.7264 112.483 16.4333 112.483 16.1036C112.483 15.7738 112.41 15.4868 112.263 15.2426C112.117 14.9861 111.903 14.7907 111.622 14.6563C111.354 14.522 111.024 14.4548 110.633 14.4548H108.38V17.7889Z" fill="#FCFCFD"/>
<path d="M93.605 24.6769V11.8535H102.545V14.5098H96.6276V22.0207H102.728V24.6769H93.605ZM95.0705 19.4193V16.8913H101.72V19.4193H95.0705Z" fill="#FCFCFD"/>
<path d="M82.2808 24.6769V11.8535H85.395V24.6769H82.2808ZM83.728 19.7674V17.1661H90.3595V19.7674H83.728ZM83.728 14.6014V11.8535H91.1106V14.6014H83.728Z" fill="#FCFCFD"/>
<path d="M71.8628 24.6769V22.0573H74.0245V14.4732H71.8628V11.8535H79.3187V14.4732H77.1387V22.0573H79.3187V24.6769H71.8628Z" fill="#FCFCFD"/>
<path d="M65.2251 24.8607C64.2602 24.8607 63.3687 24.702 62.5505 24.3844C61.7444 24.0547 61.0422 23.5967 60.4437 23.0105C59.8453 22.4121 59.3812 21.7098 59.0515 20.9038C58.734 20.0855 58.5752 19.1879 58.5752 18.2109C58.5752 17.2583 58.7462 16.379 59.0881 15.5729C59.4301 14.7669 59.9003 14.0707 60.4987 13.4845C61.1093 12.8861 61.8238 12.422 62.6421 12.0923C63.4725 11.7625 64.3763 11.5977 65.3533 11.5977C65.9639 11.5977 66.5624 11.677 67.1486 11.8358C67.7348 11.9946 68.2782 12.2327 68.779 12.5503C69.2919 12.8556 69.7316 13.222 70.098 13.6494L68.1928 15.8294C67.9363 15.5607 67.6615 15.3287 67.3684 15.1333C67.0875 14.9256 66.7761 14.7669 66.4341 14.657C66.0922 14.547 65.7258 14.4921 65.335 14.4921C64.8465 14.4921 64.3824 14.5837 63.9427 14.7669C63.5153 14.9379 63.1367 15.1882 62.8069 15.518C62.4894 15.8355 62.239 16.2263 62.0558 16.6904C61.8726 17.1545 61.7811 17.6735 61.7811 18.2475C61.7811 18.8093 61.8726 19.3222 62.0558 19.7863C62.239 20.2382 62.4955 20.629 62.8252 20.9588C63.155 21.2885 63.5519 21.5389 64.016 21.7098C64.4923 21.8808 65.0174 21.9663 65.5914 21.9663C65.9822 21.9663 66.3547 21.9114 66.7089 21.8014C67.0631 21.6915 67.3867 21.545 67.6798 21.3618C67.9851 21.1664 68.2538 20.9465 68.4859 20.7023L69.988 23.0838C69.6827 23.4257 69.2736 23.7311 68.7607 23.9997C68.2599 24.2684 67.6981 24.4821 67.0753 24.6409C66.4647 24.7875 65.8479 24.8607 65.2251 24.8607Z" fill="#FCFCFD"/>
<path d="M50.796 24.7869C49.7335 24.7869 48.787 24.5731 47.9566 24.1457C47.1261 23.706 46.4727 23.1076 45.9964 22.3504C45.5323 21.5932 45.3003 20.7261 45.3003 19.7491V11.8535H48.4512V19.5842C48.4512 20.0483 48.555 20.4696 48.7626 20.8482C48.9702 21.2146 49.2511 21.5077 49.6053 21.7276C49.9595 21.9352 50.3564 22.039 50.796 22.039C51.2601 22.039 51.6693 21.9352 52.0234 21.7276C52.3898 21.5077 52.6829 21.2146 52.9028 20.8482C53.1226 20.4696 53.2325 20.0483 53.2325 19.5842V11.8535H56.2735V19.7491C56.2735 20.7261 56.0353 21.5932 55.559 22.3504C55.0949 23.1076 54.4477 23.706 53.6172 24.1457C52.7867 24.5731 51.8463 24.7869 50.796 24.7869Z" fill="#FCFCFD"/>
<path d="M34.5864 24.6769V11.8535H37.7007V21.9291H43.4163V24.6769H34.5864Z" fill="#FCFCFD"/>
<path d="M1.83203 17.6536C1.83203 11.0772 7.16318 5.74609 13.7395 5.74609C20.3158 5.74609 25.647 11.0772 25.647 17.6536C25.647 24.2299 20.3158 29.561 13.7395 29.561C7.16318 29.561 1.83203 24.2299 1.83203 17.6536Z" fill="#2E58EA"/>
<path d="M19.0389 21.1081C18.9435 20.9569 18.8187 20.8261 18.6718 20.7234C18.525 20.6207 18.359 20.5482 18.1837 20.51C17.5129 20.3548 16.9311 19.9415 16.5655 19.3606C16.1999 18.7797 16.0802 18.0784 16.2325 17.4099C16.291 17.1516 16.2716 16.8817 16.1766 16.6343C16.0815 16.3869 15.9152 16.173 15.6984 16.0194C15.4816 15.8658 15.2241 15.7793 14.9581 15.7709C14.6921 15.7625 14.4296 15.8325 14.2034 15.9721C13.9773 16.1118 13.7976 16.3148 13.687 16.5557C13.5765 16.7966 13.5398 17.0647 13.5818 17.3262C13.6238 17.5878 13.7425 17.8311 13.923 18.0258C14.1035 18.2204 14.3377 18.3576 14.5963 18.4202C14.9309 18.4953 15.2472 18.6353 15.5273 18.8324C15.8073 19.0294 16.0455 19.2795 16.2282 19.5683C16.411 19.8572 16.5346 20.179 16.5921 20.5155C16.6496 20.852 16.6398 21.1965 16.5633 21.5292C16.518 21.7437 16.5261 21.966 16.5869 22.1766C16.6476 22.3873 16.7593 22.58 16.912 22.7379C17.0647 22.8958 17.2539 23.0141 17.4631 23.0825C17.6723 23.151 17.8952 23.1674 18.1122 23.1305C18.3293 23.0936 18.534 23.0044 18.7085 22.8707C18.883 22.737 19.022 22.5628 19.1134 22.3634C19.2047 22.164 19.2457 21.9454 19.2328 21.7266C19.2198 21.5078 19.1532 21.2954 19.0389 21.1081Z" fill="#FCFCFD"/>
<path d="M10.7366 19.6163C10.9728 19.7446 11.2422 19.7997 11.5101 19.7746C11.778 19.7495 12.0323 19.6453 12.2403 19.4753C12.4483 19.3054 12.6005 19.0775 12.6774 18.8208C12.7544 18.5641 12.7525 18.2905 12.6721 18.0349C12.5701 17.709 12.5338 17.3662 12.5652 17.0263C12.5966 16.6864 12.6951 16.356 12.8551 16.0541C13.015 15.7521 13.2333 15.4846 13.4973 15.2667C13.7613 15.0489 14.066 14.8851 14.3938 14.7847C14.648 14.7055 14.8729 14.5531 15.0404 14.3469C15.2078 14.1407 15.3102 13.8898 15.3347 13.6258C15.3592 13.3618 15.3047 13.0964 15.1781 12.8632C15.0514 12.6299 14.8583 12.4392 14.6229 12.3149C14.3876 12.1907 14.1206 12.1385 13.8556 12.1649C13.5905 12.1913 13.3392 12.2952 13.1333 12.4634C12.9274 12.6316 12.7761 12.8567 12.6984 13.1103C12.6208 13.364 12.6202 13.6348 12.6968 13.8887C12.8979 14.5443 12.8299 15.2524 12.5077 15.8582C12.1854 16.464 11.6352 16.918 10.9774 17.121C10.7177 17.1959 10.4866 17.3467 10.314 17.5539C10.1414 17.761 10.0353 18.015 10.0093 18.2828C9.98342 18.5507 10.0389 18.8201 10.1685 19.0563C10.2982 19.2924 10.4961 19.4844 10.7366 19.6073V19.6163Z" fill="#FCFCFD"/>
<path d="M14.2115 19.3967C14.0319 19.403 13.8555 19.4449 13.6924 19.5199C13.5293 19.5949 13.3829 19.7015 13.2617 19.8335C12.7917 20.3339 12.1417 20.6288 11.4538 20.6535C10.766 20.6783 10.0962 20.431 9.59108 19.9657C9.46056 19.8438 9.307 19.7489 9.13931 19.6866C8.97165 19.6243 8.7932 19.5959 8.61435 19.6028C8.39421 19.6132 8.17995 19.677 7.99028 19.7887C7.80061 19.9004 7.64131 20.0566 7.52626 20.2437C7.4112 20.4308 7.34391 20.643 7.33023 20.8619C7.31657 21.0809 7.35694 21.2998 7.44784 21.4996C7.53875 21.6994 7.67739 21.8741 7.85171 22.0083C8.02602 22.1425 8.23068 22.2322 8.44784 22.2696C8.665 22.307 8.88807 22.2909 9.09754 22.2228C9.30703 22.1546 9.49656 22.0365 9.64959 21.8786C9.88239 21.6277 10.1626 21.4251 10.4742 21.2822C10.7859 21.1393 11.1228 21.0589 11.4656 21.0458C11.8085 21.0327 12.1506 21.0871 12.4723 21.2058C12.794 21.3245 13.0891 21.5051 13.3405 21.7375C13.5042 21.8847 13.7017 21.9898 13.9156 22.0434C14.1295 22.0972 14.3534 22.0979 14.5677 22.0455C14.7819 21.9932 14.98 21.8894 15.1447 21.7432C15.3093 21.597 15.4354 21.4129 15.5121 21.207C15.5887 21.0011 15.6134 20.7796 15.5842 20.562C15.5549 20.3444 15.4725 20.1372 15.3442 19.9585C15.2158 19.7799 15.0455 19.6353 14.8481 19.5374C14.6506 19.4395 14.432 19.3912 14.2115 19.3967Z" fill="#FCFCFD"/>
</svg>
