<svg width="148" height="19" viewBox="0 0 148 19" fill="none" xmlns="http://www.w3.org/2000/svg">
<g id="LUCIFER - AI">
<path id="Vector" d="M144.773 0.695312H148.253V18.3593H144.773V0.695312Z" fill="#FCFCFD"/>
<path id="Vector_2" d="M126.07 18.36L134.038 0H134.23L142.198 18.36H138.166L133.078 5.448L135.598 3.72L129.502 18.36H126.07ZM131.518 11.976H136.822L138.046 14.904H130.438L131.518 11.976Z" fill="#FCFCFD"/>
<path id="Vector_3" d="M111.938 11.4004H116.45V14.3284H111.938V11.4004Z" fill="#FCFCFD"/>
<path id="Vector_4" d="M94.0161 0.695312C95.1201 0.695312 96.1041 0.839313 96.9681 1.12731C97.8321 1.39931 98.5521 1.79931 99.1281 2.32731C99.7201 2.83931 100.168 3.46331 100.472 4.19931C100.776 4.91931 100.928 5.73531 100.928 6.64731C100.928 7.36731 100.816 8.08731 100.592 8.80731C100.384 9.52731 100.032 10.1833 99.5361 10.7753C99.0561 11.3673 98.4161 11.8473 97.6161 12.2153C96.8161 12.5673 95.8241 12.7433 94.6401 12.7433H92.1441V18.3593H88.6641V0.695312H94.0161ZM94.6161 9.38331C95.1441 9.38331 95.5841 9.29531 95.9361 9.11931C96.2881 8.94331 96.5601 8.71931 96.7521 8.44731C96.9601 8.17531 97.1041 7.89531 97.1841 7.60731C97.2801 7.30331 97.3281 7.02331 97.3281 6.76731C97.3281 6.57531 97.2961 6.33531 97.2321 6.04731C97.1841 5.74331 97.0721 5.43931 96.8961 5.13531C96.7201 4.83131 96.4481 4.57531 96.0801 4.36731C95.7281 4.15931 95.2481 4.05531 94.6401 4.05531H92.1441V9.38331H94.6161ZM97.8801 11.5433L102.248 18.3593H98.1921L93.7281 11.6393L97.8801 11.5433Z" fill="#FCFCFD"/>
<path id="Vector_5" d="M72.6797 0.695312H84.7277V4.05531H76.1597V7.82331H83.7437V11.1833H76.1597V14.9993H85.0637V18.3593H72.6797V0.695312Z" fill="#FCFCFD"/>
<path id="Vector_6" d="M58.2891 0.695312H69.3291V4.05531H61.7691V8.06331H68.3211V11.4233H61.7691V18.3593H58.2891V0.695312Z" fill="#FCFCFD"/>
<path id="Vector_7" d="M50.25 0.695312H53.73V18.3593H50.25V0.695312Z" fill="#FCFCFD"/>
<path id="Vector_8" d="M46.7635 16.8959C46.5715 17.0559 46.2115 17.2719 45.6835 17.5439C45.1715 17.8159 44.5395 18.0559 43.7875 18.2639C43.0355 18.4719 42.2035 18.5679 41.2915 18.5519C39.8995 18.5199 38.6515 18.2719 37.5475 17.8079C36.4595 17.3279 35.5315 16.6799 34.7635 15.8639C34.0115 15.0479 33.4355 14.1119 33.0355 13.0559C32.6355 11.9999 32.4355 10.8719 32.4355 9.67191C32.4355 8.32791 32.6355 7.09591 33.0355 5.97591C33.4515 4.85591 34.0355 3.88791 34.7875 3.07191C35.5555 2.25591 36.4675 1.62391 37.5235 1.17591C38.5795 0.727906 39.7475 0.503906 41.0275 0.503906C42.2115 0.503906 43.2595 0.663906 44.1715 0.983906C45.0835 1.30391 45.8275 1.64791 46.4035 2.01591L45.0355 5.30391C44.6355 4.99991 44.0995 4.68791 43.4275 4.36791C42.7715 4.03191 42.0115 3.86391 41.1475 3.86391C40.4755 3.86391 39.8275 4.00791 39.2035 4.29591C38.5955 4.56791 38.0515 4.95991 37.5715 5.47191C37.1075 5.98391 36.7395 6.58391 36.4675 7.27191C36.1955 7.94391 36.0595 8.67991 36.0595 9.47991C36.0595 10.3279 36.1795 11.1039 36.4195 11.8079C36.6755 12.5119 37.0355 13.1199 37.4995 13.6319C37.9635 14.1279 38.5155 14.5119 39.1555 14.7839C39.8115 15.0559 40.5475 15.1919 41.3635 15.1919C42.3075 15.1919 43.1155 15.0399 43.7875 14.7359C44.4595 14.4319 44.9715 14.1119 45.3235 13.7759L46.7635 16.8959Z" fill="#FCFCFD"/>
<path id="Vector_9" d="M18.4946 11.8313C18.4946 12.3913 18.6626 12.9273 18.9986 13.4393C19.3346 13.9513 19.7746 14.3673 20.3186 14.6873C20.8786 15.0073 21.4866 15.1673 22.1426 15.1673C22.8626 15.1673 23.5026 15.0073 24.0626 14.6873C24.6226 14.3673 25.0626 13.9513 25.3826 13.4393C25.7186 12.9273 25.8867 12.3913 25.8867 11.8313V0.695312H29.3186V11.9033C29.3186 13.1993 28.9986 14.3513 28.3586 15.3593C27.7186 16.3513 26.8546 17.1353 25.7666 17.7113C24.6786 18.2713 23.4706 18.5513 22.1426 18.5513C20.8306 18.5513 19.6306 18.2713 18.5426 17.7113C17.4706 17.1353 16.6146 16.3513 15.9746 15.3593C15.3346 14.3513 15.0146 13.1993 15.0146 11.9033V0.695312H18.4946V11.8313Z" fill="#FCFCFD"/>
<path id="Vector_10" d="M0 0.695312H3.48V14.9993H11.784V18.3593H0V0.695312Z" fill="#FCFCFD"/>
</g>
</svg>
