<svg width="20" height="20" viewBox="0 0 20 20" fill="none" xmlns="http://www.w3.org/2000/svg">
<g id="vuesax/outline/messages-3">
<g id="messages-3">
<path id="Vector" d="M14.0834 15.8417C13.8251 15.8417 13.5667 15.7666 13.3417 15.6166L12.5418 15.0916C12.3168 14.9416 12.2084 14.6583 12.2834 14.4C12.3418 14.2083 12.3667 13.9833 12.3667 13.7333V10.3416C12.3667 8.98329 11.5168 8.13332 10.1584 8.13332H4.50008C4.40008 8.13332 4.30841 8.14167 4.21675 8.15C4.04175 8.15834 3.87509 8.09999 3.74175 7.98333C3.60842 7.86666 3.54175 7.7 3.54175 7.525V5.21665C3.54175 2.76665 5.25841 1.04999 7.70842 1.04999H14.7917C17.2417 1.04999 18.9584 2.76665 18.9584 5.21665V9.46663C18.9584 10.675 18.5501 11.7416 17.8001 12.475C17.2001 13.0833 16.3667 13.475 15.4167 13.5916V14.5166C15.4167 15.0166 15.1417 15.4667 14.7084 15.7C14.5084 15.7917 14.2917 15.8417 14.0834 15.8417ZM13.5834 14.275L14.1251 14.5833C14.1751 14.5583 14.1751 14.5166 14.1751 14.5083V13C14.1751 12.6583 14.4584 12.375 14.8001 12.375C15.6751 12.375 16.4167 12.1 16.9251 11.5833C17.4501 11.0667 17.7167 10.3333 17.7167 9.45829V5.20831C17.7167 3.43331 16.5751 2.29165 14.8001 2.29165H7.71674C5.94174 2.29165 4.80008 3.43331 4.80008 5.20831V6.87498H10.1667C12.2001 6.87498 13.6251 8.3 13.6251 10.3333V13.725C13.6168 13.9166 13.6084 14.1 13.5834 14.275Z" fill="#777E90"/>
<path id="Vector_2" d="M5.05842 18.9583C4.87509 18.9583 4.68342 18.9167 4.50842 18.825C4.11675 18.6167 3.87508 18.2167 3.87508 17.7667V17.1333C3.14174 17.0167 2.49175 16.7083 2.00842 16.225C1.37508 15.5916 1.04175 14.725 1.04175 13.725V10.3334C1.04175 8.45002 2.27508 7.06668 4.10841 6.89168C4.24174 6.88335 4.36674 6.875 4.50008 6.875H10.1584C12.1917 6.875 13.6167 8.30002 13.6167 10.3334V13.725C13.6167 14.0916 13.5751 14.4333 13.4834 14.7417C13.1084 16.2417 11.8334 17.1833 10.1584 17.1833H8.08341L5.72508 18.75C5.52508 18.8917 5.29175 18.9583 5.05842 18.9583ZM4.50008 8.125C4.40008 8.125 4.30841 8.13335 4.21675 8.14168C3.01675 8.25002 2.29175 9.07502 2.29175 10.3334V13.725C2.29175 14.3916 2.50008 14.95 2.89175 15.3416C3.27508 15.725 3.83341 15.9333 4.50008 15.9333C4.84174 15.9333 5.12508 16.2167 5.12508 16.5583V17.65L7.54175 16.0417C7.64175 15.975 7.76675 15.9333 7.89175 15.9333H10.1584C11.2584 15.9333 12.0334 15.3833 12.2751 14.4167C12.3334 14.2083 12.3667 13.975 12.3667 13.725V10.3334C12.3667 8.97502 11.5167 8.125 10.1584 8.125H4.50008Z" fill="#777E90"/>
</g>
</g>
</svg>
