<svg width="40" height="40" viewBox="0 0 40 40" fill="none" xmlns="http://www.w3.org/2000/svg">
<rect width="40" height="40" rx="20" fill="#FD54E2"/>
<path d="M29.09 14.98C28.24 14.04 26.83 13.57 24.76 13.57H24.52V13.53C24.52 11.85 24.52 9.77002 20.76 9.77002H19.24C15.48 9.77002 15.48 11.85 15.48 13.53V13.57H15.24C13.17 13.57 11.75 14.04 10.91 14.98C9.92004 16.09 9.95004 17.56 10.05 18.57L10.06 18.64L10.1291 19.446C10.1423 19.5999 10.2259 19.7392 10.3556 19.8232C10.6393 20.0068 10.9411 20.1995 11.23 20.36C11.37 20.45 11.52 20.53 11.67 20.61C12.8 21.23 14.01 21.72 15.25 22.06C15.28 24.65 17.4 26.75 20 26.75C22.62 26.75 24.75 24.62 24.75 22V21.96C26.01 21.58 27.22 21.05 28.35 20.39C28.41 20.36 28.45 20.33 28.5 20.3C28.8947 20.0855 29.304 19.8048 29.6776 19.54C29.7938 19.4575 29.8688 19.329 29.8842 19.1873L29.95 18.58C29.96 18.52 29.96 18.47 29.97 18.4C30.05 17.4 30.03 16.02 29.09 14.98ZM16.91 13.53C16.91 11.83 16.91 11.19 19.24 11.19H20.76C23.09 11.19 23.09 11.83 23.09 13.53V13.57H16.91V13.53ZM20 25.25C18.35 25.25 16.98 24.01 16.78 22.41C16.76 22.28 16.75 22.14 16.75 22C16.75 20.21 18.21 18.75 20 18.75C21.79 18.75 23.25 20.21 23.25 22C23.25 22.12 23.24 22.23 23.23 22.34V22.35C23.05 23.98 21.67 25.25 20 25.25Z" fill="#FCFCFD"/>
<path d="M19.4299 24.0299C19.2399 24.0299 19.0499 23.9599 18.8999 23.8099L17.9099 22.8299C17.6199 22.5399 17.6199 22.0599 17.9099 21.7699C18.1999 21.4799 18.6799 21.4799 18.9699 21.7699L19.4499 22.2499L21.0599 20.7699C21.3599 20.4899 21.8399 20.5099 22.1199 20.8099C22.3999 21.1099 22.3799 21.5899 22.0799 21.8699L19.9499 23.8399C19.7899 23.9599 19.6099 24.0299 19.4299 24.0299Z" fill="#FCFCFD"/>
<path d="M29.0416 21.7311C29.2903 21.5929 29.6129 21.7931 29.587 22.0765L29.2316 25.9611C29.0216 27.9611 28.2016 30.0011 23.8016 30.0011H16.1816C11.7816 30.0011 10.9616 27.9611 10.7616 25.9711L10.4157 22.2678C10.3888 21.9802 10.6963 21.786 10.9516 21.9211C11.7316 22.3511 12.5416 22.7311 13.3716 23.0311C13.6816 23.1411 13.9016 23.4011 13.9916 23.7211C14.7416 26.3211 17.1616 28.2511 20.0016 28.2511C22.8916 28.2511 25.3316 26.2811 26.0416 23.5811C26.1216 23.2611 26.3416 23.0011 26.6516 22.8811C27.4916 22.5511 28.2916 22.1611 29.0416 21.7311Z" fill="#FCFCFD"/>
</svg>
