<svg width="22" height="21" viewBox="0 0 22 21" fill="none" xmlns="http://www.w3.org/2000/svg">
<g id="phone">
<path id="Vector 2186 (Stroke)" fill-rule="evenodd" clip-rule="evenodd" d="M0 3.83333C0 1.99238 1.60151 0.5 3.57708 0.5H6.75241C7.73725 0.5 8.59571 1.12459 8.83457 2.01493L9.67309 5.14047C9.94509 6.15434 9.33357 7.19242 8.26963 7.5229L6.68337 8.01563C6.19773 8.16648 5.90862 8.63071 6.00902 9.09847C6.6374 12.0263 9.09332 14.3149 12.2352 14.9004C12.7372 14.994 13.2354 14.7246 13.3973 14.272L13.8233 13.081C14.2363 11.9263 15.651 11.3803 16.8192 11.9246L20.276 13.5352C21.0032 13.874 21.4625 14.5665 21.4625 15.324V17.1667C21.4625 19.0076 19.8609 20.5 17.8854 20.5H15.0237C6.72635 20.5 0 14.232 0 6.5V3.83333ZM3.57708 1.83333C2.39174 1.83333 1.43083 2.72876 1.43083 3.83333V6.5C1.43083 13.4956 7.51657 19.1667 15.0237 19.1667H17.8854C19.0707 19.1667 20.0316 18.2712 20.0316 17.1667V15.324C20.0316 15.0715 19.8785 14.8407 19.6361 14.7278L16.1794 13.1171C15.79 12.9357 15.3184 13.1177 15.1807 13.5026L14.7547 14.6937C14.3646 15.7841 13.1642 16.4333 11.9546 16.2079C8.24631 15.5168 5.34764 12.8156 4.60597 9.35996C4.36406 8.23282 5.06069 7.11421 6.2309 6.75072L7.81716 6.25799C8.17181 6.14783 8.37565 5.8018 8.28498 5.46385L7.44646 2.33831C7.36684 2.04153 7.08069 1.83333 6.75241 1.83333H3.57708Z" fill="#15C3A7"/>
</g>
</svg>
