<svg width="22" height="23" viewBox="0 0 22 23" fill="none" xmlns="http://www.w3.org/2000/svg">
<g id="pin">
<path id="Vector (Stroke)" fill-rule="evenodd" clip-rule="evenodd" d="M11.1937 1.96667C6.84802 1.96667 3.32413 5.57712 3.32413 10.0276C3.32413 13.4342 4.98634 16.19 6.87035 18.1199C7.81001 19.0825 8.79022 19.8235 9.6119 20.3199C10.023 20.5683 10.386 20.7503 10.6767 20.8679C10.9883 20.994 11.1538 21.0199 11.1937 21.0199C11.2336 21.0199 11.3991 20.994 11.7107 20.8679C12.0014 20.7503 12.3644 20.5683 12.7755 20.3199C13.5972 19.8235 14.5774 19.0825 15.517 18.1199C17.401 16.19 19.0633 13.4342 19.0633 10.0276C19.0633 5.57712 15.5394 1.96667 11.1937 1.96667ZM1.8933 10.0276C1.8933 4.7662 6.05868 0.5 11.1937 0.5C16.3287 0.5 20.4941 4.7662 20.4941 10.0276C20.4941 13.9495 18.5792 17.0566 16.5285 19.1573C15.5007 20.2101 14.4241 21.0264 13.502 21.5835C13.0411 21.8619 12.6105 22.0807 12.236 22.2321C11.8825 22.3752 11.5115 22.4866 11.1937 22.4866C10.8759 22.4866 10.5048 22.3752 10.1513 22.2321C9.77693 22.0807 9.34624 21.8619 8.88541 21.5835C7.96327 21.0264 6.88666 20.2101 5.85893 19.1573C3.80816 17.0566 1.8933 13.9495 1.8933 10.0276ZM7.61662 10.0276C7.61662 8.00395 9.21938 6.36282 11.1937 6.36282C13.168 6.36282 14.7708 8.00395 14.7708 10.0276C14.7708 12.0512 13.168 13.6923 11.1937 13.6923C9.21937 13.6923 7.61662 12.0512 7.61662 10.0276ZM11.1937 7.82948C10.0087 7.82948 9.04745 8.81488 9.04745 10.0276C9.04745 11.2403 10.0087 12.2257 11.1937 12.2257C12.3786 12.2257 13.3399 11.2403 13.3399 10.0276C13.3399 8.81488 12.3787 7.82948 11.1937 7.82948Z" fill="#15C3A7"/>
</g>
</svg>
