<svg width="24" height="24" viewBox="0 0 24 24" fill="none" xmlns="http://www.w3.org/2000/svg">
<path d="M5.91992 3.73291C7.27304 2.95233 9.08407 3.05777 11.0898 4.21338L17.2598 7.77295C19.2562 8.9289 20.2598 10.4496 20.2598 12.0103C20.2597 13.5718 19.2651 15.0916 17.2607 16.2466H17.2598L11.0928 19.8052C9.93839 20.4635 8.84289 20.7798 7.87012 20.7798C7.25001 20.7798 6.6649 20.6498 6.14062 20.394L5.91992 20.2769C4.56653 19.4961 3.75 17.8704 3.75 15.5698V8.43994C3.75001 6.12992 4.56623 4.51389 5.91992 3.73291ZM7.87012 3.72021C7.25308 3.72021 6.68519 3.85825 6.1709 4.15674C4.86611 4.90597 4.25001 6.49936 4.25 8.43994V15.5601C4.25001 17.5035 4.86736 19.0836 6.16797 19.8423C7.47358 20.6038 9.16143 20.3323 10.8398 19.3628L17.0098 15.8032C18.6897 14.8328 19.7598 13.5081 19.7598 11.9995C19.7595 10.4911 18.6895 9.16706 17.0098 8.19678L10.8398 4.63721L10.8379 4.63623L10.4541 4.42822C9.56066 3.97205 8.68809 3.72024 7.87012 3.72021Z" fill="#FCFCFD" stroke="#FCFCFD"/>
</svg>
