<svg width="20" height="20" viewBox="0 0 20 20" fill="none" xmlns="http://www.w3.org/2000/svg">
<path d="M6.5585 17.7334C5.90016 17.7334 5.27516 17.575 4.72516 17.2584C3.42516 16.5084 2.7085 14.9834 2.7085 12.975V7.03336C2.7085 5.0167 3.42516 3.50003 4.72516 2.75003C6.02516 2.00003 7.70016 2.1417 9.45016 3.15003L14.5918 6.1167C16.3335 7.12503 17.3002 8.50837 17.3002 10.0084C17.3002 11.5084 16.3418 12.8917 14.5918 13.9L9.45016 16.8667C8.44183 17.4417 7.4585 17.7334 6.5585 17.7334ZM6.5585 3.5167C6.1085 3.5167 5.7085 3.6167 5.35016 3.82503C4.45016 4.3417 3.9585 5.48336 3.9585 7.03336V12.9667C3.9585 14.5167 4.45016 15.65 5.35016 16.175C6.25016 16.7 7.4835 16.55 8.82516 15.775L13.9668 12.8084C15.3085 12.0334 16.0502 11.0417 16.0502 10C16.0502 8.95836 15.3085 7.9667 13.9668 7.1917L8.82516 4.22503C8.0085 3.75837 7.24183 3.5167 6.5585 3.5167Z" fill="#2E58EA"/>
</svg>
