<svg width="24" height="24" viewBox="0 0 24 24" fill="none" xmlns="http://www.w3.org/2000/svg">
<g id="vuesax/outline/export">
<g id="export">
<path id="Vector" d="M13.0004 11.2502C12.9359 11.2502 12.8753 11.228 12.824 11.1767C12.7292 11.0819 12.7292 10.9185 12.824 10.8238L21.024 2.62379C21.1187 2.52905 21.2821 2.52905 21.3769 2.62379C21.4716 2.71853 21.4716 2.88194 21.3769 2.97668L13.1769 11.1767C13.1256 11.228 13.065 11.2502 13.0004 11.2502Z" fill="#292D32" stroke="#141416"/>
<path id="Vector_2" d="M21.7502 2.75V2.25H21.2502H17.2002C17.0663 2.25 16.9502 2.13386 16.9502 2C16.9502 1.86614 17.0663 1.75 17.2002 1.75H22.0002C22.1341 1.75 22.2502 1.86614 22.2502 2V6.8C22.2502 6.93386 22.1341 7.05 22.0002 7.05C21.8663 7.05 21.7502 6.93386 21.7502 6.8V2.75Z" fill="#292D32" stroke="#141416"/>
<path id="Vector_3" d="M15 22.75H9C3.57 22.75 1.25 20.43 1.25 15V9C1.25 3.57 3.57 1.25 9 1.25H11C11.41 1.25 11.75 1.59 11.75 2C11.75 2.41 11.41 2.75 11 2.75H9C4.39 2.75 2.75 4.39 2.75 9V15C2.75 19.61 4.39 21.25 9 21.25H15C19.61 21.25 21.25 19.61 21.25 15V13C21.25 12.59 21.59 12.25 22 12.25C22.41 12.25 22.75 12.59 22.75 13V15C22.75 20.43 20.43 22.75 15 22.75Z" fill="#292D32"/>
</g>
</g>
</svg>
