<svg width="41" height="40" viewBox="0 0 41 40" fill="none" xmlns="http://www.w3.org/2000/svg">
<rect x="0.5" width="40" height="40" rx="20" fill="#9E54FD"/>
<path d="M24.69 10H16.31C12.67 10 10.5 12.17 10.5 15.81V24.18C10.5 27.83 12.67 30 16.31 30H24.68C28.32 30 30.49 27.83 30.49 24.19V15.81C30.5 12.17 28.33 10 24.69 10ZM25.76 17.96L23.45 20.94C23.16 21.31 22.75 21.55 22.28 21.6C21.81 21.66 21.35 21.53 20.98 21.24L19.15 19.8C19.08 19.74 19 19.74 18.96 19.75C18.92 19.75 18.85 19.77 18.79 19.85L16.41 22.94C16.26 23.13 16.04 23.23 15.82 23.23C15.66 23.23 15.5 23.18 15.36 23.07C15.03 22.82 14.97 22.35 15.22 22.02L17.6 18.93C17.89 18.56 18.3 18.32 18.77 18.26C19.23 18.2 19.7 18.33 20.07 18.62L21.9 20.06C21.97 20.12 22.04 20.12 22.09 20.11C22.13 20.11 22.2 20.09 22.26 20.01L24.57 17.03C24.82 16.7 25.3 16.64 25.62 16.9C25.95 17.17 26.01 17.64 25.76 17.96Z" fill="#FCFCFD"/>
</svg>
