<svg width="80" height="80" viewBox="0 0 80 80" fill="none" xmlns="http://www.w3.org/2000/svg">
<g id="vuesax/outline/share">
<g id="share">
<path id="Vector" d="M68.7333 43.5667C67.4667 43.5667 66.4 42.6 66.2333 41.3333C65.4333 33.8 61.3667 26.9667 55.1 22.6333C53.9667 21.8333 53.7 20.3 54.4667 19.1667C55.2667 18.0333 56.8333 17.7667 57.9333 18.5333C65.4 23.7 70.2 31.8333 71.1667 40.8C71.3 42.1667 70.3333 43.4 68.9333 43.5667C68.9 43.5667 68.8 43.5667 68.7333 43.5667Z" fill="#2E58EA"/>
<path id="Vector_2" d="M11.6333 43.7333C11.5333 43.7333 11.4667 43.7333 11.3667 43.7333C9.99999 43.5667 8.99999 42.3333 9.13332 40.9667C10.0333 32 14.8 23.9 22.1667 18.6667C23.3 17.8667 24.8667 18.1333 25.6667 19.2667C26.4667 20.4 26.2 21.9667 25.0667 22.7667C18.8667 27.1333 14.8667 33.9667 14.1 41.5C14 42.7667 12.9 43.7333 11.6333 43.7333Z" fill="#2E58EA"/>
<path id="Vector_3" d="M40.2 75.3667C35.2667 75.3667 30.5667 74.2333 26.1667 72.0333C24.9334 71.4 24.4334 69.9 25.0667 68.6667C25.7 67.4333 27.2 66.9333 28.4334 67.5667C35.6334 71.2 44.3 71.2667 51.5667 67.7667C52.8 67.1667 54.3 67.7 54.9 68.9333C55.5 70.1667 54.9667 71.6667 53.7334 72.2667C49.4667 74.3333 44.9334 75.3667 40.2 75.3667Z" fill="#2E58EA"/>
<path id="Vector_4" d="M40.2 28.1333C33.7 28.1333 28.4333 22.8667 28.4333 16.3667C28.4333 9.86667 33.7 4.60001 40.2 4.60001C46.7 4.60001 51.9667 9.86667 51.9667 16.3667C51.9667 22.8667 46.6667 28.1333 40.2 28.1333ZM40.2 9.63334C36.4667 9.63334 33.4333 12.6667 33.4333 16.4C33.4333 20.1333 36.4667 23.1667 40.2 23.1667C43.9334 23.1667 46.9667 20.1333 46.9667 16.4C46.9667 12.6667 43.9 9.63334 40.2 9.63334Z" fill="#2E58EA"/>
<path id="Vector_5" d="M16.1 68.9C9.59998 68.9 4.33331 63.6333 4.33331 57.1333C4.33331 50.6667 9.59998 45.3667 16.1 45.3667C22.6 45.3667 27.8666 50.6333 27.8666 57.1333C27.8666 63.6 22.6 68.9 16.1 68.9ZM16.1 50.3667C12.3666 50.3667 9.33331 53.4 9.33331 57.1333C9.33331 60.8667 12.3666 63.9 16.1 63.9C19.8333 63.9 22.8666 60.8667 22.8666 57.1333C22.8666 53.4 19.8333 50.3667 16.1 50.3667Z" fill="#2E58EA"/>
<path id="Vector_6" d="M63.9 68.9C57.4 68.9 52.1334 63.6333 52.1334 57.1333C52.1334 50.6667 57.4 45.3667 63.9 45.3667C70.4 45.3667 75.6667 50.6333 75.6667 57.1333C75.6334 63.6 70.3667 68.9 63.9 68.9ZM63.9 50.3667C60.1667 50.3667 57.1334 53.4 57.1334 57.1333C57.1334 60.8667 60.1667 63.9 63.9 63.9C67.6334 63.9 70.6667 60.8667 70.6667 57.1333C70.6334 53.4 67.6334 50.3667 63.9 50.3667Z" fill="#2E58EA"/>
</g>
</g>
</svg>
