<svg width="40" height="40" viewBox="0 0 40 40" fill="none" xmlns="http://www.w3.org/2000/svg">
<g id="Group">
<path id="Vector" d="M20.0002 36.6663C10.7952 36.6663 3.3335 29.2047 3.3335 19.9997C3.3335 10.7947 10.7952 3.33301 20.0002 3.33301C29.2052 3.33301 36.6668 10.7947 36.6668 19.9997C36.6668 29.2047 29.2052 36.6663 20.0002 36.6663ZM14.8168 21.9497L14.8385 21.938L16.2885 26.7213C16.4752 27.2397 16.7318 27.333 17.0435 27.2897C17.3568 27.248 17.5218 27.0797 17.7268 26.883L19.7068 24.9697L23.9568 28.1163C24.7335 28.5447 25.2918 28.323 25.4852 27.3963L28.2468 14.3597C28.5518 13.1463 28.0185 12.6597 27.0768 13.0463L10.8552 19.313C9.7485 19.7563 9.75516 20.3763 10.6552 20.6513L14.8168 21.9513V21.9497Z" fill="#777E90"/>
</g>
</svg>
