<svg width="111" height="107" viewBox="0 0 111 107" fill="none" xmlns="http://www.w3.org/2000/svg">
<g id="Group">
<path id="Vector" d="M58.3577 10.1627C58.3577 10.1627 61.2342 28.6608 92.242 29.1714C119.78 29.6247 111.028 62.378 101.253 72.6771C88.5904 86.0185 63.7745 82.5285 62.472 98.0573C61.1695 113.586 26.185 107.557 26.7808 84.144C27.5221 55.0187 11.5686 63.875 3.49224 56.0843C-2.30424 50.4929 -0.311836 24.6103 18.061 21.6471C33.5213 19.1536 32.7198 12.6034 33.949 7.75425C35.7215 0.760814 53.6442 -5.57422 58.3577 10.1627Z" fill="#DEE9FF"/>
<g id="Group_2">
<path id="Vector_2" d="M87.5288 76.0099C87.5304 76.4799 87.4393 76.9455 87.2606 77.3802C87.0819 77.8149 86.8191 78.21 86.4874 78.543C86.1557 78.8759 85.7616 79.1401 85.3276 79.3205C84.8936 79.5008 84.4283 79.5937 83.9583 79.5939L26.6869 79.7102C26.2171 79.7114 25.7516 79.62 25.3171 79.4411C24.8826 79.2623 24.4876 78.9995 24.1547 78.6679C23.8219 78.3363 23.5576 77.9423 23.3772 77.5085C23.1967 77.0747 23.1035 76.6095 23.1029 76.1396L23.0225 35.8707L54.7231 15.9688C54.8649 15.8794 55.029 15.8315 55.1967 15.8307C55.3644 15.8299 55.529 15.8762 55.6716 15.9644L86.7056 35.2799L87.4483 35.7408V36.3851L87.5288 76.0099Z" fill="#208AF2"/>
<path id="Vector_3" d="M82.8553 19.4348H27.2732C27.1407 19.4348 27.0332 19.5423 27.0332 19.6748V79.1508C27.0332 79.2834 27.1407 79.3908 27.2732 79.3908H82.8553C82.9879 79.3908 83.0953 79.2834 83.0953 79.1508V19.6748C83.0953 19.5423 82.9879 19.4348 82.8553 19.4348Z" fill="#699CFF"/>
<path id="Vector_4" d="M83.9005 79.537L55.4739 57.8629C55.4511 57.8454 55.4326 57.8228 55.4202 57.7968C55.4078 57.7709 55.4017 57.7423 55.4024 57.7135C55.4031 57.6848 55.4107 57.6566 55.4245 57.6313C55.4382 57.606 55.4578 57.5844 55.4815 57.5681L87.1616 35.9155C87.1889 35.8969 87.2207 35.886 87.2537 35.8841C87.2867 35.8823 87.3196 35.8894 87.3489 35.9048C87.3781 35.9202 87.4026 35.9433 87.4198 35.9716C87.4369 35.9999 87.446 36.0323 87.446 36.0654L87.526 75.9905C87.5279 76.9284 87.1616 77.8295 86.5059 78.5001C85.8502 79.1707 84.9575 79.5572 84.0199 79.5764C83.9768 79.577 83.9348 79.5631 83.9005 79.537V79.537Z" fill="#A2BDFF"/>
<path id="Vector_5" d="M26.7346 79.6511L55.0742 57.8638C55.0971 57.8463 55.1154 57.8236 55.1277 57.7976C55.1401 57.7715 55.1461 57.743 55.1452 57.7142C55.1443 57.6854 55.1367 57.6573 55.1228 57.632C55.1089 57.6068 55.0893 57.5852 55.0654 57.569L23.2995 36.0432C23.2722 36.0247 23.2403 36.0139 23.2073 36.0122C23.1742 36.0104 23.1414 36.0177 23.1122 36.0332C23.083 36.0487 23.0586 36.0719 23.0416 36.1002C23.0245 36.1286 23.0156 36.161 23.0156 36.1941L23.0956 76.1192C23.0975 77.057 23.4673 77.9566 24.1256 78.6246C24.7839 79.2925 25.678 79.6755 26.6156 79.6911C26.6586 79.6914 26.7005 79.6774 26.7346 79.6511Z" fill="#A2BDFF"/>
<path id="Vector_6" d="M83.9532 79.5771L26.6819 79.6916C25.8155 79.6909 24.9786 79.3767 24.3258 78.8072C23.6729 78.2376 23.2481 77.451 23.1299 76.5927C23.1104 76.4464 23.1274 76.2975 23.1792 76.1593C23.231 76.021 23.3161 75.8977 23.427 75.8003L54.663 48.1654C54.8262 48.0211 55.0363 47.9412 55.2542 47.9407C55.472 47.9403 55.6825 48.0193 55.8462 48.163L87.1921 75.6727C87.3034 75.7697 87.3891 75.8927 87.4414 76.0307C87.4938 76.1688 87.5114 76.3176 87.4924 76.464C87.3777 77.3227 86.9561 78.1109 86.3056 78.6831C85.6551 79.2553 84.8195 79.5728 83.9532 79.5771V79.5771Z" fill="#418DF9"/>
<path id="Vector_7" d="M41.2605 34.2002C42.3725 34.2002 43.2739 32.9983 43.2739 31.5156C43.2739 30.033 42.3725 28.8311 41.2605 28.8311C40.1485 28.8311 39.2471 30.033 39.2471 31.5156C39.2471 32.9983 40.1485 34.2002 41.2605 34.2002Z" fill="white"/>
<path id="Vector_8" d="M69.449 34.2002C70.561 34.2002 71.4624 32.9983 71.4624 31.5156C71.4624 30.033 70.561 28.8311 69.449 28.8311C68.337 28.8311 67.4355 30.033 67.4355 31.5156C67.4355 32.9983 68.337 34.2002 69.449 34.2002Z" fill="white"/>
<path id="Vector_9" d="M62.9618 38.2441C62.8939 38.244 62.827 38.2613 62.7676 38.2942C62.7082 38.3271 62.6581 38.3746 62.6221 38.4322C62.6011 38.4655 60.4113 41.8482 55.3219 42.2722C53.2036 42.4486 51.1932 41.8588 49.3492 40.5183C48.5267 39.9278 47.7961 39.2188 47.1812 38.4143C47.12 38.3282 47.0272 38.2698 46.9231 38.2518C46.819 38.2339 46.712 38.2578 46.6255 38.3184C46.539 38.3791 46.48 38.4715 46.4614 38.5755C46.4427 38.6794 46.466 38.7866 46.526 38.8735C46.5596 38.9215 47.3643 40.059 48.8549 41.1483C50.8364 42.5963 53.0958 43.2603 55.3882 43.0696C60.8939 42.6108 63.2049 39.0091 63.3002 38.8561C63.3381 38.7956 63.359 38.726 63.3609 38.6547C63.3628 38.5833 63.3456 38.5128 63.311 38.4503C63.2765 38.3879 63.2258 38.3358 63.1643 38.2995C63.1029 38.2633 63.0328 38.2441 62.9614 38.244L62.9618 38.2441Z" fill="white"/>
</g>
</g>
</svg>
