<svg width="40" height="40" viewBox="0 0 40 40" fill="none" xmlns="http://www.w3.org/2000/svg">
<rect width="40" height="40" rx="20" fill="#3448FE"/>
<path d="M28.5 18.19H25.61C23.24 18.19 21.31 16.26 21.31 13.89V11C21.31 10.45 20.86 10 20.31 10H16.07C12.99 10 10.5 12 10.5 15.57V24.43C10.5 28 12.99 30 16.07 30H23.93C27.01 30 29.5 28 29.5 24.43V19.19C29.5 18.64 29.05 18.19 28.5 18.19ZM19.53 21.53C19.38 21.68 19.19 21.75 19 21.75C18.81 21.75 18.62 21.68 18.47 21.53L17.75 20.81V25C17.75 25.41 17.41 25.75 17 25.75C16.59 25.75 16.25 25.41 16.25 25V20.81L15.53 21.53C15.24 21.82 14.76 21.82 14.47 21.53C14.18 21.24 14.18 20.76 14.47 20.47L16.47 18.47C16.54 18.41 16.61 18.36 16.69 18.32C16.71 18.31 16.74 18.3 16.76 18.29C16.82 18.27 16.88 18.26 16.95 18.25C16.98 18.25 17 18.25 17.03 18.25C17.11 18.25 17.19 18.27 17.27 18.3C17.28 18.3 17.28 18.3 17.29 18.3C17.37 18.33 17.45 18.39 17.51 18.45C17.52 18.46 17.53 18.46 17.53 18.47L19.53 20.47C19.82 20.76 19.82 21.24 19.53 21.53Z" fill="#FCFCFD"/>
<path d="M25.4302 16.81C26.3802 16.82 27.7002 16.82 28.8302 16.82C29.4002 16.82 29.7002 16.15 29.3002 15.75C27.8602 14.3 25.2802 11.69 23.8002 10.21C23.3902 9.79999 22.6802 10.08 22.6802 10.65V14.14C22.6802 15.6 23.9202 16.81 25.4302 16.81Z" fill="#FCFCFD"/>
</svg>
