<svg width="24" height="24" viewBox="0 0 24 24" fill="none" xmlns="http://www.w3.org/2000/svg">
<g id="Group">
<path id="Vector" d="M22.1618 5.65495C21.3984 5.99264 20.5888 6.21442 19.7598 6.31295C20.6336 5.79038 21.2875 4.96796 21.5998 3.99895C20.7798 4.48695 19.8808 4.82895 18.9438 5.01395C18.3144 4.34053 17.4802 3.89391 16.5708 3.74353C15.6614 3.59316 14.7277 3.74744 13.9151 4.1824C13.1024 4.61737 12.4562 5.30863 12.0769 6.14874C11.6976 6.98885 11.6066 7.93073 11.8178 8.82795C10.1549 8.7446 8.52814 8.31247 7.0431 7.55961C5.55805 6.80675 4.24794 5.75 3.19781 4.45795C2.8261 5.0964 2.63076 5.82218 2.63181 6.56095C2.63181 8.01095 3.36981 9.29195 4.49181 10.042C3.82782 10.021 3.17844 9.84173 2.59781 9.51895V9.57095C2.59801 10.5367 2.93218 11.4726 3.54366 12.22C4.15513 12.9675 5.00629 13.4804 5.95281 13.672C5.33642 13.839 4.69012 13.8636 4.06281 13.7439C4.32968 14.5752 4.84982 15.3021 5.5504 15.8231C6.25099 16.344 7.09694 16.6327 7.96981 16.6489C7.10229 17.3303 6.10899 17.8339 5.04669 18.1311C3.98439 18.4283 2.87394 18.5132 1.77881 18.3809C3.69051 19.6104 5.9159 20.2631 8.18881 20.2609C15.8818 20.2609 20.0888 13.888 20.0888 8.36095C20.0888 8.18095 20.0838 7.99895 20.0758 7.82095C20.8947 7.22912 21.6014 6.49597 22.1628 5.65595L22.1618 5.65495Z" fill="#FCFCFD"/>
</g>
</svg>
