<svg width="25" height="25" viewBox="0 0 25 25" fill="none" xmlns="http://www.w3.org/2000/svg">
<g id="twitter">
<path id="Vector" d="M24.9622 2.44474C24.9401 2.11046 24.7199 1.82194 24.4033 1.71237C24.0867 1.6028 23.7353 1.69347 23.5112 1.94253C22.9352 2.58279 22.2072 3.01665 21.4683 3.21446C20.4407 2.25509 19.06 1.66654 17.5427 1.66654C14.2863 1.66654 11.6487 4.31009 11.6487 7.56836V8.30138C6.66331 7.91611 3.9973 4.12898 3.27792 2.20766C3.16164 1.8971 2.87229 1.68504 2.54113 1.66768C2.20997 1.65032 1.90003 1.83096 1.75191 2.12765C0.00736356 5.62213 -0.261429 9.01145 1.0065 11.8976C2.1172 14.4258 4.35092 16.4397 7.51681 17.7739C6.07798 18.7936 3.65631 19.9999 0.833398 19.9999C0.466285 19.9999 0.142416 20.2401 0.0359075 20.5914C-0.0706013 20.9428 0.0653425 21.3224 0.370654 21.5262C3.07749 23.3336 5.91441 23.3334 8.55307 23.3332L8.63383 23.3332C16.7349 23.3332 23.3 16.7562 23.3 8.64569V7.84854C23.9057 7.23291 24.3773 6.60271 24.6663 5.78801C24.9887 4.87893 25.0537 3.82483 24.9622 2.44474Z" fill="black"/>
</g>
</svg>
