<svg width="16" height="16" viewBox="0 0 16 16" fill="none" xmlns="http://www.w3.org/2000/svg">
<path d="M8.00006 15.1667C7.5534 15.1667 7.10006 15.0534 6.70006 14.8201L2.74006 12.5334C1.94006 12.0667 1.44006 11.2067 1.44006 10.2801V5.72008C1.44006 4.79341 1.94006 3.93341 2.74006 3.46674L6.70006 1.18008C7.50006 0.713411 8.4934 0.713411 9.30006 1.18008L13.2601 3.46674C14.0601 3.93341 14.5601 4.79341 14.5601 5.72008V10.2801C14.5601 11.2067 14.0601 12.0667 13.2601 12.5334L9.30006 14.8201C8.90006 15.0534 8.44673 15.1667 8.00006 15.1667ZM8.00006 1.8334C7.72673 1.8334 7.44673 1.90674 7.20006 2.04674L3.24006 4.3334C2.74673 4.62006 2.44006 5.14674 2.44006 5.72008V10.2801C2.44006 10.8467 2.74673 11.3801 3.24006 11.6667L7.20006 13.9534C7.6934 14.2401 8.30673 14.2401 8.80006 13.9534L12.7601 11.6667C13.2534 11.3801 13.5601 10.8534 13.5601 10.2801V5.72008C13.5601 5.15341 13.2534 4.62006 12.7601 4.3334L8.80006 2.04674C8.5534 1.90674 8.2734 1.8334 8.00006 1.8334Z" fill="#19A600"/>
<path d="M7.99999 7.83346C6.86666 7.83346 5.94666 6.91344 5.94666 5.78011C5.94666 4.64678 6.86666 3.72681 7.99999 3.72681C9.13332 3.72681 10.0533 4.64678 10.0533 5.78011C10.0533 6.91344 9.13332 7.83346 7.99999 7.83346ZM7.99999 4.72681C7.41999 4.72681 6.94666 5.20011 6.94666 5.78011C6.94666 6.36011 7.41999 6.83346 7.99999 6.83346C8.57999 6.83346 9.05332 6.36011 9.05332 5.78011C9.05332 5.20011 8.57999 4.72681 7.99999 4.72681Z" fill="#19A600"/>
<path d="M10.6667 11.6066C10.3934 11.6066 10.1667 11.38 10.1667 11.1066C10.1667 10.1866 9.19337 9.43335 8.00004 9.43335C6.80671 9.43335 5.83337 10.1866 5.83337 11.1066C5.83337 11.38 5.60671 11.6066 5.33337 11.6066C5.06004 11.6066 4.83337 11.38 4.83337 11.1066C4.83337 9.63332 6.25337 8.43335 8.00004 8.43335C9.74671 8.43335 11.1667 9.63332 11.1667 11.1066C11.1667 11.38 10.94 11.6066 10.6667 11.6066Z" fill="#19A600"/>
</svg>
