<svg width="24" height="24" viewBox="0 0 24 24" fill="none" xmlns="http://www.w3.org/2000/svg">
<g id="vuesax/outline/wallet-add">
<g id="wallet-add">
<path id="Vector" d="M14.5 16.1895H9.5C9.09 16.1895 8.75 15.8495 8.75 15.4395C8.75 15.0295 9.09 14.6895 9.5 14.6895H14.5C14.91 14.6895 15.25 15.0295 15.25 15.4395C15.25 15.8495 14.91 16.1895 14.5 16.1895Z" fill="#141416"/>
<path id="Vector_2" d="M12 18.75C11.59 18.75 11.25 18.41 11.25 18V13C11.25 12.59 11.59 12.25 12 12.25C12.41 12.25 12.75 12.59 12.75 13V18C12.75 18.41 12.41 18.75 12 18.75Z" fill="#141416"/>
<path id="Vector_3" d="M5.20018 10.4599C5.01018 10.4599 4.82018 10.3799 4.67018 10.2399C4.46018 10.0299 4.39018 9.69988 4.51018 9.41988L6.37018 4.97988C6.41018 4.88988 6.43018 4.82988 6.46018 4.77988C7.94018 1.36988 9.83018 0.539877 13.1702 1.81988C13.3602 1.88988 13.5102 2.03988 13.5902 2.22988C13.6702 2.41988 13.6702 2.62988 13.5902 2.81988L10.6602 9.61988C10.5402 9.88988 10.2702 10.0699 9.97018 10.0699H7.12018C6.55018 10.0699 6.01018 10.1799 5.49018 10.3999C5.40018 10.4399 5.30018 10.4599 5.20018 10.4599ZM10.6102 2.74988C9.37018 2.74988 8.61018 3.55988 7.82018 5.39988C7.81018 5.42988 7.79018 5.45988 7.78018 5.48988L6.47018 8.59988C6.69018 8.57988 6.90018 8.56988 7.12018 8.56988H9.47018L11.8802 2.96988C11.4102 2.81988 10.9902 2.74988 10.6102 2.74988Z" fill="#141416"/>
<path id="Vector_4" d="M18.2902 10.2705C18.2202 10.2705 18.1402 10.2605 18.0702 10.2405C17.7002 10.1305 17.2902 10.0705 16.8702 10.0705H9.97023C9.72023 10.0705 9.48023 9.94051 9.34023 9.73051C9.21023 9.52051 9.18023 9.25051 9.28023 9.02051L12.1802 2.29051C12.3302 1.93051 12.7702 1.69051 13.1402 1.81051C13.2602 1.85051 13.3702 1.90051 13.4902 1.95051L15.8502 2.94051C17.2302 3.51051 18.1502 4.11051 18.7502 4.83051C18.8702 4.97051 18.9702 5.12051 19.0602 5.27051C19.1702 5.44051 19.2702 5.65051 19.3402 5.86051C19.3702 5.93051 19.4202 6.06051 19.4502 6.20051C19.7302 7.14051 19.5902 8.31051 18.9902 9.81051C18.8702 10.0905 18.5902 10.2705 18.2902 10.2705ZM11.1102 8.57051H16.8802C17.2002 8.57051 17.5102 8.60051 17.8202 8.65051C18.1002 7.78051 18.1602 7.11051 18.0002 6.57051C17.9802 6.48051 17.9602 6.44051 17.9502 6.40051C17.8902 6.24051 17.8502 6.15051 17.8002 6.07051C17.7302 5.96051 17.6802 5.87051 17.6002 5.78051C17.1702 5.26051 16.4102 4.78051 15.2802 4.32051L13.3002 3.49051L11.1102 8.57051Z" fill="#141416"/>
<path id="Vector_5" d="M15.9 22.7503H8.1C7.82 22.7503 7.56 22.7303 7.3 22.7003C3.79 22.4603 1.79 20.4603 1.55 16.9103C1.52 16.6903 1.5 16.4203 1.5 16.1503V14.2003C1.5 11.9503 2.84 9.92031 4.91 9.02031C5.61 8.72031 6.36 8.57031 7.13 8.57031H16.89C17.46 8.57031 18.01 8.65031 18.52 8.81031C20.87 9.52031 22.52 11.7403 22.52 14.2003V16.1503C22.52 16.3703 22.51 16.5803 22.5 16.7803C22.28 20.6903 20 22.7503 15.9 22.7503ZM7.12 10.0703C6.55 10.0703 6.01 10.1803 5.49 10.4003C3.97 11.0603 2.99 12.5503 2.99 14.2003V16.1503C2.99 16.3603 3.01 16.5703 3.03 16.7703C3.22 19.6203 4.62 21.0203 7.43 21.2103C7.68 21.2403 7.88 21.2603 8.09 21.2603H15.89C19.19 21.2603 20.81 19.8103 20.97 16.7103C20.98 16.5303 20.99 16.3503 20.99 16.1503V14.2003C20.99 12.3903 19.78 10.7703 18.06 10.2403C17.69 10.1303 17.28 10.0703 16.86 10.0703H7.12Z" fill="#141416"/>
<path id="Vector_6" d="M2.24023 14.9498C1.83023 14.9498 1.49023 14.6098 1.49023 14.1998V11.2698C1.49023 8.1198 3.72023 5.3998 6.80023 4.7998C7.07023 4.7498 7.35023 4.8498 7.53023 5.0598C7.70023 5.2698 7.75023 5.5698 7.64023 5.8198L5.89023 9.9998C5.81023 10.1798 5.67023 10.3198 5.50023 10.3998C3.98023 11.0598 3.00023 12.5498 3.00023 14.1998C2.99023 14.6098 2.66023 14.9498 2.24023 14.9498ZM5.60023 6.8198C4.32023 7.5398 3.39023 8.7998 3.10023 10.2698C3.54023 9.8198 4.05023 9.4398 4.63023 9.1598L5.60023 6.8198Z" fill="#141416"/>
<path id="Vector_7" d="M21.7601 14.9498C21.3501 14.9498 21.0101 14.6098 21.0101 14.1998C21.0101 12.3898 19.8001 10.7698 18.0801 10.2398C17.8801 10.1798 17.7101 10.0398 17.6201 9.84978C17.5301 9.65978 17.5201 9.43978 17.6001 9.24978C18.0701 8.07978 18.1901 7.22978 18.0001 6.56978C17.9801 6.47978 17.9601 6.43978 17.9501 6.39978C17.8201 6.10978 17.8901 5.76978 18.1201 5.54978C18.3501 5.32978 18.7001 5.27978 18.9801 5.42978C21.1601 6.56978 22.5101 8.80978 22.5101 11.2698V14.1998C22.5101 14.6098 22.1701 14.9498 21.7601 14.9498ZM19.2501 9.08978C19.8801 9.37978 20.4401 9.78978 20.9101 10.2798C20.7201 9.29978 20.2501 8.40978 19.5601 7.70978C19.5101 8.12978 19.4101 8.58978 19.2501 9.08978Z" fill="#141416"/>
</g>
</g>
</svg>
