<svg width="28" height="26" viewBox="0 0 28 26" fill="none" xmlns="http://www.w3.org/2000/svg">
<g id="phone">
<path id="Vector 2186 (Stroke)" fill-rule="evenodd" clip-rule="evenodd" d="M0 4.26481C0 1.90942 2.04904 0 4.57667 0H8.63933C9.89937 0 10.9977 0.799134 11.3033 1.93827L12.3762 5.93722C12.7242 7.23441 11.9418 8.56258 10.5805 8.98542L8.55099 9.61583C7.92964 9.80883 7.55975 10.4028 7.6882 11.0013C8.49218 14.7473 11.6344 17.6754 15.6543 18.4246C16.2965 18.5443 16.9339 18.1996 17.141 17.6206L17.6862 16.0967C18.2146 14.6194 20.0246 13.9207 21.5193 14.6171L25.942 16.6778C26.8724 17.1113 27.46 17.9973 27.46 18.9665V21.3241C27.46 23.6795 25.411 25.5889 22.8833 25.5889H19.222C8.60598 25.5889 0 17.5693 0 7.67667V4.26481ZM4.57667 1.70593C3.06009 1.70593 1.83067 2.85158 1.83067 4.26481V7.67667C1.83067 16.6272 9.61703 23.883 19.222 23.883H22.8833C24.3999 23.883 25.6293 22.7373 25.6293 21.3241V18.9665C25.6293 18.6435 25.4334 18.3481 25.1234 18.2036L20.7006 16.1429C20.2024 15.9108 19.599 16.1437 19.4229 16.6361L18.8778 18.16C18.3787 19.5552 16.8428 20.3858 15.2953 20.0974C10.5507 19.2131 6.842 15.7571 5.89309 11.3358C5.58357 9.89372 6.47486 8.46251 7.97209 7.99745L10.0016 7.36703C10.4554 7.22609 10.7162 6.78336 10.6002 6.35097L9.52733 2.35201C9.42546 1.9723 9.05934 1.70593 8.63933 1.70593H4.57667Z" fill="white"/>
</g>
</svg>
