<svg width="28" height="29" viewBox="0 0 28 29" fill="none" xmlns="http://www.w3.org/2000/svg">
<g id="pin">
<path id="Vector (Stroke)" fill-rule="evenodd" clip-rule="evenodd" d="M13.73 1.87652C8.16998 1.87652 3.66136 6.4959 3.66136 12.19C3.66136 16.5486 5.78806 20.0744 8.19855 22.5437C9.40079 23.7753 10.6549 24.7234 11.7062 25.3585C12.2322 25.6763 12.6966 25.9091 13.0685 26.0596C13.4672 26.2209 13.679 26.2541 13.73 26.2541C13.7811 26.2541 13.9928 26.2209 14.3915 26.0596C14.7635 25.9091 15.2279 25.6763 15.7538 25.3585C16.8051 24.7234 18.0593 23.7753 19.2615 22.5437C21.672 20.0744 23.7987 16.5486 23.7987 12.19C23.7987 6.4959 19.2901 1.87652 13.73 1.87652ZM1.83069 12.19C1.83069 5.45836 7.16007 0 13.73 0C20.3 0 25.6294 5.45836 25.6294 12.19C25.6294 17.2079 23.1794 21.1832 20.5556 23.871C19.2406 25.218 17.8632 26.2624 16.6833 26.9751C16.0937 27.3313 15.5427 27.6113 15.0636 27.8051C14.6114 27.9881 14.1366 28.1306 13.73 28.1306C13.3234 28.1306 12.8487 27.9881 12.3964 27.8051C11.9174 27.6113 11.3663 27.3313 10.7767 26.9751C9.59688 26.2624 8.21942 25.218 6.90449 23.871C4.28065 21.1832 1.83069 17.2079 1.83069 12.19ZM9.15336 12.19C9.15336 9.60089 11.204 7.50115 13.73 7.50115C16.256 7.50115 18.3067 9.60089 18.3067 12.19C18.3067 14.7791 16.2561 16.8789 13.73 16.8789C11.204 16.8789 9.15336 14.7791 9.15336 12.19ZM13.73 9.37767C12.2139 9.37767 10.984 10.6384 10.984 12.19C10.984 13.7416 12.2139 15.0024 13.73 15.0024C15.2461 15.0024 16.476 13.7416 16.476 12.19C16.476 10.6384 15.2461 9.37767 13.73 9.37767Z" fill="white"/>
</g>
</svg>
