<svg width="35" height="23" viewBox="0 0 35 23" fill="none" xmlns="http://www.w3.org/2000/svg">
<path id="Vector" fill-rule="evenodd" clip-rule="evenodd" d="M23.0304 0.707106C23.421 0.316582 24.0541 0.316582 24.4447 0.707106L34.7029 10.9653C35.0934 11.3559 35.0934 11.989 34.7029 12.3796L24.4447 22.6378C24.0541 23.0283 23.421 23.0283 23.0304 22.6378L22.5488 22.1562C22.1583 21.7656 22.1583 21.1325 22.5488 20.7419L28.5706 14.7201C29.2006 14.0902 28.7544 13.013 27.8635 13.013H1C0.447715 13.013 0 12.5653 0 12.013V11.3319C0 10.7796 0.447716 10.3319 1 10.3319H27.8635C28.7544 10.3319 29.2006 9.25474 28.5706 8.62478L22.5488 2.60295C22.1583 2.21243 22.1583 1.57926 22.5488 1.18874L23.0304 0.707106Z" fill="white"/>
</svg>
