<svg width="20" height="20" viewBox="0 0 20 20" fill="none" xmlns="http://www.w3.org/2000/svg">
<path d="M17.5 5.60839C17.4833 5.60839 17.4583 5.60839 17.4333 5.60839C13.025 5.16673 8.62499 5.00006 4.26666 5.44173L2.56666 5.60839C2.21666 5.64173 1.90832 5.39173 1.87499 5.04173C1.84166 4.69173 2.09166 4.39173 2.43332 4.35839L4.13332 4.19173C8.56666 3.74173 13.0583 3.91673 17.5583 4.35839C17.9 4.39173 18.15 4.70006 18.1167 5.04173C18.0917 5.36673 17.8167 5.60839 17.5 5.60839Z" fill="#353945"/>
<path d="M7.08332 4.76699C7.04999 4.76699 7.01665 4.76699 6.97499 4.75866C6.64165 4.70033 6.40832 4.37533 6.46665 4.04199L6.64999 2.95033C6.78332 2.15033 6.96665 1.04199 8.90832 1.04199H11.0917C13.0417 1.04199 13.225 2.19199 13.35 2.95866L13.5333 4.04199C13.5917 4.38366 13.3583 4.70866 13.025 4.75866C12.6833 4.81699 12.3583 4.58366 12.3083 4.25033L12.125 3.16699C12.0083 2.44199 11.9833 2.30033 11.1 2.30033H8.91665C8.03332 2.30033 8.01665 2.41699 7.89165 3.15866L7.69999 4.24199C7.64999 4.55033 7.38332 4.76699 7.08332 4.76699Z" fill="#353945"/>
<path d="M12.675 18.9586H7.325C4.41666 18.9586 4.3 17.3503 4.20833 16.0503L3.66666 7.65864C3.64166 7.31697 3.90833 7.01697 4.25 6.99197C4.6 6.97531 4.89166 7.23364 4.91666 7.57531L5.45833 15.967C5.55 17.2336 5.58333 17.7086 7.325 17.7086H12.675C14.425 17.7086 14.4583 17.2336 14.5417 15.967L15.0833 7.57531C15.1083 7.23364 15.4083 6.97531 15.75 6.99197C16.0917 7.01697 16.3583 7.30864 16.3333 7.65864L15.7917 16.0503C15.7 17.3503 15.5833 18.9586 12.675 18.9586Z" fill="#292D32"/>
<path d="M11.3833 14.375H8.60834C8.26667 14.375 7.98334 14.0917 7.98334 13.75C7.98334 13.4083 8.26667 13.125 8.60834 13.125H11.3833C11.725 13.125 12.0083 13.4083 12.0083 13.75C12.0083 14.0917 11.725 14.375 11.3833 14.375Z" fill="#292D32"/>
<path d="M12.0834 11.042H7.91669C7.57502 11.042 7.29169 10.7587 7.29169 10.417C7.29169 10.0753 7.57502 9.79199 7.91669 9.79199H12.0834C12.425 9.79199 12.7084 10.0753 12.7084 10.417C12.7084 10.7587 12.425 11.042 12.0834 11.042Z" fill="#292D32"/>
</svg>
