<svg width="50" height="50" viewBox="0 0 50 50" fill="none" xmlns="http://www.w3.org/2000/svg">
<g id="vuesax/bold/messages-3">
<g id="messages-3">
<path id="Vector" d="M32.4792 25.8333V34.3125C32.4792 35.0625 32.3959 35.7708 32.2084 36.4167C31.4376 39.4792 28.8959 41.3958 25.3959 41.3958H19.7292L13.4376 45.5833C12.5001 46.2292 11.2501 45.5417 11.2501 44.4167V41.3958C9.12508 41.3958 7.35425 40.6875 6.12508 39.4583C4.87508 38.2083 4.16675 36.4375 4.16675 34.3125V25.8333C4.16675 21.875 6.62508 19.1458 10.4167 18.7917C10.6876 18.7708 10.9584 18.75 11.2501 18.75H25.3959C29.6459 18.75 32.4792 21.5833 32.4792 25.8333Z" fill="#05D281"/>
<path id="Vector_2" d="M36.9792 32.4993C39.6251 32.4993 41.8542 31.6243 43.3959 30.0618C44.9584 28.5202 45.8334 26.291 45.8334 23.6452V13.0202C45.8334 8.12435 41.8751 4.16602 36.9792 4.16602H19.2709C14.3751 4.16602 10.4167 8.12435 10.4167 13.0202V14.5827C10.4167 15.166 10.8751 15.6243 11.4584 15.6243H25.3959C31.0417 15.6243 35.6042 20.1868 35.6042 25.8327V31.4577C35.6042 32.041 36.0626 32.4993 36.6459 32.4993H36.9792Z" fill="#05D281"/>
</g>
</g>
</svg>
