<svg width="44" height="44" viewBox="0 0 44 44" fill="none" xmlns="http://www.w3.org/2000/svg">
<path d="M22.0001 3.66602C11.8801 3.66602 3.66675 11.8793 3.66675 21.9993C3.66675 32.1193 11.8801 40.3327 22.0001 40.3327C32.1201 40.3327 40.3334 32.1193 40.3334 21.9993C40.3334 11.8793 32.1201 3.66602 22.0001 3.66602ZM12.3751 25.9227C12.3751 26.6743 11.7517 27.2977 11.0001 27.2977C10.2484 27.2977 9.62508 26.6743 9.62508 25.9227V18.076C9.62508 17.3243 10.2484 16.701 11.0001 16.701C11.7517 16.701 12.3751 17.3243 12.3751 18.076V25.9227ZM17.8751 28.5443C17.8751 29.296 17.2517 29.9193 16.5001 29.9193C15.7484 29.9193 15.1251 29.296 15.1251 28.5443V15.4543C15.1251 14.7027 15.7484 14.0793 16.5001 14.0793C17.2517 14.0793 17.8751 14.7027 17.8751 15.4543V28.5443ZM23.3751 31.166C23.3751 31.9177 22.7517 32.541 22.0001 32.541C21.2484 32.541 20.6251 31.9177 20.6251 31.166V12.8327C20.6251 12.081 21.2484 11.4577 22.0001 11.4577C22.7517 11.4577 23.3751 12.081 23.3751 12.8327V31.166ZM28.8751 28.5443C28.8751 29.296 28.2517 29.9193 27.5001 29.9193C26.7484 29.9193 26.1251 29.296 26.1251 28.5443V15.4543C26.1251 14.7027 26.7484 14.0793 27.5001 14.0793C28.2517 14.0793 28.8751 14.7027 28.8751 15.4543V28.5443ZM34.3751 25.9227C34.3751 26.6743 33.7517 27.2977 33.0001 27.2977C32.2484 27.2977 31.6251 26.6743 31.6251 25.9227V18.076C31.6251 17.3243 32.2484 16.701 33.0001 16.701C33.7517 16.701 34.3751 17.3243 34.3751 18.076V25.9227Z" fill="#6686F6"/>
</svg>
