<svg width="61" height="60" viewBox="0 0 61 60" fill="none" xmlns="http://www.w3.org/2000/svg">
<g id="vuesax/outline/buildings">
<g id="buildings">
<path id="Vector" d="M33 56.875H13C6.95 56.875 3.625 53.55 3.625 47.5V27.5C3.625 21.45 6.95 18.125 13 18.125H25.5C26.525 18.125 27.375 18.975 27.375 20V47.5C27.375 51.45 29.05 53.125 33 53.125C34.025 53.125 34.875 53.975 34.875 55C34.875 56.025 34.025 56.875 33 56.875ZM13 21.875C9.05 21.875 7.375 23.55 7.375 27.5V47.5C7.375 51.45 9.05 53.125 13 53.125H25C24.1 51.65 23.625 49.775 23.625 47.5V21.875H13Z" fill="#FCFCFD"/>
<path id="Vector_2" d="M25.5 21.875H13C11.975 21.875 11.125 21.025 11.125 20V15C11.125 11.2 14.2 8.125 18 8.125H25.775C26.35 8.125 26.9 8.39995 27.25 8.84995C27.6 9.32495 27.725 9.92501 27.575 10.475C27.425 11.025 27.375 11.65 27.375 12.5V20C27.375 21.025 26.525 21.875 25.5 21.875ZM14.875 18.125H23.625V12.5C23.625 12.275 23.625 12.075 23.625 11.875H18C16.275 11.875 14.875 13.275 14.875 15V18.125Z" fill="#FCFCFD"/>
<path id="Vector_3" d="M35.5 34.375C34.475 34.375 33.625 33.525 33.625 32.5V20C33.625 18.975 34.475 18.125 35.5 18.125C36.525 18.125 37.375 18.975 37.375 20V32.5C37.375 33.525 36.525 34.375 35.5 34.375Z" fill="#FAFBFF"/>
<path id="Vector_4" d="M45.5 34.375C44.475 34.375 43.625 33.525 43.625 32.5V20C43.625 18.975 44.475 18.125 45.5 18.125C46.525 18.125 47.375 18.975 47.375 20V32.5C47.375 33.525 46.525 34.375 45.5 34.375Z" fill="#FAFBFF"/>
<path id="Vector_5" d="M45.5 56.875H35.5C34.475 56.875 33.625 56.025 33.625 55V45C33.625 42.6 35.6 40.625 38 40.625H43C45.4 40.625 47.375 42.6 47.375 45V55C47.375 56.025 46.525 56.875 45.5 56.875ZM37.375 53.125H43.625V45C43.625 44.65 43.35 44.375 43 44.375H38C37.65 44.375 37.375 44.65 37.375 45V53.125Z" fill="#FAFBFF"/>
<path id="Vector_6" d="M15.5 44.375C14.475 44.375 13.625 43.525 13.625 42.5V32.5C13.625 31.475 14.475 30.625 15.5 30.625C16.525 30.625 17.375 31.475 17.375 32.5V42.5C17.375 43.525 16.525 44.375 15.5 44.375Z" fill="#FCFCFD"/>
<path id="Vector_7" d="M48 56.875H33C26.95 56.875 23.625 53.55 23.625 47.5V12.5C23.625 6.45 26.95 3.125 33 3.125H48C54.05 3.125 57.375 6.45 57.375 12.5V47.5C57.375 53.55 54.05 56.875 48 56.875ZM33 6.875C29.05 6.875 27.375 8.55 27.375 12.5V47.5C27.375 51.45 29.05 53.125 33 53.125H48C51.95 53.125 53.625 51.45 53.625 47.5V12.5C53.625 8.55 51.95 6.875 48 6.875H33Z" fill="#FAFBFF"/>
</g>
</g>
</svg>
