<svg width="61" height="60" viewBox="0 0 61 60" fill="none" xmlns="http://www.w3.org/2000/svg">
<g id="vuesax/outline/lovely">
<g id="lovely">
<path id="Vector" d="M28.133 49.375C27.408 49.375 26.708 49.275 26.133 49.05C17.583 46.125 3.95801 35.675 3.95801 20.225C3.95801 12.3 10.358 5.875 18.233 5.875C22.008 5.875 25.533 7.32496 28.158 9.89996C30.808 7.32496 34.308 5.875 38.083 5.875C45.958 5.875 52.358 12.3 52.358 20.225C52.358 21.3 52.283 22.4 52.133 23.525C52.058 24.1 51.708 24.625 51.208 24.925C50.708 25.225 50.083 25.25 49.533 25.025C46.458 23.7 42.633 24.7 40.633 27.375C40.283 27.85 39.608 28.1 39.133 28.125C38.533 28.125 37.983 27.85 37.633 27.375C36.208 25.475 34.033 24.4 31.683 24.4C27.608 24.4 24.283 27.75 24.283 31.875C24.283 38.375 28.008 43 31.158 45.775C31.608 46.175 31.833 46.75 31.783 47.35C31.733 47.95 31.408 48.475 30.883 48.8C30.608 48.95 30.383 49.05 30.258 49.075C29.608 49.275 28.883 49.375 28.133 49.375ZM18.233 9.625C12.433 9.625 7.70801 14.375 7.70801 20.225C7.70801 33.3 18.583 41.35 24.833 44.45C22.458 41.275 20.508 37.075 20.508 31.85C20.508 25.65 25.508 20.625 31.658 20.625C34.458 20.625 37.083 21.65 39.108 23.475C41.633 21.225 45.233 20.2 48.583 20.825C48.583 20.625 48.583 20.425 48.583 20.25C48.583 14.4 43.858 9.64995 38.058 9.64995C34.733 9.64995 31.658 11.2 29.633 13.875C29.283 14.35 28.733 14.625 28.133 14.625C27.533 14.625 26.983 14.35 26.633 13.875C24.658 11.175 21.583 9.625 18.233 9.625Z" fill="#FCFCFD"/>
<path id="Vector_2" d="M39.1336 54.125C38.5586 54.125 37.9586 54.05 37.4836 53.875C35.3336 53.15 31.8586 51.375 28.6836 48.55C24.9836 45.275 20.5586 39.725 20.5586 31.85C20.5586 25.65 25.5586 20.625 31.7086 20.625C34.5086 20.625 37.1335 21.65 39.1585 23.475C42.3085 20.65 47.1085 19.85 51.0585 21.575C55.1085 23.375 57.7336 27.425 57.7336 31.875C57.7336 43.725 47.3336 51.675 40.7836 53.9C40.2836 54.05 39.7086 54.125 39.1336 54.125ZM31.6835 24.375C27.6085 24.375 24.2836 27.725 24.2836 31.85C24.2836 38.35 28.0086 42.975 31.1586 45.75C33.9336 48.2 36.8586 49.725 38.6836 50.325C38.8836 50.4 39.3586 50.4 39.5336 50.325C43.2836 49.05 53.9586 42.925 53.9586 31.85C53.9586 28.875 52.2086 26.175 49.5336 25C46.5086 23.675 42.6336 24.675 40.6336 27.35C40.2836 27.825 39.6086 28.075 39.1336 28.1C38.5336 28.1 37.9836 27.825 37.6336 27.35C36.2086 25.45 34.0335 24.375 31.6835 24.375Z" fill="#FCFCFD"/>
</g>
</g>
</svg>
