<svg width="61" height="60" viewBox="0 0 61 60" fill="none" xmlns="http://www.w3.org/2000/svg">
<g id="vuesax/outline/home-trend-up">
<g id="home-trend-up">
<path id="Vector" d="M44.642 56.8515H15.692C8.84199 56.8515 3.29199 51.2765 3.29199 44.4265V25.9015C3.29199 22.5015 5.39199 18.2265 8.09199 16.1265L21.567 5.6265C25.617 2.4765 32.092 2.3265 36.292 5.2765L51.742 16.1015C54.717 18.1765 57.042 22.6265 57.042 26.2515V44.4515C57.042 51.2765 51.492 56.8515 44.642 56.8515ZM23.867 8.5765L10.392 19.0765C8.61699 20.4765 7.04199 23.6515 7.04199 25.9015V44.4265C7.04199 49.2015 10.917 53.1015 15.692 53.1015H44.642C49.417 53.1015 53.292 49.2265 53.292 44.4515V26.2515C53.292 23.8515 51.567 20.5265 49.592 19.1765L34.142 8.3515C31.292 6.3515 26.592 6.4515 23.867 8.5765Z" fill="#FCFCFD"/>
<path id="Vector_2" d="M18.9166 43.1266C18.4416 43.1266 17.9666 42.9516 17.5916 42.5766C16.8666 41.8516 16.8666 40.6516 17.5916 39.9266L25.5916 31.9266C25.9916 31.5266 26.5166 31.3266 27.0916 31.3766C27.6416 31.4266 28.1416 31.7266 28.4666 32.2016L31.1916 36.3016L40.0666 27.4266C40.7916 26.7016 41.9916 26.7016 42.7166 27.4266C43.4416 28.1516 43.4416 29.3516 42.7166 30.0766L32.2166 40.5766C31.8166 40.9766 31.2916 41.1766 30.7166 41.1266C30.1666 41.0766 29.6666 40.7766 29.3416 40.3016L26.6166 36.2016L20.2416 42.5766C19.8666 42.9516 19.3916 43.1266 18.9166 43.1266Z" fill="#FAFBFF"/>
<path id="Vector_3" d="M41.417 35.625C40.392 35.625 39.542 34.775 39.542 33.75V30.625H36.417C35.392 30.625 34.542 29.775 34.542 28.75C34.542 27.725 35.392 26.875 36.417 26.875H41.417C42.442 26.875 43.292 27.725 43.292 28.75V33.75C43.292 34.775 42.442 35.625 41.417 35.625Z" fill="#FAFBFF"/>
</g>
</g>
</svg>
