<svg width="61" height="60" viewBox="0 0 61 60" fill="none" xmlns="http://www.w3.org/2000/svg">
<g id="vuesax/outline/task-square">
<g id="task-square">
<path id="Vector" d="M44.5498 24.0508H31.4248C30.3998 24.0508 29.5498 23.2008 29.5498 22.1758C29.5498 21.1508 30.3998 20.3008 31.4248 20.3008H44.5498C45.5748 20.3008 46.4248 21.1508 46.4248 22.1758C46.4248 23.2008 45.5998 24.0508 44.5498 24.0508Z" fill="#FCFCFD"/>
<path id="Vector_2" d="M18.3004 25.9508C17.8254 25.9508 17.3504 25.7758 16.9754 25.4008L15.1004 23.5258C14.3754 22.8008 14.3754 21.6008 15.1004 20.8758C15.8254 20.1508 17.0254 20.1508 17.7504 20.8758L18.3004 21.4258L22.6004 17.1258C23.3254 16.4008 24.5254 16.4008 25.2504 17.1258C25.9754 17.8508 25.9754 19.0508 25.2504 19.7758L19.6254 25.4008C19.2754 25.7508 18.8004 25.9508 18.3004 25.9508Z" fill="#FCFCFD"/>
<path id="Vector_3" d="M44.5498 41.5508H31.4248C30.3998 41.5508 29.5498 40.7008 29.5498 39.6758C29.5498 38.6508 30.3998 37.8008 31.4248 37.8008H44.5498C45.5748 37.8008 46.4248 38.6508 46.4248 39.6758C46.4248 40.7008 45.5998 41.5508 44.5498 41.5508Z" fill="#FCFCFD"/>
<path id="Vector_4" d="M18.3004 43.4508C17.8254 43.4508 17.3504 43.2758 16.9754 42.9008L15.1004 41.0258C14.3754 40.3008 14.3754 39.1008 15.1004 38.3758C15.8254 37.6508 17.0254 37.6508 17.7504 38.3758L18.3004 38.9258L22.6004 34.6258C23.3254 33.9008 24.5254 33.9008 25.2504 34.6258C25.9754 35.3508 25.9754 36.5508 25.2504 37.2758L19.6254 42.9008C19.2754 43.2508 18.8004 43.4508 18.3004 43.4508Z" fill="#FCFCFD"/>
<path id="Vector_5" d="M38 56.875H23C9.425 56.875 3.625 51.075 3.625 37.5V22.5C3.625 8.925 9.425 3.125 23 3.125H38C51.575 3.125 57.375 8.925 57.375 22.5V37.5C57.375 51.075 51.575 56.875 38 56.875ZM23 6.875C11.475 6.875 7.375 10.975 7.375 22.5V37.5C7.375 49.025 11.475 53.125 23 53.125H38C49.525 53.125 53.625 49.025 53.625 37.5V22.5C53.625 10.975 49.525 6.875 38 6.875H23Z" fill="#FCFCFD"/>
</g>
</g>
</svg>
