<svg width="61" height="60" viewBox="0 0 61 60" fill="none" xmlns="http://www.w3.org/2000/svg">
<g id="vuesax/outline/coin">
<g id="coin">
<path id="Vector" d="M27.6 33.85H23.85C20.975 33.85 18.65 31.45 18.65 28.475C18.65 27.45 19.5 26.6 20.525 26.6C21.55 26.6 22.4 27.45 22.4 28.475C22.4 29.375 23.05 30.1 23.85 30.1H27.6C28.175 30.1 28.625 29.575 28.625 28.925C28.625 28.05 28.475 28 27.9 27.8L21.875 25.7C19.7 24.95 18.625 23.425 18.625 21.05C18.625 18.35 20.775 16.125 23.4 16.125H27.15C30.025 16.125 32.35 18.525 32.35 21.5C32.35 22.525 31.5 23.375 30.475 23.375C29.45 23.375 28.6 22.525 28.6 21.5C28.6 20.6 27.95 19.875 27.15 19.875H23.4C22.825 19.875 22.375 20.4 22.375 21.05C22.375 21.925 22.525 21.975 23.1 22.175L29.125 24.275C31.3 25.05 32.35 26.575 32.35 28.925C32.375 31.65 30.225 33.85 27.6 33.85Z" fill="#FAFBFF"/>
<path id="Vector_2" d="M25.5 35.85C24.475 35.85 23.625 35 23.625 33.975V32.125C23.625 31.1 24.475 30.25 25.5 30.25C26.525 30.25 27.375 31.1 27.375 32.125V33.975C27.375 35.025 26.525 35.85 25.5 35.85Z" fill="#FAFBFF"/>
<path id="Vector_3" d="M25.5 19.8484C24.475 19.8484 23.625 18.9984 23.625 17.9734V16.0234C23.625 14.9984 24.475 14.1484 25.5 14.1484C26.525 14.1484 27.375 14.9984 27.375 16.0234V17.9734C27.375 18.9984 26.525 19.8484 25.5 19.8484Z" fill="#FAFBFF"/>
<path id="Vector_4" d="M25.475 46.8016C13.425 46.8016 3.625 37.0016 3.625 24.9516C3.625 12.9016 13.425 3.10156 25.475 3.10156C37.525 3.10156 47.325 12.9016 47.325 24.9516C47.325 37.0016 37.5 46.8016 25.475 46.8016ZM25.475 6.87656C15.5 6.87656 7.375 15.0016 7.375 24.9766C7.375 34.9516 15.5 43.0516 25.475 43.0516C35.45 43.0516 43.575 34.9266 43.575 24.9516C43.575 14.9766 35.45 6.87656 25.475 6.87656Z" fill="#FCFCFD"/>
<path id="Vector_5" d="M43.0496 56.7997C38.4246 56.7997 34.0746 54.5497 31.3996 50.7497C30.7996 49.8997 30.9996 48.7247 31.8496 48.1247C32.6996 47.5247 33.8746 47.7247 34.4746 48.5747C36.4496 51.3747 39.6496 53.0247 43.0496 53.0247C48.8496 53.0247 53.5496 48.3247 53.5496 42.5247C53.5496 39.1497 51.8996 35.9497 49.1496 33.9747C48.2996 33.3747 48.1246 32.1997 48.7246 31.3497C49.3246 30.4997 50.4996 30.3247 51.3496 30.9247C55.0746 33.5997 57.2996 37.9247 57.2996 42.5247C57.2996 50.4247 50.9246 56.7997 43.0496 56.7997Z" fill="#FCFCFD"/>
</g>
</g>
</svg>
