<svg width="24" height="24" viewBox="0 0 24 24" fill="none" xmlns="http://www.w3.org/2000/svg">
<g id="vuesax/bold/more-circle">
<g id="more-circle">
<path id="Vector" d="M2.5 12C2.5 6.76614 6.76614 2.5 12 2.5C17.2339 2.5 21.5 6.76614 21.5 12C21.5 17.2339 17.2339 21.5 12 21.5C6.76614 21.5 2.5 17.2339 2.5 12ZM6.5 12C6.5 12.8229 7.1606 13.5 8 13.5C8.8394 13.5 9.5 12.8229 9.5 12C9.5 11.1739 8.82614 10.5 8 10.5C7.17386 10.5 6.5 11.1739 6.5 12ZM10.5 12C10.5 12.8229 11.1606 13.5 12 13.5C12.8394 13.5 13.5 12.8229 13.5 12C13.5 11.1739 12.8261 10.5 12 10.5C11.1739 10.5 10.5 11.1739 10.5 12ZM14.5 12C14.5 12.8229 15.1606 13.5 16 13.5C16.8394 13.5 17.5 12.8229 17.5 12C17.5 11.1739 16.8261 10.5 16 10.5C15.1739 10.5 14.5 11.1739 14.5 12Z" fill="#777E90" stroke="#777E90"/>
</g>
</g>
</svg>
