<svg width="915" height="969" viewBox="0 0 915 969" fill="none" xmlns="http://www.w3.org/2000/svg">
<path fill-rule="evenodd" clip-rule="evenodd" d="M52.5261 670.25L49.5887 665.449L46.6555 660.613L43.731 655.74L40.8199 650.827L37.9279 645.871L35.061 640.869L32.2271 635.819L29.4347 630.717L26.6938 625.562L24.015 620.35L21.4098 615.08L18.8909 609.75L16.4715 604.359L14.1651 598.905L11.9857 593.388L9.94819 587.809L8.06687 582.168L6.3567 576.466L4.83221 570.706L3.50796 564.89L2.39801 559.02L1.51603 553.101L0.87512 547.138L0.487403 541.135L0.364622 535.099L0.516856 529.034L0.953753 522.948L1.68334 516.848L2.71223 510.742L4.04585 504.637L5.68797 498.541L7.64088 492.463L9.90489 486.41L12.4788 480.392L15.3595 474.417L18.5425 468.492L22.022 462.626L25.7909 456.826L29.8409 451.1L34.1624 445.454L38.7449 439.895L43.5765 434.429L48.6446 429.06L53.9353 423.795L59.4343 418.636L65.1261 413.588L70.9948 408.652L77.0239 403.831L83.1963 399.126L89.4946 394.537L95.9014 390.063L102.399 385.703L108.969 381.455L115.595 377.315L122.258 373.28L128.942 369.345L135.63 365.505L142.307 361.753L148.955 358.083L155.562 354.487L162.112 350.958L168.593 347.486L174.993 344.063L181.301 340.681L187.508 337.328L193.604 333.995L199.583 330.672L205.438 327.35L211.166 324.018L216.762 320.667L222.224 317.286L227.552 313.866L232.746 310.399L237.809 306.875L242.743 303.287L247.553 299.628L252.245 295.89L256.825 292.067L261.301 288.155L265.681 284.149L269.976 280.046L274.194 275.842L278.346 271.534L282.442 267.122L286.492 262.603L290.506 257.975L294.496 253.24L298.471 248.398L302.444 243.448L306.424 238.394L310.424 233.237L314.453 227.982L318.524 222.631L322.646 217.19L326.83 211.664L331.087 206.059L335.427 200.382L339.859 194.641L344.392 188.843L349.034 182.996L353.794 177.11L358.679 171.193L363.695 165.255L368.848 159.306L374.144 153.355L379.587 147.412L385.179 141.485L390.925 135.585L396.825 129.719L402.881 123.896L409.094 118.124L415.463 112.411L421.989 106.764L428.67 101.192L435.505 95.7031L442.492 90.3049L449.63 85.0054L456.915 79.8124L464.344 74.7337L471.913 69.7766L479.62 64.9486L487.458 60.2564L495.424 55.707L503.513 51.3067L511.718 47.0617L520.034 42.9778L528.456 39.0603L536.976 35.3141L545.588 31.7439L554.286 28.3541L563.063 25.1482L571.911 22.1296L580.823 19.3012L589.793 16.6656L598.814 14.2248L607.877 11.9805L616.976 9.93385L626.104 8.08565L635.253 6.43652L644.417 4.98641L653.588 3.73523L662.761 2.68216L671.928 1.82645L681.083 1.16688L690.22 0.702136L699.332 0.430382L708.414 0.349783L717.46 0.45835L726.465 0.753714L735.422 1.23365L744.328 1.89559L753.176 2.73691L761.963 3.75506L770.682 4.94729L779.331 6.3109L787.904 7.84326L796.397 9.54234L804.805 11.4067L813.123 13.4358L821.345 15.6294L829.466 17.9879L837.479 20.5122L845.377 23.2033L853.155 26.0627L860.803 29.0919L868.315 32.2925L875.683 35.6661L882.899 39.2144L889.954 42.9386L896.84 46.8399L903.549 50.919L910.071 55.1764L916.399 59.6122L922.524 64.2256L928.438 69.0157L934.134 73.9807L939.604 79.1182L944.841 84.4252L949.839 89.8979L954.593 95.5319L959.098 101.322L963.35 107.262L967.345 113.344L971.082 119.563L974.561 125.909L977.781 132.373L980.743 138.947L983.449 145.62L985.903 152.383L988.107 159.227L990.066 166.14L991.785 173.113L993.271 180.136L994.531 187.198L995.571 194.289L996.401 201.4L997.03 208.519L997.466 215.637L997.722 222.746L997.808 229.834L997.735 236.895L997.515 243.918L997.161 250.897L996.686 257.823L996.102 264.689L995.424 271.488L994.664 278.215L993.836 284.864L992.953 291.43L992.029 297.909L991.078 304.297L990.112 310.591L989.144 316.788L988.187 322.888L987.253 328.888L986.354 334.789L985.5 340.591L984.702 346.295L983.97 351.901L983.312 357.413L982.738 362.832L982.254 368.163L981.867 373.408L981.583 378.571L981.406 383.658L981.341 388.674L981.39 393.622L981.555 398.51L981.836 403.343L982.233 408.127L982.746 412.868L983.372 417.573L984.11 422.247L984.958 426.897L985.915 431.528L986.977 436.147L988.143 440.758L989.411 445.368L990.777 449.983L992.237 454.607L993.789 459.247L995.428 463.907L997.149 468.593L998.948 473.311L1000.82 478.064L1002.75 482.858L1004.74 487.698L1006.79 492.587L1008.87 497.53L1011 502.532L1013.14 507.595L1015.31 512.723L1017.48 517.918L1019.65 523.184L1021.81 528.523L1023.95 533.937L1026.05 539.426L1028.12 544.993L1030.13 550.638L1032.08 556.362L1033.96 562.165L1035.76 568.045L1037.47 574.004L1039.09 580.039L1040.59 586.149L1041.98 592.333L1043.23 598.588L1044.35 604.911L1045.32 611.299L1046.14 617.749L1046.79 624.257L1047.26 630.819L1047.55 637.43L1047.66 644.084L1047.56 650.778L1047.26 657.505L1046.74 664.259L1046.01 671.034L1045.05 677.823L1043.86 684.62L1042.44 691.419L1040.78 698.211L1038.88 704.991L1036.74 711.749L1034.34 718.48L1031.7 725.176L1028.82 731.829L1025.68 738.432L1022.29 744.977L1018.66 751.457L1014.78 757.865L1010.66 764.194L1006.3 770.437L1001.7 776.586L996.865 782.636L991.804 788.58L986.52 794.412L981.019 800.126L975.306 805.716L969.387 811.177L963.271 816.505L956.963 821.694L950.472 826.74L943.806 831.64L936.971 836.39L929.978 840.987L922.834 845.428L915.549 849.711L908.133 853.836L900.597 857.802L892.952 861.612L885.208 865.266L877.377 868.768L869.469 872.12L861.497 875.327L853.471 878.395L845.4 881.327L837.296 884.131L829.168 886.813L821.025 889.379L812.875 891.838L804.726 894.196L796.585 896.461L788.458 898.641L780.352 900.744L772.27 902.778L764.218 904.75L756.198 906.669L748.212 908.541L740.264 910.374L732.354 912.175L724.482 913.95L716.648 915.706L708.852 917.446L701.092 919.178L693.367 920.904L685.674 922.629L678.01 924.356L670.372 926.087L662.758 927.824L655.163 929.568L647.584 931.319L640.017 933.078L632.458 934.842L624.904 936.611L617.35 938.382L609.794 940.152L602.231 941.918L594.659 943.675L587.074 945.42L579.475 947.148L571.859 948.852L564.224 950.528L556.568 952.169L548.892 953.769L541.193 955.321L533.473 956.818L525.731 958.255L517.969 959.624L510.187 960.917L502.387 962.129L494.573 963.253L486.745 964.281L478.907 965.208L471.063 966.027L463.217 966.732L455.372 967.318L447.533 967.779L439.704 968.111L431.891 968.309L424.098 968.368L416.331 968.285L408.595 968.056L400.896 967.68L393.239 967.152L385.63 966.472L378.074 965.638L370.577 964.649L363.145 963.504L355.781 962.203L348.493 960.746L341.285 959.135L334.162 957.37L327.128 955.453L320.187 953.386L313.344 951.172L306.602 948.815L299.964 946.318L293.433 943.685L287.011 940.919L280.701 938.026L274.504 935.01L268.422 931.874L262.457 928.625L256.609 925.267L250.878 921.804L245.265 918.242L239.77 914.584L234.394 910.837L229.135 907.004L223.993 903.091L218.967 899.101L214.057 895.04L209.26 890.911L204.576 886.72L200.003 882.469L195.538 878.165L191.18 873.81L186.927 869.409L182.775 864.967L178.721 860.486L174.763 855.972L170.897 851.428L167.119 846.858L163.426 842.265L159.813 837.652L156.278 833.024L152.817 828.382L149.424 823.729L146.097 819.069L142.832 814.402L139.624 809.732L136.469 805.059L133.363 800.387L130.303 795.715L127.284 791.047L124.302 786.382L121.354 781.721L118.434 777.067L115.54 772.418L112.668 767.775L109.813 763.138L106.973 758.508L104.143 753.884L101.321 749.265L98.5041 744.652L95.6882 740.042L92.8713 735.435L90.0507 730.83L87.2244 726.226L84.3904 721.62L81.5471 717.011L78.6933 712.397L75.8281 707.776L72.9509 703.145L70.0618 698.502L67.161 693.846L64.2492 689.172L61.3279 684.478L58.3986 679.762L55.4638 675.02L52.5261 670.25Z" fill="#23DDBF" fill-opacity="0.08"/>
</svg>
