<svg width="180" height="206" viewBox="0 0 180 206" fill="none" xmlns="http://www.w3.org/2000/svg">
<g id="Favorite illustration">
<path id="Background" d="M98.5827 179.907C143.143 179.907 179.266 143.784 179.266 99.2234C179.266 54.6632 143.143 18.54 98.5827 18.54C54.0226 18.54 17.8994 54.6632 17.8994 99.2234C17.8994 143.784 54.0226 179.907 98.5827 179.907Z" fill="#99AEF9"/>
<path id="Vector" d="M142.236 22.66H54.8759C51.6253 22.66 48.5079 24.0406 46.2094 26.4981C43.9109 28.9556 42.6196 32.2887 42.6196 35.7641V142.198H42.7694V179.574C42.7693 181.017 43.1151 182.436 43.7738 183.696C44.4325 184.955 45.3822 186.013 46.5321 186.769C47.6821 187.525 48.994 187.953 50.3426 188.012C51.6912 188.072 53.0316 187.761 54.2358 187.109L94.5316 165.269C95.6295 164.68 96.8407 164.373 98.0689 164.373C99.297 164.373 100.508 164.68 101.606 165.269L143.141 187.269C144.346 187.907 145.684 188.206 147.027 188.137C148.37 188.068 149.675 187.633 150.817 186.874C151.959 186.115 152.901 185.057 153.554 183.8C154.207 182.543 154.548 181.128 154.546 179.69L154.437 142.198V35.7277C154.428 32.2687 153.141 28.9537 150.855 26.5057C148.569 24.0578 145.471 22.6754 142.236 22.66Z" fill="#2E58EA"/>
<path id="Stroke" fill-rule="evenodd" clip-rule="evenodd" d="M125.326 148.843L56.3162 185.923L55.0161 183.504L124.026 146.424L125.326 148.843Z" fill="#011625"/>
<g id="Star">
<circle id="Ellipse" cx="98.5829" cy="78.6234" r="39.4833" fill="#002090"/>
<path id="Elipse stroke" fill-rule="evenodd" clip-rule="evenodd" d="M98.2396 46.6934C86.134 46.6934 75.7268 53.9788 71.1692 64.4099C70.8656 65.1049 70.056 65.4222 69.3609 65.1185C68.6659 64.8148 68.3487 64.0052 68.6523 63.3102C73.6312 51.9148 85.0034 43.9467 98.2396 43.9467C98.9981 43.9467 99.613 44.5616 99.613 45.32C99.613 46.0785 98.9981 46.6934 98.2396 46.6934Z" fill="white"/>
<path id="Star_2" d="M100.63 56.253L106.184 68.0222C106.348 68.3711 106.592 68.673 106.893 68.9018C107.193 69.1306 107.543 69.2795 107.911 69.3358L120.324 71.2082C120.744 71.2756 121.138 71.4636 121.463 71.7515C121.787 72.0393 122.028 72.4157 122.16 72.8386C122.292 73.2615 122.309 73.7143 122.209 74.1467C122.109 74.5791 121.897 74.9741 121.595 75.2876L112.626 84.4459C112.359 84.7175 112.16 85.0529 112.045 85.4233C111.93 85.7936 111.903 86.1877 111.967 86.5713L114.088 99.5031C114.161 99.9452 114.114 100.4 113.952 100.815C113.791 101.231 113.521 101.591 113.174 101.855C112.827 102.118 112.417 102.275 111.989 102.307C111.561 102.339 111.133 102.246 110.754 102.036L99.6516 95.9173C99.3219 95.7365 98.9553 95.642 98.5831 95.642C98.2108 95.642 97.8442 95.7365 97.5145 95.9173L86.4121 102.036C86.0328 102.244 85.6054 102.337 85.1783 102.305C84.7512 102.272 84.3413 102.115 83.9949 101.852C83.6486 101.588 83.3795 101.229 83.2181 100.814C83.0568 100.399 83.0095 99.9447 83.0818 99.5031L85.1993 86.5713C85.2629 86.1877 85.2361 85.7936 85.1213 85.4233C85.0064 85.0529 84.807 84.7175 84.5402 84.4459L75.5709 75.2876C75.2693 74.9741 75.0568 74.5791 74.9571 74.1467C74.8574 73.7143 74.8744 73.2615 75.0062 72.8386C75.138 72.4157 75.3794 72.0393 75.7036 71.7515C76.0277 71.4636 76.4219 71.2756 76.8422 71.2082L89.255 69.3235C89.6231 69.2673 89.9727 69.1184 90.2736 68.8895C90.5745 68.6607 90.8178 68.3589 90.9825 68.0099L96.5357 56.2408C96.729 55.8461 97.0228 55.5151 97.3848 55.2843C97.7468 55.0536 98.1628 54.9321 98.5867 54.9334C99.0105 54.9347 99.4258 55.0586 99.7866 55.2915C100.147 55.5244 100.439 55.8572 100.63 56.253Z" fill="#CCD7FC"/>
<g id="Shadow" filter="url(#filter0_f_2884_15849)">
<ellipse cx="98.3357" cy="122.345" rx="35.803" ry="7.67206" fill="#6B6B6B" fill-opacity="0.39"/>
</g>
</g>
<g id="Lines">
<path id="Vector_2" fill-rule="evenodd" clip-rule="evenodd" d="M27.8997 164.067C25.7697 166.81 24.5001 169.799 23.0194 172.884C22.7303 173.486 22.9855 174.208 23.5876 174.497C24.19 174.787 24.9138 174.532 25.2033 173.93C26.6073 171.005 27.7916 168.154 29.8142 165.549C30.2235 165.022 30.1267 164.261 29.5976 163.854C29.0704 163.443 28.3086 163.54 27.8997 164.067Z" fill="#011625"/>
<path id="Vector_3" fill-rule="evenodd" clip-rule="evenodd" d="M24.098 155.226C16.8529 157.631 9.30732 161.515 3.19801 166.109C2.66485 166.51 2.55851 167.269 2.96165 167.8C3.3648 168.332 4.12387 168.44 4.65703 168.039C10.5643 163.598 17.8619 159.842 24.8664 157.518C25.5001 157.307 25.8421 156.622 25.6297 155.99C25.4173 155.359 24.7317 155.014 24.098 155.226Z" fill="#011625"/>
<path id="Vector_4" fill-rule="evenodd" clip-rule="evenodd" d="M25.0744 149.512C20.7039 146.64 15.255 145.802 10.1351 145.767C9.46616 145.764 8.92162 146.301 8.91922 146.965C8.91556 147.633 9.45579 148.177 10.1231 148.183C14.7866 148.214 19.7654 148.913 23.7462 151.529C24.3046 151.896 25.0558 151.741 25.4215 151.186C25.7875 150.631 25.6324 149.879 25.0744 149.512Z" fill="#011625"/>
<circle id="Ellipse " cx="170.34" cy="35.02" r="4.12" fill="#417BA4"/>
</g>
</g>
<defs>
<filter id="filter0_f_2884_15849" x="41.8421" y="93.9828" width="112.987" height="56.7253" filterUnits="userSpaceOnUse" color-interpolation-filters="sRGB">
<feFlood flood-opacity="0" result="BackgroundImageFix"/>
<feBlend mode="normal" in="SourceGraphic" in2="BackgroundImageFix" result="shape"/>
<feGaussianBlur stdDeviation="10.3453" result="effect1_foregroundBlur_2884_15849"/>
</filter>
</defs>
</svg>
