<svg width="206" height="176" viewBox="0 0 206 176" fill="none" xmlns="http://www.w3.org/2000/svg">
<g id="Message">
<path id="Background" d="M112.27 175.207C158.347 175.207 195.7 137.854 195.7 91.7767C195.7 45.6996 158.347 8.34668 112.27 8.34668C66.1932 8.34668 28.8403 45.6996 28.8403 91.7767C28.8403 137.854 66.1932 175.207 112.27 175.207Z" fill="#99AEF9"/>
<g id="Message illustration">
<path id="Vector " d="M105.114 7.05849L39.1401 60.1485V146.023C39.1401 153.608 45.2888 159.757 52.8735 159.757H174.133C181.717 159.757 187.866 153.608 187.866 146.023V60.1485L122.369 7.08679C117.342 3.01428 110.154 3.00249 105.114 7.05849Z" fill="#002090"/>
<g id="Page">
<rect id="Page_2" x="60.6006" y="23.4151" width="106.304" height="132.332" rx="16.48" fill="#FAFBFF"/>
<path id="Title" d="M69.7471 43.3667C69.7471 41.8498 70.9768 40.62 72.4937 40.62H152.461C153.978 40.62 155.208 41.8498 155.208 43.3667C155.208 44.8836 153.978 46.1134 152.461 46.1134H72.4937C70.9768 46.1134 69.7471 44.8836 69.7471 43.3667Z" fill="#CCD7FC"/>
<path id="Text" d="M69.7471 61.22C69.7471 59.7031 70.9768 58.4734 72.4937 58.4734H152.461C153.978 58.4734 155.208 59.7031 155.208 61.22C155.208 62.737 153.978 63.9667 152.461 63.9667H72.4937C70.9768 63.9667 69.7471 62.737 69.7471 61.22Z" fill="#2E58EA"/>
<path id="Text_2" d="M69.7471 79.0734C69.7471 77.5564 70.9768 76.3267 72.4937 76.3267H152.461C153.978 76.3267 155.208 77.5564 155.208 79.0734C155.208 80.5903 153.978 81.82 152.461 81.82H72.4937C70.9768 81.82 69.7471 80.5903 69.7471 79.0734Z" fill="#2E58EA"/>
<path id="Text_3" d="M69.7471 96.9267C69.7471 95.4097 70.9768 94.18 72.4937 94.18H152.461C153.978 94.18 155.208 95.4097 155.208 96.9267C155.208 98.4436 153.978 99.6734 152.461 99.6734H72.4937C70.9768 99.6734 69.7471 98.4436 69.7471 96.9267Z" fill="#2E58EA"/>
</g>
<path id="Left Triangle " fill-rule="evenodd" clip-rule="evenodd" d="M39.1401 60.0068V146.023C39.1401 153.608 45.2888 159.757 52.8735 159.757H136.005C149.367 159.757 154.86 142.609 143.984 134.846L39.1401 60.0068Z" fill="#2E58EA"/>
<path id="Right Triangle " fill-rule="evenodd" clip-rule="evenodd" d="M187.866 60.0068V146.023C187.866 153.608 181.717 159.757 174.132 159.757H51.9712L187.866 60.0068Z" fill="#CCD7FC"/>
<path id="Stroke" fill-rule="evenodd" clip-rule="evenodd" d="M188.147 61.2997L57.0989 159.757H51.6294L186.535 59.0806L188.147 61.2997Z" fill="#002090"/>
</g>
<g id="Jump">
<path id="Vector" d="M10.4986 121.684L10.4988 121.684C13.6539 123.72 15.7093 126.534 16.7559 130.143L17.0856 130.047L16.7555 130.141C16.9324 130.761 17.5797 131.118 18.1986 130.937L18.199 130.937C18.8131 130.756 19.1702 130.108 18.9892 129.489C17.783 125.331 15.3985 122.071 11.7566 119.719L10.4986 121.684ZM10.4986 121.684C9.95966 121.336 9.80201 120.614 10.1495 120.072M10.4986 121.684L10.1495 120.072M10.1495 120.072C10.4945 119.529 11.2162 119.37 11.7565 119.719L10.1495 120.072Z" fill="#002090" stroke="#002090" stroke-width="0.686667"/>
<path id="Vector_2" d="M55.5938 131.39L55.5941 131.39C56.4003 130.978 56.6902 130.192 56.616 129.346C56.5503 128.57 56.1406 127.702 55.9175 127.305C55.4585 126.488 54.9256 125.718 54.3349 124.999C57.174 119.558 63.4658 117.343 69.024 119.895L69.0244 119.895C69.6118 120.164 70.2995 119.902 70.5678 119.318L70.5688 119.316L70.5688 119.316C70.8325 118.732 70.5792 118.039 69.9923 117.771C63.527 114.802 56.2248 117.182 52.653 123.232C52.117 122.743 51.5505 122.288 50.9613 121.867L50.9612 121.867C44.2873 117.109 34.5335 118.692 27.117 125.695L27.1169 125.695C25.924 126.822 24.994 128.468 24.2742 130.413C23.5531 132.361 23.0345 134.632 22.6781 137.032C21.9852 141.696 21.8651 146.877 21.9068 151.028C21.1194 149.156 20.2331 147.336 19.2891 145.522L19.289 145.522C18.9281 144.828 18.5676 144.131 18.206 143.432C13.8859 135.08 9.42261 126.451 2.28007 120.075L2.2791 120.074C1.79742 119.648 1.06168 119.689 0.636345 120.174C0.636139 120.174 0.635933 120.174 0.635727 120.174L0.893906 120.401C0.592232 120.741 0.625046 121.263 0.962791 121.565L55.5938 131.39ZM55.5938 131.39C54.6466 131.874 53.8425 131.84 53.2021 131.52C52.5913 131.214 52.1432 130.63 51.87 129.902L51.87 129.901M55.5938 131.39L51.87 129.901M51.87 129.901C51.6096 129.206 51.505 128.348 51.4941 127.535C51.4842 126.801 51.5505 126.08 51.6607 125.512C51.0312 124.874 50.3458 124.293 49.6149 123.772C43.8599 119.67 35.3368 121.14 28.7098 127.396C27.5998 128.445 26.7541 130.096 26.1128 132.14C25.4734 134.178 25.0478 136.571 24.7556 139.069C23.9633 145.836 24.2527 153.292 24.3894 156.812C24.4099 157.34 24.427 157.78 24.4364 158.115L24.4365 158.116M51.87 129.901L24.4365 158.116M24.4365 158.116C24.445 158.443 24.434 158.708 24.4159 158.905C24.4068 159.003 24.3957 159.087 24.3838 159.154C24.3738 159.21 24.3589 159.281 24.3338 159.34M24.4365 158.116L24.3338 159.34M24.3338 159.34C24.1183 159.853 23.7185 159.995 23.4657 160.043L23.4621 160.043C23.1055 160.107 22.8091 160.039 22.5704 159.914L22.5686 159.913C22.2433 159.741 21.9855 159.439 21.8695 159.005L21.8689 159.002C21.8072 158.764 21.7956 158.46 21.8022 158.172L21.8024 158.168C21.8043 158.111 21.8086 158.054 21.8126 158.004C21.8169 157.951 21.8207 157.907 21.8233 157.864C21.8258 157.821 21.8266 157.788 21.8255 157.762C21.825 157.749 21.8241 157.739 21.8232 157.732C21.8222 157.725 21.8214 157.723 21.8215 157.723M24.3338 159.34L21.2864 154.973C21.3248 155.085 21.3633 155.198 21.4018 155.31C21.6657 156.079 21.9289 156.847 22.1521 157.63M21.8215 157.723L22.1521 157.63M21.8215 157.723C21.8216 157.723 21.8218 157.724 21.8219 157.724L22.1521 157.63M21.8215 157.723C21.6011 156.949 21.3412 156.192 21.0772 155.422C21.0387 155.309 21.0001 155.197 20.9615 155.084L20.9613 155.083C19.9624 152.138 18.6693 149.374 17.2273 146.604L22.1455 158.18C22.1475 158.121 22.1524 158.06 22.1573 158.001C22.1686 157.862 22.1796 157.728 22.1521 157.63M53.7261 129.2C53.8146 129.435 53.9065 129.647 54.0868 129.736C54.2311 129.809 54.4082 129.755 54.6344 129.643M53.7261 129.2L54.23 129.426C54.23 129.426 54.2305 129.426 54.2315 129.426M53.7261 129.2C53.5672 128.778 53.4849 128.258 53.4578 127.737C53.6037 127.962 53.7433 128.192 53.8774 128.427M53.7261 129.2L53.8774 128.427M54.6344 129.643H54.2911C54.2911 129.613 54.2904 129.565 54.2875 129.515C54.2853 129.475 54.2822 129.442 54.2788 129.418M54.6344 129.643L54.4914 129.354L54.6115 129.328M54.6344 129.643C54.6344 129.574 54.6312 129.424 54.6115 129.328M54.2788 129.418C54.2726 129.42 54.2669 129.421 54.2614 129.422C54.2481 129.425 54.2396 129.426 54.2349 129.426M54.2788 129.418C54.2777 129.411 54.2766 129.404 54.2755 129.399C54.1977 129.042 54.009 128.663 53.8926 128.454M54.2788 129.418C54.3093 129.411 54.3484 129.397 54.399 129.374L54.1918 128.286M54.2349 129.426C54.2367 129.427 54.2383 129.428 54.2398 129.429L54.2416 129.43C54.241 129.429 54.2404 129.429 54.2397 129.429C54.236 129.427 54.2332 129.426 54.2315 129.426M54.2349 129.426C54.2216 129.418 54.1981 129.398 54.1658 129.345C54.1273 129.281 54.0917 129.197 54.0475 129.079L54.0474 129.079C53.9742 128.884 53.9181 128.663 53.8774 128.427M54.2349 129.426C54.2334 129.426 54.2323 129.426 54.2315 129.426M54.2315 129.426L53.8774 128.427M53.8774 128.427C53.8335 128.174 53.8073 127.902 53.7966 127.629C53.9337 127.844 54.0652 128.063 54.1918 128.286M53.8774 128.427C53.8825 128.436 53.8875 128.445 53.8926 128.454M53.8926 128.454C53.8924 128.454 53.8923 128.453 53.8921 128.453L54.1918 128.286M53.8926 128.454C53.8928 128.454 53.893 128.455 53.8932 128.455L54.1918 128.286M54.6115 129.328L54.4908 129.353L54.6115 129.328Z" fill="#002090" stroke="#002090" stroke-width="0.686667"/>
</g>
<g id="Lines">
<path id="Vector_3" fill-rule="evenodd" clip-rule="evenodd" d="M181.606 28.2213C182.438 24.8495 182.384 21.6024 182.483 18.1823C182.503 17.5144 181.976 16.9591 181.309 16.939C180.64 16.9189 180.083 17.446 180.063 18.1139C179.968 21.357 180.045 24.4431 179.255 27.6459C179.096 28.2937 179.493 28.9496 180.142 29.1065C180.79 29.2674 181.447 28.8691 181.606 28.2213Z" fill="#002090"/>
<path id="Vector_4" fill-rule="evenodd" clip-rule="evenodd" d="M188.673 34.7557C194.315 29.6135 199.632 22.9986 203.348 16.3194C203.672 15.7359 203.46 14.9996 202.876 14.6777C202.292 14.3558 201.554 14.565 201.23 15.1485C197.637 21.6064 192.495 28.0041 187.039 32.9733C186.546 33.4239 186.512 34.1884 186.962 34.6793C187.413 35.1702 188.179 35.2064 188.673 34.7557Z" fill="#002090"/>
<path id="Vector_5" fill-rule="evenodd" clip-rule="evenodd" d="M190.102 40.3727C195.263 41.2217 200.582 39.7732 205.275 37.7252C205.887 37.4556 206.166 36.7434 205.898 36.1358C205.63 35.5243 204.916 35.2466 204.304 35.5122C200.03 37.3791 195.197 38.7633 190.496 37.9907C189.837 37.8821 189.213 38.3287 189.105 38.9846C188.996 39.6404 189.443 40.2641 190.102 40.3727Z" fill="#002090"/>
<path id="Star" fill-rule="evenodd" clip-rule="evenodd" d="M41.0455 16.3224C41.7808 16.0605 42.5545 15.7122 43.1512 15.2081C43.8598 14.6094 44.148 13.8382 44.3416 13.0264C44.59 11.9836 44.6893 10.8726 44.9906 9.82805C45.1022 9.44013 45.3168 9.2935 45.409 9.22842C45.6418 9.06405 45.8771 9.02011 46.0986 9.03659C46.361 9.0556 46.7214 9.1549 46.9585 9.59479C46.9923 9.65775 47.0362 9.75368 47.0658 9.8851C47.0874 9.98144 47.1013 10.2827 47.1241 10.407C47.1812 10.7129 47.2289 11.0188 47.2737 11.3265C47.4229 12.3503 47.5087 13.22 47.9798 14.1606C48.6192 15.4376 49.2598 16.2189 50.1286 16.565C50.9686 16.8997 51.9731 16.8367 53.2564 16.5743C53.3785 16.5447 53.4994 16.5194 53.6189 16.4986C54.1848 16.3998 54.7256 16.7712 54.8368 17.3349C54.9479 17.8982 54.5883 18.4471 54.0276 18.5709C53.9105 18.5967 53.7952 18.6212 53.6811 18.6436C51.9469 19.0729 49.9393 20.6051 48.7726 21.9468C48.413 22.3605 47.8864 23.517 47.3494 24.2548C46.953 24.7991 46.5076 25.1578 46.1336 25.2846C45.8831 25.37 45.6718 25.3569 45.4973 25.3138C45.2437 25.2512 45.0333 25.1139 44.8719 24.8954C44.784 24.7758 44.7024 24.6157 44.6635 24.4112C44.6449 24.3127 44.6428 24.0626 44.6433 23.9493C44.5338 23.5728 44.3999 23.2052 44.3023 22.8253C44.0694 21.9189 43.6126 21.345 43.0701 20.587C42.5626 19.8775 42.0175 19.4317 41.2184 19.0759C41.1144 19.0505 40.2757 18.8451 39.9794 18.7272C39.5467 18.5544 39.3405 18.265 39.2657 18.109C39.1385 17.8445 39.1254 17.6134 39.1508 17.4207C39.1884 17.1363 39.316 16.8929 39.5425 16.6964C39.6828 16.5743 39.8924 16.4555 40.173 16.3976C40.3897 16.3524 40.9648 16.3262 41.0455 16.3224ZM45.9663 14.8451C46.0052 14.9318 46.0466 15.0188 46.0905 15.1067C47.0269 16.977 48.0741 18.0211 49.3468 18.5278L49.3895 18.5443C48.538 19.1764 47.7673 19.883 47.1782 20.5603C46.9357 20.8392 46.6145 21.4186 46.2676 22.0127C45.9524 20.988 45.4368 20.2637 44.7886 19.3573C44.2934 18.6656 43.7745 18.145 43.1368 17.7207C43.6317 17.4668 44.1036 17.1693 44.5148 16.8219C45.1994 16.2434 45.6519 15.5732 45.9663 14.8451Z" fill="#417BA4"/>
</g>
</g>
</svg>
