<svg width="206" height="206" viewBox="0 0 206 206" fill="none" xmlns="http://www.w3.org/2000/svg">
<g id="Illustrations" clip-path="url(#clip0_2768_20082)">
<path id="Background" d="M107.047 203.576C154.79 203.576 193.493 161.079 193.493 108.655C193.493 56.2312 154.79 13.7333 107.047 13.7333C59.3035 13.7333 20.6001 56.2312 20.6001 108.655C20.6001 161.079 59.3035 203.576 107.047 203.576Z" fill="url(#paint0_linear_2768_20082)"/>
<g id="Message illustration">
<g id="Lines">
<path id="Vector" fill-rule="evenodd" clip-rule="evenodd" d="M199.63 21.9521C201.732 16.6125 202.356 11.2827 203.27 5.70332C203.448 4.61368 202.708 3.58874 201.619 3.40919C200.528 3.22955 199.499 3.97041 199.32 5.05996C198.454 10.3505 197.901 15.4215 195.906 20.4937C195.502 21.5195 196.009 22.6809 197.037 23.0803C198.064 23.4863 199.227 22.978 199.63 21.9521Z" fill="#002090"/>
<g id="Jump">
<path id="Vector_2" d="M5.11462 159.012L5.11455 159.012C4.83431 158.147 3.90361 157.668 3.03486 157.946C2.1654 158.221 1.68595 159.151 1.96684 160.018C3.83796 165.796 7.39252 170.199 12.5875 173.331C13.3685 173.804 14.3863 173.551 14.8573 172.776L14.8576 172.776C15.3309 171.995 15.0787 170.979 14.2952 170.511C9.79473 167.798 6.73147 164.008 5.11462 159.012Z" fill="#002090" stroke="#002090"/>
<path id="Vector_3" d="M6.01355 185.301C9.85348 182.927 16.551 183.076 23.5503 184.088C33.0313 185.459 43.056 188.549 47.763 189.999C48.4668 190.216 49.0516 190.397 49.4981 190.529L6.01355 185.301ZM6.01355 185.301L6.27651 185.727C6.27654 185.727 6.27657 185.727 6.2766 185.727L6.01355 185.301ZM1.32743 217.928L1.32759 217.928C2.21754 218.562 2.85016 219.382 3.04453 220.324L1.32743 217.928ZM1.32743 217.928C0.477882 217.323 -0.647116 216.872 -1.74429 216.564M1.32743 217.928L-1.74429 216.564M-1.74429 216.564C-2.7308 216.288 -3.72703 216.118 -4.53452 216.061L-1.74429 216.564ZM49.7825 187.295L49.5281 187.725L49.7842 187.296C49.7836 187.295 49.7831 187.295 49.7825 187.295ZM-6.21123 219.535C-5.45289 220.59 -4.60471 221.585 -3.66704 222.498C-3.21038 222.943 -2.18012 223.813 -1.15068 224.182C-0.0279911 224.589 1.14945 224.48 2.0038 223.53L2.00403 223.53C3.0026 222.419 3.2494 221.313 3.04459 220.324L-6.21123 219.535ZM-21.6389 238.095C-21.6388 238.095 -21.6388 238.095 -21.6388 238.095C-21.6388 238.095 -21.6388 238.095 -21.6387 238.095L-21.146 238.011L-21.6389 238.095ZM-7.52097 216.457C-7.68697 216.499 -7.8519 216.543 -8.01574 216.589C-7.93715 216.741 -7.85698 216.892 -7.77523 217.041C-7.61009 216.996 -7.44384 216.952 -7.27649 216.911C-7.35961 216.76 -7.44111 216.609 -7.52097 216.457ZM41.899 185.336C41.4742 185.216 41.0395 185.094 40.5957 184.971C40.9523 185.248 41.3115 185.521 41.6738 185.792C42.1496 185.926 42.6131 186.059 43.0631 186.19C42.6716 185.909 42.2837 185.624 41.899 185.336ZM6.59627 145.114C6.59586 145.114 6.59546 145.114 6.59506 145.114C6.59465 145.115 6.59425 145.115 6.59385 145.115L6.81808 145.562L6.59627 145.114ZM51.0554 191.312C51.0561 191.311 51.0568 191.311 51.0575 191.311C51.0595 191.311 51.0615 191.311 51.0634 191.31L50.9874 190.816L51.0554 191.312ZM-6.14596 212.679C-6.14597 212.679 -6.14597 212.679 -6.14597 212.679L-6.61407 212.855L-6.14596 212.679ZM-0.592343 220.609L-0.59184 220.609C-0.448625 220.711 -0.347958 220.789 -0.277271 220.862C-0.223896 220.918 -0.205429 220.953 -0.198712 220.972C-0.200792 220.977 -0.204313 220.986 -0.210158 220.998C-0.211081 220.999 -0.212044 221.001 -0.213031 221.003C-0.215951 221.002 -0.218681 221.001 -0.221221 220.999C-0.6413 220.783 -1.05487 220.431 -1.30338 220.196C-1.04093 220.322 -0.800092 220.46 -0.592343 220.609Z" fill="#002090" stroke="#002090"/>
</g>
<path id="Star " d="M89.5423 25.4607C89.0247 23.3167 85.9751 23.3167 85.4576 25.4607L84.7872 28.2379C84.6022 29.0041 84.004 29.6023 83.2378 29.7873L80.4607 30.4576C78.3166 30.9752 78.3166 34.0248 80.4607 34.5424L83.2378 35.2128C84.004 35.3977 84.6022 35.9959 84.7872 36.7621L85.4576 39.5393C85.9751 41.6833 89.0247 41.6833 89.5423 39.5393L90.2127 36.7621C90.3976 35.9959 90.9959 35.3977 91.762 35.2128L94.5392 34.5424C96.6832 34.0248 96.6832 30.9752 94.5392 30.4576L91.762 29.7873C90.9959 29.6023 90.3976 29.0041 90.2127 28.2379L89.5423 25.4607Z" fill="#417BA4"/>
<circle id="Ellipse 67" cx="179" cy="173" r="6" fill="#417BA4"/>
</g>
<g id="Message illustration_2">
<path id="Vector right" d="M64.1346 94.8405C65.6511 83.4824 70.0105 72.6947 76.8062 63.4837C83.6019 54.2727 92.6124 46.9386 102.997 42.1655C113.382 37.3924 124.803 35.3359 136.194 36.1877C147.585 37.0396 158.575 40.7721 168.14 47.0371L194.199 38.1497C194.985 37.8898 195.829 37.8612 196.631 38.0672C197.433 38.2733 198.159 38.7054 198.723 39.3124C199.288 39.9194 199.668 40.676 199.818 41.4927C199.967 42.3093 199.881 43.1519 199.568 43.9207L189.118 68.9286C194.676 78.2176 197.935 88.7071 198.622 99.5192C199.31 110.331 197.406 121.151 193.07 131.074C188.733 140.996 182.091 149.732 173.698 156.55C165.306 163.368 155.407 168.07 144.832 170.263C134.256 172.456 123.31 172.075 112.911 169.153C102.512 166.23 92.9623 160.851 85.0608 153.466C77.1592 146.081 71.136 136.905 67.4952 126.705C63.8544 116.505 62.7021 105.579 64.1346 94.8405Z" fill="#002090"/>
<path id="Vector left" d="M19.5975 125.16C21.114 136.518 25.4734 147.305 32.2691 156.516C39.0648 165.727 48.0753 173.061 58.4601 177.835C68.8448 182.608 80.2655 184.664 91.6567 183.812C103.048 182.96 114.038 179.228 123.603 172.963L149.662 181.85C150.448 182.11 151.292 182.139 152.094 181.933C152.895 181.727 153.622 181.295 154.186 180.688C154.751 180.081 155.131 179.324 155.28 178.507C155.43 177.691 155.343 176.848 155.031 176.079L144.58 151.071C150.139 141.782 153.398 131.293 154.085 120.481C154.773 109.669 152.869 98.8487 148.533 88.9264C144.196 79.0042 137.554 70.2683 129.161 63.45C120.769 56.6318 110.87 51.9296 100.295 49.737C89.7187 47.5443 78.7732 47.9251 68.3742 50.8474C57.9752 53.7697 48.4252 59.1486 40.5237 66.5337C32.6221 73.9188 26.5989 83.0952 22.9581 93.2951C19.3173 103.495 18.165 114.421 19.5975 125.16Z" fill="#2E58EA"/>
<g id="Face">
<path id="Smile" fill-rule="evenodd" clip-rule="evenodd" d="M74.3679 136.037C74.3679 127.429 80.6775 121.133 87.6553 121.133C94.6332 121.133 100.943 127.429 100.943 136.037H109.943C109.943 123.212 100.325 112.133 87.6553 112.133C74.9858 112.133 65.3679 123.212 65.3679 136.037H74.3679Z" fill="white"/>
<path id="Left" d="M63.3999 111.782C67.8652 111.782 71.4851 108.162 71.4851 103.696C71.4851 99.231 67.8652 95.6111 63.3999 95.6111C58.9346 95.6111 55.3147 99.231 55.3147 103.696C55.3147 108.162 58.9346 111.782 63.3999 111.782Z" fill="white"/>
<path id="Right" d="M111.911 111.781C116.376 111.781 119.996 108.162 119.996 103.696C119.996 99.2309 116.376 95.6111 111.911 95.6111C107.446 95.6111 103.826 99.2309 103.826 103.696C103.826 108.162 107.446 111.781 111.911 111.781Z" fill="white"/>
</g>
</g>
</g>
</g>
<defs>
<linearGradient id="paint0_linear_2768_20082" x1="106.38" y1="-17.1755" x2="108.515" y2="316.172" gradientUnits="userSpaceOnUse">
<stop stop-color="#F2F2F2"/>
<stop offset="1" stop-color="#EFEFEF"/>
</linearGradient>
<clipPath id="clip0_2768_20082">
<rect width="206" height="206" fill="white"/>
</clipPath>
</defs>
</svg>
