<svg width="206" height="189" viewBox="0 0 206 189" fill="none" xmlns="http://www.w3.org/2000/svg">
<g id="Successful illustration">
<path id="Background" d="M106.777 188.147C151.337 188.147 187.46 152.024 187.46 107.463C187.46 62.9032 151.337 26.78 106.777 26.78C62.2164 26.78 26.0933 62.9032 26.0933 107.463C26.0933 152.024 62.2164 188.147 106.777 188.147Z" fill="#99AEF9"/>
<g id="Party icon">
<path id="Vector" d="M58.1368 138.707L92.0399 45.6107L163.534 121.205L80.4973 159.323C67.1958 165.429 53.1285 152.459 58.1368 138.707Z" fill="#E1DCEB"/>
<path id="Shadow" d="M137.037 75.0109C146.909 85.5283 154.865 95.9553 159.751 104.306C162.196 108.484 163.862 112.125 164.621 114.988C165 116.42 165.148 117.64 165.063 118.626C164.978 119.609 164.665 120.336 164.144 120.825C163.622 121.315 162.877 121.581 161.89 121.603C160.901 121.626 159.693 121.401 158.288 120.932C155.479 119.993 151.95 118.1 147.936 115.396C139.911 109.991 130.009 101.39 120.138 90.8724C110.266 80.355 102.31 69.928 97.4237 61.5774C94.9793 57.3997 93.3132 53.7583 92.5544 50.8949C92.175 49.4629 92.0273 48.2433 92.1123 47.2575C92.197 46.2745 92.5102 45.5471 93.0314 45.0579C93.5526 44.5687 94.2983 44.3022 95.2848 44.2799C96.274 44.2575 97.4818 44.4821 98.8868 44.9515C101.696 45.8901 105.225 47.7834 109.24 50.4875C117.264 55.8926 127.166 64.4935 137.037 75.0109Z" fill="#002090" stroke="#002090" stroke-width="0.686667"/>
<g id="Mask group vector">
<mask id="mask0_2884_15708" style="mask-type:alpha" maskUnits="userSpaceOnUse" x="57" y="45" width="107" height="116">
<path id="Vector mask" d="M58.1368 138.707L92.0399 45.6107L163.534 121.205L80.4973 159.323C67.1958 165.429 53.1285 152.459 58.1368 138.707Z" fill="#E1DCEB"/>
</mask>
<g mask="url(#mask0_2884_15708)">
<path id="Line" fill-rule="evenodd" clip-rule="evenodd" d="M90.4504 107.514C76.1264 88.7556 68.8788 66.3918 66.5413 51.3774L78.0756 49.5816C80.1798 63.0966 86.8211 83.5268 99.7281 100.43C112.514 117.174 131.22 130.231 157.897 130.231V141.904C126.763 141.904 104.896 126.432 90.4504 107.514Z" fill="#002090"/>
<path id="Line_2" fill-rule="evenodd" clip-rule="evenodd" d="M91.988 103.927C77.6639 85.1681 70.4164 62.8043 68.0789 47.7899L79.6132 45.9941C81.7174 59.509 88.3587 79.9393 101.266 96.8424C114.051 113.586 132.757 126.643 159.434 126.643V138.317C128.301 138.317 106.433 122.845 91.988 103.927Z" fill="white"/>
<path id="Line_3" fill-rule="evenodd" clip-rule="evenodd" d="M73.5378 131.089C59.2138 112.331 51.9662 89.967 49.6287 74.9525L61.163 73.1568C63.2672 86.6717 69.9085 107.102 82.8155 124.005C95.6011 140.749 114.307 153.806 140.984 153.806V165.479C109.851 165.479 87.9832 150.007 73.5378 131.089Z" fill="white"/>
</g>
</g>
<g id="Check">
<circle id="Ellipse" cx="123.6" cy="146.26" r="20.6" fill="#2E58EA"/>
<path id="Check icon" fill-rule="evenodd" clip-rule="evenodd" d="M131.936 140.009C132.733 140.821 132.722 142.125 131.911 142.922L122.131 152.536C121.329 153.324 120.044 153.324 119.243 152.536L115.289 148.65C114.478 147.852 114.467 146.548 115.264 145.736C116.062 144.925 117.366 144.914 118.177 145.711L120.687 148.178L129.023 139.984C129.834 139.187 131.138 139.198 131.936 140.009Z" fill="white"/>
</g>
</g>
<g id="Doodles">
<path id="Vector_2" d="M163.883 47.9082L163.883 47.908C165.102 44.8123 165.588 41.7248 166.097 38.4888C166.184 37.9374 166.271 37.3816 166.363 36.8208L163.883 47.9082ZM163.883 47.9082C163.675 48.4366 163.076 48.6979 162.548 48.4892L162.547 48.4885C162.018 48.2832 161.757 47.6858 161.965 47.1581L161.965 47.158M163.883 47.9082L161.965 47.158M161.965 47.158C163.128 44.2025 163.587 41.2428 164.053 38.2375C164.143 37.6569 164.233 37.0745 164.329 36.4902C164.421 35.9286 164.952 35.5473 165.512 35.6397C166.074 35.7324 166.455 36.2606 166.363 36.8208L161.965 47.158Z" fill="#002090" stroke="#002090" stroke-width="0.686667"/>
<path id="Vector_3" d="M170.969 56.165L170.968 56.1653C170.502 56.4891 169.859 56.3726 169.534 55.907C169.21 55.4434 169.324 54.8032 169.791 54.4787C176.705 49.6926 183.479 43.2473 188.516 36.4953L188.517 36.4951C188.855 36.0407 189.501 35.9462 189.959 36.2847C190.415 36.6215 190.51 37.2654 190.171 37.7206C185.008 44.6407 178.06 51.2528 170.969 56.165Z" fill="#002090" stroke="#002090" stroke-width="0.686667"/>
<path id="Vector_4" d="M189.998 60.6911L189.998 60.6905C189.841 60.1456 189.27 59.8292 188.722 59.9841C183.613 61.4458 177.891 62.2947 172.627 60.6886L172.627 60.6886C172.083 60.5222 171.506 60.8294 171.341 61.3687L171.341 61.3689C171.176 61.9078 171.481 62.4848 172.025 62.6511L189.998 60.6911ZM189.998 60.6911C190.154 61.2303 189.841 61.8 189.292 61.959M189.998 60.6911L189.292 61.959M189.292 61.959C183.732 63.5474 177.608 64.3554 172.025 62.6512L189.292 61.959Z" fill="#002090" stroke="#002090" stroke-width="0.686667"/>
<circle id="Circle down" cx="172.353" cy="72.7867" r="4.12" fill="#417BA4"/>
<circle id="Circle up" cx="138.02" cy="30.2134" r="4.12" fill="#417BA4"/>
<path id="Star " d="M145.946 48.383C145.59 46.9108 143.496 46.9108 143.141 48.383L142.681 50.29C142.554 50.8161 142.143 51.2269 141.617 51.3539L139.71 51.8142C138.238 52.1696 138.238 54.2637 139.71 54.6191L141.617 55.0794C142.143 55.2064 142.554 55.6172 142.681 56.1433L143.141 58.0503C143.496 59.5225 145.59 59.5225 145.946 58.0503L146.406 56.1433C146.533 55.6172 146.944 55.2064 147.47 55.0794L149.377 54.6191C150.849 54.2637 150.849 52.1696 149.377 51.8142L147.47 51.3539C146.944 51.2269 146.533 50.8161 146.406 50.29L145.946 48.383Z" fill="#417BA4"/>
<path id="Stroke doodle" fill-rule="evenodd" clip-rule="evenodd" d="M128.383 16.6933C128.799 17.7521 128.278 18.9479 127.219 19.3642C124.197 20.5526 120.324 24.3806 117.738 29.1453C115.77 32.7721 114.814 36.4348 115.215 39.4323C116.425 37.7061 117.872 36.2902 119.552 35.3806C122.562 33.7501 125.996 33.9232 129.321 36.189C132.226 38.1688 133.411 40.9859 133.097 43.7928C132.797 46.4766 131.16 48.9027 128.939 50.4269C126.685 51.9739 123.692 52.6872 120.604 51.7417C118.854 51.2058 117.175 50.1694 115.639 48.5957C114.174 54.3007 114.227 61.4469 116.649 67.7671C117.056 68.8295 116.525 70.0208 115.462 70.4279C114.4 70.835 113.209 70.3038 112.801 69.2415C109.607 60.9062 110.022 51.3865 112.627 44.4533C112.553 44.3196 112.48 44.184 112.407 44.0467C109.667 38.873 111.307 32.3573 114.117 27.18C116.949 21.9627 121.439 17.2102 125.712 15.53C126.77 15.1137 127.966 15.6345 128.383 16.6933ZM117.253 44.0991C118.809 46.3092 120.423 47.3774 121.811 47.8023C123.558 48.3374 125.262 47.9536 126.608 47.0299C127.987 46.0833 128.854 44.6651 129.003 43.3352C129.138 42.1284 128.716 40.7623 127.001 39.5936C124.827 38.1124 123.042 38.1754 121.514 39.0033C119.99 39.8288 118.481 41.5563 117.253 44.0991Z" fill="#E3E3E3"/>
<path id="Stroke" fill-rule="evenodd" clip-rule="evenodd" d="M194.882 97.2606C173.289 89.2349 156.765 99.2145 151.421 104.859C150.118 106.236 147.945 106.296 146.568 104.992C145.191 103.688 145.131 101.515 146.435 100.138C153.221 92.9702 172.537 81.6296 197.274 90.8241C199.052 91.4847 199.957 93.4611 199.297 95.2385C198.636 97.0159 196.66 97.9212 194.882 97.2606Z" fill="#CCC6D9"/>
<path id="Vector_5" fill-rule="evenodd" clip-rule="evenodd" d="M172.915 104.475C173.397 104.299 173.904 104.065 174.295 103.725C174.76 103.322 174.949 102.802 175.076 102.256C175.238 101.553 175.303 100.805 175.501 100.102C175.574 99.8406 175.715 99.7419 175.775 99.698C175.928 99.5873 176.082 99.5578 176.227 99.5689C176.399 99.5817 176.635 99.6485 176.791 99.9448C176.813 99.9872 176.841 100.052 176.861 100.14C176.875 100.205 176.884 100.408 176.899 100.492C176.936 100.698 176.968 100.904 176.997 101.111C177.095 101.8 177.151 102.386 177.46 103.02C177.879 103.88 178.299 104.406 178.868 104.639C179.419 104.864 180.077 104.822 180.918 104.645C180.998 104.625 181.077 104.608 181.155 104.594C181.526 104.528 181.881 104.778 181.954 105.157C182.026 105.537 181.791 105.906 181.423 105.99C181.347 106.007 181.271 106.024 181.196 106.039C180.06 106.328 178.744 107.36 177.979 108.263C177.744 108.542 177.399 109.321 177.047 109.817C176.787 110.184 176.495 110.426 176.25 110.511C176.086 110.568 175.947 110.56 175.833 110.531C175.667 110.488 175.529 110.396 175.423 110.249C175.365 110.168 175.312 110.06 175.287 109.923C175.274 109.856 175.273 109.688 175.273 109.612C175.202 109.358 175.114 109.111 175.05 108.855C174.897 108.244 174.598 107.858 174.242 107.347C173.91 106.87 173.552 106.569 173.029 106.33C172.961 106.313 172.411 106.174 172.217 106.095C171.933 105.979 171.798 105.784 171.749 105.679C171.666 105.5 171.657 105.345 171.674 105.215C171.698 105.024 171.782 104.86 171.93 104.727C172.022 104.645 172.16 104.565 172.344 104.526C172.486 104.496 172.863 104.478 172.915 104.475ZM176.14 103.481C176.166 103.539 176.193 103.598 176.222 103.657C176.835 104.916 177.522 105.619 178.356 105.961L178.384 105.972C177.826 106.397 177.321 106.873 176.935 107.329C176.776 107.517 176.565 107.907 176.338 108.308C176.131 107.617 175.793 107.13 175.368 106.519C175.044 106.053 174.704 105.703 174.286 105.417C174.61 105.246 174.92 105.046 175.189 104.812C175.638 104.422 175.934 103.971 176.14 103.481Z" fill="#417BA4"/>
<g id="Jump">
<path id="Vector_6" d="M48.4282 115.291C48.3766 115.725 47.9824 116.033 47.549 115.978C47.1188 115.924 46.8092 115.527 46.8639 115.093L48.4282 115.291ZM48.4282 115.291L48.7691 115.332C48.695 115.955 48.1284 116.397 47.5061 116.319L47.5057 116.319C46.888 116.24 46.445 115.673 46.5232 115.051C47.0336 110.917 48.8005 107.456 51.9003 104.666C52.3654 104.247 53.0829 104.288 53.4982 104.756C53.9156 105.223 53.8758 105.941 53.412 106.359L53.4119 106.359C50.7306 108.771 49.211 111.752 48.769 115.333L48.4282 115.291Z" fill="#002090" stroke="#002090" stroke-width="0.686667"/>
<path id="Vector_7" d="M12.0822 122.457L12.082 122.457C11.2474 122.187 10.8498 121.479 10.7909 120.661C10.7346 119.912 10.9917 119.023 11.1431 118.612C11.4532 117.769 11.8402 116.958 12.2896 116.188C8.76752 111.468 2.46977 110.331 -2.40727 113.596L-2.40767 113.596C-2.93026 113.945 -3.63105 113.8 -3.97894 113.281L-3.98019 113.279L-3.98019 113.279C-4.32359 112.759 -4.18751 112.054 -3.66536 111.705C2.01865 107.9 9.31277 109.041 13.6318 114.232C14.0634 113.69 14.5283 113.175 15.0198 112.69L15.0199 112.69C20.6334 107.149 30.1396 107.165 38.2509 112.681L38.2509 112.681C39.5574 113.57 40.6926 114.992 41.6731 116.729C42.6555 118.469 43.4948 120.546 44.1994 122.77C45.5617 127.067 46.4643 131.936 47.0585 135.871C47.5172 133.996 48.0747 132.155 48.6867 130.31L48.6867 130.31C48.9234 129.596 49.1592 128.88 49.3957 128.161C52.2206 119.575 55.1401 110.702 60.9471 103.559L60.9479 103.558C61.3445 103.074 62.0575 103 62.5409 103.399C63.0259 103.797 63.0941 104.512 62.7015 104.996L62.7014 104.996C57.139 111.841 54.3439 120.351 51.5924 128.728C51.3399 129.497 51.0877 130.265 50.8338 131.03L50.8338 131.03C49.8883 133.879 49.0832 136.699 48.585 139.646L48.5849 139.647C48.5655 139.76 48.546 139.873 48.5266 139.985C48.3936 140.756 48.2627 141.515 48.1716 142.282C48.1717 142.282 48.1717 142.282 48.1716 142.282C48.1716 142.283 48.171 142.293 48.1737 142.316C48.1767 142.341 48.1823 142.372 48.1912 142.411C48.1983 142.443 48.2061 142.475 48.2151 142.511C48.2175 142.521 48.22 142.532 48.2226 142.542C48.2342 142.589 48.247 142.643 48.2576 142.698L48.2583 142.701C48.3088 142.974 48.3444 143.266 48.322 143.503L48.3218 143.506C48.2777 143.939 48.0773 144.269 47.7918 144.484L47.7901 144.485C47.5805 144.641 47.3068 144.753 46.9554 144.746L46.9517 144.746C46.702 144.739 46.2955 144.664 46.0096 144.205C45.9759 144.152 45.9505 144.086 45.9326 144.034C45.9108 143.972 45.8875 143.894 45.8638 143.802C45.8164 143.617 45.7654 143.367 45.7234 143.054L45.7233 143.053C45.6811 142.733 45.6302 142.314 45.569 141.809C45.1613 138.447 44.298 131.328 42.5134 125.028C41.8548 122.702 41.0857 120.497 40.1683 118.661C39.2482 116.82 38.1948 115.385 36.984 114.561C29.7425 109.637 21.4367 109.545 16.607 114.311C15.9951 114.915 15.4353 115.569 14.9367 116.268C15.1274 116.79 15.2995 117.462 15.4019 118.158C15.5158 118.932 15.5476 119.764 15.4063 120.466L15.4062 120.466C15.2578 121.201 14.9205 121.827 14.384 122.213L12.0822 122.457ZM12.0822 122.457C13.0587 122.772 13.8213 122.618 14.3839 122.213L12.0822 122.457ZM13.0706 120.36C13.0664 120.36 13.06 120.361 13.051 120.36C13.0496 120.36 13.0481 120.36 13.0467 120.36L13.0706 120.36ZM13.0706 120.36C13.0805 120.351 13.0973 120.329 13.1171 120.28C13.1434 120.215 13.164 120.13 13.188 120.012L13.1881 120.012C13.2231 119.84 13.2423 119.65 13.2481 119.45C13.1703 119.672 13.0647 120.03 13.0468 120.354L13.0706 120.36Z" fill="#002090" stroke="#002090" stroke-width="0.686667"/>
</g>
</g>
</g>
</svg>
