<svg width="40" height="40" viewBox="0 0 40 40" fill="none" xmlns="http://www.w3.org/2000/svg">
<g id="Quote">
<path id="SHape" d="M23.528 32.704C22.9307 32.704 22.4187 32.4907 21.992 32.064C21.6507 31.6373 21.48 31.1253 21.48 30.528C21.48 29.8453 21.608 29.1627 21.864 28.48L28.648 10.944C29.0747 10.0907 29.5013 9.408 29.928 8.896C30.44 8.29867 31.2507 8 32.36 8H36.584C37.2667 8 37.7787 8.256 38.12 8.768C38.5467 9.28 38.6747 9.96267 38.504 10.816L35.688 28.992C35.6027 30.016 35.2613 30.912 34.664 31.68C34.0667 32.3627 33.1707 32.704 31.976 32.704H23.528ZM3.048 32.704C2.45067 32.704 1.93867 32.4907 1.512 32.064C1.17067 31.6373 1 31.1253 1 30.528C1 29.8453 1.128 29.1627 1.384 28.48L8.168 10.944C8.59467 10.0907 9.064 9.408 9.576 8.896C10.088 8.29867 10.856 8 11.88 8H16.104C16.7867 8 17.2987 8.256 17.64 8.768C18.0667 9.28 18.1947 9.96267 18.024 10.816L15.208 28.992C15.1227 30.016 14.7813 30.912 14.184 31.68C13.5867 32.3627 12.7333 32.704 11.624 32.704H3.048Z" fill="#4478F9"/>
</g>
</svg>
