<svg width="43" height="35" viewBox="0 0 43 35" fill="none" xmlns="http://www.w3.org/2000/svg">
<path id="&#226;&#128;&#156;" d="M9.675 0H19.565L15.5875 17.9968C17.63 19.7634 18.92 22.4132 18.92 25.3943C18.92 30.694 14.62 35 9.46 35C4.3 35 0 30.694 0 25.3943C0 23.7382 0.43 22.082 1.1825 20.7571L9.675 0ZM33.2175 0H43L39.0225 17.9968C41.065 19.7634 42.355 22.4132 42.355 25.3943C42.355 30.694 38.055 35 32.895 35C27.735 35 23.435 30.694 23.435 25.3943C23.435 23.7382 23.865 22.082 24.6175 20.7571L33.2175 0Z" fill="#2E58EA"/>
</svg>
