<svg width="25" height="24" viewBox="0 0 25 24" fill="none" xmlns="http://www.w3.org/2000/svg">
<g id="vuesax/outline/gallery-add">
<g id="gallery-add">
<path id="Vector" d="M9.5 10.75C7.98 10.75 6.75 9.52 6.75 8C6.75 6.48 7.98 5.25 9.5 5.25C11.02 5.25 12.25 6.48 12.25 8C12.25 9.52 11.02 10.75 9.5 10.75ZM9.5 6.75C8.81 6.75 8.25 7.31 8.25 8C8.25 8.69 8.81 9.25 9.5 9.25C10.19 9.25 10.75 8.69 10.75 8C10.75 7.31 10.19 6.75 9.5 6.75Z" fill="#2E58EA"/>
<path id="Vector_2" d="M15.5 22.75H9.5C4.07 22.75 1.75 20.43 1.75 15V9C1.75 3.57 4.07 1.25 9.5 1.25H13.5C13.91 1.25 14.25 1.59 14.25 2C14.25 2.41 13.91 2.75 13.5 2.75H9.5C4.89 2.75 3.25 4.39 3.25 9V15C3.25 19.61 4.89 21.25 9.5 21.25H15.5C20.11 21.25 21.75 19.61 21.75 15V10C21.75 9.59 22.09 9.25 22.5 9.25C22.91 9.25 23.25 9.59 23.25 10V15C23.25 20.43 20.93 22.75 15.5 22.75Z" fill="#2E58EA"/>
<path id="Vector_3" d="M21.75 5.75H16.25C15.84 5.75 15.5 5.41 15.5 5C15.5 4.59 15.84 4.25 16.25 4.25H21.75C22.16 4.25 22.5 4.59 22.5 5C22.5 5.41 22.16 5.75 21.75 5.75Z" fill="#2E58EA"/>
<path id="Vector_4" d="M19 8.5C18.59 8.5 18.25 8.16 18.25 7.75V2.25C18.25 1.84 18.59 1.5 19 1.5C19.41 1.5 19.75 1.84 19.75 2.25V7.75C19.75 8.16 19.41 8.5 19 8.5Z" fill="#2E58EA"/>
<path id="Vector_5" d="M3.17029 19.7001C2.93029 19.7001 2.69029 19.5801 2.55029 19.3701C2.32029 19.0301 2.41029 18.5601 2.75029 18.3301L7.68029 15.0201C8.76029 14.3001 10.2503 14.3801 11.2303 15.2101L11.5603 15.5001C12.0603 15.9301 12.9103 15.9301 13.4003 15.5001L17.5603 11.9301C18.6303 11.0201 20.2903 11.0201 21.3603 11.9301L22.9903 13.3301C23.3003 13.6001 23.3403 14.0701 23.0703 14.3901C22.8003 14.7001 22.3303 14.7401 22.0103 14.4701L20.3803 13.0701C19.8803 12.6401 19.0303 12.6401 18.5403 13.0701L14.3803 16.6401C13.3203 17.5501 11.6503 17.5501 10.5803 16.6401L10.2503 16.3501C9.79029 15.9601 9.03029 15.9201 8.52029 16.2701L3.60029 19.5801C3.46029 19.6601 3.31029 19.7001 3.17029 19.7001Z" fill="#2E58EA"/>
</g>
</g>
</svg>
