<svg width="20" height="20" viewBox="0 0 20 20" fill="none" xmlns="http://www.w3.org/2000/svg">
<path d="M7.2 18.125H4.175C2.625 18.125 1.875 17.4083 1.875 15.925V4.075C1.875 2.59167 2.625 1.875 4.175 1.875H7.2C8.75 1.875 9.5 2.59167 9.5 4.075V15.925C9.5 17.4083 8.75 18.125 7.2 18.125ZM4.175 3.125C3.275 3.125 3.125 3.35 3.125 4.075V15.925C3.125 16.65 3.26667 16.875 4.175 16.875H7.2C8.1 16.875 8.25 16.65 8.25 15.925V4.075C8.25 3.35 8.10833 3.125 7.2 3.125H4.175Z" fill="#FE5500"/>
<path d="M15.825 18.125H12.8C11.25 18.125 10.5 17.4083 10.5 15.925V4.075C10.5 2.59167 11.25 1.875 12.8 1.875H15.825C17.375 1.875 18.125 2.59167 18.125 4.075V15.925C18.125 17.4083 17.375 18.125 15.825 18.125ZM12.8 3.125C11.9 3.125 11.75 3.35 11.75 4.075V15.925C11.75 16.65 11.8917 16.875 12.8 16.875H15.825C16.725 16.875 16.875 16.65 16.875 15.925V4.075C16.875 3.35 16.7333 3.125 15.825 3.125H12.8Z" fill="#FE5500"/>
</svg>
