<svg width="32" height="32" viewBox="0 0 32 32" fill="none" xmlns="http://www.w3.org/2000/svg">
<g id="vuesax/bold/pause-circle">
<g id="pause-circle">
<path id="Vector" d="M15.96 2.66667C8.60004 2.66667 2.62671 8.64 2.62671 16C2.62671 23.36 8.60004 29.3333 15.96 29.3333C23.32 29.3333 29.2934 23.36 29.2934 16C29.2934 8.64 23.3334 2.66667 15.96 2.66667ZM14.2934 20.04C14.2934 20.68 14.0267 20.9333 13.3467 20.9333H11.6134C10.9334 20.9333 10.6667 20.68 10.6667 20.04V11.96C10.6667 11.32 10.9334 11.0667 11.6134 11.0667H13.3334C14.0134 11.0667 14.28 11.32 14.28 11.96V20.04H14.2934ZM21.3334 20.04C21.3334 20.68 21.0667 20.9333 20.3867 20.9333H18.6667C17.9867 20.9333 17.72 20.68 17.72 20.04V11.96C17.72 11.32 17.9867 11.0667 18.6667 11.0667H20.3867C21.0667 11.0667 21.3334 11.32 21.3334 11.96V20.04Z" fill="#FE5500"/>
</g>
</g>
</svg>
