<svg width="32" height="32" viewBox="0 0 32 32" fill="none" xmlns="http://www.w3.org/2000/svg">
<g id="vuesax/bold/play-circle">
<g id="play-circle">
<path id="Vector" d="M15.96 2.66667C8.6 2.66667 2.62666 8.64 2.62666 16C2.62666 23.36 8.6 29.3333 15.96 29.3333C23.32 29.3333 29.2933 23.36 29.2933 16C29.2933 8.64 23.3333 2.66667 15.96 2.66667ZM19.96 18.9733L16.0933 21.2C15.6133 21.48 15.08 21.6133 14.56 21.6133C14.0267 21.6133 13.5067 21.48 13.0267 21.2C12.0667 20.64 11.4933 19.6533 11.4933 18.5333V14.0667C11.4933 12.96 12.0667 11.96 13.0267 11.4C13.9867 10.84 15.1333 10.84 16.1067 11.4L19.9733 13.6267C20.9333 14.1867 21.5067 15.1733 21.5067 16.2933C21.5067 17.4133 20.9333 18.4133 19.96 18.9733Z" fill="#FE5500"/>
</g>
</g>
</svg>
