<svg width="20" height="20" viewBox="0 0 20 20" fill="none" xmlns="http://www.w3.org/2000/svg">
<path d="M6.5585 17.7337C5.90016 17.7337 5.27516 17.5754 4.72516 17.2587C3.42516 16.5087 2.7085 14.9837 2.7085 12.9754V7.03373C2.7085 5.01706 3.42516 3.5004 4.72516 2.7504C6.02516 2.0004 7.70016 2.14206 9.45016 3.1504L14.5918 6.11706C16.3335 7.1254 17.3002 8.50873 17.3002 10.0087C17.3002 11.5087 16.3418 12.8921 14.5918 13.9004L9.45016 16.8671C8.44183 17.4421 7.4585 17.7337 6.5585 17.7337ZM6.5585 3.51706C6.1085 3.51706 5.7085 3.61706 5.35016 3.8254C4.45016 4.34206 3.9585 5.48373 3.9585 7.03373V12.9671C3.9585 14.5171 4.45016 15.6504 5.35016 16.1754C6.25016 16.7004 7.4835 16.5504 8.82516 15.7754L13.9668 12.8087C15.3085 12.0337 16.0502 11.0421 16.0502 10.0004C16.0502 8.95873 15.3085 7.96706 13.9668 7.19206L8.82516 4.2254C8.0085 3.75873 7.24183 3.51706 6.5585 3.51706Z" fill="#FE5500"/>
</svg>
